<?xml version="1.0" encoding="utf-8"?>
<!-- Generator: Adobe Illustrator 23.0.1, SVG Export Plug-In . SVG Version: 6.00 Build 0)  -->
<svg xmlns="http://www.w3.org/2000/svg" xmlns:xlink="http://www.w3.org/1999/xlink" version="1.1" id="Layer_1" x="0px" y="0px" viewBox="0 0 100 100" style="enable-background:new 0 0 100 100;" xml:space="preserve" width="100px" height="100px">
<g>
	<circle style="fill:#EE3E54;" cx="13" cy="29" r="2"/>
	<circle style="fill:#F1BC19;" cx="77" cy="13" r="1"/>
	<circle style="fill:#F9DBD2;" cx="50" cy="50" r="37"/>
	<circle style="fill:#F1BC19;" cx="83" cy="15" r="4"/>
	<circle style="fill:#EE3E54;" cx="87" cy="24" r="2"/>
	<circle style="fill:#FBCD59;" cx="81" cy="76" r="2"/>
	<circle style="fill:#FBCD59;" cx="15" cy="63" r="4"/>
	<circle style="fill:#EE3E54;" cx="25" cy="87" r="2"/>
	<circle style="fill:#FFFFFF;" cx="18.5" cy="53.5" r="2.5"/>
	<circle style="fill:#F1BC19;" cx="21" cy="67" r="1"/>
	<circle style="fill:#FFFFFF;" cx="80" cy="34" r="1"/>
</g>
<g>
	<circle style="fill:#FDFCEE;" cx="50" cy="50" r="24"/>
	<path style="fill:#472B29;" d="M50,26.4C63,26.4,73.6,37,73.6,50S63,73.6,50,73.6S26.4,63,26.4,50S37,26.4,50,26.4 M50,25   c-13.8,0-25,11.2-25,25s11.2,25,25,25s25-11.2,25-25S63.8,25,50,25L50,25z"/>
	<circle style="fill:#EE3E54;" cx="50" cy="50" r="19.6"/>
	<path style="fill:#F06272;" d="M50,33.4c10.3,0,18.8,8,19.5,18.1c0-0.5,0.1-1,0.1-1.5c0-10.8-8.8-19.6-19.6-19.6S30.4,39.2,30.4,50   c0,0.5,0,1,0.1,1.5C31.2,41.4,39.7,33.4,50,33.4z"/>
	<path style="fill:#472B29;" d="M50,30.8c10.6,0,19.3,8.6,19.3,19.2c0,10.6-8.6,19.3-19.3,19.3c-10.6,0-19.2-8.6-19.2-19.3   C30.8,39.4,39.4,30.8,50,30.8 M50,30c-11,0-20,9-20,20c0,11,9,20,20,20c11,0,20-9,20-20S61,30,50,30L50,30z"/>
</g>
<g>
	<path style="fill:#FDFCEE;" d="M52.3,50l5.9-5.9c0.3-0.3,0.5-0.7,0.5-1.1s-0.2-0.8-0.5-1.1c-0.6-0.6-1.7-0.6-2.3,0L50,47.7   l-5.9-5.9c-0.6-0.6-1.7-0.6-2.3,0c-0.6,0.6-0.6,1.7,0,2.3l5.9,5.9l-5.9,5.9c-0.6,0.6-0.6,1.7,0,2.3c0.6,0.6,1.7,0.6,2.3,0l5.9-5.9   l5.9,5.9c0.3,0.3,0.7,0.5,1.1,0.5s0.8-0.2,1.1-0.5c0.6-0.6,0.6-1.7,0-2.3L52.3,50z"/>
	<path style="fill:#472B29;" d="M43,59c-0.5,0-1-0.2-1.4-0.6c-0.8-0.8-0.8-2,0-2.8l5.6-5.6l-5.6-5.6C41.2,44,41,43.5,41,43   s0.2-1,0.6-1.4c0.8-0.8,2.1-0.8,2.8,0l5.6,5.6l5.6-5.6c0.8-0.8,2-0.8,2.8,0C58.8,42,59,42.5,59,43s-0.2,1-0.6,1.4L52.8,50l5.6,5.6   c0.8,0.8,0.8,2,0,2.8c-0.8,0.8-2.1,0.8-2.8,0L50,52.8l-5.6,5.6C44,58.8,43.5,59,43,59z M43,41.7c-0.3,0-0.6,0.1-0.9,0.4   c-0.2,0.2-0.4,0.5-0.4,0.9s0.1,0.6,0.4,0.9l6.1,6.1l-6.1,6.1c-0.5,0.5-0.5,1.3,0,1.8c0.5,0.5,1.3,0.5,1.8,0l6.1-6.1l6.1,6.1   c0.5,0.5,1.3,0.5,1.8,0c0.5-0.5,0.5-1.3,0-1.8L51.8,50l6.1-6.1c0.2-0.2,0.4-0.6,0.4-0.9s-0.1-0.6-0.4-0.9c-0.5-0.5-1.3-0.5-1.8,0   L50,48.2l-6.1-6.1C43.6,41.9,43.3,41.7,43,41.7z"/>
</g>
</svg>
