<?xml version="1.0"?>
<svg xmlns="http://www.w3.org/2000/svg" xmlns:xlink="http://www.w3.org/1999/xlink" version="1.1" viewBox="0 0 192 192" width="100px" height="100px"><g fill="none" fill-rule="nonzero" stroke="none" stroke-width="1" stroke-linecap="butt" stroke-linejoin="miter" stroke-miterlimit="10" stroke-dasharray="" stroke-dashoffset="0" font-family="none" font-weight="none" font-size="none" text-anchor="none" style="mix-blend-mode: normal"><path d="M0,192v-192h192v192z" fill="none"/><g id="Layer_1"><g><circle cx="50" cy="50" transform="scale(1.92,1.92)" r="37" fill="#ecf0f1"/><circle cx="13" cy="29" transform="scale(1.92,1.92)" r="2" fill="#cccccc"/><circle cx="77" cy="13" transform="scale(1.92,1.92)" r="1" fill="#ecf0f1"/><circle cx="83" cy="15" transform="scale(1.92,1.92)" r="4" fill="#ecf0f1"/><circle cx="87" cy="24" transform="scale(1.92,1.92)" r="2" fill="#cccccc"/><circle cx="81" cy="76" transform="scale(1.92,1.92)" r="2" fill="#cccccc"/><circle cx="15" cy="63" transform="scale(1.92,1.92)" r="4" fill="#cccccc"/><circle cx="25" cy="87" transform="scale(1.92,1.92)" r="2" fill="#cccccc"/><circle cx="18.5" cy="53.5" transform="scale(1.92,1.92)" r="2.5" fill="#ffffff"/><circle cx="21" cy="67" transform="scale(1.92,1.92)" r="1" fill="#ecf0f1"/><circle cx="80" cy="34" transform="scale(1.92,1.92)" r="1" fill="#ffffff"/></g><g><circle cx="50" cy="50" transform="scale(1.92,1.92)" r="23.958" fill="#cccccc"/><path d="M96,50.688c24.98496,0 45.312,20.32704 45.312,45.312c0,24.98496 -20.32704,45.312 -45.312,45.312c-24.98496,0 -45.312,-20.32704 -45.312,-45.312c0,-24.98496 20.32704,-45.312 45.312,-45.312M96,48c-26.50944,0 -48,21.49056 -48,48c0,26.50944 21.49056,48 48,48c26.50944,0 48,-21.49056 48,-48c0,-26.50944 -21.49056,-48 -48,-48z" fill="#472b29"/><circle cx="50" cy="50" transform="scale(1.92,1.92)" r="19.5" fill="#ffffff"/><path d="M133.94304,90.15168c-0.08256,-0.52416 -0.57216,-0.8832 -1.09632,-0.80256c-0.52416,0.08064 -0.88512,0.57024 -0.80064,1.09632c1.78752,11.47392 -2.02368,23.19744 -10.19328,31.36128c-14.24064,14.23104 -37.4112,14.23104 -51.65184,0c-14.24064,-14.22912 -14.24064,-37.38432 0,-51.61536c14.24064,-14.22912 37.4112,-14.22912 51.65184,0c1.49376,1.49376 2.86656,3.15264 4.19712,5.07072c0.30336,0.43584 0.90048,0.54528 1.33824,0.24192c0.432,-0.2976 0.54336,-0.89856 0.24192,-1.33632c-1.39776,-2.01408 -2.84352,-3.75936 -4.41984,-5.33376c-14.98944,-14.97792 -39.3792,-14.97984 -54.37056,0c-14.98944,14.97984 -14.98944,39.35232 0,54.33216c14.98944,14.97792 39.3792,14.97984 54.37056,0c8.60352,-8.59584 12.61632,-20.9376 10.7328,-33.0144z" fill="#472b29"/><path d="M129.73248,82.16832c0.2016,0.49152 0.76416,0.72576 1.25376,0.52416c0.48768,-0.19968 0.72576,-0.76032 0.52224,-1.25184c-0.6048,-1.47072 -1.16928,-2.6784 -1.77792,-3.79584c-0.25344,-0.46656 -0.83712,-0.63744 -1.30368,-0.384c-0.08256,0.04416 -0.15744,0.10176 -0.2208,0.16512c-0.29376,0.29376 -0.37248,0.75456 -0.16512,1.13856c0.57792,1.05408 1.11552,2.20032 1.69152,3.60384z" fill="#472b29"/></g><g><path d="M78.72,92.88c-0.83328,0 -1.61664,0.32448 -2.20608,0.91392c-0.58944,0.58944 -0.91392,1.3728 -0.91392,2.20608c0,0.83328 0.32448,1.61664 0.91392,2.20608l13.44,13.44c0.58944,0.58944 1.3728,0.91392 2.20608,0.91392v0.72l0.05952,-0.72c0.8544,-0.01728 1.66848,-0.38592 2.24064,-1.00992l21.12,-23.04c0.56256,-0.6144 0.85248,-1.4112 0.81792,-2.24448c-0.03648,-0.83328 -0.39552,-1.59936 -1.008,-2.16384c-0.61632,-0.56256 -1.39776,-0.864 -2.24448,-0.81792c-0.83136,0.03648 -1.59936,0.3936 -2.16192,1.008l-18.91968,20.63808l-11.136,-11.136c-0.59136,-0.58944 -1.37472,-0.91392 -2.208,-0.91392z" fill="#cccccc"/><path d="M113.28,84v0c0.60096,0 1.17696,0.22464 1.6224,0.63168c0.47232,0.43392 0.74688,1.02336 0.77568,1.66464c0.02688,0.64128 -0.19584,1.25376 -0.62976,1.72608l-21.12,23.04c-0.43968,0.48 -1.0656,0.76416 -1.76832,0.7776c-0.64128,0 -1.24416,-0.2496 -1.69728,-0.70272l-13.44,-13.44c-0.45312,-0.45312 -0.70272,-1.056 -0.70272,-1.69728c0,-0.64128 0.2496,-1.24416 0.70464,-1.69728c0.4512,-0.45312 1.05408,-0.70272 1.69536,-0.70272c0.64128,0 1.24416,0.2496 1.69728,0.70272l10.60416,10.60416l1.06368,1.06368l1.01568,-1.10784l18.41088,-20.08512c0.45888,-0.50112 1.08672,-0.7776 1.76832,-0.7776M113.28,82.56c-1.03872,0 -2.0736,0.41856 -2.83008,1.24608l-18.41088,20.0832l-10.60416,-10.60416c-0.7488,-0.75072 -1.73184,-1.12512 -2.71488,-1.12512c-0.98304,0 -1.96608,0.3744 -2.71488,1.12512c-1.49952,1.49952 -1.49952,3.93024 0,5.42976l13.44,13.44c0.72,0.72192 1.69728,1.12512 2.71488,1.12512c0.0288,0 0.05568,0 0.08256,0c1.0464,-0.02304 2.03904,-0.47232 2.74752,-1.24416l21.12,-23.04c1.43424,-1.56288 1.32672,-3.9936 -0.23616,-5.42592c-0.73728,-0.67584 -1.66656,-1.00992 -2.59392,-1.00992z" fill="#472b29"/></g></g></g></svg>
