<?xml version="1.0" encoding="iso-8859-1"?>
<!-- Generator: Adobe Illustrator 22.1.0, SVG Export Plug-In . SVG Version: 6.00 Build 0)  -->
<svg xmlns="http://www.w3.org/2000/svg" xmlns:xlink="http://www.w3.org/1999/xlink" version="1.1" id="Layer_1" x="0px" y="0px" viewBox="0 0 100 100" style="enable-background:new 0 0 100 100;" xml:space="preserve" width="100px" height="100px">
<g>
	<g>
		<circle style="fill:#EE3E54;" cx="13" cy="29" r="2"/>
	</g>
	<g>
		<circle style="fill:#F1BC19;" cx="77" cy="13" r="1"/>
	</g>
	<g>
		<circle style="fill:#FCE0A2;" cx="50" cy="50" r="37"/>
	</g>
	<g>
		<circle style="fill:#F1BC19;" cx="83" cy="15" r="4"/>
	</g>
	<g>
		<circle style="fill:#EE3E54;" cx="87" cy="24" r="2"/>
	</g>
	<g>
		<circle style="fill:#FBCD59;" cx="81" cy="76" r="2"/>
	</g>
	<g>
		<circle style="fill:#FBCD59;" cx="15" cy="63" r="4"/>
	</g>
	<g>
		<circle style="fill:#EE3E54;" cx="25" cy="87" r="2"/>
	</g>
	<g>
		<circle style="fill:#FFFFFF;" cx="18.5" cy="53.5" r="2.5"/>
	</g>
	<g>
		<circle style="fill:#F1BC19;" cx="21" cy="67" r="1"/>
	</g>
	<g>
		<circle style="fill:#FFFFFF;" cx="80" cy="34" r="1"/>
	</g>
</g>
<g>
	<g>
		<path style="fill:#A3A3CD;" d="M63.512,47.278c-0.479,0-0.958-0.032-1.428-0.095c-0.044-1.249-0.74-2.276-1.891-2.764    l-0.131-0.056h-0.025c-0.317-0.112-0.646-0.17-0.98-0.17c-0.766,0-1.506,0.298-2.107,0.844c-0.746-0.571-1.409-1.231-1.978-1.969    c1.117-1.238,0.952-2.47,0.599-3.308c-0.497-1.154-1.44-1.791-2.739-1.854c-0.126-0.923-0.128-1.861-0.005-2.788    c1.349-0.057,2.313-0.725,2.8-1.939c0.323-0.837,0.448-2.051-0.669-3.246c0.57-0.748,1.229-1.412,1.969-1.981    c0.638,0.606,1.343,0.915,2.097,0.915c0.404,0,0.821-0.091,1.242-0.269c0.843-0.35,1.825-1.122,1.867-2.81    c0.453-0.06,0.916-0.09,1.378-0.09c0.467,0,0.94,0.03,1.413,0.092c0.047,1.833,1.156,2.6,2.11,2.92    c0.332,0.112,0.665,0.169,0.988,0.169c0.77,0,1.479-0.309,2.113-0.917c0.737,0.565,1.396,1.229,1.966,1.979    c-0.944,0.992-1.171,2.114-0.67,3.337c0.498,1.199,1.466,1.847,2.806,1.881c0.104,0.684,0.094,2.083-0.02,2.79    c-1.727,0.068-2.489,1.086-2.826,1.943c-0.32,0.819-0.45,2.022,0.642,3.229c-0.576,0.738-1.243,1.396-1.987,1.958    c-0.638-0.58-1.337-0.878-2.075-0.878c-0.47,0-0.954,0.123-1.441,0.364c-1.037,0.527-1.589,1.41-1.648,2.627    C64.424,47.25,63.964,47.278,63.512,47.278z M63.513,34.297c-1.206,0-2.188,0.981-2.188,2.188s0.981,2.188,2.188,2.188    S65.7,37.69,65.7,36.484S64.719,34.297,63.513,34.297z"/>
	</g>
	<g>
		<path style="fill:#472B29;" d="M63.51,26.4c0.253,0,0.508,0.01,0.768,0.03c0.223,1.436,1.098,2.465,2.533,2.946    c0.405,0.136,0.812,0.205,1.212,0.205c0.56,0,1.328-0.139,2.118-0.711c0.378,0.326,0.731,0.682,1.059,1.068    c-0.785,1.086-0.936,2.339-0.413,3.614c0.523,1.258,1.506,2.039,2.81,2.251c0.023,0.463,0.018,1.048-0.011,1.51    c-1.342,0.228-2.337,1.034-2.845,2.326c-0.474,1.212-0.332,2.415,0.396,3.472c-0.336,0.385-0.699,0.744-1.09,1.074    c-0.646-0.453-1.341-0.682-2.075-0.682c-0.579,0-1.168,0.147-1.764,0.443c-0.79,0.401-1.7,1.171-1.959,2.606    c-0.246,0.018-0.492,0.026-0.736,0.026c-0.267,0-0.534-0.011-0.797-0.031c-0.238-1.242-1.052-2.266-2.248-2.772l-0.261-0.111    h-0.051c-0.355-0.113-0.723-0.17-1.096-0.17c-0.749,0-1.474,0.229-2.101,0.649c-0.39-0.333-0.753-0.695-1.087-1.081    c0.747-1.084,0.873-2.326,0.342-3.582c-0.521-1.209-1.479-1.971-2.744-2.203c-0.04-0.504-0.041-1.012-0.003-1.524    c1.316-0.232,2.299-1.036,2.817-2.33c0.475-1.232,0.32-2.446-0.424-3.492c0.325-0.381,0.679-0.738,1.065-1.071    c0.647,0.47,1.35,0.708,2.1,0.708c0.498,0,1.007-0.109,1.506-0.32c1.262-0.524,2.037-1.509,2.247-2.821    C63.02,26.409,63.265,26.4,63.51,26.4 M63.513,39.372c1.592,0,2.887-1.295,2.887-2.887s-1.295-2.887-2.887-2.887    c-1.592,0-2.887,1.295-2.887,2.887S61.92,39.372,63.513,39.372 M63.51,25c-0.608,0-1.212,0.049-1.808,0.146    c-0.165,0.029-0.28,0.172-0.273,0.338c0.057,1.236-0.417,2.048-1.437,2.472c-0.335,0.142-0.658,0.213-0.969,0.213    c-0.65,0-1.251-0.31-1.819-0.932c-0.066-0.07-0.155-0.107-0.244-0.107c-0.066,0-0.132,0.021-0.188,0.064    c-0.992,0.719-1.861,1.595-2.573,2.587c-0.093,0.129-0.079,0.316,0.043,0.431c0.884,0.819,1.121,1.703,0.733,2.709    c-0.403,1.007-1.168,1.504-2.34,1.504c-0.041,0-0.083-0.001-0.125-0.002c-0.005,0-0.009,0-0.014,0    c-0.159,0-0.296,0.12-0.317,0.281c-0.194,1.193-0.194,2.414,0.007,3.629c0.029,0.158,0.165,0.273,0.323,0.273    c0.034-0.001,0.069-0.001,0.103-0.001c1.149,0,1.9,0.475,2.312,1.431c0.431,1.02,0.208,1.926-0.668,2.766    c-0.115,0.108-0.137,0.295-0.043,0.424c0.719,0.992,1.588,1.854,2.573,2.565c0.014,0.014,0.036,0.022,0.057,0.029    c0.038,0.017,0.081,0.025,0.124,0.025c0.086,0,0.176-0.032,0.243-0.089c0.029-0.022,0.05-0.043,0.065-0.057    c0.505-0.525,1.141-0.802,1.782-0.802c0.281,0,0.562,0.053,0.834,0.163c0.007,0,0.022,0.007,0.029,0.007    c0.934,0.395,1.48,1.25,1.466,2.292c0,0.194,0.072,0.438,0.431,0.496c0.562,0.084,1.128,0.126,1.694,0.126    c0.541,0,1.081-0.038,1.619-0.112c0.043-0.014,0.093-0.021,0.137-0.029l0.043-0.007c0.151-0.029,0.266-0.172,0.266-0.331    c-0.022-1.114,0.388-1.861,1.265-2.307c0.39-0.194,0.766-0.291,1.13-0.291c0.635,0,1.234,0.296,1.809,0.895    c0.064,0.064,0.149,0.097,0.234,0.097c0.067,0,0.133-0.02,0.19-0.061c0.999-0.711,1.868-1.574,2.587-2.551    c0.093-0.129,0.079-0.316-0.043-0.431c-0.862-0.826-1.092-1.71-0.704-2.702c0.398-1.013,1.177-1.503,2.362-1.503    c0.034,0,0.068,0,0.102,0.001c0.005,0,0.01,0,0.015,0c0.144,0,0.267-0.098,0.308-0.23c0.23-0.754,0.244-3.061,0.014-3.737    c-0.042-0.132-0.17-0.223-0.308-0.223c-0.005,0-0.01,0-0.016,0c-0.058,0.002-0.115,0.004-0.172,0.004    c-1.119,0-1.868-0.477-2.271-1.448c-0.424-1.035-0.187-1.94,0.733-2.788c0.122-0.115,0.144-0.302,0.05-0.431    c-0.719-1.006-1.588-1.883-2.58-2.594c-0.058-0.042-0.124-0.063-0.19-0.063c-0.09,0-0.179,0.039-0.241,0.114    c-0.554,0.617-1.165,0.93-1.828,0.93c-0.248,0-0.504-0.044-0.766-0.132c-1.157-0.388-1.689-1.222-1.631-2.565    c0.007-0.172-0.115-0.316-0.28-0.338C64.731,25.049,64.118,25,63.51,25L63.51,25z M63.513,37.972    c-0.823,0-1.487-0.664-1.487-1.487c0-0.823,0.664-1.487,1.487-1.487S65,35.661,65,36.485C65,37.308,64.336,37.972,63.513,37.972    L63.513,37.972z"/>
	</g>
</g>
<g>
	<path style="fill:#7777AB;" d="M63.513,31.08c-2.98,0-5.405,2.426-5.405,5.405s2.426,5.405,5.405,5.405   c2.98,0,5.405-2.426,5.405-5.405c0-1.118-0.342-2.158-0.926-3.021c-0.223-0.329-0.481-0.633-0.77-0.906   c-0.348-0.329-0.739-0.612-1.164-0.84c-0.383-0.205-0.793-0.366-1.224-0.475C64.412,31.136,63.969,31.08,63.513,31.08z    M63.513,33.998c1.368,0,2.487,1.119,2.487,2.487s-1.119,2.487-2.487,2.487c-1.368,0-2.487-1.119-2.487-2.487   S62.145,33.998,63.513,33.998z"/>
</g>
<g>
	<g>
		<path style="fill:#A3A3CD;" d="M36.69,75.195c-1.492-0.364-2.993-0.974-4.397-1.804c0.734-1.844,0.434-3.431-0.892-4.729    c-0.824-0.797-1.761-1.199-2.786-1.199c-0.599,0-1.236,0.14-1.899,0.414c-0.833-1.376-1.456-2.853-1.844-4.377    c1.871-0.788,2.793-2.145,2.751-4.036c-0.043-1.825-0.985-3.114-2.804-3.834c0.376-1.566,0.979-3.048,1.796-4.429    c0.632,0.296,1.313,0.453,1.949,0.453c1.063,0,2.021-0.43,2.848-1.279c1.311-1.328,1.564-2.936,0.753-4.777    c1.361-0.829,2.836-1.448,4.394-1.847c0.753,1.885,2.071,2.846,3.918,2.846c0.13,0,0.263-0.005,0.398-0.015    c1.701-0.129,2.944-1.113,3.606-2.85c1.521,0.372,3.011,0.985,4.4,1.823c-0.798,1.878-0.524,3.495,0.813,4.814    c0.827,0.817,1.772,1.231,2.809,1.231c0.619,0,1.28-0.15,1.966-0.448c0.583,0.811,1.624,3.337,1.807,4.396    c-1.882,0.789-2.813,2.146-2.779,4.04c0.043,1.798,0.973,3.086,2.765,3.837c-0.386,1.542-1.002,3.021-1.832,4.394    c-0.61-0.265-1.271-0.408-1.883-0.408c-1.172,0-2.203,0.512-3.065,1.52c-1.079,1.251-1.276,2.735-0.584,4.414    c-0.003,0.001-0.005,0.003-0.008,0.005c-1.387,0.827-2.838,1.429-4.354,1.814c-0.734-1.709-2.208-2.723-3.987-2.723h-0.175    l-0.027,0.013C38.72,72.53,37.332,73.567,36.69,75.195z M40.541,55.764c-2.036,0-3.693,1.657-3.693,3.693s1.657,3.693,3.693,3.693    s3.693-1.657,3.693-3.693S42.577,55.764,40.541,55.764z"/>
	</g>
	<g>
		<path style="fill:#472B29;" d="M44.875,44.566c1.087,0.311,2.139,0.745,3.143,1.299c-0.774,2.373,0.183,4.014,1.184,5.003    c0.963,0.951,2.074,1.433,3.301,1.433c0.537,0,1.095-0.096,1.673-0.288c0.434,0.802,1.022,2.208,1.289,3.142    c-2.23,1.161-2.695,3.025-2.669,4.455c0.032,1.336,0.533,3.081,2.636,4.197c-0.318,1.097-0.758,2.154-1.312,3.151    c-0.543-0.163-1.07-0.246-1.575-0.246c-1.386,0-2.596,0.594-3.592,1.759c-0.81,0.939-1.57,2.465-0.916,4.564    c-1.001,0.55-2.058,0.989-3.156,1.31c-0.877-1.641-2.459-2.602-4.334-2.602l-0.374,0.007l-0.032,0.016    c-1.636,0.135-3.045,1.096-3.838,2.595c-1.096-0.311-2.155-0.744-3.157-1.289c0.696-2.327-0.264-3.938-1.262-4.916    c-0.955-0.924-2.055-1.393-3.269-1.393c-0.511,0-1.043,0.086-1.588,0.257c-0.56-1.005-1.003-2.053-1.324-3.138    c2.198-1.162,2.651-3.017,2.619-4.436c-0.032-1.362-0.543-3.13-2.678-4.212c0.305-1.093,0.733-2.149,1.277-3.154    c0.564,0.182,1.114,0.274,1.642,0.274c1.258,0,2.385-0.501,3.343-1.484c0.984-0.997,1.916-2.639,1.126-4.97    c0.986-0.55,2.034-0.99,3.134-1.316c1.123,2.218,2.927,2.711,4.309,2.711c0.146,0,0.295-0.005,0.455-0.017    C42.681,47.147,44.052,46.203,44.875,44.566 M40.541,63.85c2.422,0,4.393-1.971,4.393-4.393c0-2.422-1.971-4.393-4.393-4.393    s-4.393,1.971-4.393,4.393C36.148,61.879,38.119,63.85,40.541,63.85 M44.332,42.996c-0.199,0-0.384,0.127-0.446,0.328    c-0.554,1.586-1.579,2.447-3.06,2.559c-0.119,0.008-0.235,0.013-0.349,0.013c-1.603,0-2.69-0.839-3.332-2.572    c-0.075-0.193-0.254-0.314-0.45-0.314c-0.039,0-0.079,0.005-0.119,0.015c-1.781,0.434-3.442,1.137-4.946,2.08    c-0.209,0.127-0.284,0.389-0.18,0.614c0.778,1.639,0.606,3.008-0.539,4.168c-0.696,0.714-1.474,1.068-2.347,1.068    c-0.572,0-1.185-0.152-1.843-0.454c-0.066-0.031-0.135-0.045-0.203-0.045c-0.164,0-0.321,0.084-0.41,0.232    c-0.935,1.541-1.616,3.218-2.013,4.969c-0.06,0.232,0.067,0.479,0.299,0.561c1.669,0.606,2.492,1.676,2.529,3.262    c0.037,1.654-0.771,2.776-2.484,3.442c-0.224,0.082-0.352,0.329-0.292,0.561c0.419,1.736,1.122,3.39,2.073,4.924    c0.096,0.145,0.254,0.228,0.416,0.228c0.064,0,0.129-0.013,0.191-0.041c0.639-0.287,1.234-0.43,1.79-0.43    c0.849,0,1.608,0.334,2.295,0.999c1.16,1.137,1.377,2.484,0.666,4.13c-0.097,0.217-0.015,0.471,0.187,0.599    c1.541,0.935,3.203,1.616,4.946,2.02c0.03,0.007,0.06,0.007,0.09,0.007c0.187,0,0.382-0.127,0.464-0.299    c0.03-0.045,0.045-0.082,0.06-0.12c0.546-1.437,1.766-2.334,3.18-2.349c0.015-0.007,0.03-0.007,0.045-0.007    c1.497,0,2.716,0.853,3.292,2.275c0.093,0.217,0.273,0.46,0.627,0.46c0.073,0,0.153-0.01,0.241-0.033    c1.586-0.404,3.098-1.033,4.497-1.863c0.06-0.037,0.12-0.082,0.172-0.112l0.052-0.037c0.195-0.127,0.269-0.382,0.18-0.599    c-0.666-1.496-0.539-2.754,0.404-3.846c0.728-0.852,1.565-1.274,2.532-1.274c0.554,0,1.15,0.138,1.793,0.413    c0.059,0.024,0.121,0.036,0.182,0.036c0.164,0,0.324-0.084,0.416-0.231c0.95-1.534,1.639-3.195,2.05-4.931    c0.052-0.232-0.067-0.471-0.292-0.554c-1.646-0.636-2.462-1.706-2.499-3.27c-0.03-1.646,0.786-2.776,2.499-3.442    c0.202-0.075,0.322-0.284,0.299-0.494c-0.112-1.16-1.414-4.295-2.103-5.081c-0.093-0.103-0.226-0.158-0.358-0.158    c-0.069,0-0.139,0.015-0.203,0.046c-0.652,0.302-1.259,0.453-1.828,0.453c-0.855,0-1.621-0.342-2.318-1.03    c-1.167-1.152-1.354-2.529-0.591-4.198c0.105-0.224,0.03-0.486-0.18-0.614c-1.549-0.958-3.218-1.646-4.968-2.05    C44.409,43.001,44.37,42.996,44.332,42.996L44.332,42.996z M40.541,62.45c-1.654,0-2.993-1.339-2.993-2.993    c0-1.654,1.339-2.993,2.993-2.993s2.993,1.339,2.993,2.993C43.534,61.111,42.195,62.45,40.541,62.45L40.541,62.45z"/>
	</g>
</g>
<g>
	<path style="fill:#7777AB;" d="M40.541,49.998c-5.216,0-9.459,4.243-9.459,9.459c0,5.216,4.243,9.459,9.459,9.459   S50,64.673,50,59.457C50,54.241,45.757,49.998,40.541,49.998z M40.541,65.538c-3.351,0-6.081-2.73-6.081-6.081   c0-3.351,2.73-6.081,6.081-6.081s6.081,2.73,6.081,6.081C46.622,62.808,43.892,65.538,40.541,65.538z"/>
</g>
<g>
	<path style="fill:#472B29;" d="M41.082,69.15c-0.132,0-0.242-0.103-0.25-0.236c-0.008-0.138,0.098-0.256,0.236-0.264   c1.76-0.1,3.444-0.7,4.872-1.737c0.11-0.081,0.267-0.057,0.349,0.056c0.081,0.111,0.057,0.268-0.056,0.349   c-1.505,1.094-3.281,1.728-5.138,1.833C41.092,69.15,41.087,69.15,41.082,69.15z M39.689,69.128c-0.007,0-0.015,0-0.022-0.001   c-4.209-0.377-7.663-3.401-8.597-7.526c-0.03-0.134,0.055-0.268,0.189-0.299c0.14-0.029,0.268,0.055,0.299,0.189   c0.885,3.911,4.161,6.78,8.153,7.138c0.138,0.013,0.239,0.134,0.227,0.271C39.927,69.03,39.817,69.128,39.689,69.128z    M47.415,66.199c-0.062,0-0.123-0.022-0.172-0.068c-0.101-0.095-0.104-0.253-0.01-0.354c0.572-0.605,1.061-1.286,1.45-2.021   c0.065-0.122,0.219-0.166,0.338-0.104c0.122,0.064,0.168,0.216,0.104,0.338c-0.41,0.774-0.925,1.491-1.528,2.13   C47.548,66.173,47.481,66.199,47.415,66.199z M40.541,65.788c-3.491,0-6.331-2.84-6.331-6.331s2.84-6.331,6.331-6.331   s6.331,2.84,6.331,6.331S44.032,65.788,40.541,65.788z M40.541,53.626c-3.215,0-5.831,2.616-5.831,5.831s2.616,5.831,5.831,5.831   s5.831-2.616,5.831-5.831S43.756,53.626,40.541,53.626z M49.584,62.485c-0.024,0-0.049-0.004-0.073-0.011   c-0.132-0.041-0.206-0.181-0.166-0.313c0.269-0.873,0.405-1.783,0.405-2.705c0-3.256-1.751-6.303-4.57-7.953   c-0.119-0.069-0.159-0.223-0.09-0.342c0.069-0.121,0.225-0.161,0.342-0.09c2.973,1.739,4.818,4.952,4.818,8.385   c0,0.972-0.144,1.931-0.427,2.852C49.79,62.416,49.691,62.485,49.584,62.485z M31.082,59.707c-0.138,0-0.25-0.112-0.25-0.25   c0-5.354,4.355-9.709,9.709-9.709c0.626,0,1.252,0.06,1.86,0.179c0.136,0.026,0.224,0.157,0.197,0.293s-0.153,0.22-0.293,0.197   c-0.577-0.112-1.171-0.169-1.765-0.169c-5.078,0-9.209,4.131-9.209,9.209C31.332,59.595,31.22,59.707,31.082,59.707z    M44.394,51.068c-0.034,0-0.069-0.007-0.103-0.021c-0.313-0.141-0.636-0.265-0.959-0.367c-0.131-0.042-0.204-0.183-0.162-0.314   s0.181-0.204,0.314-0.162c0.341,0.108,0.681,0.239,1.012,0.387c0.126,0.057,0.182,0.205,0.126,0.331   C44.58,51.014,44.489,51.068,44.394,51.068z"/>
</g>
<g>
	<path style="fill:#472B29;" d="M49.947,60.02c-0.017,0-0.034-0.002-0.052-0.005l-3.353-0.706c-0.135-0.029-0.222-0.161-0.193-0.297   c0.028-0.135,0.158-0.215,0.297-0.193l3.353,0.706c0.135,0.029,0.222,0.161,0.192,0.297C50.167,59.938,50.063,60.02,49.947,60.02z"/>
</g>
<g>
	<path style="fill:#472B29;" d="M46.308,57.714c-0.138,0-0.25-0.111-0.25-0.249c0-0.139,0.111-0.251,0.249-0.251l3.426-0.012h0.001   c0.138,0,0.25,0.111,0.25,0.249c0,0.139-0.111,0.251-0.249,0.251L46.308,57.714L46.308,57.714z"/>
</g>
<g>
	<path style="fill:#472B29;" d="M68.734,37.75c-0.024,0-0.05-0.004-0.075-0.012l-3.125-0.984c-0.132-0.041-0.205-0.182-0.163-0.313   c0.041-0.131,0.177-0.204,0.313-0.163l3.125,0.984c0.132,0.041,0.205,0.182,0.163,0.313C68.939,37.682,68.841,37.75,68.734,37.75z"/>
</g>
<g>
	<path style="fill:#472B29;" d="M61.828,41.859c-0.045,0-0.091-0.012-0.131-0.037c-0.118-0.072-0.154-0.227-0.082-0.344l1.938-3.141   c0.072-0.118,0.229-0.156,0.344-0.082c0.118,0.072,0.154,0.227,0.082,0.344l-1.938,3.141   C61.993,41.817,61.912,41.859,61.828,41.859z"/>
</g>
<g>
	<path style="fill:#472B29;" d="M59.797,40.406c-0.076,0-0.151-0.035-0.201-0.101c-0.082-0.111-0.059-0.268,0.052-0.351l2.672-1.984   c0.112-0.081,0.268-0.058,0.351,0.052c0.082,0.111,0.059,0.268-0.052,0.351l-2.672,1.984   C59.901,40.391,59.849,40.406,59.797,40.406z"/>
</g>
<g>
	<path style="fill:#472B29;" d="M61.844,35.516c-0.117,0-0.221-0.082-0.245-0.2l-0.719-3.547c-0.027-0.136,0.061-0.268,0.195-0.295   c0.134-0.028,0.267,0.061,0.295,0.195l0.719,3.547c0.027,0.136-0.061,0.268-0.195,0.295C61.877,35.514,61.86,35.516,61.844,35.516z   "/>
</g>
<g>
	<path style="fill:#472B29;" d="M63.206,34.65c-0.008,0-0.017,0-0.025-0.001c-0.137-0.014-0.237-0.137-0.224-0.274l0.325-3.244   c0.015-0.137,0.125-0.244,0.274-0.224c0.137,0.014,0.237,0.137,0.224,0.274l-0.325,3.244C63.441,34.555,63.333,34.65,63.206,34.65z   "/>
</g>
<g>
	<path style="fill:#472B29;" d="M40.206,53.65c-0.018,0-0.036-0.002-0.055-0.006c-0.135-0.03-0.22-0.164-0.189-0.299l0.755-3.342   c0.03-0.135,0.16-0.22,0.299-0.189c0.135,0.03,0.22,0.164,0.189,0.299l-0.755,3.342C40.424,53.571,40.32,53.65,40.206,53.65z"/>
</g>
<g>
	<path style="fill:#472B29;" d="M36.871,54.698c-0.124,0-0.231-0.092-0.248-0.217l-0.451-3.396   c-0.018-0.137,0.078-0.263,0.215-0.281c0.145-0.01,0.264,0.079,0.281,0.215l0.451,3.396c0.018,0.137-0.078,0.263-0.215,0.281   C36.893,54.697,36.882,54.698,36.871,54.698z"/>
</g>
<g>
	<path style="fill:#472B29;" d="M38.509,53.921c-0.001,0-0.001,0-0.002,0c-0.138-0.001-0.249-0.113-0.248-0.252l0.024-3.426   c0.001-0.139,0.122-0.246,0.252-0.248c0.138,0.001,0.249,0.113,0.248,0.252l-0.024,3.426   C38.758,53.811,38.646,53.921,38.509,53.921z"/>
</g>
<g>
	<path style="fill:#472B29;" d="M45.4,56.013c-0.127,0-0.235-0.096-0.249-0.224c-0.014-0.138,0.086-0.261,0.223-0.275l3.407-0.358   c0.137-0.013,0.261,0.086,0.275,0.223c0.014,0.138-0.086,0.261-0.223,0.275l-3.407,0.358C45.418,56.013,45.409,56.013,45.4,56.013z   "/>
</g>
<g>
	<path style="fill:#472B29;" d="M37.9,68.728c-0.041,0-0.083-0.01-0.121-0.031c-0.121-0.066-0.164-0.219-0.098-0.34l1.658-2.997   c0.067-0.121,0.22-0.165,0.34-0.098c0.121,0.066,0.164,0.219,0.098,0.34l-1.658,2.997C38.073,68.681,37.988,68.728,37.9,68.728z"/>
</g>
<g>
	<path style="fill:#472B29;" d="M35.372,67.468c-0.078,0-0.155-0.037-0.204-0.105c-0.08-0.113-0.053-0.269,0.06-0.349l2.798-1.978   c0.113-0.08,0.269-0.053,0.349,0.06c0.08,0.113,0.053,0.269-0.06,0.349l-2.798,1.978C35.473,67.453,35.422,67.468,35.372,67.468z"/>
</g>
<g>
	<path style="fill:#472B29;" d="M33.526,65.967c-0.092,0-0.181-0.051-0.225-0.14c-0.061-0.123-0.01-0.273,0.114-0.335l3.072-1.517   c0.124-0.061,0.273-0.01,0.335,0.114c0.061,0.123,0.01,0.273-0.114,0.335l-3.072,1.517C33.602,65.959,33.563,65.967,33.526,65.967z   "/>
</g>
<g>
	<path style="fill:#472B29;" d="M32.333,64.292c-0.104,0-0.202-0.066-0.237-0.171c-0.044-0.131,0.027-0.272,0.158-0.316l3.25-1.084   c0.132-0.044,0.272,0.027,0.316,0.158s-0.027,0.272-0.158,0.316l-3.25,1.084C32.386,64.288,32.359,64.292,32.333,64.292z"/>
</g>
<g>
	<path style="fill:#472B29;" d="M63.514,42.14c-3.118,0-5.655-2.537-5.655-5.655c0-0.138,0.112-0.25,0.25-0.25s0.25,0.112,0.25,0.25   c0,2.843,2.313,5.155,5.155,5.155c0.813,0,1.591-0.185,2.313-0.549c0.123-0.058,0.273-0.014,0.336,0.111   c0.062,0.123,0.013,0.273-0.111,0.336C65.26,41.938,64.406,42.14,63.514,42.14z M67.214,40.671c-0.066,0-0.133-0.026-0.182-0.079   c-0.095-0.101-0.09-0.259,0.011-0.353c1.032-0.972,1.625-2.34,1.625-3.755c0-1.253-0.457-2.462-1.287-3.404   c-0.092-0.104-0.081-0.262,0.022-0.353c0.103-0.092,0.261-0.082,0.353,0.022c0.91,1.033,1.412,2.359,1.412,3.734   c0,1.552-0.649,3.053-1.783,4.118C67.337,40.648,67.275,40.671,67.214,40.671z M63.514,39.222c-1.51,0-2.737-1.228-2.737-2.737   c0-1.509,1.228-2.736,2.737-2.736c1.509,0,2.736,1.228,2.736,2.736C66.25,37.994,65.022,39.222,63.514,39.222z M63.514,34.248   c-1.233,0-2.237,1.003-2.237,2.236s1.004,2.237,2.237,2.237s2.236-1.004,2.236-2.237S64.747,34.248,63.514,34.248z M58.912,33.901   c-0.045,0-0.091-0.012-0.132-0.037c-0.117-0.073-0.153-0.227-0.081-0.345c1.041-1.684,2.841-2.689,4.814-2.689   c0.475,0,0.945,0.059,1.398,0.175c0.134,0.034,0.215,0.17,0.181,0.304c-0.035,0.134-0.172,0.213-0.304,0.181   c-0.413-0.105-0.843-0.159-1.275-0.159c-1.799,0-3.439,0.917-4.389,2.453C59.077,33.859,58.996,33.901,58.912,33.901z    M66.826,32.467c-0.054,0-0.107-0.018-0.153-0.053c-0.28-0.217-0.582-0.406-0.897-0.561c-0.124-0.062-0.175-0.211-0.114-0.335   c0.062-0.123,0.215-0.174,0.335-0.114c0.346,0.17,0.677,0.377,0.983,0.615c0.109,0.084,0.129,0.241,0.044,0.351   C66.975,32.434,66.9,32.467,66.826,32.467z"/>
</g>
</svg>
