<?xml version="1.0"?>
<svg xmlns="http://www.w3.org/2000/svg" xmlns:xlink="http://www.w3.org/1999/xlink" version="1.1" viewBox="0 0 192 192" width="100px" height="100px"><g fill="none" fill-rule="nonzero" stroke="none" stroke-width="1" stroke-linecap="butt" stroke-linejoin="miter" stroke-miterlimit="10" stroke-dasharray="" stroke-dashoffset="0" font-family="none" font-weight="none" font-size="none" text-anchor="none" style="mix-blend-mode: normal"><path d="M0,192v-192h192v192z" fill="none"/><g id="Layer_1"><g><g fill="#cccccc"><circle cx="13" cy="29" transform="scale(1.92,1.92)" r="2"/></g><g fill="#ecf0f1"><circle cx="77" cy="13" transform="scale(1.92,1.92)" r="1"/></g><g fill="#ecf0f1"><circle cx="50" cy="50" transform="scale(1.92,1.92)" r="37"/></g><g fill="#ecf0f1"><circle cx="83" cy="15" transform="scale(1.92,1.92)" r="4"/></g><g fill="#cccccc"><circle cx="87" cy="24" transform="scale(1.92,1.92)" r="2"/></g><g fill="#cccccc"><circle cx="81" cy="76" transform="scale(1.92,1.92)" r="2"/></g><g fill="#cccccc"><circle cx="15" cy="63" transform="scale(1.92,1.92)" r="4"/></g><g fill="#cccccc"><circle cx="25" cy="87" transform="scale(1.92,1.92)" r="2"/></g><g fill="#ffffff"><circle cx="18.5" cy="53.5" transform="scale(1.92,1.92)" r="2.5"/></g><g fill="#ecf0f1"><circle cx="21" cy="67" transform="scale(1.92,1.92)" r="1"/></g><g fill="#ffffff"><circle cx="80" cy="34" transform="scale(1.92,1.92)" r="1"/></g></g><g><g fill="#ecf0f1"><path d="M121.94304,90.77376c-0.91968,0 -1.83936,-0.06144 -2.74176,-0.1824c-0.08448,-2.39808 -1.4208,-4.36992 -3.63072,-5.30688l-0.25152,-0.10752h-0.048c-0.60864,-0.21504 -1.24032,-0.3264 -1.8816,-0.3264c-1.47072,0 -2.89152,0.57216 -4.04544,1.62048c-1.43232,-1.09632 -2.70528,-2.36352 -3.79776,-3.78048c2.14464,-2.37696 1.82784,-4.7424 1.15008,-6.35136c-0.95424,-2.21568 -2.7648,-3.43872 -5.25888,-3.55968c-0.24192,-1.77216 -0.24576,-3.57312 -0.0096,-5.35296c2.59008,-0.10944 4.44096,-1.392 5.376,-3.72288c0.62016,-1.60704 0.86016,-3.93792 -1.28448,-6.23232c1.0944,-1.43616 2.35968,-2.71104 3.78048,-3.80352c1.22496,1.16352 2.57856,1.7568 4.02624,1.7568c0.77568,0 1.57632,-0.17472 2.38464,-0.51648c1.61856,-0.672 3.504,-2.15424 3.58464,-5.3952c0.86976,-0.1152 1.75872,-0.1728 2.64576,-0.1728c0.89664,0 1.8048,0.0576 2.71296,0.17664c0.09024,3.51936 2.21952,4.992 4.0512,5.6064c0.63744,0.21504 1.2768,0.32448 1.89696,0.32448c1.4784,0 2.83968,-0.59328 4.05696,-1.76064c1.41504,1.0848 2.68032,2.35968 3.77472,3.79968c-1.81248,1.90464 -2.24832,4.05888 -1.2864,6.40704c0.95616,2.30208 2.81472,3.54624 5.38752,3.61152c0.19968,1.31328 0.18048,3.99936 -0.0384,5.3568c-3.31584,0.13056 -4.77888,2.08512 -5.42592,3.73056c-0.6144,1.57248 -0.864,3.88224 1.23264,6.19968c-1.10592,1.41696 -2.38656,2.68032 -3.81504,3.75936c-1.22496,-1.1136 -2.56704,-1.68576 -3.984,-1.68576c-0.9024,0 -1.83168,0.23616 -2.76672,0.69888c-1.99104,1.01184 -3.05088,2.7072 -3.16416,5.04384c-0.87936,0.11136 -1.76256,0.16512 -2.6304,0.16512zM121.94496,65.85024c-2.31552,0 -4.20096,1.88352 -4.20096,4.20096c0,2.31744 1.88352,4.20096 4.20096,4.20096c2.31744,0 4.19904,-1.88736 4.19904,-4.20288c0,-2.31552 -1.88352,-4.19904 -4.19904,-4.19904z"/></g><g fill="#666666"><path d="M121.9392,50.688c0.48576,0 0.97536,0.0192 1.47456,0.0576c0.42816,2.75712 2.10816,4.7328 4.86336,5.65632c0.7776,0.26112 1.55904,0.3936 2.32704,0.3936c1.0752,0 2.54976,-0.26688 4.06656,-1.36512c0.72576,0.62592 1.40352,1.30944 2.03328,2.05056c-1.5072,2.08512 -1.79712,4.49088 -0.79296,6.93888c1.00416,2.41536 2.89152,3.91488 5.3952,4.32192c0.04416,0.88896 0.03456,2.01216 -0.02112,2.8992c-2.57664,0.43776 -4.48704,1.98528 -5.4624,4.46592c-0.91008,2.32704 -0.63744,4.6368 0.76032,6.66624c-0.64512,0.7392 -1.34208,1.42848 -2.0928,2.06208c-1.24032,-0.86976 -2.57472,-1.30944 -3.984,-1.30944c-1.11168,0 -2.24256,0.28224 -3.38688,0.85056c-1.5168,0.76992 -3.264,2.24832 -3.76128,5.00352c-0.47232,0.03456 -0.94464,0.04992 -1.41312,0.04992c-0.51264,0 -1.02528,-0.02112 -1.53024,-0.05952c-0.45696,-2.38464 -2.01984,-4.35072 -4.31616,-5.32224l-0.50112,-0.21312h-0.09792c-0.6816,-0.21696 -1.38816,-0.3264 -2.10432,-0.3264c-1.43808,0 -2.83008,0.43968 -4.03392,1.24608c-0.7488,-0.63936 -1.44576,-1.3344 -2.08704,-2.07552c1.43424,-2.08128 1.67616,-4.46592 0.65664,-6.87744c-1.00032,-2.32128 -2.83968,-3.78432 -5.26848,-4.22976c-0.0768,-0.96768 -0.07872,-1.94304 -0.00576,-2.92608c2.52672,-0.44544 4.41408,-1.98912 5.40864,-4.4736c0.912,-2.36544 0.6144,-4.69632 -0.81408,-6.70464c0.624,-0.73152 1.30368,-1.41696 2.0448,-2.05632c1.24224,0.9024 2.592,1.35936 4.032,1.35936c0.95616,0 1.93344,-0.20928 2.89152,-0.6144c2.42304,-1.00608 3.91104,-2.89728 4.31424,-5.41632c0.46464,-0.03456 0.93504,-0.05184 1.40544,-0.05184M121.94496,75.59424c3.05664,0 5.54304,-2.4864 5.54304,-5.54304c0,-3.05664 -2.4864,-5.54304 -5.54304,-5.54304c-3.05664,0 -5.54304,2.4864 -5.54304,5.54304c0,3.05664 2.48448,5.54304 5.54304,5.54304M121.9392,48c-1.16736,0 -2.32704,0.09408 -3.47136,0.28032c-0.3168,0.05568 -0.5376,0.33024 -0.52416,0.64896c0.10944,2.37312 -0.80064,3.93216 -2.75904,4.74624c-0.6432,0.27264 -1.26336,0.40896 -1.86048,0.40896c-1.248,0 -2.40192,-0.5952 -3.49248,-1.78944c-0.12672,-0.1344 -0.2976,-0.20544 -0.46848,-0.20544c-0.12672,0 -0.25344,0.04032 -0.36096,0.12288c-1.90464,1.38048 -3.57312,3.0624 -4.94016,4.96704c-0.17856,0.24768 -0.15168,0.60672 0.08256,0.82752c1.69728,1.57248 2.15232,3.26976 1.40736,5.20128c-0.77376,1.93344 -2.24256,2.88768 -4.4928,2.88768c-0.07872,0 -0.15936,-0.00192 -0.24,-0.00384c-0.0096,0 -0.01728,0 -0.02688,0c-0.30528,0 -0.56832,0.2304 -0.60864,0.53952c-0.37248,2.29056 -0.37248,4.63488 0.01344,6.96768c0.05568,0.30336 0.3168,0.52416 0.62016,0.52416c0.06528,-0.00192 0.13248,-0.00192 0.19776,-0.00192c2.20608,0 3.648,0.912 4.43904,2.74752c0.82752,1.9584 0.39936,3.69792 -1.28256,5.31072c-0.2208,0.20736 -0.26304,0.5664 -0.08256,0.81408c1.38048,1.90464 3.04896,3.55968 4.94016,4.9248c0.02688,0.02688 0.06912,0.04224 0.10944,0.05568c0.07296,0.03264 0.15552,0.048 0.23808,0.048c0.16512,0 0.33792,-0.06144 0.46656,-0.17088c0.05568,-0.04224 0.096,-0.08256 0.1248,-0.10944c0.9696,-1.008 2.19072,-1.53984 3.42144,-1.53984c0.53952,0 1.07904,0.10176 1.60128,0.31296c0.01344,0 0.04224,0.01344 0.05568,0.01344c1.79328,0.7584 2.8416,2.4 2.81472,4.40064c0,0.37248 0.13824,0.84096 0.82752,0.95232c1.07904,0.16128 2.16576,0.24192 3.25248,0.24192c1.03872,0 2.07552,-0.07296 3.10848,-0.21504c0.08256,-0.02688 0.17856,-0.04032 0.26304,-0.05568l0.08256,-0.01344c0.28992,-0.05568 0.51072,-0.33024 0.51072,-0.63552c-0.04224,-2.13888 0.74496,-3.57312 2.4288,-4.42944c0.7488,-0.37248 1.47072,-0.55872 2.1696,-0.55872c1.2192,0 2.36928,0.56832 3.47328,1.7184c0.12288,0.12288 0.28608,0.18624 0.44928,0.18624c0.12864,0 0.25536,-0.0384 0.3648,-0.11712c1.91808,-1.36512 3.58656,-3.02208 4.96704,-4.89792c0.17856,-0.24768 0.15168,-0.60672 -0.08256,-0.82752c-1.65504,-1.58592 -2.09664,-3.2832 -1.35168,-5.18784c0.76416,-1.94496 2.25984,-2.88576 4.53504,-2.88576c0.06528,0 0.13056,0 0.19584,0.00192c0.0096,0 0.0192,0 0.0288,0c0.27648,0 0.51264,-0.18816 0.59136,-0.4416c0.4416,-1.44768 0.46848,-5.87712 0.02688,-7.17504c-0.08064,-0.25344 -0.3264,-0.42816 -0.59136,-0.42816c-0.0096,0 -0.0192,0 -0.03072,0c-0.11136,0.00384 -0.2208,0.00768 -0.33024,0.00768c-2.14848,0 -3.58656,-0.91584 -4.36032,-2.78016c-0.81408,-1.9872 -0.35904,-3.7248 1.40736,-5.35296c0.23424,-0.2208 0.27648,-0.57984 0.096,-0.82752c-1.38048,-1.93152 -3.04896,-3.61536 -4.9536,-4.98048c-0.11136,-0.08064 -0.23808,-0.12096 -0.3648,-0.12096c-0.1728,0 -0.34368,0.07488 -0.46272,0.21888c-1.06368,1.18464 -2.2368,1.7856 -3.50976,1.7856c-0.47616,0 -0.96768,-0.08448 -1.47072,-0.25344c-2.22144,-0.74496 -3.24288,-2.34624 -3.13152,-4.9248c0.01344,-0.33024 -0.2208,-0.60672 -0.5376,-0.64896c-1.17888,-0.19008 -2.35584,-0.28416 -3.5232,-0.28416zM121.94496,72.90624c-1.58016,0 -2.85504,-1.27488 -2.85504,-2.85504c0,-1.58016 1.27488,-2.85504 2.85504,-2.85504c1.58016,0 2.85504,1.27296 2.85504,2.85504c0,1.58016 -1.27488,2.85504 -2.85504,2.85504z"/></g></g><g fill="#cccccc"><path d="M121.94496,59.6736c-5.7216,0 -10.3776,4.65792 -10.3776,10.3776c0,5.71968 4.65792,10.3776 10.3776,10.3776c5.7216,0 10.3776,-4.65792 10.3776,-10.3776c0,-2.14656 -0.65664,-4.14336 -1.77792,-5.80032c-0.42816,-0.63168 -0.92352,-1.21536 -1.4784,-1.73952c-0.66816,-0.63168 -1.41888,-1.17504 -2.23488,-1.6128c-0.73536,-0.3936 -1.52256,-0.70272 -2.35008,-0.912c-0.81024,-0.20544 -1.6608,-0.31296 -2.53632,-0.31296zM121.94496,65.27616c2.62656,0 4.77504,2.14848 4.77504,4.77504c0,2.62656 -2.14848,4.77504 -4.77504,4.77504c-2.62656,0 -4.77504,-2.14848 -4.77504,-4.77504c0,-2.62656 2.14848,-4.77504 4.77504,-4.77504z"/></g><g><g fill="#ecf0f1"><path d="M70.4448,144.3744c-2.86464,-0.69888 -5.74656,-1.87008 -8.44224,-3.46368c1.40928,-3.54048 0.83328,-6.58752 -1.71264,-9.07968c-1.58208,-1.53024 -3.38112,-2.30208 -5.34912,-2.30208c-1.15008,0 -2.37312,0.2688 -3.64608,0.79488c-1.59936,-2.64192 -2.79552,-5.47776 -3.54048,-8.40384c3.59232,-1.51296 5.36256,-4.1184 5.28192,-7.74912c-0.08256,-3.504 -1.8912,-5.97888 -5.38368,-7.36128c0.72192,-3.00672 1.87968,-5.85216 3.44832,-8.50368c1.21344,0.56832 2.52096,0.86976 3.74208,0.86976c2.04096,0 3.88032,-0.8256 5.46816,-2.45568c2.51712,-2.54976 3.00288,-5.63712 1.44576,-9.17184c2.61312,-1.59168 5.44512,-2.78016 8.43648,-3.54624c1.44576,3.6192 3.97632,5.46432 7.52256,5.46432c0.2496,0 0.50496,-0.0096 0.76416,-0.0288c3.26592,-0.24768 5.65248,-2.13696 6.92352,-5.472c2.92032,0.71424 5.78112,1.8912 8.448,3.50016c-1.53216,3.60576 -1.00608,6.7104 1.56096,9.24288c1.58784,1.56864 3.40224,2.36352 5.39328,2.36352c1.18848,0 2.4576,-0.288 3.77472,-0.86016c1.11936,1.55712 3.11808,6.40704 3.46944,8.44032c-3.61344,1.51488 -5.40096,4.12032 -5.33568,7.7568c0.08256,3.45216 1.86816,5.92512 5.3088,7.36704c-0.74112,2.96064 -1.92384,5.80032 -3.51744,8.43648c-1.1712,-0.5088 -2.44032,-0.78336 -3.61536,-0.78336c-2.25024,0 -4.22976,0.98304 -5.8848,2.9184c-2.07168,2.40192 -2.44992,5.2512 -1.12128,8.47488c-0.00576,0.00192 -0.0096,0.00576 -0.01536,0.0096c-2.66304,1.58784 -5.44896,2.74368 -8.35968,3.48288c-1.40928,-3.28128 -4.23936,-5.22816 -7.65504,-5.22816h-0.336l-0.05184,0.02496c-3.12384,0.14592 -5.7888,2.13696 -7.02144,5.26272zM77.83872,107.06688c-3.90912,0 -7.09056,3.18144 -7.09056,7.09056c0,3.90912 3.18144,7.09056 7.09056,7.09056c3.90912,0 7.09056,-3.18144 7.09056,-7.09056c0,-3.90912 -3.18144,-7.09056 -7.09056,-7.09056z"/></g><g fill="#666666"><path d="M86.16,85.56672c2.08704,0.59712 4.10688,1.4304 6.03456,2.49408c-1.48608,4.55616 0.35136,7.70688 2.27328,9.60576c1.84896,1.82592 3.98208,2.75136 6.33792,2.75136c1.03104,0 2.1024,-0.18432 3.21216,-0.55296c0.83328,1.53984 1.96224,4.23936 2.47488,6.03264c-4.2816,2.22912 -5.1744,5.808 -5.12448,8.5536c0.06144,2.56512 1.02336,5.91552 5.06112,8.05824c-0.61056,2.10624 -1.45536,4.13568 -2.51904,6.04992c-1.04256,-0.31296 -2.0544,-0.47232 -3.024,-0.47232c-2.66112,0 -4.98432,1.14048 -6.89664,3.37728c-1.5552,1.80288 -3.0144,4.7328 -1.75872,8.76288c-1.92192,1.056 -3.95136,1.89888 -6.05952,2.5152c-1.68384,-3.15072 -4.72128,-4.99584 -8.32128,-4.99584l-0.71808,0.01344l-0.06144,0.03072c-3.14112,0.2592 -5.8464,2.10432 -7.36896,4.9824c-2.10432,-0.59712 -4.1376,-1.42848 -6.06144,-2.47488c1.33632,-4.46784 -0.50688,-7.56096 -2.42304,-9.43872c-1.8336,-1.77408 -3.9456,-2.67456 -6.27648,-2.67456c-0.98112,0 -2.00256,0.16512 -3.04896,0.49344c-1.0752,-1.9296 -1.92576,-3.94176 -2.54208,-6.02496c4.22016,-2.23104 5.08992,-5.79264 5.02848,-8.51712c-0.06144,-2.61504 -1.04256,-6.0096 -5.14176,-8.08704c0.5856,-2.09856 1.40736,-4.12608 2.45184,-6.05568c1.08288,0.34944 2.13888,0.52608 3.15264,0.52608c2.41536,0 4.5792,-0.96192 6.41856,-2.84928c1.88928,-1.91424 3.67872,-5.06688 2.16192,-9.5424c1.89312,-1.056 3.90528,-1.9008 6.01728,-2.52672c2.15616,4.25856 5.61984,5.20512 8.27328,5.20512c0.28032,0 0.5664,-0.0096 0.8736,-0.03264c3.36192,-0.25152 5.99424,-2.064 7.5744,-5.20704M77.83872,122.592c4.65024,0 8.43456,-3.78432 8.43456,-8.43456c0,-4.65024 -3.78432,-8.43456 -8.43456,-8.43456c-4.65024,0 -8.43456,3.78432 -8.43456,8.43456c0,4.65024 3.78432,8.43456 8.43456,8.43456M85.11744,82.55232c-0.38208,0 -0.73728,0.24384 -0.85632,0.62976c-1.06368,3.04512 -3.03168,4.69824 -5.8752,4.91328c-0.22848,0.01536 -0.4512,0.02496 -0.67008,0.02496c-3.07776,0 -5.1648,-1.61088 -6.39744,-4.93824c-0.144,-0.37056 -0.48768,-0.60288 -0.864,-0.60288c-0.07488,0 -0.15168,0.0096 -0.22848,0.0288c-3.41952,0.83328 -6.60864,2.18304 -9.49632,3.9936c-0.40128,0.24384 -0.54528,0.74688 -0.3456,1.17888c1.49376,3.14688 1.16352,5.77536 -1.03488,8.00256c-1.33632,1.37088 -2.83008,2.05056 -4.50624,2.05056c-1.09824,0 -2.2752,-0.29184 -3.53856,-0.87168c-0.12672,-0.05952 -0.2592,-0.0864 -0.38976,-0.0864c-0.31488,0 -0.61632,0.16128 -0.7872,0.44544c-1.7952,2.95872 -3.10272,6.17856 -3.86496,9.54048c-0.1152,0.44544 0.12864,0.91968 0.57408,1.07712c3.20448,1.16352 4.78464,3.21792 4.85568,6.26304c0.07104,3.17568 -1.48032,5.32992 -4.76928,6.60864c-0.43008,0.15744 -0.67584,0.63168 -0.56064,1.07712c0.80448,3.33312 2.15424,6.5088 3.98016,9.45408c0.18432,0.2784 0.48768,0.43776 0.79872,0.43776c0.12288,0 0.24768,-0.02496 0.36672,-0.07872c1.22688,-0.55104 2.36928,-0.8256 3.4368,-0.8256c1.63008,0 3.08736,0.64128 4.4064,1.91808c2.2272,2.18304 2.64384,4.76928 1.27872,7.9296c-0.18624,0.41664 -0.0288,0.90432 0.35904,1.15008c2.95872,1.7952 6.14976,3.10272 9.49632,3.8784c0.0576,0.01344 0.1152,0.01344 0.1728,0.01344c0.35904,0 0.73344,-0.24384 0.89088,-0.57408c0.0576,-0.0864 0.0864,-0.15744 0.1152,-0.2304c1.04832,-2.75904 3.39072,-4.48128 6.1056,-4.51008c0.0288,-0.01344 0.0576,-0.01344 0.0864,-0.01344c2.87424,0 5.21472,1.63776 6.32064,4.368c0.17856,0.41664 0.52416,0.8832 1.20384,0.8832c0.14016,0 0.29376,-0.0192 0.46272,-0.06336c3.04512,-0.77568 5.94816,-1.98336 8.63424,-3.57696c0.1152,-0.07104 0.2304,-0.15744 0.33024,-0.21504l0.09984,-0.07104c0.3744,-0.24384 0.51648,-0.73344 0.3456,-1.15008c-1.27872,-2.87232 -1.03488,-5.28768 0.77568,-7.38432c1.39776,-1.63584 3.0048,-2.44608 4.86144,-2.44608c1.06368,0 2.208,0.26496 3.44256,0.79296c0.11328,0.04608 0.23232,0.06912 0.34944,0.06912c0.31488,0 0.62208,-0.16128 0.79872,-0.44352c1.824,-2.94528 3.14688,-6.1344 3.936,-9.46752c0.09984,-0.44544 -0.12864,-0.90432 -0.56064,-1.06368c-3.16032,-1.22112 -4.72704,-3.27552 -4.79808,-6.2784c-0.0576,-3.16032 1.50912,-5.32992 4.79808,-6.60864c0.38784,-0.144 0.61824,-0.54528 0.57408,-0.94848c-0.21504,-2.2272 -2.71488,-8.2464 -4.03776,-9.75552c-0.17856,-0.19776 -0.43392,-0.30336 -0.68736,-0.30336c-0.13248,0 -0.26688,0.0288 -0.38976,0.08832c-1.25184,0.57984 -2.41728,0.86976 -3.50976,0.86976c-1.6416,0 -3.11232,-0.65664 -4.45056,-1.9776c-2.24064,-2.21184 -2.59968,-4.85568 -1.13472,-8.06016c0.2016,-0.43008 0.0576,-0.93312 -0.3456,-1.17888c-2.97408,-1.83936 -6.17856,-3.16032 -9.53856,-3.936c-0.07104,-0.01728 -0.14592,-0.02688 -0.21888,-0.02688zM77.83872,119.904c-3.17568,0 -5.74656,-2.57088 -5.74656,-5.74656c0,-3.17568 2.57088,-5.74656 5.74656,-5.74656c3.17568,0 5.74656,2.57088 5.74656,5.74656c0,3.17568 -2.57088,5.74656 -5.74656,5.74656z"/></g></g><g fill="#cccccc"><path d="M77.83872,95.99616c-10.01472,0 -18.16128,8.14656 -18.16128,18.16128c0,10.01472 8.14656,18.16128 18.16128,18.16128c10.01472,0 18.16128,-8.14656 18.16128,-18.16128c0,-10.01472 -8.14656,-18.16128 -18.16128,-18.16128zM77.83872,125.83296c-6.43392,0 -11.67552,-5.2416 -11.67552,-11.67552c0,-6.43392 5.2416,-11.67552 11.67552,-11.67552c6.43392,0 11.67552,5.2416 11.67552,11.67552c0,6.43392 -5.2416,11.67552 -11.67552,11.67552z"/></g><g fill="#666666"><path d="M78.87744,132.768c-0.25344,0 -0.46464,-0.19776 -0.48,-0.45312c-0.01536,-0.26496 0.18816,-0.49152 0.45312,-0.50688c3.3792,-0.192 6.61248,-1.344 9.35424,-3.33504c0.2112,-0.15552 0.51264,-0.10944 0.67008,0.10752c0.15552,0.21312 0.10944,0.51456 -0.10752,0.67008c-2.8896,2.10048 -6.29952,3.31776 -9.86496,3.51936c-0.00576,-0.00192 -0.01536,-0.00192 -0.02496,-0.00192zM76.20288,132.72576c-0.01344,0 -0.0288,0 -0.04224,-0.00192c-8.08128,-0.72384 -14.71296,-6.52992 -16.50624,-14.44992c-0.0576,-0.25728 0.1056,-0.51456 0.36288,-0.57408c0.2688,-0.05568 0.51456,0.1056 0.57408,0.36288c1.6992,7.50912 7.98912,13.0176 15.65376,13.70496c0.26496,0.02496 0.45888,0.25728 0.43584,0.52032c-0.02112,0.2496 -0.23232,0.43776 -0.47808,0.43776zM91.0368,127.10208c-0.11904,0 -0.23616,-0.04224 -0.33024,-0.13056c-0.19392,-0.1824 -0.19968,-0.48576 -0.0192,-0.67968c1.09824,-1.1616 2.03712,-2.46912 2.784,-3.88032c0.1248,-0.23424 0.42048,-0.31872 0.64896,-0.19968c0.23424,0.12288 0.32256,0.41472 0.19968,0.64896c-0.7872,1.48608 -1.776,2.86272 -2.93376,4.0896c-0.09408,0.10176 -0.22272,0.15168 -0.34944,0.15168zM77.83872,126.31296c-6.70272,0 -12.15552,-5.4528 -12.15552,-12.15552c0,-6.70272 5.4528,-12.15552 12.15552,-12.15552c6.70272,0 12.15552,5.4528 12.15552,12.15552c0,6.70272 -5.4528,12.15552 -12.15552,12.15552zM77.83872,102.96192c-6.1728,0 -11.19552,5.02272 -11.19552,11.19552c0,6.1728 5.02272,11.19552 11.19552,11.19552c6.1728,0 11.19552,-5.02272 11.19552,-11.19552c0,-6.1728 -5.02272,-11.19552 -11.19552,-11.19552zM95.20128,119.9712c-0.04608,0 -0.09408,-0.00768 -0.14016,-0.02112c-0.25344,-0.07872 -0.39552,-0.34752 -0.31872,-0.60096c0.51648,-1.67616 0.7776,-3.42336 0.7776,-5.1936c0,-6.25152 -3.36192,-12.10176 -8.7744,-15.26976c-0.22848,-0.13248 -0.30528,-0.42816 -0.1728,-0.65664c0.13248,-0.23232 0.432,-0.30912 0.65664,-0.1728c5.70816,3.33888 9.25056,9.50784 9.25056,16.0992c0,1.86624 -0.27648,3.70752 -0.81984,5.47584c-0.06336,0.20736 -0.25344,0.33984 -0.45888,0.33984zM59.67744,114.63744c-0.26496,0 -0.48,-0.21504 -0.48,-0.48c0,-10.27968 8.3616,-18.64128 18.64128,-18.64128c1.20192,0 2.40384,0.1152 3.5712,0.34368c0.26112,0.04992 0.43008,0.30144 0.37824,0.56256c-0.05184,0.26112 -0.29376,0.4224 -0.56256,0.37824c-1.10784,-0.21504 -2.24832,-0.32448 -3.3888,-0.32448c-9.74976,0 -17.68128,7.93152 -17.68128,17.68128c0.00192,0.26496 -0.21312,0.48 -0.47808,0.48zM85.23648,98.05056c-0.06528,0 -0.13248,-0.01344 -0.19776,-0.04032c-0.60096,-0.27072 -1.22112,-0.5088 -1.84128,-0.70464c-0.25152,-0.08064 -0.39168,-0.35136 -0.31104,-0.60288c0.08064,-0.25152 0.34752,-0.39168 0.60288,-0.31104c0.65472,0.20736 1.30752,0.45888 1.94304,0.74304c0.24192,0.10944 0.34944,0.3936 0.24192,0.63552c-0.08064,0.17664 -0.25536,0.28032 -0.43776,0.28032z"/></g><g fill="#666666"><path d="M95.89824,115.2384c-0.03264,0 -0.06528,-0.00384 -0.09984,-0.0096l-6.43776,-1.35552c-0.2592,-0.05568 -0.42624,-0.30912 -0.37056,-0.57024c0.05376,-0.2592 0.30336,-0.4128 0.57024,-0.37056l6.43776,1.35552c0.2592,0.05568 0.42624,0.30912 0.36864,0.57024c-0.04608,0.22272 -0.24576,0.38016 -0.46848,0.38016z"/></g><g fill="#666666"><path d="M88.91136,110.81088c-0.26496,0 -0.48,-0.21312 -0.48,-0.47808c0,-0.26688 0.21312,-0.48192 0.47808,-0.48192l6.57792,-0.02304h0.00192c0.26496,0 0.48,0.21312 0.48,0.47808c0,0.26688 -0.21312,0.48192 -0.47808,0.48192l-6.57984,0.02304z"/></g><g fill="#666666"><path d="M131.96928,72.48c-0.04608,0 -0.096,-0.00768 -0.144,-0.02304l-6,-1.88928c-0.25344,-0.07872 -0.3936,-0.34944 -0.31296,-0.60096c0.07872,-0.25152 0.33984,-0.39168 0.60096,-0.31296l6,1.88928c0.25344,0.07872 0.3936,0.34944 0.31296,0.60096c-0.06336,0.20544 -0.25152,0.336 -0.45696,0.336z"/></g><g fill="#666666"><path d="M118.70976,80.36928c-0.0864,0 -0.17472,-0.02304 -0.25152,-0.07104c-0.22656,-0.13824 -0.29568,-0.43584 -0.15744,-0.66048l3.72096,-6.03072c0.13824,-0.22656 0.43968,-0.29952 0.66048,-0.15744c0.22656,0.13824 0.29568,0.43584 0.15744,0.66048l-3.72096,6.03072c-0.09216,0.14784 -0.24768,0.22848 -0.40896,0.22848z"/></g><g fill="#666666"><path d="M114.81024,77.57952c-0.14592,0 -0.28992,-0.0672 -0.38592,-0.19392c-0.15744,-0.21312 -0.11328,-0.51456 0.09984,-0.67392l5.13024,-3.80928c0.21504,-0.15552 0.51456,-0.11136 0.67392,0.09984c0.15744,0.21312 0.11328,0.51456 -0.09984,0.67392l-5.13024,3.80928c-0.08832,0.06528 -0.18816,0.09408 -0.288,0.09408z"/></g><g fill="#666666"><path d="M118.74048,68.19072c-0.22464,0 -0.42432,-0.15744 -0.4704,-0.384l-1.38048,-6.81024c-0.05184,-0.26112 0.11712,-0.51456 0.3744,-0.5664c0.25728,-0.05376 0.51264,0.11712 0.5664,0.3744l1.38048,6.81024c0.05184,0.26112 -0.11712,0.51456 -0.3744,0.5664c-0.03264,0.00576 -0.06528,0.0096 -0.096,0.0096z"/></g><g fill="#666666"><path d="M121.35552,66.528c-0.01536,0 -0.03264,0 -0.048,-0.00192c-0.26304,-0.02688 -0.45504,-0.26304 -0.43008,-0.52608l0.624,-6.22848c0.0288,-0.26304 0.24,-0.46848 0.52608,-0.43008c0.26304,0.02688 0.45504,0.26304 0.43008,0.52608l-0.624,6.22848c-0.02688,0.2496 -0.23424,0.432 -0.47808,0.432z"/></g><g fill="#666666"><path d="M77.19552,103.008c-0.03456,0 -0.06912,-0.00384 -0.1056,-0.01152c-0.2592,-0.0576 -0.4224,-0.31488 -0.36288,-0.57408l1.4496,-6.41664c0.0576,-0.2592 0.3072,-0.4224 0.57408,-0.36288c0.2592,0.0576 0.4224,0.31488 0.36288,0.57408l-1.4496,6.41664c-0.04992,0.22272 -0.2496,0.3744 -0.46848,0.3744z"/></g><g fill="#666666"><path d="M70.79232,105.02016c-0.23808,0 -0.44352,-0.17664 -0.47616,-0.41664l-0.86592,-6.52032c-0.03456,-0.26304 0.14976,-0.50496 0.4128,-0.53952c0.2784,-0.0192 0.50688,0.15168 0.53952,0.4128l0.86592,6.52032c0.03456,0.26304 -0.14976,0.50496 -0.4128,0.53952c-0.02112,0.00192 -0.04224,0.00384 -0.06336,0.00384z"/></g><g fill="#666666"><path d="M73.93728,103.52832c-0.00192,0 -0.00192,0 -0.00384,0c-0.26496,-0.00192 -0.47808,-0.21696 -0.47616,-0.48384l0.04608,-6.57792c0.00192,-0.26688 0.23424,-0.47232 0.48384,-0.47616c0.26496,0.00192 0.47808,0.21696 0.47616,0.48384l-0.04608,6.57792c-0.00192,0.26496 -0.21696,0.47616 -0.48,0.47616z"/></g><g fill="#666666"><path d="M87.168,107.54496c-0.24384,0 -0.4512,-0.18432 -0.47808,-0.43008c-0.02688,-0.26496 0.16512,-0.50112 0.42816,-0.528l6.54144,-0.68736c0.26304,-0.02496 0.50112,0.16512 0.528,0.42816c0.02688,0.26496 -0.16512,0.50112 -0.42816,0.528l-6.54144,0.68736c-0.01536,0.00192 -0.03264,0.00192 -0.04992,0.00192z"/></g><g fill="#666666"><path d="M72.768,131.95776c-0.07872,0 -0.15936,-0.0192 -0.23232,-0.05952c-0.23232,-0.12672 -0.31488,-0.42048 -0.18816,-0.6528l3.18336,-5.75424c0.12864,-0.23232 0.4224,-0.3168 0.6528,-0.18816c0.23232,0.12672 0.31488,0.42048 0.18816,0.6528l-3.18336,5.75424c-0.08832,0.15744 -0.25152,0.24768 -0.42048,0.24768z"/></g><g fill="#666666"><path d="M67.91424,129.53856c-0.14976,0 -0.2976,-0.07104 -0.39168,-0.2016c-0.1536,-0.21696 -0.10176,-0.51648 0.1152,-0.67008l5.37216,-3.79776c0.21696,-0.1536 0.51648,-0.10176 0.67008,0.1152c0.1536,0.21696 0.10176,0.51648 -0.1152,0.67008l-5.37216,3.79776c-0.08448,0.0576 -0.1824,0.0864 -0.2784,0.0864z"/></g><g fill="#666666"><path d="M64.36992,126.65664c-0.17664,0 -0.34752,-0.09792 -0.432,-0.2688c-0.11712,-0.23616 -0.0192,-0.52416 0.21888,-0.6432l5.89824,-2.91264c0.23808,-0.11712 0.52416,-0.0192 0.6432,0.21888c0.11712,0.23616 0.0192,0.52416 -0.21888,0.6432l-5.89824,2.91264c-0.06528,0.03456 -0.14016,0.04992 -0.2112,0.04992z"/></g><g fill="#666666"><path d="M62.07936,123.44064c-0.19968,0 -0.38784,-0.12672 -0.45504,-0.32832c-0.08448,-0.25152 0.05184,-0.52224 0.30336,-0.60672l6.24,-2.08128c0.25344,-0.08448 0.52224,0.05184 0.60672,0.30336c0.08448,0.25152 -0.05184,0.52224 -0.30336,0.60672l-6.24,2.08128c-0.04992,0.01728 -0.10176,0.02496 -0.15168,0.02496z"/></g><g fill="#666666"><path d="M121.94688,80.9088c-5.98656,0 -10.8576,-4.87104 -10.8576,-10.8576c0,-0.26496 0.21504,-0.48 0.48,-0.48c0.26496,0 0.48,0.21504 0.48,0.48c0,5.45856 4.44096,9.8976 9.8976,9.8976c1.56096,0 3.05472,-0.3552 4.44096,-1.05408c0.23616,-0.11136 0.52416,-0.02688 0.64512,0.21312c0.11904,0.23616 0.02496,0.52416 -0.21312,0.64512c-1.52064,0.768 -3.16032,1.15584 -4.87296,1.15584zM129.05088,78.08832c-0.12672,0 -0.25536,-0.04992 -0.34944,-0.15168c-0.1824,-0.19392 -0.1728,-0.49728 0.02112,-0.67776c1.98144,-1.86624 3.12,-4.4928 3.12,-7.2096c0,-2.40576 -0.87744,-4.72704 -2.47104,-6.53568c-0.17664,-0.19968 -0.15552,-0.50304 0.04224,-0.67776c0.19776,-0.17664 0.50112,-0.15744 0.67776,0.04224c1.7472,1.98336 2.71104,4.52928 2.71104,7.16928c0,2.97984 -1.24608,5.86176 -3.42336,7.90656c-0.09216,0.09024 -0.2112,0.1344 -0.32832,0.1344zM121.94688,75.30624c-2.8992,0 -5.25504,-2.35776 -5.25504,-5.25504c0,-2.89728 2.35776,-5.25312 5.25504,-5.25312c2.89728,0 5.25312,2.35776 5.25312,5.25312c0,2.89728 -2.35776,5.25504 -5.25312,5.25504zM121.94688,65.75616c-2.36736,0 -4.29504,1.92576 -4.29504,4.29312c0,2.36736 1.92768,4.29504 4.29504,4.29504c2.36736,0 4.29312,-1.92768 4.29312,-4.29504c0,-2.36736 -1.92576,-4.29312 -4.29312,-4.29312zM113.11104,65.08992c-0.0864,0 -0.17472,-0.02304 -0.25344,-0.07104c-0.22464,-0.14016 -0.29376,-0.43584 -0.15552,-0.6624c1.99872,-3.23328 5.45472,-5.16288 9.24288,-5.16288c0.912,0 1.8144,0.11328 2.68416,0.336c0.25728,0.06528 0.4128,0.3264 0.34752,0.58368c-0.0672,0.25728 -0.33024,0.40896 -0.58368,0.34752c-0.79296,-0.2016 -1.61856,-0.30528 -2.448,-0.30528c-3.45408,0 -6.60288,1.76064 -8.42688,4.70976c-0.09024,0.144 -0.24576,0.22464 -0.40704,0.22464zM128.30592,62.33664c-0.10368,0 -0.20544,-0.03456 -0.29376,-0.10176c-0.5376,-0.41664 -1.11744,-0.77952 -1.72224,-1.07712c-0.23808,-0.11904 -0.336,-0.40512 -0.21888,-0.6432c0.11904,-0.23616 0.4128,-0.33408 0.6432,-0.21888c0.66432,0.3264 1.29984,0.72384 1.88736,1.1808c0.20928,0.16128 0.24768,0.46272 0.08448,0.67392c-0.09408,0.12288 -0.23808,0.18624 -0.38016,0.18624z"/></g></g></g></svg>
