<?xml version="1.0" encoding="iso-8859-1"?>
<!-- Generator: Adobe Illustrator 22.1.0, SVG Export Plug-In . SVG Version: 6.00 Build 0)  -->
<svg xmlns="http://www.w3.org/2000/svg" xmlns:xlink="http://www.w3.org/1999/xlink" version="1.1" id="Layer_1" x="0px" y="0px" viewBox="0 0 100 100" style="enable-background:new 0 0 100 100;" xml:space="preserve" width="100px" height="100px">
<g>
	<g>
		<circle style="fill:#F1BC19;" cx="78" cy="14" r="1"/>
		<circle style="fill:#FCE0A2;" cx="50" cy="50" r="38"/>
		<circle style="fill:#F1BC19;" cx="84" cy="16" r="4"/>
		<circle style="fill:#EE3E54;" cx="14" cy="26" r="2"/>
		<circle style="fill:#FBCD59;" cx="78" cy="77" r="2"/>
		<circle style="fill:#FBCD59;" cx="17" cy="78" r="4"/>
		<circle style="fill:#EE3E54;" cx="24" cy="83" r="2"/>
		<circle style="fill:#FFFFFF;" cx="66.483" cy="78.517" r="2.483"/>
		<circle style="fill:#FFFFFF;" cx="16" cy="48" r="1"/>
		<circle style="fill:#F1BC19;" cx="86" cy="31" r="1"/>
		<circle style="fill:#FFFFFF;" cx="80" cy="66" r="2"/>
	</g>
</g>
<g>
	<path style="fill:#508ECC;" d="M49.275,23.017C41.207,23.397,35,30.347,35,38.424V46h6v-7.692c0-4.794,3.617-8.979,8.401-9.289   C54.643,28.68,59,32.831,59,38c0,1.657,1.343,3,3,3s3-1.343,3-3C65,29.475,57.889,22.611,49.275,23.017z"/>
	<path style="fill:#472B29;" d="M50,24.4c7.499,0,13.6,6.101,13.6,13.6c0,0.882-0.718,1.6-1.6,1.6s-1.6-0.718-1.6-1.6   c0-5.735-4.665-10.4-10.4-10.4c-0.228,0-0.458,0.007-0.69,0.022c-5.445,0.353-9.711,5.046-9.711,10.686V44.6h-3.2v-6.176   c0-7.513,5.684-13.666,12.941-14.008C49.562,24.405,49.781,24.4,50,24.4 M50,23c-0.241,0-0.482,0.006-0.725,0.017   C41.207,23.397,35,30.347,35,38.424V46h6v-7.692c0-4.794,3.617-8.979,8.401-9.289C49.602,29.006,49.802,29,50,29   c4.971,0,9,4.029,9,9c0,1.657,1.343,3,3,3s3-1.343,3-3C65,29.716,58.284,23,50,23L50,23z"/>
	<g>
		<path style="fill:#7DAFE2;" d="M60,72H40c-5.523,0-10-4.477-10-10V48c0-2.209,1.791-4,4-4h32c2.209,0,4,1.791,4,4v14    C70,67.523,65.523,72,60,72z"/>
		<path style="fill:#7DAFE2;" d="M60,72H40c-5.523,0-10-4.477-10-10V48c0-2.209,1.791-4,4-4h32c2.209,0,4,1.791,4,4v14    C70,67.523,65.523,72,60,72z"/>
	</g>
	<rect x="31" y="49" style="fill:#F1BC19;" width="38" height="6.5"/>
	<path style="fill:#508ECC;" d="M52,61c0-1.105-0.895-2-2-2s-2,0.895-2,2c0,0.653,0.318,1.227,0.801,1.592L48,67h4l-0.801-4.408   C51.682,62.227,52,61.653,52,61z"/>
	<g>
		<path style="fill:#472B29;" d="M66,45.4c1.434,0,2.6,1.166,2.6,2.6v14c0,4.742-3.858,8.6-8.6,8.6H40c-4.742,0-8.6-3.858-8.6-8.6    V48c0-1.434,1.166-2.6,2.6-2.6H66 M66,44H34c-2.209,0-4,1.791-4,4v14c0,5.523,4.477,10,10,10h20c5.523,0,10-4.477,10-10V48    C70,45.791,68.209,44,66,44L66,44z"/>
	</g>
	<g>
		<path style="fill:#472B29;" d="M69,50h-3.5c-0.276,0-0.5-0.224-0.5-0.5s0.224-0.5,0.5-0.5H69c0.276,0,0.5,0.224,0.5,0.5    S69.276,50,69,50z"/>
	</g>
	<g>
		<path style="fill:#472B29;" d="M62.5,50h-2c-0.276,0-0.5-0.224-0.5-0.5s0.224-0.5,0.5-0.5h2c0.276,0,0.5,0.224,0.5,0.5    S62.776,50,62.5,50z"/>
	</g>
	<g>
		<path style="fill:#472B29;" d="M57.5,50H31c-0.276,0-0.5-0.224-0.5-0.5S30.724,49,31,49h26.5c0.276,0,0.5,0.224,0.5,0.5    S57.776,50,57.5,50z"/>
	</g>
	<g>
		<path style="fill:#472B29;" d="M69,56H31c-0.276,0-0.5-0.224-0.5-0.5S30.724,55,31,55h38c0.276,0,0.5,0.224,0.5,0.5    S69.276,56,69,56z"/>
	</g>
	<path style="fill:#472B29;" d="M50,59.35c0.91,0,1.65,0.74,1.65,1.65c0,0.517-0.241,0.995-0.662,1.313   c-0.106,0.08-0.157,0.212-0.134,0.342l0.726,3.995h-3.161l0.726-3.995c0.024-0.13-0.028-0.262-0.134-0.342   C48.591,61.995,48.35,61.517,48.35,61C48.35,60.09,49.09,59.35,50,59.35 M50,59c-1.105,0-2,0.895-2,2   c0,0.653,0.318,1.227,0.801,1.592L48,67h4l-0.801-4.408C51.682,62.227,52,61.653,52,61C52,59.895,51.105,59,50,59L50,59z"/>
	<g>
		
			<rect x="29.44" y="52.325" transform="matrix(0.5738 -0.819 0.819 0.5738 -28.8878 49.4856)" style="fill:#472B29;" width="7.33" height="0.351"/>
	</g>
	<g>
		
			<rect x="33.23" y="52.325" transform="matrix(0.5738 -0.819 0.819 0.5738 -27.2726 52.5895)" style="fill:#472B29;" width="7.33" height="0.351"/>
	</g>
	<g>
		
			<rect x="36.94" y="52.325" transform="matrix(0.5738 -0.819 0.819 0.5738 -25.6916 55.6279)" style="fill:#472B29;" width="7.33" height="0.351"/>
	</g>
	<g>
		
			<rect x="40.73" y="52.325" transform="matrix(0.5738 -0.819 0.819 0.5738 -24.0764 58.7318)" style="fill:#472B29;" width="7.33" height="0.351"/>
	</g>
	<g>
		
			<rect x="44.44" y="52.325" transform="matrix(0.5738 -0.819 0.819 0.5738 -22.4953 61.7701)" style="fill:#472B29;" width="7.33" height="0.351"/>
	</g>
	<g>
		
			<rect x="48.23" y="52.325" transform="matrix(0.5738 -0.819 0.819 0.5738 -20.8802 64.8741)" style="fill:#472B29;" width="7.33" height="0.351"/>
	</g>
	<g>
		
			<rect x="51.94" y="52.325" transform="matrix(0.5738 -0.819 0.819 0.5738 -19.2991 67.9124)" style="fill:#472B29;" width="7.33" height="0.351"/>
	</g>
	<g>
		
			<rect x="55.73" y="52.325" transform="matrix(0.5738 -0.819 0.819 0.5738 -17.6839 71.0163)" style="fill:#472B29;" width="7.33" height="0.351"/>
	</g>
	<g>
		
			<rect x="59.44" y="52.325" transform="matrix(0.5738 -0.819 0.819 0.5738 -16.1029 74.0547)" style="fill:#472B29;" width="7.33" height="0.351"/>
	</g>
	<g>
		
			<rect x="63.23" y="52.325" transform="matrix(0.5738 -0.819 0.819 0.5738 -14.4877 77.1586)" style="fill:#472B29;" width="7.33" height="0.351"/>
	</g>
</g>
</svg>
