<?xml version="1.0"?>
<svg xmlns="http://www.w3.org/2000/svg" xmlns:xlink="http://www.w3.org/1999/xlink" version="1.1" viewBox="0 0 192 192" width="100px" height="100px"><g fill="none" fill-rule="nonzero" stroke="none" stroke-width="1" stroke-linecap="butt" stroke-linejoin="miter" stroke-miterlimit="10" stroke-dasharray="" stroke-dashoffset="0" font-family="none" font-weight="none" font-size="none" text-anchor="none" style="mix-blend-mode: normal"><path d="M0,192v-192h192v192z" fill="none"/><g id="Layer_1"><g><g><circle cx="78" cy="14" transform="scale(1.92,1.92)" r="1" fill="#ecf0f1"/><circle cx="50" cy="50" transform="scale(1.92,1.92)" r="38" fill="#ecf0f1"/><circle cx="84" cy="16" transform="scale(1.92,1.92)" r="4" fill="#ecf0f1"/><circle cx="14" cy="26" transform="scale(1.92,1.92)" r="2" fill="#cccccc"/><circle cx="78" cy="77" transform="scale(1.92,1.92)" r="2" fill="#ecf0f1"/><circle cx="17" cy="78" transform="scale(1.92,1.92)" r="4" fill="#ecf0f1"/><circle cx="24" cy="83" transform="scale(1.92,1.92)" r="2" fill="#cccccc"/><circle cx="66.483" cy="78.517" transform="scale(1.92,1.92)" r="2.483" fill="#ffffff"/><circle cx="16" cy="48" transform="scale(1.92,1.92)" r="1" fill="#ffffff"/><circle cx="86" cy="31" transform="scale(1.92,1.92)" r="1" fill="#ecf0f1"/><circle cx="80" cy="66" transform="scale(1.92,1.92)" r="2" fill="#ffffff"/></g></g><g><path d="M94.608,44.19264c-15.49056,0.7296 -27.408,14.0736 -27.408,29.58144v14.54592h11.52v-14.76864c0,-9.20448 6.94464,-17.23968 16.12992,-17.83488c10.06464,-0.65088 18.43008,7.31904 18.43008,17.24352c0,3.18144 2.57856,5.76 5.76,5.76c3.18144,0 5.76,-2.57856 5.76,-5.76c0,-16.368 -13.65312,-29.54688 -30.192,-28.76736z" fill="#cccccc"/><path d="M96,46.848c14.39808,0 26.112,11.71392 26.112,26.112c0,1.69344 -1.37856,3.072 -3.072,3.072c-1.69344,0 -3.072,-1.37856 -3.072,-3.072c0,-11.0112 -8.9568,-19.968 -19.968,-19.968c-0.43776,0 -0.87936,0.01344 -1.3248,0.04224c-10.4544,0.67776 -18.64512,9.68832 -18.64512,20.51712v12.08064h-6.144v-11.85792c0,-14.42496 10.91328,-26.23872 24.84672,-26.89536c0.42624,-0.02112 0.84672,-0.03072 1.2672,-0.03072M96,44.16c-0.46272,0 -0.92544,0.01152 -1.392,0.03264c-15.49056,0.7296 -27.408,14.0736 -27.408,29.58144v14.54592h11.52v-14.76864c0,-9.20448 6.94464,-17.23968 16.12992,-17.83488c0.38592,-0.02496 0.76992,-0.03648 1.15008,-0.03648c9.54432,0 17.28,7.73568 17.28,17.28c0,3.18144 2.57856,5.76 5.76,5.76c3.18144,0 5.76,-2.57856 5.76,-5.76c0,-15.90528 -12.89472,-28.8 -28.8,-28.8z" fill="#666666"/><g fill="#ecf0f1"><path d="M115.2,138.24h-38.4c-10.60416,0 -19.2,-8.59584 -19.2,-19.2v-26.88c0,-4.24128 3.43872,-7.68 7.68,-7.68h61.44c4.24128,0 7.68,3.43872 7.68,7.68v26.88c0,10.60416 -8.59584,19.2 -19.2,19.2z"/><path d="M115.2,138.24h-38.4c-10.60416,0 -19.2,-8.59584 -19.2,-19.2v-26.88c0,-4.24128 3.43872,-7.68 7.68,-7.68h61.44c4.24128,0 7.68,3.43872 7.68,7.68v26.88c0,10.60416 -8.59584,19.2 -19.2,19.2z"/></g><rect x="31" y="49" transform="scale(1.92,1.92)" width="38" height="6.5" fill="#ecf0f1"/><path d="M99.84,117.12c0,-2.1216 -1.7184,-3.84 -3.84,-3.84c-2.1216,0 -3.84,1.7184 -3.84,3.84c0,1.25376 0.61056,2.35584 1.53792,3.05664l-1.53792,8.46336h7.68l-1.53792,-8.46336c0.92736,-0.7008 1.53792,-1.80288 1.53792,-3.05664z" fill="#cccccc"/><g fill="#666666"><path d="M126.72,87.168c2.75328,0 4.992,2.23872 4.992,4.992v26.88c0,9.10464 -7.40736,16.512 -16.512,16.512h-38.4c-9.10464,0 -16.512,-7.40736 -16.512,-16.512v-26.88c0,-2.75328 2.23872,-4.992 4.992,-4.992h61.44M126.72,84.48h-61.44c-4.24128,0 -7.68,3.43872 -7.68,7.68v26.88c0,10.60416 8.59584,19.2 19.2,19.2h38.4c10.60416,0 19.2,-8.59584 19.2,-19.2v-26.88c0,-4.24128 -3.43872,-7.68 -7.68,-7.68z"/></g><g fill="#666666"><path d="M132.48,96h-6.72c-0.52992,0 -0.96,-0.43008 -0.96,-0.96c0,-0.52992 0.43008,-0.96 0.96,-0.96h6.72c0.52992,0 0.96,0.43008 0.96,0.96c0,0.52992 -0.43008,0.96 -0.96,0.96z"/></g><g fill="#666666"><path d="M120,96h-3.84c-0.52992,0 -0.96,-0.43008 -0.96,-0.96c0,-0.52992 0.43008,-0.96 0.96,-0.96h3.84c0.52992,0 0.96,0.43008 0.96,0.96c0,0.52992 -0.43008,0.96 -0.96,0.96z"/></g><g fill="#666666"><path d="M110.4,96h-50.88c-0.52992,0 -0.96,-0.43008 -0.96,-0.96c0,-0.52992 0.43008,-0.96 0.96,-0.96h50.88c0.52992,0 0.96,0.43008 0.96,0.96c0,0.52992 -0.43008,0.96 -0.96,0.96z"/></g><g fill="#666666"><path d="M132.48,107.52h-72.96c-0.52992,0 -0.96,-0.43008 -0.96,-0.96c0,-0.52992 0.43008,-0.96 0.96,-0.96h72.96c0.52992,0 0.96,0.43008 0.96,0.96c0,0.52992 -0.43008,0.96 -0.96,0.96z"/></g><path d="M96,113.952c1.7472,0 3.168,1.4208 3.168,3.168c0,0.99264 -0.46272,1.9104 -1.27104,2.52096c-0.20352,0.1536 -0.30144,0.40704 -0.25728,0.65664l1.39392,7.6704h-6.06912l1.39392,-7.6704c0.04608,-0.2496 -0.05376,-0.50304 -0.25728,-0.65664c-0.8064,-0.61056 -1.26912,-1.52832 -1.26912,-2.52096c0,-1.7472 1.4208,-3.168 3.168,-3.168M96,113.28c-2.1216,0 -3.84,1.7184 -3.84,3.84c0,1.25376 0.61056,2.35584 1.53792,3.05664l-1.53792,8.46336h7.68l-1.53792,-8.46336c0.92736,-0.7008 1.53792,-1.80288 1.53792,-3.05664c0,-2.1216 -1.7184,-3.84 -3.84,-3.84z" fill="#666666"/><g fill="#666666"><rect x="-27.6641" y="57.06069" transform="rotate(-54.98451) scale(1.92001,1.92001)" width="7.33" height="0.351"/></g><g fill="#666666"><rect x="-25.48938" y="60.16454" transform="rotate(-54.98451) scale(1.92001,1.92001)" width="7.33" height="0.351"/></g><g fill="#666666"><rect x="-23.36064" y="63.20279" transform="rotate(-54.98451) scale(1.92001,1.92001)" width="7.33" height="0.351"/></g><g fill="#666666"><rect x="-21.18592" y="66.30663" transform="rotate(-54.98451) scale(1.92001,1.92001)" width="7.33" height="0.351"/></g><g fill="#666666"><rect x="-19.05704" y="69.34491" transform="rotate(-54.98451) scale(1.92001,1.92001)" width="7.33" height="0.351"/></g><g fill="#666666"><rect x="-16.88246" y="72.44873" transform="rotate(-54.98451) scale(1.92001,1.92001)" width="7.33" height="0.351"/></g><g fill="#666666"><rect x="-14.75358" y="75.487" transform="rotate(-54.98451) scale(1.92001,1.92001)" width="7.33" height="0.351"/></g><g fill="#666666"><rect x="-12.57886" y="78.59084" transform="rotate(-54.98451) scale(1.92001,1.92001)" width="7.33" height="0.351"/></g><g fill="#666666"><rect x="-10.45012" y="81.62909" transform="rotate(-54.98451) scale(1.92001,1.92001)" width="7.33" height="0.351"/></g><g fill="#666666"><rect x="-8.2754" y="84.73294" transform="rotate(-54.98451) scale(1.92001,1.92001)" width="7.33" height="0.351"/></g></g></g></g></svg>
