<?xml version="1.0" encoding="iso-8859-1"?>
<!-- Generator: Adobe Illustrator 22.1.0, SVG Export Plug-In . SVG Version: 6.00 Build 0)  -->
<svg xmlns="http://www.w3.org/2000/svg" xmlns:xlink="http://www.w3.org/1999/xlink" version="1.1" id="Layer_1" x="0px" y="0px" viewBox="0 0 100 100" style="enable-background:new 0 0 100 100;" xml:space="preserve" width="100px" height="100px">
<g>
	<g>
		<g>
			<circle style="fill:#F1BC19;" cx="77" cy="13" r="1"/>
		</g>
		<g>
			<circle style="fill:#E4E4F9;" cx="50" cy="50" r="37"/>
		</g>
		<g>
			<circle style="fill:#F1BC19;" cx="83" cy="15" r="4"/>
		</g>
		<g>
			<circle style="fill:#8889B9;" cx="87" cy="24" r="2"/>
		</g>
		<g>
			<circle style="fill:#FBCD59;" cx="81" cy="76" r="2"/>
		</g>
		<g>
			<circle style="fill:#FBCD59;" cx="15" cy="63" r="4"/>
		</g>
		<g>
			<circle style="fill:#8889B9;" cx="25" cy="87" r="2"/>
		</g>
		<g>
			<circle style="fill:#FFFFFF;" cx="18.5" cy="51.5" r="2.5"/>
		</g>
		<g>
			<circle style="fill:#FFFFFF;" cx="79.5" cy="33.5" r="1.5"/>
		</g>
	</g>
</g>
<g>
	<g>
		<path style="fill:#FEFDEF;" d="M37.296,73.3c-2.535,0-4.596-2.065-4.596-4.605V31.306c0-2.54,2.062-4.605,4.596-4.605h19.132    L68.3,38.593l0,30.102c0,2.54-2.062,4.605-4.596,4.605H37.296z"/>
	</g>
	<g>
		<path style="fill:#472B29;" d="M56.138,27.4l4.662,4.67l6.799,6.812v29.813c0,2.154-1.748,3.906-3.896,3.906H37.296    c-2.149,0-3.896-1.752-3.896-3.906V31.306c0-2.154,1.748-3.906,3.896-3.906h0.769h1.718h5.523H56.138 M56.719,26H45.307h-5.523    h-1.718h-0.769C34.383,26,32,28.388,32,31.306v37.389C32,71.613,34.384,74,37.296,74h26.406c2.913,0,5.296-2.388,5.296-5.306    V38.303H69C64.224,33.518,61.495,30.785,56.719,26L56.719,26z"/>
	</g>
</g>
<g>
	<path style="fill:#FEF6AA;" d="M56.5,27v6.483c0,2.759,2.214,5.017,4.921,5.017H68"/>
	<path style="fill:#472B29;" d="M68,39h-6.579C58.432,39,56,36.525,56,33.483V27h1v6.483C57,35.974,58.983,38,61.421,38H68V39z"/>
</g>
<g>
	<path style="fill:#472B29;" d="M63,71H38c-1.654,0-3-1.346-3-3V32c0-1.654,1.346-3,3-3h2c0.276,0,0.5,0.224,0.5,0.5   S40.276,30,40,30h-2c-1.103,0-2,0.897-2,2v36c0,1.103,0.897,2,2,2h25c1.103,0,2-0.897,2-2V52.917c0-0.276,0.224-0.5,0.5-0.5   s0.5,0.224,0.5,0.5V68C66,69.654,64.654,71,63,71z"/>
</g>
<g>
	<path style="fill:#472B29;" d="M65.5,51c-0.276,0-0.5-0.224-0.5-0.5v-4c0-0.276,0.224-0.5,0.5-0.5s0.5,0.224,0.5,0.5v4   C66,50.776,65.776,51,65.5,51z"/>
</g>
<g>
	<path style="fill:#472B29;" d="M65.5,44.75c-0.276,0-0.5-0.224-0.5-0.5v-2.583c0-0.276,0.224-0.5,0.5-0.5s0.5,0.224,0.5,0.5v2.583   C66,44.526,65.776,44.75,65.5,44.75z"/>
</g>
<g>
	<path style="fill:#472B29;" d="M49.5,43.75h-10c-0.138,0-0.25-0.112-0.25-0.25s0.112-0.25,0.25-0.25h10   c0.138,0,0.25,0.112,0.25,0.25S49.638,43.75,49.5,43.75z"/>
</g>
<g>
	<path style="fill:#472B29;" d="M49.5,47.75h-10c-0.138,0-0.25-0.112-0.25-0.25s0.112-0.25,0.25-0.25h10   c0.138,0,0.25,0.112,0.25,0.25S49.638,47.75,49.5,47.75z"/>
</g>
<g>
	<path style="fill:#472B29;" d="M49.5,51.75h-10c-0.138,0-0.25-0.112-0.25-0.25s0.112-0.25,0.25-0.25h10   c0.138,0,0.25,0.112,0.25,0.25S49.638,51.75,49.5,51.75z"/>
</g>
<g>
	<path style="fill:#472B29;" d="M46.5,55.75h-7c-0.138,0-0.25-0.112-0.25-0.25s0.112-0.25,0.25-0.25h7c0.138,0,0.25,0.112,0.25,0.25   S46.638,55.75,46.5,55.75z"/>
</g>
<g>
	<path style="fill:#472B29;" d="M49.5,59.75h-10c-0.138,0-0.25-0.112-0.25-0.25s0.112-0.25,0.25-0.25h10   c0.138,0,0.25,0.112,0.25,0.25S49.638,59.75,49.5,59.75z"/>
</g>
<g>
	<path style="fill:#472B29;" d="M51.5,63.75h-12c-0.138,0-0.25-0.112-0.25-0.25s0.112-0.25,0.25-0.25h12   c0.138,0,0.25,0.112,0.25,0.25S51.638,63.75,51.5,63.75z"/>
</g>
<g>
	<path style="fill:#472B29;" d="M61.5,63.75h-8c-0.138,0-0.25-0.112-0.25-0.25s0.112-0.25,0.25-0.25h8c0.138,0,0.25,0.112,0.25,0.25   S61.638,63.75,61.5,63.75z"/>
</g>
<g>
	<path style="fill:#472B29;" d="M61.5,55.75h-13c-0.138,0-0.25-0.112-0.25-0.25s0.112-0.25,0.25-0.25h13   c0.138,0,0.25,0.112,0.25,0.25S61.638,55.75,61.5,55.75z"/>
</g>
<g>
	<path style="fill:#472B29;" d="M61.5,59.75h-4c-0.138,0-0.25-0.112-0.25-0.25s0.112-0.25,0.25-0.25h4c0.138,0,0.25,0.112,0.25,0.25   S61.638,59.75,61.5,59.75z"/>
</g>
<g>
	<path style="fill:#472B29;" d="M55.5,59.75h-4c-0.138,0-0.25-0.112-0.25-0.25s0.112-0.25,0.25-0.25h4c0.138,0,0.25,0.112,0.25,0.25   S55.638,59.75,55.5,59.75z"/>
</g>
<g>
	<polyline style="fill:#FEF6AA;" points="52.5,53 52.5,43.5 61.5,43.5 61.5,52.5 56,52.5  "/>
	<polygon style="fill:#472B29;" points="52.75,53 52.25,53 52.25,43.25 61.75,43.25 61.75,52.75 56,52.75 56,52.25 61.25,52.25    61.25,43.75 52.75,43.75  "/>
</g>
</svg>
