<?xml version="1.0"?>
<svg xmlns="http://www.w3.org/2000/svg" xmlns:xlink="http://www.w3.org/1999/xlink" version="1.1" viewBox="0 0 192 192" width="100px" height="100px"><g fill="none" fill-rule="nonzero" stroke="none" stroke-width="1" stroke-linecap="butt" stroke-linejoin="miter" stroke-miterlimit="10" stroke-dasharray="" stroke-dashoffset="0" font-family="none" font-weight="none" font-size="none" text-anchor="none" style="mix-blend-mode: normal"><path d="M0,192v-192h192v192z" fill="none"/><g id="Layer_1"><g><g><g fill="#ecf0f1"><circle cx="77" cy="13" transform="scale(1.92,1.92)" r="1"/></g><g fill="#ecf0f1"><circle cx="50" cy="50" transform="scale(1.92,1.92)" r="37"/></g><g fill="#ecf0f1"><circle cx="83" cy="15" transform="scale(1.92,1.92)" r="4"/></g><g fill="#cccccc"><circle cx="87" cy="24" transform="scale(1.92,1.92)" r="2"/></g><g fill="#cccccc"><circle cx="81" cy="76" transform="scale(1.92,1.92)" r="2"/></g><g fill="#cccccc"><circle cx="15" cy="63" transform="scale(1.92,1.92)" r="4"/></g><g fill="#cccccc"><circle cx="25" cy="87" transform="scale(1.92,1.92)" r="2"/></g><g fill="#ffffff"><circle cx="18.5" cy="51.5" transform="scale(1.92,1.92)" r="2.5"/></g><g fill="#ffffff"><circle cx="79.5" cy="33.5" transform="scale(1.92,1.92)" r="1.5"/></g></g></g><g><g fill="#ffffff"><path d="M71.60832,140.736c-4.8672,0 -8.82432,-3.9648 -8.82432,-8.8416v-71.78688c0,-4.8768 3.95904,-8.8416 8.82432,-8.8416h36.73344l22.79424,22.83264v57.79584c0,4.8768 -3.95904,8.8416 -8.82432,8.8416z"/></g><g fill="#666666"><path d="M107.78496,52.608l8.95104,8.9664l13.05408,13.07904v57.24096c0,4.13568 -3.35616,7.49952 -7.48032,7.49952h-50.70144c-4.12608,0 -7.48032,-3.36384 -7.48032,-7.49952v-71.78688c0,-4.13568 3.35616,-7.49952 7.48032,-7.49952h1.47648h3.29856h10.60416h20.79744M108.90048,49.92h-21.91104h-10.60416h-3.29856h-1.47648c-5.59488,0 -10.17024,4.58496 -10.17024,10.18752v71.78688c0,5.60256 4.57728,10.1856 10.16832,10.1856h50.69952c5.59296,0 10.16832,-4.58496 10.16832,-10.18752v-58.35072h0.00384c-9.16992,-9.1872 -14.4096,-14.43456 -23.57952,-23.62176z"/></g></g><g><path d="M108.48,51.84v12.44736c0,5.29728 4.25088,9.63264 9.44832,9.63264h12.63168" fill="#ecf0f1"/><path d="M130.56,74.88h-12.63168c-5.73888,0 -10.40832,-4.752 -10.40832,-10.59264v-12.44736h1.92v12.44736c0,4.78272 3.80736,8.67264 8.48832,8.67264h12.63168z" fill="#666666"/></g><g fill="#666666"><path d="M120.96,136.32h-48c-3.17568,0 -5.76,-2.58432 -5.76,-5.76v-69.12c0,-3.17568 2.58432,-5.76 5.76,-5.76h3.84c0.52992,0 0.96,0.43008 0.96,0.96c0,0.52992 -0.43008,0.96 -0.96,0.96h-3.84c-2.11776,0 -3.84,1.72224 -3.84,3.84v69.12c0,2.11776 1.72224,3.84 3.84,3.84h48c2.11776,0 3.84,-1.72224 3.84,-3.84v-28.95936c0,-0.52992 0.43008,-0.96 0.96,-0.96c0.52992,0 0.96,0.43008 0.96,0.96v28.95936c0,3.17568 -2.58432,5.76 -5.76,5.76z"/></g><g fill="#666666"><path d="M125.76,97.92c-0.52992,0 -0.96,-0.43008 -0.96,-0.96v-7.68c0,-0.52992 0.43008,-0.96 0.96,-0.96c0.52992,0 0.96,0.43008 0.96,0.96v7.68c0,0.52992 -0.43008,0.96 -0.96,0.96z"/></g><g fill="#666666"><path d="M125.76,85.92c-0.52992,0 -0.96,-0.43008 -0.96,-0.96v-4.95936c0,-0.52992 0.43008,-0.96 0.96,-0.96c0.52992,0 0.96,0.43008 0.96,0.96v4.95936c0,0.52992 -0.43008,0.96 -0.96,0.96z"/></g><g fill="#666666"><path d="M95.04,84h-19.2c-0.26496,0 -0.48,-0.21504 -0.48,-0.48c0,-0.26496 0.21504,-0.48 0.48,-0.48h19.2c0.26496,0 0.48,0.21504 0.48,0.48c0,0.26496 -0.21504,0.48 -0.48,0.48z"/></g><g fill="#666666"><path d="M95.04,91.68h-19.2c-0.26496,0 -0.48,-0.21504 -0.48,-0.48c0,-0.26496 0.21504,-0.48 0.48,-0.48h19.2c0.26496,0 0.48,0.21504 0.48,0.48c0,0.26496 -0.21504,0.48 -0.48,0.48z"/></g><g fill="#666666"><path d="M95.04,99.36h-19.2c-0.26496,0 -0.48,-0.21504 -0.48,-0.48c0,-0.26496 0.21504,-0.48 0.48,-0.48h19.2c0.26496,0 0.48,0.21504 0.48,0.48c0,0.26496 -0.21504,0.48 -0.48,0.48z"/></g><g fill="#666666"><path d="M89.28,107.04h-13.44c-0.26496,0 -0.48,-0.21504 -0.48,-0.48c0,-0.26496 0.21504,-0.48 0.48,-0.48h13.44c0.26496,0 0.48,0.21504 0.48,0.48c0,0.26496 -0.21504,0.48 -0.48,0.48z"/></g><g fill="#666666"><path d="M95.04,114.72h-19.2c-0.26496,0 -0.48,-0.21504 -0.48,-0.48c0,-0.26496 0.21504,-0.48 0.48,-0.48h19.2c0.26496,0 0.48,0.21504 0.48,0.48c0,0.26496 -0.21504,0.48 -0.48,0.48z"/></g><g fill="#666666"><path d="M98.88,122.4h-23.04c-0.26496,0 -0.48,-0.21504 -0.48,-0.48c0,-0.26496 0.21504,-0.48 0.48,-0.48h23.04c0.26496,0 0.48,0.21504 0.48,0.48c0,0.26496 -0.21504,0.48 -0.48,0.48z"/></g><g fill="#666666"><path d="M118.08,122.4h-15.36c-0.26496,0 -0.48,-0.21504 -0.48,-0.48c0,-0.26496 0.21504,-0.48 0.48,-0.48h15.36c0.26496,0 0.48,0.21504 0.48,0.48c0,0.26496 -0.21504,0.48 -0.48,0.48z"/></g><g fill="#666666"><path d="M118.08,107.04h-24.96c-0.26496,0 -0.48,-0.21504 -0.48,-0.48c0,-0.26496 0.21504,-0.48 0.48,-0.48h24.96c0.26496,0 0.48,0.21504 0.48,0.48c0,0.26496 -0.21504,0.48 -0.48,0.48z"/></g><g fill="#666666"><path d="M118.08,114.72h-7.68c-0.26496,0 -0.48,-0.21504 -0.48,-0.48c0,-0.26496 0.21504,-0.48 0.48,-0.48h7.68c0.26496,0 0.48,0.21504 0.48,0.48c0,0.26496 -0.21504,0.48 -0.48,0.48z"/></g><g fill="#666666"><path d="M106.56,114.72h-7.68c-0.26496,0 -0.48,-0.21504 -0.48,-0.48c0,-0.26496 0.21504,-0.48 0.48,-0.48h7.68c0.26496,0 0.48,0.21504 0.48,0.48c0,0.26496 -0.21504,0.48 -0.48,0.48z"/></g><g><path d="M100.8,101.76v-18.24h17.28v17.28h-10.56" fill="#ecf0f1"/><path d="M101.28,101.76h-0.96v-18.72h18.24v18.24h-11.04v-0.96h10.08v-16.32h-16.32z" fill="#666666"/></g></g></g></svg>
