<?xml version="1.0" encoding="iso-8859-1"?>
<!-- Generator: Adobe Illustrator 22.1.0, SVG Export Plug-In . SVG Version: 6.00 Build 0)  -->
<svg xmlns="http://www.w3.org/2000/svg" xmlns:xlink="http://www.w3.org/1999/xlink" version="1.1" id="Layer_1" x="0px" y="0px" viewBox="0 0 100 100" style="enable-background:new 0 0 100 100;" xml:space="preserve" width="100px" height="100px">
<g>
	<g>
		<g>
			<circle style="fill:#EE3E54;" cx="13" cy="29" r="2"/>
		</g>
		<g>
			<circle style="fill:#F1BC19;" cx="77" cy="13" r="1"/>
		</g>
		<g>
			<circle style="fill:#FCE0A2;" cx="50" cy="50" r="37"/>
		</g>
		<g>
			<circle style="fill:#F1BC19;" cx="83" cy="15" r="4"/>
		</g>
		<g>
			<circle style="fill:#EE3E54;" cx="87" cy="24" r="2"/>
		</g>
		<g>
			<circle style="fill:#FBCD59;" cx="81" cy="76" r="2"/>
		</g>
		<g>
			<circle style="fill:#FBCD59;" cx="15" cy="63" r="4"/>
		</g>
		<g>
			<circle style="fill:#EE3E54;" cx="25" cy="87" r="2"/>
		</g>
		<g>
			<circle style="fill:#FFFFFF;" cx="18.5" cy="53.5" r="2.5"/>
		</g>
		<g>
			<circle style="fill:#F1BC19;" cx="21" cy="67" r="1"/>
		</g>
		<g>
			<circle style="fill:#FFFFFF;" cx="80" cy="34" r="1"/>
		</g>
	</g>
</g>
<g>
	<g>
		<path style="fill:#F98869;" d="M35,72.3c-4.025,0-7.3-3.274-7.3-7.3V35c0-4.025,3.274-7.3,7.3-7.3h30c4.025,0,7.3,3.274,7.3,7.3    v30c0,4.025-3.274,7.3-7.3,7.3H35z"/>
	</g>
	<g>
		<path style="fill:#472B29;" d="M65,28.4c3.639,0,6.6,2.961,6.6,6.6v30c0,3.639-2.961,6.6-6.6,6.6H35c-3.639,0-6.6-2.961-6.6-6.6    V35c0-3.639,2.961-6.6,6.6-6.6H65 M65,27H35c-4.4,0-8,3.6-8,8v30c0,4.4,3.6,8,8,8h30c4.4,0,8-3.6,8-8V35C73,30.6,69.4,27,65,27    L65,27z"/>
	</g>
</g>
<g>
	<path style="fill:#FDFCEE;" d="M68.5,47.875v1.75V64c0,2.475-2.025,4.5-4.5,4.5H36c-2.475,0-4.5-2.025-4.5-4.5V36   c0-2.475,2.025-4.5,4.5-4.5h25.375H64c2.475,0,4.5,2.025,4.5,4.5v3.375v2v1V43.5v2.875V47.875"/>
</g>
<g>
	<path style="fill:#472B29;" d="M68.5,47.375c-0.276,0-0.5-0.224-0.5-0.5V43c0-0.276,0.224-0.5,0.5-0.5S69,42.724,69,43v3.875   C69,47.151,68.776,47.375,68.5,47.375z"/>
</g>
<g>
	<path style="fill:#472B29;" d="M68.5,40.5c-0.276,0-0.5-0.224-0.5-0.5v-2c0-0.276,0.224-0.5,0.5-0.5S69,37.724,69,38v2   C69,40.276,68.776,40.5,68.5,40.5z"/>
</g>
<g>
	<path style="fill:#472B29;" d="M64,69H36c-2.757,0-5-2.243-5-5V36c0-2.757,2.243-5,5-5h25.375c0.276,0,0.5,0.224,0.5,0.5   s-0.224,0.5-0.5,0.5H36c-2.206,0-4,1.794-4,4v28c0,2.206,1.794,4,4,4h28c2.206,0,4-1.794,4-4V49.625c0-0.276,0.224-0.5,0.5-0.5   s0.5,0.224,0.5,0.5V64C69,66.757,66.757,69,64,69z"/>
</g>
<g>
	<g>
		<circle style="fill:#F76746;" cx="50" cy="50" r="12.5"/>
	</g>
	<g>
		<path style="fill:#472B29;" d="M50,38c6.627,0,12,5.373,12,12s-5.373,12-12,12s-12-5.373-12-12S43.373,38,50,38 M50,37    c-7.168,0-13,5.832-13,13s5.832,13,13,13s13-5.832,13-13S57.168,37,50,37L50,37z"/>
	</g>
</g>
<g>
	<ellipse style="fill:#FDFCEE;" cx="50.031" cy="49.992" rx="9.999" ry="10.058"/>
	<path style="fill:#472B29;" d="M50.031,60.3c-5.651,0-10.249-4.624-10.249-10.308s4.598-10.308,10.249-10.308   c5.651,0,10.249,4.624,10.249,10.308S55.682,60.3,50.031,60.3z M50.031,40.185c-5.375,0-9.749,4.399-9.749,9.808   s4.373,9.808,9.749,9.808s9.749-4.399,9.749-9.808S55.406,40.185,50.031,40.185z"/>
</g>
<g>
	<path style="fill:#CBC9BC;" d="M51.271,48.034l-6.177,6.214c-0.154,0.155-0.341,0.409-0.187,0.565   c0.154,0.155,0.407-0.033,0.562-0.188l6.177-6.214c0.264,0.07,0.744,0.034,0.95-0.175l0.562-0.565c0.309-0.311,0.309-0.819,0-1.129   c-0.309-0.311-0.815-0.311-1.123,0l-0.562,0.565C51.266,47.315,51.201,47.768,51.271,48.034z"/>
</g>
<g>
	<path style="fill:#472B29;" d="M52.595,46.309c0.203,0,0.407,0.077,0.562,0.233c0.309,0.311,0.309,0.819,0,1.129l-0.562,0.565   c-0.144,0.145-0.422,0.206-0.666,0.206c-0.105,0-0.204-0.011-0.283-0.033l-6.177,6.214c-0.114,0.115-0.28,0.247-0.423,0.247   c-0.051,0-0.099-0.017-0.139-0.058c-0.154-0.155,0.033-0.409,0.187-0.565l6.177-6.214c-0.069-0.266-0.005-0.72,0.201-0.927   l0.562-0.565C52.188,46.387,52.392,46.309,52.595,46.309 M52.595,45.801c-0.349,0-0.676,0.136-0.921,0.383l-0.562,0.565   c-0.269,0.271-0.387,0.719-0.375,1.102l-6.003,6.04c-0.695,0.699-0.278,1.189-0.187,1.281c0.133,0.134,0.311,0.208,0.5,0.208   c0.258,0,0.521-0.133,0.782-0.396l5.998-6.034c0.034,0.002,0.067,0.003,0.102,0.003c0.202,0,0.707-0.035,1.027-0.357l0.562-0.565   c0.506-0.509,0.506-1.337,0-1.846C53.271,45.938,52.944,45.801,52.595,45.801L52.595,45.801z"/>
</g>
<g>
	<g>
		<g>
			<path style="fill:#472B29;" d="M49.908,41.091c-0.14,0-0.254-0.114-0.254-0.254V39.95c0-0.14,0.114-0.254,0.254-0.254     s0.254,0.114,0.254,0.254v0.887C50.162,40.977,50.048,41.091,49.908,41.091z"/>
		</g>
	</g>
	<g>
		<g>
			<path style="fill:#472B29;" d="M49.908,60.304c-0.14,0-0.254-0.114-0.254-0.254v-1.182c0-0.14,0.114-0.254,0.254-0.254     s0.254,0.114,0.254,0.254v1.182C50.162,60.19,50.048,60.304,49.908,60.304z"/>
		</g>
	</g>
</g>
<g>
	<g>
		<g>
			<path style="fill:#472B29;" d="M59.928,49.959h-1.299c-0.14,0-0.254-0.114-0.254-0.254s0.114-0.254,0.254-0.254h1.299     c0.14,0,0.254,0.114,0.254,0.254S60.068,49.959,59.928,49.959z"/>
		</g>
	</g>
	<g>
		<g>
			<path style="fill:#472B29;" d="M41.297,49.959h-1.226c-0.14,0-0.254-0.114-0.254-0.254s0.114-0.254,0.254-0.254h1.226     c0.14,0,0.254,0.114,0.254,0.254S41.436,49.959,41.297,49.959z"/>
		</g>
	</g>
</g>
<g>
	<g>
		<g>
			<line style="fill:none;" x1="56.907" y1="42.954" x2="56.08" y2="43.787"/>
		</g>
		<g>
			<path style="fill:#472B29;" d="M56.079,44.041c-0.064,0-0.13-0.024-0.18-0.074c-0.1-0.099-0.1-0.26-0.001-0.36l0.828-0.833     c0.102-0.1,0.261-0.1,0.36-0.001s0.1,0.26,0.001,0.36l-0.828,0.833C56.209,44.017,56.145,44.041,56.079,44.041z"/>
		</g>
	</g>
	<g>
		<g>
			<line style="fill:none;" x1="43.761" y1="56.18" x2="42.933" y2="57.013"/>
		</g>
		<g>
			<path style="fill:#472B29;" d="M42.933,57.267c-0.064,0-0.13-0.024-0.18-0.074c-0.1-0.099-0.1-0.26-0.001-0.36L43.58,56     c0.101-0.1,0.26-0.101,0.36-0.001c0.1,0.099,0.1,0.26,0.001,0.36l-0.828,0.833C43.063,57.243,42.998,57.267,42.933,57.267z"/>
		</g>
	</g>
</g>
<g>
	<g>
		<g>
			<line style="fill:none;" x1="57.081" y1="57.106" x2="56.253" y2="56.273"/>
		</g>
		<g>
			<path style="fill:#472B29;" d="M57.081,57.359c-0.065,0-0.131-0.024-0.181-0.075l-0.827-0.833c-0.099-0.1-0.099-0.26,0.002-0.36     c0.1-0.099,0.26-0.099,0.36,0.001l0.827,0.833c0.099,0.1,0.099,0.26-0.002,0.36C57.21,57.335,57.145,57.359,57.081,57.359z"/>
		</g>
	</g>
	<g>
		<g>
			<line style="fill:none;" x1="43.761" y1="43.654" x2="42.933" y2="42.822"/>
		</g>
		<g>
			<path style="fill:#472B29;" d="M43.761,43.909c-0.065,0-0.13-0.024-0.181-0.075l-0.828-0.833c-0.099-0.1-0.099-0.26,0.001-0.36     c0.101-0.099,0.26-0.099,0.36,0.001l0.828,0.833c0.099,0.1,0.099,0.26-0.001,0.36C43.891,43.884,43.826,43.909,43.761,43.909z"/>
		</g>
	</g>
</g>
<g>
	<path style="fill:#472B29;" d="M55.19,50.161h-4.138c-0.14,0-0.254-0.114-0.254-0.254s0.114-0.254,0.254-0.254h4.138   c0.14,0,0.254,0.114,0.254,0.254S55.33,50.161,55.19,50.161z"/>
</g>
<g>
	<path style="fill:#472B29;" d="M49.869,49.274c-0.14,0-0.254-0.114-0.254-0.254v-6.798c0-0.14,0.114-0.254,0.254-0.254   s0.254,0.114,0.254,0.254v6.798C50.123,49.162,50.01,49.274,49.869,49.274z"/>
</g>
<g>
	<circle style="fill:#F1BC19;" cx="49.869" cy="49.908" r="1.035"/>
</g>
<g>
	<path style="fill:#472B29;" d="M49.869,51.196c-0.71,0-1.289-0.578-1.289-1.289c0-0.711,0.578-1.289,1.289-1.289   c0.711,0,1.289,0.578,1.289,1.289C51.158,50.618,50.579,51.196,49.869,51.196z M49.869,49.127c-0.431,0-0.781,0.35-0.781,0.781   s0.35,0.781,0.781,0.781s0.781-0.35,0.781-0.781S50.3,49.127,49.869,49.127z"/>
</g>
</svg>
