<?xml version="1.0" encoding="UTF-8" standalone="no"?>
<!DOCTYPE svg PUBLIC "-//W3C//DTD SVG 1.1//EN" "http://www.w3.org/Graphics/SVG/1.1/DTD/svg11.dtd">
<svg width="100%" height="100%" viewBox="0 0 47 55" version="1.1" xmlns="http://www.w3.org/2000/svg" xmlns:xlink="http://www.w3.org/1999/xlink" xml:space="preserve" xmlns:serif="http://www.serif.com/" style="fill-rule:evenodd;clip-rule:evenodd;stroke-linejoin:round;stroke-miterlimit:2;">
    <g transform="matrix(1,0,0,1,-1400,-454)">
        <g transform="matrix(1,0,0,1,1252.66,-273.333)">
            <g id="iconD">
                <g transform="matrix(1,0,0,-1,125.398,695.185)">
                    <path d="M67.872,-85.926L23.275,-85.926L23.275,-54.103C23.275,-48.413 25.647,-43.168 29.954,-39.333C32.017,-37.496 34.426,-36.057 37.114,-35.055C39.854,-34.035 42.758,-33.517 45.745,-33.517L45.922,-33.517C51.854,-33.517 57.367,-35.58 61.444,-39.325C63.465,-41.181 65.047,-43.37 66.145,-45.83C67.291,-48.397 67.872,-51.18 67.872,-54.103L67.872,-85.926Z" style="fill:rgb(144,153,163);fill-rule:nonzero;"/>
                </g>
                <g transform="matrix(1,0,0,-1,125.398,695.185)">
                    <path d="M67.122,-85.176L67.122,-54.103C67.122,-51.286 66.563,-48.605 65.46,-46.136C64.404,-43.77 62.882,-41.664 60.937,-39.877C56.999,-36.26 51.666,-34.267 45.922,-34.267L45.745,-34.267C42.847,-34.267 40.031,-34.769 37.376,-35.758C34.775,-36.727 32.446,-38.118 30.452,-39.893C28.436,-41.689 26.856,-43.796 25.758,-46.157C24.608,-48.629 24.025,-51.302 24.025,-54.103L24.025,-85.176L67.122,-85.176M68.622,-86.676L22.525,-86.676L22.525,-54.103C22.525,-41.67 33.265,-32.767 45.745,-32.767L45.922,-32.767C58.402,-32.767 68.622,-41.67 68.622,-54.103L68.622,-86.676Z" style="fill:rgb(126,126,126);fill-rule:nonzero;"/>
                </g>
                <g transform="matrix(1,0,0,1,10.0752,390.982)">
                    <g id="D" transform="matrix(32,0,0,32,149.376,377.641)">
                        <path d="M0.077,-0.7L0.339,-0.7C0.406,-0.7 0.465,-0.686 0.518,-0.658C0.57,-0.63 0.611,-0.59 0.64,-0.537C0.669,-0.484 0.684,-0.422 0.684,-0.35C0.684,-0.278 0.669,-0.216 0.64,-0.163C0.611,-0.11 0.57,-0.07 0.518,-0.042C0.465,-0.014 0.406,-0 0.339,-0L0.077,-0L0.077,-0.7ZM0.339,-0.114C0.406,-0.114 0.456,-0.135 0.492,-0.177C0.527,-0.218 0.544,-0.276 0.544,-0.35C0.544,-0.424 0.527,-0.482 0.492,-0.524C0.456,-0.565 0.406,-0.586 0.339,-0.586L0.205,-0.586L0.205,-0.114L0.339,-0.114Z" style="fill:white;fill-rule:nonzero;"/>
                    </g>
                </g>
            </g>
        </g>
    </g>
</svg>
