<?xml version="1.0" encoding="UTF-8" standalone="no"?>
<!DOCTYPE svg PUBLIC "-//W3C//DTD SVG 1.1//EN" "http://www.w3.org/Graphics/SVG/1.1/DTD/svg11.dtd">
<svg width="100%" height="100%" viewBox="0 0 47 55" version="1.1" xmlns="http://www.w3.org/2000/svg" xmlns:xlink="http://www.w3.org/1999/xlink" xml:space="preserve" xmlns:serif="http://www.serif.com/" style="fill-rule:evenodd;clip-rule:evenodd;stroke-linejoin:round;stroke-miterlimit:2;">
    <g transform="matrix(1,0,0,1,-1400,-380)">
        <g transform="matrix(1,0,0,1,1252.66,-273.333)">
            <g id="iconC">
                <g transform="matrix(1,0,0,-1,125.398,621.508)">
                    <path d="M67.872,-85.926L23.275,-85.926L23.275,-54.103C23.275,-48.413 25.647,-43.168 29.954,-39.333C32.017,-37.496 34.426,-36.057 37.114,-35.055C39.854,-34.035 42.758,-33.517 45.745,-33.517L45.922,-33.517C51.854,-33.517 57.367,-35.58 61.444,-39.325C63.465,-41.181 65.047,-43.37 66.145,-45.83C67.291,-48.397 67.872,-51.18 67.872,-54.103L67.872,-85.926Z" style="fill:rgb(0,165,255);fill-rule:nonzero;"/>
                </g>
                <g transform="matrix(1,0,0,-1,125.398,621.508)">
                    <path d="M67.122,-85.176L67.122,-54.103C67.122,-51.286 66.563,-48.605 65.46,-46.136C64.404,-43.77 62.882,-41.664 60.937,-39.877C56.999,-36.26 51.666,-34.267 45.922,-34.267L45.745,-34.267C42.847,-34.267 40.031,-34.769 37.376,-35.758C34.775,-36.727 32.446,-38.118 30.452,-39.893C28.436,-41.689 26.856,-43.796 25.758,-46.157C24.608,-48.629 24.025,-51.302 24.025,-54.103L24.025,-85.176L67.122,-85.176M68.622,-86.676L22.525,-86.676L22.525,-54.103C22.525,-41.67 33.265,-32.767 45.745,-32.767L45.922,-32.767C58.402,-32.767 68.622,-41.67 68.622,-54.103L68.622,-86.676Z" style="fill:rgb(0,124,223);fill-rule:nonzero;"/>
                </g>
                <g transform="matrix(1,0,0,1,10.0752,316.982)">
                    <g id="C" transform="matrix(32,0,0,32,151.152,377.641)">
                        <path d="M0.394,0.014C0.323,0.014 0.261,-0.001 0.207,-0.031C0.152,-0.061 0.11,-0.103 0.08,-0.159C0.05,-0.214 0.035,-0.277 0.035,-0.35C0.035,-0.422 0.051,-0.486 0.082,-0.541C0.113,-0.596 0.156,-0.638 0.211,-0.669C0.266,-0.699 0.328,-0.714 0.398,-0.714C0.465,-0.714 0.526,-0.7 0.579,-0.673L0.565,-0.551C0.536,-0.564 0.509,-0.574 0.483,-0.581C0.456,-0.588 0.428,-0.591 0.397,-0.591C0.326,-0.591 0.271,-0.569 0.233,-0.525C0.194,-0.481 0.175,-0.423 0.175,-0.35C0.175,-0.277 0.194,-0.219 0.232,-0.175C0.269,-0.131 0.323,-0.109 0.394,-0.109C0.425,-0.109 0.454,-0.112 0.481,-0.119C0.507,-0.126 0.535,-0.136 0.565,-0.149L0.579,-0.027C0.521,0 0.459,0.014 0.394,0.014Z" style="fill:white;fill-rule:nonzero;"/>
                    </g>
                </g>
            </g>
        </g>
    </g>
</svg>
