<?xml version="1.0" encoding="UTF-8" standalone="no"?>
<!DOCTYPE svg PUBLIC "-//W3C//DTD SVG 1.1//EN" "http://www.w3.org/Graphics/SVG/1.1/DTD/svg11.dtd">
<svg width="100%" height="100%" viewBox="0 0 47 55" version="1.1" xmlns="http://www.w3.org/2000/svg" xmlns:xlink="http://www.w3.org/1999/xlink" xml:space="preserve" xmlns:serif="http://www.serif.com/" style="fill-rule:evenodd;clip-rule:evenodd;stroke-linejoin:round;stroke-miterlimit:2;">
    <g transform="matrix(1,0,0,1,-1400,-601)">
        <g transform="matrix(1,0,0,1,1252.66,-273.333)">
            <g id="iconF">
                <g transform="matrix(1,0,0,-1,125.398,842.537)">
                    <path d="M67.872,-85.926L23.275,-85.926L23.275,-54.103C23.275,-48.413 25.647,-43.168 29.954,-39.333C32.017,-37.496 34.426,-36.057 37.114,-35.055C39.854,-34.035 42.758,-33.517 45.745,-33.517L45.922,-33.517C51.854,-33.517 57.367,-35.58 61.444,-39.325C63.465,-41.181 65.047,-43.37 66.145,-45.83C67.291,-48.397 67.872,-51.18 67.872,-54.103L67.872,-85.926Z" style="fill:rgb(212,72,32);fill-rule:nonzero;"/>
                </g>
                <g transform="matrix(1,0,0,-1,125.398,842.537)">
                    <path d="M67.122,-85.176L67.122,-54.103C67.122,-51.286 66.563,-48.605 65.46,-46.136C64.404,-43.77 62.882,-41.664 60.937,-39.877C56.999,-36.26 51.666,-34.267 45.922,-34.267L45.745,-34.267C42.847,-34.267 40.031,-34.769 37.376,-35.758C34.775,-36.727 32.446,-38.118 30.452,-39.893C28.436,-41.689 26.856,-43.796 25.758,-46.157C24.608,-48.629 24.025,-51.302 24.025,-54.103L24.025,-85.176L67.122,-85.176M68.622,-86.676L22.525,-86.676L22.525,-54.103C22.525,-41.67 33.265,-32.767 45.745,-32.767L45.922,-32.767C58.402,-32.767 68.622,-41.67 68.622,-54.103L68.622,-86.676Z" style="fill:rgb(177,39,0);fill-rule:nonzero;"/>
                </g>
                <g transform="matrix(1,0,0,1,10.0752,538.982)">
                    <g id="F" transform="matrix(32,0,0,32,152.496,377.641)">
                        <path d="M0.077,-0.7L0.508,-0.7L0.508,-0.576L0.205,-0.576L0.205,-0.427L0.439,-0.427L0.439,-0.303L0.205,-0.303L0.205,-0L0.077,-0L0.077,-0.7Z" style="fill:white;fill-rule:nonzero;"/>
                    </g>
                </g>
            </g>
        </g>
    </g>
</svg>
