<?xml version="1.0" encoding="UTF-8" standalone="no"?>
<!DOCTYPE svg PUBLIC "-//W3C//DTD SVG 1.1//EN" "http://www.w3.org/Graphics/SVG/1.1/DTD/svg11.dtd">
<svg width="100%" height="100%" viewBox="0 0 46 54" version="1.1" xmlns="http://www.w3.org/2000/svg" xmlns:xlink="http://www.w3.org/1999/xlink" xml:space="preserve" xmlns:serif="http://www.serif.com/" style="fill-rule:evenodd;clip-rule:evenodd;stroke-linejoin:round;stroke-miterlimit:2;">
    <g id="iconB">
        <g id="Podklad">
            <g id="Border">
                <rect x="0.306" y="20.482" width="45.066" height="33.159" style="fill:rgb(57,134,20);"/>
                <path d="M45.372,20.482L0.306,20.482L0.306,53.641L45.372,53.641L45.372,20.482ZM0.356,20.532L0.356,53.591L45.322,53.591L45.322,20.532L0.356,20.532Z" style="fill:rgb(57,134,20);"/>
                <path d="M22.839,0.027L45.372,20.482L0.306,20.482L22.839,0.027Z" style="fill:rgb(57,134,20);"/>
                <path d="M22.839,0.027L45.372,20.482L0.306,20.482L22.839,0.027ZM0.435,20.432L45.242,20.432L22.839,0.094L0.435,20.432Z" style="fill:rgb(57,134,20);"/>
            </g>
            <g id="back">
                <rect x="1.619" y="21.199" width="42.3" height="31.45" style="fill:rgb(37,191,20);"/>
                <path d="M43.919,21.199L1.619,21.199L1.619,52.65L43.919,52.65L43.919,21.199ZM1.669,21.249L1.669,52.6L43.869,52.6L43.869,21.249L1.669,21.249Z" style="fill:rgb(37,191,20);"/>
                <path d="M22.769,1.824L43.919,21.199L1.619,21.199L22.769,1.824Z" style="fill:rgb(37,191,20);"/>
                <path d="M22.769,1.824L43.919,21.199L1.619,21.199L22.769,1.824ZM1.748,21.149L43.791,21.149L22.769,1.892L1.748,21.149Z" style="fill:rgb(37,191,20);"/>
            </g>
        </g>
        <path d="M13.45,48.601L23.847,48.601C29.905,48.601 34.717,46.066 34.717,40.351C34.717,36.613 32.526,34.508 29.69,33.778L29.69,33.606C31.968,32.746 33.342,30.04 33.342,27.548C33.342,22.177 28.831,20.587 23.031,20.587L13.45,20.587L13.45,48.601ZM19.766,31.801L19.766,25.485L22.773,25.485C25.738,25.485 27.155,26.302 27.155,28.493C27.155,30.512 25.824,31.801 22.73,31.801L19.766,31.801ZM19.766,43.703L19.766,36.484L23.332,36.484C26.812,36.484 28.53,37.473 28.53,39.922C28.53,42.5 26.769,43.703 23.332,43.703L19.766,43.703Z" style="fill:white;fill-rule:nonzero;"/>
    </g>
</svg>
