<?xml version="1.0" encoding="UTF-8" standalone="no"?>
<!DOCTYPE svg PUBLIC "-//W3C//DTD SVG 1.1//EN" "http://www.w3.org/Graphics/SVG/1.1/DTD/svg11.dtd">
<svg width="100%" height="100%" viewBox="0 0 46 55" version="1.1" xmlns="http://www.w3.org/2000/svg" xmlns:xlink="http://www.w3.org/1999/xlink" xml:space="preserve" xmlns:serif="http://www.serif.com/" style="fill-rule:evenodd;clip-rule:evenodd;stroke-linejoin:round;stroke-miterlimit:2;">
    <g id="iconD">
        <g id="Podklad">
            <g id="Border">
                <rect x="0.306" y="21.4" width="45.066" height="33.159" style="fill:rgb(194,114,41);"/>
                <path d="M22.839,0.945L45.372,21.4L0.306,21.4L22.839,0.945Z" style="fill:rgb(194,114,41);"/>
            </g>
            <g id="back">
                <rect x="1.619" y="22.118" width="42.3" height="31.45" style="fill:rgb(255,146,49);"/>
                <path d="M22.769,2.743L43.919,22.118L1.619,22.118L22.769,2.743Z" style="fill:rgb(255,146,49);"/>
            </g>
        </g>
        <path d="M13.45,50.51L21.699,50.51C29.905,50.51 35.405,45.999 35.405,36.375C35.405,26.75 29.905,22.497 21.355,22.497L13.45,22.497L13.45,50.51ZM19.766,45.397L19.766,27.61L20.969,27.61C25.738,27.61 28.917,29.672 28.917,36.375C28.917,43.077 25.738,45.397 20.969,45.397L19.766,45.397Z" style="fill:white;fill-rule:nonzero;"/>
    </g>
</svg>
