<?xml version="1.0" encoding="UTF-8" standalone="no"?>
<!DOCTYPE svg PUBLIC "-//W3C//DTD SVG 1.1//EN" "http://www.w3.org/Graphics/SVG/1.1/DTD/svg11.dtd">
<svg width="100%" height="100%" viewBox="0 0 46 55" version="1.1" xmlns="http://www.w3.org/2000/svg" xmlns:xlink="http://www.w3.org/1999/xlink" xml:space="preserve" xmlns:serif="http://www.serif.com/" style="fill-rule:evenodd;clip-rule:evenodd;stroke-linecap:round;stroke-miterlimit:1.5;">
    <g id="iconC">
        <g id="Podklad">
            <g id="Border">
                <rect x="0.306" y="21.394" width="45.066" height="33.159" style="fill:rgb(201,128,0);stroke:rgb(201,128,0);stroke-width:0.1px;"/>
                <path d="M22.839,0.939L45.372,21.394L0.306,21.394L22.839,0.939Z" style="fill:rgb(201,128,0);stroke:rgb(201,128,0);stroke-width:0.1px;"/>
            </g>
            <g id="back">
                <rect x="1.619" y="22.112" width="42.3" height="31.45" style="fill:rgb(255,200,19);stroke:rgb(255,200,19);stroke-width:0.1px;"/>
                <path d="M22.769,2.737L43.919,22.112L1.619,22.112L22.769,2.737Z" style="fill:rgb(255,200,19);stroke:rgb(255,200,19);stroke-width:0.1px;"/>
            </g>
        </g>
        <path d="M25.136,50.029C28.788,50.029 31.882,48.611 34.202,45.904L30.85,41.951C29.476,43.412 27.671,44.572 25.394,44.572C21.269,44.572 18.605,41.221 18.605,35.464C18.605,29.835 21.656,26.441 25.48,26.441C27.499,26.441 29.003,27.386 30.421,28.675L33.772,24.636C31.882,22.703 28.96,20.984 25.351,20.984C18.262,20.984 12.118,26.398 12.118,35.678C12.118,45.088 18.047,50.029 25.136,50.029Z" style="fill:white;fill-rule:nonzero;"/>
    </g>
</svg>
