<?xml version="1.0" encoding="UTF-8" standalone="no"?>
<!DOCTYPE svg PUBLIC "-//W3C//DTD SVG 1.1//EN" "http://www.w3.org/Graphics/SVG/1.1/DTD/svg11.dtd">
<svg width="100%" height="100%" viewBox="0 0 46 55" version="1.1" xmlns="http://www.w3.org/2000/svg" xmlns:xlink="http://www.w3.org/1999/xlink" xml:space="preserve" xmlns:serif="http://www.serif.com/" style="fill-rule:evenodd;clip-rule:evenodd;stroke-linejoin:round;stroke-miterlimit:2;">
    <g transform="matrix(1,0,0,1,-123,-419)">
        <g transform="matrix(2.55549,0,0,1.38743,32.1167,17.2999)">
            <g id="iconE" transform="matrix(0.391314,0,0,0.720759,27.9404,-11.7497)">
                <g id="Podklad" transform="matrix(1,0,0,1,-0.585711,280.241)">
                    <g id="Border">
                        <g transform="matrix(1.04711,0,0,1.05434,-109.83,110.449)">
                            <rect x="124.278" y="46.145" width="43.039" height="31.45" style="fill:rgb(192,49,1);"/>
                        </g>
                        <g transform="matrix(1.29027,0,0,1.14652,-145.407,108.05)">
                            <path d="M145.895,26.686L163.359,44.527L128.431,44.527L145.895,26.686Z" style="fill:rgb(192,49,1);"/>
                        </g>
                    </g>
                    <g id="back">
                        <g transform="matrix(0.98284,0,0,1,-100.528,113.674)">
                            <rect x="124.278" y="46.145" width="43.039" height="31.45" style="fill:rgb(233,77,1);"/>
                        </g>
                        <g transform="matrix(1.21107,0,0,1.08599,-133.922,111.463)">
                            <path d="M145.895,26.686L163.359,44.527L128.431,44.527L145.895,26.686Z" style="fill:rgb(233,77,1);"/>
                        </g>
                    </g>
                </g>
                <g transform="matrix(1.14023,0,0,1.14023,5.49694,417.191)">
                    <g transform="matrix(37.6811,0,0,37.6811,21.2198,44.9576)">
                        <path d="M0.077,-0L0.495,-0L0.495,-0.124L0.224,-0.124L0.224,-0.274L0.446,-0.274L0.446,-0.397L0.224,-0.397L0.224,-0.528L0.485,-0.528L0.485,-0.652L0.077,-0.652L0.077,-0Z" style="fill:white;fill-rule:nonzero;"/>
                    </g>
                </g>
            </g>
        </g>
    </g>
</svg>
