<?xml version="1.0" encoding="UTF-8" standalone="no"?>
<!DOCTYPE svg PUBLIC "-//W3C//DTD SVG 1.1//EN" "http://www.w3.org/Graphics/SVG/1.1/DTD/svg11.dtd">
<svg width="100%" height="100%" viewBox="0 0 46 55" version="1.1" xmlns="http://www.w3.org/2000/svg" xmlns:xlink="http://www.w3.org/1999/xlink" xml:space="preserve" xmlns:serif="http://www.serif.com/" style="fill-rule:evenodd;clip-rule:evenodd;stroke-linecap:round;stroke-miterlimit:1.5;">
    <g id="iconA">
        <g id="Podklad">
            <g id="Border">
                <rect x="0.236" y="20.915" width="45.066" height="33.159" style="fill:rgb(47,96,19);stroke:rgb(47,96,19);stroke-width:0.1px;"/>
                <path d="M22.769,0.46L45.302,20.915L0.236,20.915L22.769,0.46Z" style="fill:rgb(47,96,19);stroke:rgb(47,96,19);stroke-width:0.1px;"/>
            </g>
            <g id="back">
                <rect x="1.55" y="21.633" width="42.3" height="31.45" style="fill:rgb(33,147,5);stroke:rgb(33,147,5);stroke-width:0.1px;"/>
                <path d="M22.7,2.258L43.85,21.633L1.55,21.633L22.7,2.258Z" style="fill:rgb(33,147,5);stroke:rgb(33,147,5);stroke-width:0.1px;"/>
            </g>
        </g>
        <path d="M19.954,34.855C20.727,32.063 21.458,28.797 22.145,25.833L22.317,25.833C23.047,28.754 23.821,32.063 24.594,34.855L25.239,37.433L19.267,37.433L19.954,34.855ZM9.814,49.034L16.259,49.034L17.978,42.374L26.528,42.374L28.246,49.034L34.949,49.034L26.184,21.021L18.579,21.021L9.814,49.034Z" style="fill:white;fill-rule:nonzero;"/>
    </g>
</svg>
