<?xml version="1.0" encoding="UTF-8" standalone="no"?>
<!DOCTYPE svg PUBLIC "-//W3C//DTD SVG 1.1//EN" "http://www.w3.org/Graphics/SVG/1.1/DTD/svg11.dtd">
<svg width="100%" height="100%" viewBox="0 0 48 57" version="1.1" xmlns="http://www.w3.org/2000/svg" xmlns:xlink="http://www.w3.org/1999/xlink" xml:space="preserve" xmlns:serif="http://www.serif.com/" style="fill-rule:evenodd;clip-rule:evenodd;stroke-linecap:round;stroke-miterlimit:1.5;">
    <g transform="matrix(1,0,0,1,-122,-522)">
        <g transform="matrix(2.55549,0,0,1.38743,32.1167,17.2999)">
            <g id="iconF" transform="matrix(0.381974,0,0,0.70781,28.1252,16.0804)">
                <g id="Podklad" transform="matrix(1.02445,0,0,1.01829,-1.04834,351.875)">
                    <g id="Border">
                        <g transform="matrix(1.04711,0,0,1.05434,-109.83,110.449)">
                            <rect x="124.278" y="46.145" width="43.039" height="31.45" style="fill:rgb(102,39,0);stroke:rgb(102,39,0);stroke-width:0.95px;"/>
                        </g>
                        <g transform="matrix(1.29027,0,0,1.14652,-145.407,108.05)">
                            <path d="M145.895,26.686L163.359,44.527L128.431,44.527L145.895,26.686Z" style="fill:rgb(102,39,0);stroke:rgb(102,39,0);stroke-width:0.82px;"/>
                        </g>
                    </g>
                    <g id="back">
                        <g transform="matrix(0.98284,0,0,1,-100.528,113.674)">
                            <rect x="124.278" y="46.145" width="43.039" height="31.45" style="fill:rgb(182,12,11);stroke:rgb(182,12,11);stroke-width:1.01px;"/>
                        </g>
                        <g transform="matrix(1.21107,0,0,1.08599,-133.922,111.463)">
                            <path d="M145.895,26.686L163.359,44.527L128.431,44.527L145.895,26.686Z" style="fill:rgb(182,12,11);stroke:rgb(182,12,11);stroke-width:0.87px;"/>
                        </g>
                    </g>
                </g>
                <g transform="matrix(1.16811,0,0,1.16109,5.45629,490.946)">
                    <path d="M24.121,44.958L29.66,44.958L29.66,35.424L38.176,35.424L38.176,30.752L29.66,30.752L29.66,25.062L39.608,25.062L39.608,20.389L24.121,20.389L24.121,44.958Z" style="fill:white;fill-rule:nonzero;stroke:white;stroke-opacity:0;stroke-width:0.88px;stroke-linecap:butt;stroke-miterlimit:2;"/>
                </g>
            </g>
        </g>
    </g>
</svg>
