<?xml version="1.0" encoding="UTF-8" standalone="no"?>
<!DOCTYPE svg PUBLIC "-//W3C//DTD SVG 1.1//EN" "http://www.w3.org/Graphics/SVG/1.1/DTD/svg11.dtd">
<svg width="100%" height="100%" viewBox="0 0 46 55" version="1.1" xmlns="http://www.w3.org/2000/svg" xmlns:xlink="http://www.w3.org/1999/xlink" xml:space="preserve" xmlns:serif="http://www.serif.com/" style="fill-rule:evenodd;clip-rule:evenodd;stroke-linejoin:round;stroke-miterlimit:2;">
    <g transform="matrix(1,0,0,1,-123,-214)">
        <g transform="matrix(2.55549,0,0,1.38743,32.0474,17.2999)">
            <g transform="matrix(0.391314,0,0,0.720759,27.9404,-222.28)">
                <g id="Podklad" transform="matrix(1,0,0,1,-0.516385,367.39)">
                    <g id="Border">
                        <g transform="matrix(1.04711,0,0,1.05434,-109.83,110.449)">
                            <rect x="124.278" y="46.145" width="43.039" height="31.45" style="fill:rgb(0,30,59);"/>
                        </g>
                        <g transform="matrix(1.29027,0,0,1.14652,-145.407,108.05)">
                            <path d="M145.895,26.686L163.359,44.527L128.431,44.527L145.895,26.686Z" style="fill:rgb(0,30,59);"/>
                        </g>
                    </g>
                    <g id="back">
                        <g transform="matrix(0.98284,0,0,1,-100.528,113.674)">
                            <rect x="124.278" y="46.145" width="43.039" height="31.45" style="fill:rgb(0,45,90);"/>
                        </g>
                        <g transform="matrix(1.21107,0,0,1.08599,-133.922,111.463)">
                            <path d="M145.895,26.686L163.359,44.527L128.431,44.527L145.895,26.686Z" style="fill:rgb(0,45,90);"/>
                        </g>
                    </g>
                </g>
                <g transform="matrix(1.14023,0,0,1.14023,5.42761,503.348)">
                    <g transform="matrix(37.6811,0,0,37.6811,21.2198,44.9576)">
                        <path d="M0.349,0.012C0.434,0.012 0.506,-0.021 0.56,-0.084L0.482,-0.176C0.45,-0.142 0.408,-0.115 0.355,-0.115C0.259,-0.115 0.197,-0.193 0.197,-0.327C0.197,-0.458 0.268,-0.537 0.357,-0.537C0.404,-0.537 0.439,-0.515 0.472,-0.485L0.55,-0.579C0.506,-0.624 0.438,-0.664 0.354,-0.664C0.189,-0.664 0.046,-0.538 0.046,-0.322C0.046,-0.103 0.184,0.012 0.349,0.012Z" style="fill:white;fill-rule:nonzero;"/>
                    </g>
                </g>
            </g>
        </g>
    </g>
</svg>
