<?xml version="1.0" encoding="UTF-8" standalone="no"?>
<!DOCTYPE svg PUBLIC "-//W3C//DTD SVG 1.1//EN" "http://www.w3.org/Graphics/SVG/1.1/DTD/svg11.dtd">
<svg width="100%" height="100%" viewBox="0 0 46 55" version="1.1" xmlns="http://www.w3.org/2000/svg" xmlns:xlink="http://www.w3.org/1999/xlink" xml:space="preserve" xmlns:serif="http://www.serif.com/" style="fill-rule:evenodd;clip-rule:evenodd;stroke-linejoin:round;stroke-miterlimit:2;">
    <g transform="matrix(1,0,0,1,-123,-26)">
        <g transform="matrix(2.55549,0,0,1.38743,32.0474,17.2999)">
            <g transform="matrix(0.391314,0,0,0.720759,27.9488,-93.3286)">
                <g id="Podklad">
                    <g id="Border">
                        <g transform="matrix(1.04711,0,0,1.05434,-109.83,110.449)">
                            <rect x="124.278" y="46.145" width="43.039" height="31.45" style="fill:rgb(0,124,223);"/>
                        </g>
                        <g transform="matrix(1.29027,0,0,1.14652,-145.407,108.05)">
                            <path d="M145.895,26.686L163.359,44.527L128.431,44.527L145.895,26.686Z" style="fill:rgb(0,124,223);"/>
                        </g>
                    </g>
                    <g id="back">
                        <g transform="matrix(0.98284,0,0,1,-100.528,113.674)">
                            <rect x="124.278" y="46.145" width="43.039" height="31.45" style="fill:rgb(0,165,255);"/>
                        </g>
                        <g transform="matrix(1.21107,0,0,1.08599,-133.922,111.463)">
                            <path d="M145.895,26.686L163.359,44.527L128.431,44.527L145.895,26.686Z" style="fill:rgb(0,165,255);"/>
                        </g>
                    </g>
                </g>
                <g transform="matrix(1.14023,0,0,1.14023,5.944,135.959)">
                    <g transform="matrix(37.6811,0,0,37.6811,21.2198,44.9576)">
                        <path d="M0.23,-0.33C0.248,-0.395 0.265,-0.471 0.281,-0.54L0.285,-0.54C0.302,-0.472 0.32,-0.395 0.338,-0.33L0.353,-0.27L0.214,-0.27L0.23,-0.33ZM-0.006,-0L0.144,-0L0.184,-0.155L0.383,-0.155L0.423,-0L0.579,-0L0.375,-0.652L0.198,-0.652L-0.006,-0Z" style="fill:white;fill-rule:nonzero;"/>
                    </g>
                </g>
            </g>
        </g>
    </g>
</svg>
