<?xml version="1.0" encoding="UTF-8" standalone="no"?>
<!DOCTYPE svg PUBLIC "-//W3C//DTD SVG 1.1//EN" "http://www.w3.org/Graphics/SVG/1.1/DTD/svg11.dtd">
<svg width="100%" height="100%" viewBox="0 0 603 579" version="1.1" xmlns="http://www.w3.org/2000/svg" xmlns:xlink="http://www.w3.org/1999/xlink" xml:space="preserve" xmlns:serif="http://www.serif.com/" style="fill-rule:evenodd;clip-rule:evenodd;stroke-linejoin:round;stroke-miterlimit:2;">
    <g transform="matrix(1,0,0,1,-199.919,-82.3892)">
        <g id="Tmave-B-W" serif:id="Tmave B&amp;W">
            <g transform="matrix(0.813286,0,0,0.813286,199.618,81.9701)">
                <g transform="matrix(16.7299,0,0,16.7299,-5.81885,-8.10529)">
                    <path d="M34.793,43L34.793,25.814C34.793,19.254 29.401,14.556 22.816,14.556L22.723,14.556C16.138,14.556 10.471,19.254 10.471,25.814L10.471,43L34.793,43Z" style="fill:white;"/>
                </g>
                <g transform="matrix(16.7299,0,0,16.7299,-5.81885,-8.10529)">
                    <path d="M30.678,27.943C29.155,27.578 26.545,27.463 24.732,27.943C22.919,28.423 22.671,30.914 24.732,30.914C26.792,30.914 32.201,28.308 30.678,27.943Z"/>
                </g>
                <g transform="matrix(16.7299,0,0,16.7299,-5.81885,-8.10529)">
                    <path d="M14.6,27.943C16.123,27.578 18.733,27.463 20.546,27.943C22.359,28.423 22.606,30.914 20.546,30.914C18.485,30.914 13.077,28.308 14.6,27.943Z"/>
                </g>
                <g transform="matrix(16.7299,0,0,16.7299,-5.81885,-8.10529)">
                    <path d="M23.134,0.789C22.718,0.424 22.048,0.424 21.637,0.789L0.745,19.339C0.333,19.704 0.245,20.368 0.557,20.836L1.443,22.164C1.751,22.626 2.337,22.703 2.75,22.339L22.382,5.033L42.241,22.339C42.659,22.704 43.244,22.632 43.556,22.164L44.443,20.836C44.75,20.374 44.663,19.704 44.247,19.339L23.134,0.789Z" style="fill:white;"/>
                </g>
            </g>
            <g transform="matrix(0.813286,0,0,0.813286,198.618,81.9701)">
                <g transform="matrix(16.7299,0,0,16.7299,-5.81885,-8.10529)">
                    <path d="M30.678,27.943C29.155,27.578 26.545,27.463 24.732,27.943C22.919,28.423 22.671,30.914 24.732,30.914C26.792,30.914 32.201,28.308 30.678,27.943Z" style="fill:rgb(33,106,176);"/>
                </g>
                <g transform="matrix(16.7299,0,0,16.7299,-5.81885,-8.10529)">
                    <path d="M14.6,27.943C16.123,27.578 18.733,27.463 20.546,27.943C22.359,28.423 22.606,30.914 20.546,30.914C18.485,30.914 13.077,28.308 14.6,27.943Z" style="fill:rgb(33,106,176);"/>
                </g>
            </g>
        </g>
    </g>
</svg>
