<?xml version="1.0" encoding="UTF-8" standalone="no"?>
<!DOCTYPE svg PUBLIC "-//W3C//DTD SVG 1.1//EN" "http://www.w3.org/Graphics/SVG/1.1/DTD/svg11.dtd">
<svg width="100%" height="100%" viewBox="0 0 606 578" version="1.1" xmlns="http://www.w3.org/2000/svg" xmlns:xlink="http://www.w3.org/1999/xlink" xml:space="preserve" xmlns:serif="http://www.serif.com/" style="fill-rule:evenodd;clip-rule:evenodd;stroke-linejoin:round;stroke-miterlimit:2;">
    <g transform="matrix(1,0,0,1,-197,-81)">
        <g id="Svetle">
            <g transform="matrix(0.813286,0,0,0.813286,198.618,81.9701)">
                <g transform="matrix(16.7299,0,0,16.7299,-5.81885,-8.10529)">
                    <path d="M34.793,43l0,-17.186c0,-6.56 -5.392,-11.258 -11.977,-11.258l-0.093,0c-6.585,0 -12.252,4.698 -12.252,11.258l0,17.186l24.322,0Z" style="fill:rgb(37,39,45);"/>
                </g>
                <g transform="matrix(16.7299,0,0,16.7299,-5.81885,-8.10529)">
                    <path d="M30.678,27.943c-1.523,-0.365 -4.133,-0.48 -5.946,0c-1.813,0.48 -2.061,2.971 0,2.971c2.06,0 7.469,-2.606 5.946,-2.971Z" style="fill:rgb(33,106,176);"/>
                </g>
                <g transform="matrix(16.7299,0,0,16.7299,-5.81885,-8.10529)">
                    <path d="M14.6,27.943c1.523,-0.365 4.133,-0.48 5.946,0c1.813,0.48 2.06,2.971 0,2.971c-2.061,0 -7.469,-2.606 -5.946,-2.971Z" style="fill:rgb(33,106,176);"/>
                </g>
                <g transform="matrix(16.7299,0,0,16.7299,-5.81885,-8.10529)">
                    <path d="M23.134,0.789c-0.416,-0.365 -1.086,-0.365 -1.497,0l-20.892,18.55c-0.412,0.365 -0.5,1.029 -0.188,1.497l0.886,1.328c0.308,0.462 0.894,0.539 1.307,0.175l19.632,-17.306l19.859,17.306c0.418,0.365 1.003,0.293 1.315,-0.175l0.887,-1.328c0.307,-0.462 0.22,-1.132 -0.196,-1.497l-21.113,-18.55Z" style="fill:rgb(37,39,45);"/>
                </g>
            </g>
        </g>
    </g>
</svg>
