<?xml version="1.0" encoding="UTF-8" standalone="no"?>
<!DOCTYPE svg PUBLIC "-//W3C//DTD SVG 1.1//EN" "http://www.w3.org/Graphics/SVG/1.1/DTD/svg11.dtd">
<svg width="100%" height="100%" viewBox="0 0 720 809" version="1.1" xmlns="http://www.w3.org/2000/svg" xmlns:xlink="http://www.w3.org/1999/xlink" xml:space="preserve" xmlns:serif="http://www.serif.com/" style="fill-rule:evenodd;clip-rule:evenodd;stroke-linejoin:round;stroke-miterlimit:2;">
    <g transform="matrix(1,0,0,1,-139,-81)">
        <g id="Svetle">
            <g transform="matrix(0.813286,0,0,0.813286,198.618,81.9701)">
                <g transform="matrix(16.7299,0,0,16.7299,-5.81885,-8.10529)">
                    <path d="M34.793,43l0,-17.186c0,-6.56 -5.392,-11.258 -11.977,-11.258l-0.093,0c-6.585,0 -12.252,4.698 -12.252,11.258l0,17.186l24.322,0Z" style="fill:rgb(37,39,45);"/>
                </g>
                <g transform="matrix(16.7299,0,0,16.7299,-5.81885,-8.10529)">
                    <path d="M30.678,27.943c-1.523,-0.365 -4.133,-0.48 -5.946,0c-1.813,0.48 -2.061,2.971 0,2.971c2.06,0 7.469,-2.606 5.946,-2.971Z" style="fill:rgb(33,106,176);"/>
                </g>
                <g transform="matrix(16.7299,0,0,16.7299,-5.81885,-8.10529)">
                    <path d="M14.6,27.943c1.523,-0.365 4.133,-0.48 5.946,0c1.813,0.48 2.06,2.971 0,2.971c-2.061,0 -7.469,-2.606 -5.946,-2.971Z" style="fill:rgb(33,106,176);"/>
                </g>
                <g transform="matrix(16.7299,0,0,16.7299,-5.81885,-8.10529)">
                    <path d="M23.134,0.789c-0.416,-0.365 -1.086,-0.365 -1.497,0l-20.892,18.55c-0.412,0.365 -0.5,1.029 -0.188,1.497l0.886,1.328c0.308,0.462 0.894,0.539 1.307,0.175l19.632,-17.306l19.859,17.306c0.418,0.365 1.003,0.293 1.315,-0.175l0.887,-1.328c0.307,-0.462 0.22,-1.132 -0.196,-1.497l-21.113,-18.55Z" style="fill:rgb(37,39,45);"/>
                </g>
            </g>
            <g transform="matrix(6.89347,0,0,6.89347,-245.923,657.732)">
                <path d="M56.64,33l2.32,0l0,-5.8l5.28,0l0,5.8l2.32,0l0,-13.08l-2.32,0l0,5.26l-5.28,0l0,-5.26l-2.32,0l0,13.08Zm13.049,-2.52c0,1.7 0.6,2.76 2.24,2.76c0.54,0 0.94,-0.08 1.22,-0.2l-0.3,-1.72c-0.18,0.04 -0.26,0.04 -0.36,0.04c-0.24,0 -0.5,-0.2 -0.5,-0.76l0,-11.72l-2.3,0l0,11.6Zm5.448,2.52l2.3,0l0,-9.82l-2.3,0l0,9.82Zm3.76,-14.38l-2.28,0l-1.8,2.92l1.72,0l2.36,-2.92Zm0.909,9.48c0,3.24 1.58,5.14 4.04,5.14c1.06,0 2.06,-0.58 2.78,-1.3l0.08,0l0.16,1.06l1.9,0l0,-14.12l-2.3,0l0,3.56l0.08,1.58c-0.76,-0.66 -1.46,-1.08 -2.58,-1.08c-2.14,0 -4.16,1.96 -4.16,5.16Zm2.38,-0.02c0,-2.06 1.02,-3.24 2.28,-3.24c0.66,0 1.32,0.22 2,0.82l0,4.58c-0.66,0.76 -1.3,1.1 -2.06,1.1c-1.42,0 -2.22,-1.14 -2.22,-3.26Zm9.108,2.28c0,1.72 1.2,2.88 2.92,2.88c1.16,0 2.16,-0.58 3.04,-1.32l0.06,0l0.18,1.08l1.88,0l0,-5.82c0,-2.74 -1.2,-4.24 -3.66,-4.24c-1.56,0 -2.94,0.6 -4.02,1.28l0.84,1.54c0.86,-0.52 1.78,-0.96 2.76,-0.96c1.32,0 1.76,0.88 1.78,1.92c-4.02,0.44 -5.78,1.54 -5.78,3.64Zm2.24,-0.18c0,-0.98 0.88,-1.68 3.54,-2.02l0,2.2c-0.72,0.68 -1.34,1.08 -2.14,1.08c-0.82,0 -1.4,-0.38 -1.4,-1.26Zm8.029,-2.08c0,3.26 2.06,5.14 4.74,5.14c1.12,0 2.3,-0.44 3.22,-1.26l-0.96,-1.46c-0.54,0.44 -1.22,0.84 -2.02,0.84c-1.54,0 -2.62,-1.3 -2.62,-3.26c0,-1.98 1.1,-3.28 2.68,-3.28c0.62,0 1.14,0.26 1.66,0.72l1.1,-1.46c-0.66,-0.64 -1.62,-1.14 -2.88,-1.14c-2.62,0 -4.92,1.88 -4.92,5.16Zm3.94,-6.56l1.86,0l1.9,-2.92l-1.58,0l-1.2,1.7l-0.08,0l-1.2,-1.7l-1.6,0l1.9,2.92Z" style="fill:rgb(37,39,45);"/>
                <path d="M115.42,31.86c1,0.82 2.5,1.38 3.8,1.38c2.66,0 4.08,-1.4 4.08,-3.2c0,-1.82 -1.42,-2.52 -2.68,-2.98c-1.02,-0.38 -1.94,-0.62 -1.94,-1.26c0,-0.5 0.36,-0.78 1.12,-0.78c0.7,0 1.38,0.32 2.1,0.84l1.32,-1.76c-0.86,-0.64 -1.98,-1.26 -3.5,-1.26c-2.3,0 -3.8,1.26 -3.8,3.1c0,1.64 1.42,2.46 2.62,2.92c1.02,0.4 2.02,0.7 2.02,1.36c0,0.52 -0.38,0.84 -1.26,0.84c-0.84,0 -1.66,-0.36 -2.56,-1.04l-1.32,1.84Zm10.169,-2.46c0,2.3 0.96,3.84 3.42,3.84c0.96,0 1.68,-0.2 2.2,-0.36l-0.46,-2.14c-0.26,0.1 -0.62,0.2 -0.94,0.2c-0.78,0 -1.28,-0.46 -1.28,-1.58l0,-3.98l2.38,0l0,-2.3l-2.38,0l0,-2.64l-2.44,0l-0.34,2.64l-1.52,0.12l0,2.18l1.36,0l0,4.02Zm6.688,0.84c0,1.68 1.14,3 2.94,3c1.12,0 2.06,-0.52 2.9,-1.26l0.06,0l0.22,1.02l2.4,0l0,-5.68c0,-3.04 -1.4,-4.48 -3.94,-4.48c-1.56,0 -2.98,0.54 -4.24,1.3l1.04,1.94c0.96,-0.56 1.8,-0.9 2.64,-0.9c1.06,0 1.5,0.56 1.56,1.44c-3.92,0.4 -5.58,1.54 -5.58,3.62Zm2.8,-0.22c0,-0.76 0.68,-1.36 2.78,-1.64l0,1.74c-0.52,0.52 -0.96,0.84 -1.64,0.84c-0.7,0 -1.14,-0.3 -1.14,-0.94Zm4.86,-11.5l-2.84,0l-1.78,3l2.14,0l2.48,-3Zm3.809,10.88c0,2.3 0.96,3.84 3.42,3.84c0.96,0 1.68,-0.2 2.2,-0.36l-0.46,-2.14c-0.26,0.1 -0.62,0.2 -0.94,0.2c-0.78,0 -1.28,-0.46 -1.28,-1.58l0,-3.98l2.38,0l0,-2.3l-2.38,0l0,-2.64l-2.44,0l-0.34,2.64l-1.52,0.12l0,2.18l1.36,0l0,4.02Zm7.148,-0.16c0,2.48 0.92,4 3.08,4c1.36,0 2.3,-0.62 3.12,-1.62l0.08,0l0.2,1.38l2.4,0l0,-9.92l-2.94,0l0,6.56c-0.56,0.78 -1.02,1.1 -1.76,1.1c-0.84,0 -1.24,-0.46 -1.24,-1.88l0,-5.78l-2.94,0l0,6.16Z" style="fill:rgb(33,106,176);"/>
            </g>
        </g>
    </g>
</svg>
