<?xml version="1.0" encoding="UTF-8" standalone="no"?>
<!DOCTYPE svg PUBLIC "-//W3C//DTD SVG 1.1//EN" "http://www.w3.org/Graphics/SVG/1.1/DTD/svg11.dtd">
<svg width="100%" height="100%" viewBox="0 0 220 35" version="1.1" xmlns="http://www.w3.org/2000/svg" xmlns:xlink="http://www.w3.org/1999/xlink" xml:space="preserve" xmlns:serif="http://www.serif.com/" style="fill-rule:evenodd;clip-rule:evenodd;stroke-linejoin:round;stroke-miterlimit:2;">
    <g id="White" transform="matrix(0.987946,0,0,0.838202,3.09832,5.64046)">
        <rect x="-3.136" y="-6.729" width="222.547" height="41.689" style="fill:none;"/>
        <g transform="matrix(1.52235,0,0,1.79431,-16.0446,-17.5652)">
            <g transform="matrix(1.11035,0,0,1.11035,-23.4008,-8.052)">
                <path d="M56.64,33L58.96,33L58.96,27.2L64.24,27.2L64.24,33L66.56,33L66.56,19.92L64.24,19.92L64.24,25.18L58.96,25.18L58.96,19.92L56.64,19.92L56.64,33ZM69.689,30.48C69.689,32.18 70.289,33.24 71.929,33.24C72.469,33.24 72.869,33.16 73.149,33.04L72.849,31.32C72.669,31.36 72.589,31.36 72.489,31.36C72.249,31.36 71.989,31.16 71.989,30.6L71.989,18.88L69.689,18.88L69.689,30.48ZM75.137,33L77.437,33L77.437,23.18L75.137,23.18L75.137,33ZM78.897,18.62L76.617,18.62L74.817,21.54L76.537,21.54L78.897,18.62ZM79.806,28.1C79.806,31.34 81.386,33.24 83.846,33.24C84.906,33.24 85.906,32.66 86.626,31.94L86.706,31.94L86.866,33L88.766,33L88.766,18.88L86.466,18.88L86.466,22.44L86.546,24.02C85.786,23.36 85.086,22.94 83.966,22.94C81.826,22.94 79.806,24.9 79.806,28.1ZM82.186,28.08C82.186,26.02 83.206,24.84 84.466,24.84C85.126,24.84 85.786,25.06 86.466,25.66L86.466,30.24C85.806,31 85.166,31.34 84.406,31.34C82.986,31.34 82.186,30.2 82.186,28.08ZM91.294,30.36C91.294,32.08 92.494,33.24 94.214,33.24C95.374,33.24 96.374,32.66 97.254,31.92L97.314,31.92L97.494,33L99.374,33L99.374,27.18C99.374,24.44 98.174,22.94 95.714,22.94C94.154,22.94 92.774,23.54 91.694,24.22L92.534,25.76C93.394,25.24 94.314,24.8 95.294,24.8C96.614,24.8 97.054,25.68 97.074,26.72C93.054,27.16 91.294,28.26 91.294,30.36ZM93.534,30.18C93.534,29.2 94.414,28.5 97.074,28.16L97.074,30.36C96.354,31.04 95.734,31.44 94.934,31.44C94.114,31.44 93.534,31.06 93.534,30.18ZM101.563,28.1C101.563,31.36 103.623,33.24 106.303,33.24C107.423,33.24 108.603,32.8 109.523,31.98L108.563,30.52C108.023,30.96 107.343,31.36 106.543,31.36C105.003,31.36 103.923,30.06 103.923,28.1C103.923,26.12 105.023,24.82 106.603,24.82C107.223,24.82 107.743,25.08 108.263,25.54L109.363,24.08C108.703,23.44 107.743,22.94 106.483,22.94C103.863,22.94 101.563,24.82 101.563,28.1ZM105.503,21.54L107.363,21.54L109.263,18.62L107.683,18.62L106.483,20.32L106.403,20.32L105.203,18.62L103.603,18.62L105.503,21.54Z" style="fill:white;"/>
            </g>
            <g transform="matrix(1.11035,0,0,1.11035,-23.4008,-7.99649)">
                <path d="M115.42,31.86C116.42,32.68 117.92,33.24 119.22,33.24C121.88,33.24 123.3,31.84 123.3,30.04C123.3,28.22 121.88,27.52 120.62,27.06C119.6,26.68 118.68,26.44 118.68,25.8C118.68,25.3 119.04,25.02 119.8,25.02C120.5,25.02 121.18,25.34 121.9,25.86L123.22,24.1C122.36,23.46 121.24,22.84 119.72,22.84C117.42,22.84 115.92,24.1 115.92,25.94C115.92,27.58 117.34,28.4 118.54,28.86C119.56,29.26 120.56,29.56 120.56,30.22C120.56,30.74 120.18,31.06 119.3,31.06C118.46,31.06 117.64,30.7 116.74,30.02L115.42,31.86ZM125.589,29.4C125.589,31.7 126.549,33.24 129.009,33.24C129.969,33.24 130.689,33.04 131.209,32.88L130.749,30.74C130.489,30.84 130.129,30.94 129.809,30.94C129.029,30.94 128.529,30.48 128.529,29.36L128.529,25.38L130.909,25.38L130.909,23.08L128.529,23.08L128.529,20.44L126.089,20.44L125.749,23.08L124.229,23.2L124.229,25.38L125.589,25.38L125.589,29.4ZM132.277,30.24C132.277,31.92 133.417,33.24 135.217,33.24C136.337,33.24 137.277,32.72 138.117,31.98L138.177,31.98L138.397,33L140.797,33L140.797,27.32C140.797,24.28 139.397,22.84 136.857,22.84C135.297,22.84 133.877,23.38 132.617,24.14L133.657,26.08C134.617,25.52 135.457,25.18 136.297,25.18C137.357,25.18 137.797,25.74 137.857,26.62C133.937,27.02 132.277,28.16 132.277,30.24ZM135.077,30.02C135.077,29.26 135.757,28.66 137.857,28.38L137.857,30.12C137.337,30.64 136.897,30.96 136.217,30.96C135.517,30.96 135.077,30.66 135.077,30.02ZM139.937,18.52L137.097,18.52L135.317,21.52L137.457,21.52L139.937,18.52ZM143.746,29.4C143.746,31.7 144.706,33.24 147.166,33.24C148.126,33.24 148.846,33.04 149.366,32.88L148.906,30.74C148.646,30.84 148.286,30.94 147.966,30.94C147.186,30.94 146.686,30.48 146.686,29.36L146.686,25.38L149.066,25.38L149.066,23.08L146.686,23.08L146.686,20.44L144.246,20.44L143.906,23.08L142.386,23.2L142.386,25.38L143.746,25.38L143.746,29.4ZM150.894,29.24C150.894,31.72 151.814,33.24 153.974,33.24C155.334,33.24 156.274,32.62 157.094,31.62L157.174,31.62L157.374,33L159.774,33L159.774,23.08L156.834,23.08L156.834,29.64C156.274,30.42 155.814,30.74 155.074,30.74C154.234,30.74 153.834,30.28 153.834,28.86L153.834,23.08L150.894,23.08L150.894,29.24Z" style="fill:rgb(33,106,176);"/>
            </g>
        </g>
        <g id="Icon">
            <g transform="matrix(0.804059,0,0,0.947703,-2.42467,-6.62185)">
                <path d="M34.793,43L34.793,25.814C34.793,19.254 29.401,14.556 22.816,14.556L22.723,14.556C16.138,14.556 10.471,19.254 10.471,25.814L10.471,43L34.793,43Z" style="fill:white;"/>
            </g>
            <g transform="matrix(0.804059,0,0,0.947703,-2.42467,-6.62185)">
                <path d="M30.678,27.943C29.155,27.578 26.545,27.463 24.732,27.943C22.919,28.423 22.671,30.914 24.732,30.914C26.792,30.914 32.201,28.308 30.678,27.943Z" style="fill:rgb(33,106,176);"/>
            </g>
            <g transform="matrix(0.804059,0,0,0.947703,-2.42467,-6.62185)">
                <path d="M14.6,27.943C16.123,27.578 18.733,27.463 20.546,27.943C22.359,28.423 22.606,30.914 20.546,30.914C18.485,30.914 13.077,28.308 14.6,27.943Z" style="fill:rgb(33,106,176);"/>
            </g>
            <g transform="matrix(0.804059,0,0,0.947703,-2.42467,-6.62185)">
                <path d="M23.134,0.789C22.718,0.424 22.048,0.424 21.637,0.789L0.745,19.339C0.333,19.704 0.245,20.368 0.557,20.836L1.443,22.164C1.751,22.626 2.337,22.703 2.75,22.339L22.382,5.033L42.241,22.339C42.659,22.704 43.244,22.632 43.556,22.164L44.443,20.836C44.75,20.374 44.663,19.704 44.247,19.339L23.134,0.789Z" style="fill:white;"/>
            </g>
        </g>
    </g>
</svg>
