<?xml version="1.0" encoding="UTF-8" standalone="no"?>
<!DOCTYPE svg PUBLIC "-//W3C//DTD SVG 1.1//EN" "http://www.w3.org/Graphics/SVG/1.1/DTD/svg11.dtd">
<svg width="100%" height="100%" viewBox="0 0 1000 1000" version="1.1" xmlns="http://www.w3.org/2000/svg" xmlns:xlink="http://www.w3.org/1999/xlink" xml:space="preserve" xmlns:serif="http://www.serif.com/" style="fill-rule:evenodd;clip-rule:evenodd;stroke-linejoin:round;stroke-miterlimit:2;">
    <g id="Tmave-with-claim" serif:id="Tmave with claim">
        <g transform="matrix(1,0,0,1,1,-1.42109e-14)">
            <rect x="-9.912" y="-8.411" width="1053.81" height="1124.37" style="fill:rgb(33,106,176);"/>
        </g>
        <g transform="matrix(1,0,0,1,24.1811,-219.897)">
            <g transform="matrix(52,0,0,52,114.9,945.507)">
                <path d="M0.08,0L0.08,-0.716L0.175,-0.716L0.175,-0.422L0.547,-0.422L0.547,-0.716L0.642,-0.716L0.642,0L0.547,0L0.547,-0.337L0.175,-0.337L0.175,0L0.08,0Z" style="fill:white;fill-rule:nonzero;"/>
            </g>
            <g transform="matrix(52,0,0,52,152.453,945.507)">
                <rect x="0.064" y="-0.716" width="0.088" height="0.716" style="fill:white;fill-rule:nonzero;"/>
            </g>
            <g transform="matrix(52,0,0,52,164.005,945.507)">
                <path d="M0.097,0L0.097,-0.519L0.185,-0.519L0.185,0L0.097,0ZM0.092,-0.583L0.157,-0.72L0.272,-0.72L0.165,-0.583L0.092,-0.583Z" style="fill:white;fill-rule:nonzero;"/>
            </g>
            <g transform="matrix(52,0,0,52,178.453,945.507)">
                <path d="M0.402,0L0.402,-0.065C0.369,-0.014 0.321,0.012 0.257,0.012C0.216,0.012 0.178,0 0.143,-0.022C0.109,-0.045 0.082,-0.077 0.063,-0.118C0.044,-0.159 0.034,-0.206 0.034,-0.259C0.034,-0.311 0.043,-0.358 0.06,-0.4C0.077,-0.442 0.103,-0.474 0.138,-0.497C0.172,-0.519 0.211,-0.53 0.253,-0.53C0.285,-0.53 0.313,-0.524 0.337,-0.51C0.361,-0.497 0.381,-0.48 0.396,-0.459L0.396,-0.716L0.484,-0.716L0.484,0L0.402,0ZM0.125,-0.259C0.125,-0.192 0.139,-0.143 0.167,-0.11C0.194,-0.077 0.228,-0.061 0.266,-0.061C0.304,-0.061 0.337,-0.076 0.364,-0.108C0.39,-0.139 0.404,-0.187 0.404,-0.251C0.404,-0.322 0.39,-0.375 0.363,-0.408C0.335,-0.441 0.302,-0.458 0.262,-0.458C0.223,-0.458 0.19,-0.442 0.164,-0.41C0.138,-0.378 0.125,-0.327 0.125,-0.259Z" style="fill:white;fill-rule:nonzero;"/>
            </g>
            <g transform="matrix(52,0,0,52,207.373,945.507)">
                <path d="M0.404,-0.064C0.372,-0.036 0.34,-0.017 0.31,-0.005C0.28,0.006 0.248,0.012 0.213,0.012C0.156,0.012 0.113,-0.002 0.082,-0.03C0.051,-0.058 0.036,-0.093 0.036,-0.137C0.036,-0.162 0.042,-0.185 0.053,-0.206C0.065,-0.227 0.08,-0.244 0.099,-0.257C0.118,-0.27 0.139,-0.279 0.162,-0.286C0.179,-0.29 0.205,-0.295 0.24,-0.299C0.311,-0.307 0.363,-0.317 0.397,-0.329C0.397,-0.341 0.397,-0.349 0.397,-0.352C0.397,-0.388 0.389,-0.413 0.373,-0.428C0.35,-0.448 0.317,-0.458 0.272,-0.458C0.231,-0.458 0.201,-0.45 0.181,-0.436C0.161,-0.421 0.147,-0.396 0.137,-0.359L0.051,-0.371C0.059,-0.407 0.072,-0.437 0.09,-0.46C0.108,-0.482 0.134,-0.5 0.167,-0.512C0.201,-0.524 0.241,-0.53 0.285,-0.53C0.329,-0.53 0.365,-0.525 0.393,-0.515C0.421,-0.504 0.441,-0.491 0.454,-0.475C0.467,-0.46 0.476,-0.44 0.481,-0.416C0.484,-0.401 0.486,-0.374 0.486,-0.334L0.486,-0.217C0.486,-0.136 0.488,-0.084 0.491,-0.062C0.495,-0.041 0.503,-0.02 0.514,0L0.422,0C0.413,-0.018 0.407,-0.04 0.404,-0.064ZM0.397,-0.26C0.365,-0.247 0.317,-0.236 0.253,-0.227C0.217,-0.222 0.192,-0.216 0.177,-0.209C0.162,-0.203 0.15,-0.193 0.142,-0.181C0.134,-0.168 0.13,-0.154 0.13,-0.139C0.13,-0.116 0.139,-0.096 0.156,-0.081C0.174,-0.065 0.2,-0.057 0.234,-0.057C0.268,-0.057 0.298,-0.065 0.325,-0.079C0.351,-0.094 0.37,-0.114 0.383,-0.14C0.392,-0.16 0.397,-0.189 0.397,-0.228L0.397,-0.26ZM0.226,-0.583L0.291,-0.72L0.406,-0.72L0.299,-0.583L0.226,-0.583Z" style="fill:white;fill-rule:nonzero;"/>
            </g>
            <g transform="matrix(52,0,0,52,236.292,945.507)">
                <path d="M0.066,0L0.066,-0.519L0.145,-0.519L0.145,-0.446C0.161,-0.471 0.182,-0.492 0.209,-0.507C0.236,-0.523 0.267,-0.53 0.302,-0.53C0.34,-0.53 0.372,-0.522 0.396,-0.506C0.421,-0.49 0.438,-0.468 0.448,-0.439C0.489,-0.5 0.543,-0.53 0.608,-0.53C0.66,-0.53 0.699,-0.516 0.727,-0.488C0.755,-0.459 0.769,-0.415 0.769,-0.356L0.769,0L0.681,0L0.681,-0.327C0.681,-0.362 0.678,-0.387 0.673,-0.403C0.667,-0.418 0.657,-0.431 0.642,-0.44C0.627,-0.449 0.609,-0.454 0.589,-0.454C0.552,-0.454 0.522,-0.442 0.498,-0.418C0.474,-0.393 0.462,-0.355 0.462,-0.301L0.462,0L0.374,0L0.374,-0.337C0.374,-0.376 0.367,-0.405 0.353,-0.425C0.338,-0.444 0.315,-0.454 0.282,-0.454C0.257,-0.454 0.235,-0.448 0.214,-0.435C0.193,-0.422 0.177,-0.403 0.168,-0.377C0.159,-0.352 0.154,-0.316 0.154,-0.269L0.154,0L0.066,0Z" style="fill:white;fill-rule:nonzero;"/>
            </g>
            <g transform="matrix(52,0,0,52,279.609,945.507)">
                <path d="M0.421,-0.167L0.512,-0.156C0.497,-0.103 0.471,-0.062 0.432,-0.032C0.393,-0.003 0.344,0.012 0.284,0.012C0.208,0.012 0.148,-0.012 0.103,-0.058C0.059,-0.105 0.037,-0.171 0.037,-0.255C0.037,-0.342 0.059,-0.41 0.104,-0.458C0.149,-0.506 0.207,-0.53 0.279,-0.53C0.348,-0.53 0.405,-0.507 0.449,-0.459C0.493,-0.412 0.515,-0.346 0.515,-0.26C0.515,-0.255 0.514,-0.247 0.514,-0.237L0.127,-0.237C0.131,-0.18 0.147,-0.136 0.176,-0.106C0.205,-0.076 0.241,-0.061 0.284,-0.061C0.316,-0.061 0.344,-0.069 0.367,-0.086C0.389,-0.103 0.408,-0.13 0.421,-0.167ZM0.132,-0.309L0.422,-0.309C0.418,-0.353 0.407,-0.385 0.389,-0.407C0.361,-0.441 0.324,-0.458 0.28,-0.458C0.239,-0.458 0.205,-0.444 0.178,-0.417C0.15,-0.39 0.135,-0.354 0.132,-0.309Z" style="fill:white;fill-rule:nonzero;"/>
            </g>
            <g transform="matrix(52,0,0,52,322.976,945.507)">
                <path d="M0.065,-0.614L0.065,-0.716L0.153,-0.716L0.153,-0.614L0.065,-0.614ZM-0.046,0.201L-0.029,0.126C-0.012,0.131 0.002,0.133 0.012,0.133C0.03,0.133 0.043,0.127 0.052,0.115C0.061,0.104 0.065,0.074 0.065,0.026L0.065,-0.519L0.153,-0.519L0.153,0.028C0.153,0.092 0.145,0.137 0.128,0.162C0.107,0.194 0.072,0.21 0.023,0.21C-0.001,0.21 -0.024,0.207 -0.046,0.201Z" style="fill:white;fill-rule:nonzero;"/>
            </g>
            <g transform="matrix(52,0,0,52,334.529,945.507)">
                <path d="M0.421,-0.167L0.512,-0.156C0.497,-0.103 0.471,-0.062 0.432,-0.032C0.393,-0.003 0.344,0.012 0.284,0.012C0.208,0.012 0.148,-0.012 0.103,-0.058C0.059,-0.105 0.037,-0.171 0.037,-0.255C0.037,-0.342 0.059,-0.41 0.104,-0.458C0.149,-0.506 0.207,-0.53 0.279,-0.53C0.348,-0.53 0.405,-0.507 0.449,-0.459C0.493,-0.412 0.515,-0.346 0.515,-0.26C0.515,-0.255 0.514,-0.247 0.514,-0.237L0.127,-0.237C0.131,-0.18 0.147,-0.136 0.176,-0.106C0.205,-0.076 0.241,-0.061 0.284,-0.061C0.316,-0.061 0.344,-0.069 0.367,-0.086C0.389,-0.103 0.408,-0.13 0.421,-0.167ZM0.132,-0.309L0.422,-0.309C0.418,-0.353 0.407,-0.385 0.389,-0.407C0.361,-0.441 0.324,-0.458 0.28,-0.458C0.239,-0.458 0.205,-0.444 0.178,-0.417C0.15,-0.39 0.135,-0.354 0.132,-0.309Z" style="fill:white;fill-rule:nonzero;"/>
            </g>
            <g transform="matrix(52,0,0,52,363.449,945.507)">
                <path d="M0.089,0L0.089,-0.1L0.189,-0.1L0.189,0C0.189,0.037 0.182,0.066 0.169,0.089C0.156,0.112 0.136,0.129 0.107,0.142L0.083,0.104C0.102,0.096 0.115,0.084 0.124,0.068C0.133,0.052 0.138,0.03 0.139,0L0.089,0Z" style="fill:white;fill-rule:nonzero;"/>
            </g>
            <g transform="matrix(52,0,0,52,392.343,945.507)">
                <path d="M0.066,0.199L0.066,-0.519L0.146,-0.519L0.146,-0.451C0.165,-0.478 0.186,-0.497 0.21,-0.51C0.234,-0.524 0.263,-0.53 0.296,-0.53C0.341,-0.53 0.38,-0.519 0.414,-0.496C0.447,-0.473 0.473,-0.441 0.49,-0.4C0.507,-0.358 0.516,-0.313 0.516,-0.263C0.516,-0.21 0.507,-0.162 0.488,-0.12C0.469,-0.077 0.441,-0.045 0.405,-0.022C0.368,0 0.33,0.012 0.29,0.012C0.261,0.012 0.234,0.006 0.211,-0.007C0.188,-0.019 0.169,-0.035 0.154,-0.054L0.154,0.199L0.066,0.199ZM0.146,-0.256C0.146,-0.19 0.159,-0.14 0.186,-0.108C0.213,-0.076 0.246,-0.061 0.284,-0.061C0.323,-0.061 0.357,-0.077 0.385,-0.11C0.412,-0.143 0.426,-0.194 0.426,-0.264C0.426,-0.33 0.413,-0.379 0.385,-0.412C0.358,-0.445 0.326,-0.461 0.288,-0.461C0.251,-0.461 0.218,-0.444 0.189,-0.409C0.16,-0.374 0.146,-0.323 0.146,-0.256Z" style="fill:white;fill-rule:nonzero;"/>
            </g>
            <g transform="matrix(52,0,0,52,421.263,945.507)">
                <path d="M0.065,0L0.065,-0.519L0.144,-0.519L0.144,-0.44C0.164,-0.477 0.183,-0.501 0.2,-0.513C0.217,-0.524 0.236,-0.53 0.256,-0.53C0.286,-0.53 0.316,-0.521 0.347,-0.502L0.316,-0.42C0.295,-0.433 0.273,-0.439 0.252,-0.439C0.233,-0.439 0.215,-0.434 0.2,-0.422C0.185,-0.411 0.174,-0.395 0.167,-0.374C0.158,-0.343 0.153,-0.309 0.153,-0.271L0.153,0L0.065,0Z" style="fill:white;fill-rule:nonzero;"/>
            </g>
            <g transform="matrix(52,0,0,52,438.58,945.507)">
                <path d="M0.033,-0.259C0.033,-0.355 0.06,-0.426 0.113,-0.473C0.158,-0.511 0.212,-0.53 0.276,-0.53C0.348,-0.53 0.406,-0.507 0.451,-0.46C0.496,-0.413 0.519,-0.349 0.519,-0.267C0.519,-0.2 0.509,-0.147 0.489,-0.109C0.469,-0.071 0.44,-0.041 0.402,-0.02C0.363,0.001 0.322,0.012 0.276,0.012C0.204,0.012 0.145,-0.012 0.1,-0.058C0.056,-0.105 0.033,-0.172 0.033,-0.259ZM0.124,-0.259C0.124,-0.193 0.138,-0.143 0.167,-0.11C0.196,-0.077 0.232,-0.061 0.276,-0.061C0.32,-0.061 0.356,-0.077 0.385,-0.11C0.414,-0.144 0.429,-0.194 0.429,-0.262C0.429,-0.326 0.414,-0.375 0.385,-0.408C0.356,-0.441 0.32,-0.458 0.276,-0.458C0.232,-0.458 0.196,-0.441 0.167,-0.408C0.138,-0.375 0.124,-0.326 0.124,-0.259Z" style="fill:white;fill-rule:nonzero;"/>
            </g>
            <g transform="matrix(52,0,0,52,467.499,945.507)">
                <path d="M0.258,-0.079L0.271,-0.001C0.246,0.004 0.224,0.007 0.204,0.007C0.172,0.007 0.147,0.002 0.13,-0.008C0.112,-0.018 0.1,-0.032 0.093,-0.048C0.086,-0.065 0.082,-0.099 0.082,-0.152L0.082,-0.45L0.018,-0.45L0.018,-0.519L0.082,-0.519L0.082,-0.647L0.169,-0.7L0.169,-0.519L0.258,-0.519L0.258,-0.45L0.169,-0.45L0.169,-0.147C0.169,-0.122 0.171,-0.106 0.174,-0.099C0.177,-0.091 0.182,-0.086 0.189,-0.082C0.196,-0.077 0.206,-0.075 0.219,-0.075C0.229,-0.075 0.242,-0.076 0.258,-0.079Z" style="fill:white;fill-rule:nonzero;"/>
            </g>
            <g transform="matrix(52,0,0,52,481.947,945.507)">
                <path d="M0.033,-0.259C0.033,-0.355 0.06,-0.426 0.113,-0.473C0.158,-0.511 0.212,-0.53 0.276,-0.53C0.348,-0.53 0.406,-0.507 0.451,-0.46C0.496,-0.413 0.519,-0.349 0.519,-0.267C0.519,-0.2 0.509,-0.147 0.489,-0.109C0.469,-0.071 0.44,-0.041 0.402,-0.02C0.363,0.001 0.322,0.012 0.276,0.012C0.204,0.012 0.145,-0.012 0.1,-0.058C0.056,-0.105 0.033,-0.172 0.033,-0.259ZM0.124,-0.259C0.124,-0.193 0.138,-0.143 0.167,-0.11C0.196,-0.077 0.232,-0.061 0.276,-0.061C0.32,-0.061 0.356,-0.077 0.385,-0.11C0.414,-0.144 0.429,-0.194 0.429,-0.262C0.429,-0.326 0.414,-0.375 0.385,-0.408C0.356,-0.441 0.32,-0.458 0.276,-0.458C0.232,-0.458 0.196,-0.441 0.167,-0.408C0.138,-0.375 0.124,-0.326 0.124,-0.259Z" style="fill:white;fill-rule:nonzero;"/>
            </g>
            <g transform="matrix(52,0,0,52,510.867,945.507)">
                <path d="M0.02,0L0.02,-0.071L0.35,-0.45C0.312,-0.448 0.279,-0.447 0.25,-0.447L0.039,-0.447L0.039,-0.519L0.463,-0.519L0.463,-0.46L0.182,-0.131L0.128,-0.071C0.167,-0.074 0.204,-0.076 0.239,-0.076L0.479,-0.076L0.479,0L0.02,0ZM0.265,-0.637L0.319,-0.72L0.418,-0.72L0.309,-0.583L0.215,-0.583L0.109,-0.72L0.21,-0.72L0.265,-0.637Z" style="fill:white;fill-rule:nonzero;"/>
            </g>
            <g transform="matrix(52,0,0,52,536.867,945.507)">
                <path d="M0.421,-0.167L0.512,-0.156C0.497,-0.103 0.471,-0.062 0.432,-0.032C0.393,-0.003 0.344,0.012 0.284,0.012C0.208,0.012 0.148,-0.012 0.103,-0.058C0.059,-0.105 0.037,-0.171 0.037,-0.255C0.037,-0.342 0.059,-0.41 0.104,-0.458C0.149,-0.506 0.207,-0.53 0.279,-0.53C0.348,-0.53 0.405,-0.507 0.449,-0.459C0.493,-0.412 0.515,-0.346 0.515,-0.26C0.515,-0.255 0.514,-0.247 0.514,-0.237L0.127,-0.237C0.131,-0.18 0.147,-0.136 0.176,-0.106C0.205,-0.076 0.241,-0.061 0.284,-0.061C0.316,-0.061 0.344,-0.069 0.367,-0.086C0.389,-0.103 0.408,-0.13 0.421,-0.167ZM0.132,-0.309L0.422,-0.309C0.418,-0.353 0.407,-0.385 0.389,-0.407C0.361,-0.441 0.324,-0.458 0.28,-0.458C0.239,-0.458 0.205,-0.444 0.178,-0.417C0.15,-0.39 0.135,-0.354 0.132,-0.309Z" style="fill:white;fill-rule:nonzero;"/>
            </g>
            <g transform="matrix(52,0,0,52,580.234,945.507)">
                <path d="M0.031,-0.155L0.118,-0.168C0.123,-0.134 0.136,-0.107 0.158,-0.088C0.181,-0.07 0.212,-0.061 0.252,-0.061C0.292,-0.061 0.322,-0.069 0.342,-0.085C0.361,-0.102 0.371,-0.121 0.371,-0.143C0.371,-0.163 0.362,-0.179 0.345,-0.19C0.333,-0.198 0.303,-0.208 0.255,-0.22C0.191,-0.236 0.146,-0.25 0.121,-0.262C0.096,-0.274 0.078,-0.29 0.065,-0.311C0.052,-0.332 0.045,-0.355 0.045,-0.381C0.045,-0.404 0.051,-0.425 0.061,-0.445C0.072,-0.465 0.086,-0.481 0.104,-0.494C0.118,-0.504 0.137,-0.513 0.16,-0.52C0.184,-0.527 0.209,-0.53 0.236,-0.53C0.277,-0.53 0.313,-0.524 0.344,-0.513C0.374,-0.501 0.397,-0.485 0.412,-0.465C0.426,-0.445 0.436,-0.418 0.442,-0.385L0.356,-0.373C0.352,-0.4 0.341,-0.421 0.322,-0.436C0.303,-0.451 0.277,-0.458 0.243,-0.458C0.202,-0.458 0.174,-0.451 0.156,-0.438C0.139,-0.425 0.13,-0.409 0.13,-0.391C0.13,-0.38 0.134,-0.369 0.141,-0.36C0.148,-0.351 0.16,-0.343 0.175,-0.337C0.184,-0.334 0.209,-0.326 0.252,-0.314C0.315,-0.298 0.358,-0.284 0.383,-0.274C0.407,-0.263 0.426,-0.248 0.44,-0.228C0.454,-0.207 0.461,-0.182 0.461,-0.152C0.461,-0.123 0.453,-0.095 0.436,-0.07C0.419,-0.044 0.394,-0.024 0.362,-0.01C0.33,0.005 0.293,0.012 0.252,0.012C0.185,0.012 0.134,-0.002 0.098,-0.03C0.063,-0.058 0.041,-0.1 0.031,-0.155Z" style="fill:white;fill-rule:nonzero;"/>
            </g>
            <g transform="matrix(52,0,0,52,606.234,945.507)">
                <path d="M0.066,-0.615L0.066,-0.716L0.154,-0.716L0.154,-0.615L0.066,-0.615ZM0.066,0L0.066,-0.519L0.154,-0.519L0.154,0L0.066,0Z" style="fill:white;fill-rule:nonzero;"/>
            </g>
            <g transform="matrix(52,0,0,52,632.234,945.507)">
                <path d="M0.258,-0.079L0.271,-0.001C0.246,0.004 0.224,0.007 0.204,0.007C0.172,0.007 0.147,0.002 0.13,-0.008C0.112,-0.018 0.1,-0.032 0.093,-0.048C0.086,-0.065 0.082,-0.099 0.082,-0.152L0.082,-0.45L0.018,-0.45L0.018,-0.519L0.082,-0.519L0.082,-0.647L0.169,-0.7L0.169,-0.519L0.258,-0.519L0.258,-0.45L0.169,-0.45L0.169,-0.147C0.169,-0.122 0.171,-0.106 0.174,-0.099C0.177,-0.091 0.182,-0.086 0.189,-0.082C0.196,-0.077 0.206,-0.075 0.219,-0.075C0.229,-0.075 0.242,-0.076 0.258,-0.079Z" style="fill:white;fill-rule:nonzero;"/>
            </g>
            <g transform="matrix(52,0,0,52,646.681,945.507)">
                <path d="M0.033,-0.259C0.033,-0.355 0.06,-0.426 0.113,-0.473C0.158,-0.511 0.212,-0.53 0.276,-0.53C0.348,-0.53 0.406,-0.507 0.451,-0.46C0.496,-0.413 0.519,-0.349 0.519,-0.267C0.519,-0.2 0.509,-0.147 0.489,-0.109C0.469,-0.071 0.44,-0.041 0.402,-0.02C0.363,0.001 0.322,0.012 0.276,0.012C0.204,0.012 0.145,-0.012 0.1,-0.058C0.056,-0.105 0.033,-0.172 0.033,-0.259ZM0.124,-0.259C0.124,-0.193 0.138,-0.143 0.167,-0.11C0.196,-0.077 0.232,-0.061 0.276,-0.061C0.32,-0.061 0.356,-0.077 0.385,-0.11C0.414,-0.144 0.429,-0.194 0.429,-0.262C0.429,-0.326 0.414,-0.375 0.385,-0.408C0.356,-0.441 0.32,-0.458 0.276,-0.458C0.232,-0.458 0.196,-0.441 0.167,-0.408C0.138,-0.375 0.124,-0.326 0.124,-0.259Z" style="fill:white;fill-rule:nonzero;"/>
            </g>
            <g transform="matrix(52,0,0,52,690.048,945.507)">
                <path d="M0.02,0L0.02,-0.071L0.35,-0.45C0.312,-0.448 0.279,-0.447 0.25,-0.447L0.039,-0.447L0.039,-0.519L0.463,-0.519L0.463,-0.46L0.182,-0.131L0.128,-0.071C0.167,-0.074 0.204,-0.076 0.239,-0.076L0.479,-0.076L0.479,0L0.02,0Z" style="fill:white;fill-rule:nonzero;"/>
            </g>
            <g transform="matrix(52,0,0,52,716.048,945.507)">
                <path d="M0.404,-0.064C0.372,-0.036 0.34,-0.017 0.31,-0.005C0.28,0.006 0.248,0.012 0.213,0.012C0.156,0.012 0.113,-0.002 0.082,-0.03C0.051,-0.058 0.036,-0.093 0.036,-0.137C0.036,-0.162 0.042,-0.185 0.053,-0.206C0.065,-0.227 0.08,-0.244 0.099,-0.257C0.118,-0.27 0.139,-0.279 0.162,-0.286C0.179,-0.29 0.205,-0.295 0.24,-0.299C0.311,-0.307 0.363,-0.317 0.397,-0.329C0.397,-0.341 0.397,-0.349 0.397,-0.352C0.397,-0.388 0.389,-0.413 0.373,-0.428C0.35,-0.448 0.317,-0.458 0.272,-0.458C0.231,-0.458 0.201,-0.45 0.181,-0.436C0.161,-0.421 0.147,-0.396 0.137,-0.359L0.051,-0.371C0.059,-0.407 0.072,-0.437 0.09,-0.46C0.108,-0.482 0.134,-0.5 0.167,-0.512C0.201,-0.524 0.241,-0.53 0.285,-0.53C0.329,-0.53 0.365,-0.525 0.393,-0.515C0.421,-0.504 0.441,-0.491 0.454,-0.475C0.467,-0.46 0.476,-0.44 0.481,-0.416C0.484,-0.401 0.486,-0.374 0.486,-0.334L0.486,-0.217C0.486,-0.136 0.488,-0.084 0.491,-0.062C0.495,-0.041 0.503,-0.02 0.514,0L0.422,0C0.413,-0.018 0.407,-0.04 0.404,-0.064ZM0.397,-0.26C0.365,-0.247 0.317,-0.236 0.253,-0.227C0.217,-0.222 0.192,-0.216 0.177,-0.209C0.162,-0.203 0.15,-0.193 0.142,-0.181C0.134,-0.168 0.13,-0.154 0.13,-0.139C0.13,-0.116 0.139,-0.096 0.156,-0.081C0.174,-0.065 0.2,-0.057 0.234,-0.057C0.268,-0.057 0.298,-0.065 0.325,-0.079C0.351,-0.094 0.37,-0.114 0.383,-0.14C0.392,-0.16 0.397,-0.189 0.397,-0.228L0.397,-0.26Z" style="fill:white;fill-rule:nonzero;"/>
            </g>
            <g transform="matrix(52,0,0,52,744.968,945.507)">
                <path d="M0.031,-0.155L0.118,-0.168C0.123,-0.134 0.136,-0.107 0.158,-0.088C0.181,-0.07 0.212,-0.061 0.252,-0.061C0.292,-0.061 0.322,-0.069 0.342,-0.085C0.361,-0.102 0.371,-0.121 0.371,-0.143C0.371,-0.163 0.362,-0.179 0.345,-0.19C0.333,-0.198 0.303,-0.208 0.255,-0.22C0.191,-0.236 0.146,-0.25 0.121,-0.262C0.096,-0.274 0.078,-0.29 0.065,-0.311C0.052,-0.332 0.045,-0.355 0.045,-0.381C0.045,-0.404 0.051,-0.425 0.061,-0.445C0.072,-0.465 0.086,-0.481 0.104,-0.494C0.118,-0.504 0.137,-0.513 0.16,-0.52C0.184,-0.527 0.209,-0.53 0.236,-0.53C0.277,-0.53 0.313,-0.524 0.344,-0.513C0.374,-0.501 0.397,-0.485 0.412,-0.465C0.426,-0.445 0.436,-0.418 0.442,-0.385L0.356,-0.373C0.352,-0.4 0.341,-0.421 0.322,-0.436C0.303,-0.451 0.277,-0.458 0.243,-0.458C0.202,-0.458 0.174,-0.451 0.156,-0.438C0.139,-0.425 0.13,-0.409 0.13,-0.391C0.13,-0.38 0.134,-0.369 0.141,-0.36C0.148,-0.351 0.16,-0.343 0.175,-0.337C0.184,-0.334 0.209,-0.326 0.252,-0.314C0.315,-0.298 0.358,-0.284 0.383,-0.274C0.407,-0.263 0.426,-0.248 0.44,-0.228C0.454,-0.207 0.461,-0.182 0.461,-0.152C0.461,-0.123 0.453,-0.095 0.436,-0.07C0.419,-0.044 0.394,-0.024 0.362,-0.01C0.33,0.005 0.293,0.012 0.252,0.012C0.185,0.012 0.134,-0.002 0.098,-0.03C0.063,-0.058 0.041,-0.1 0.031,-0.155Z" style="fill:white;fill-rule:nonzero;"/>
            </g>
            <g transform="matrix(52,0,0,52,770.968,945.507)">
                <rect x="0.064" y="-0.716" width="0.088" height="0.716" style="fill:white;fill-rule:nonzero;"/>
            </g>
            <g transform="matrix(52,0,0,52,782.521,945.507)">
                <path d="M0.033,-0.259C0.033,-0.355 0.06,-0.426 0.113,-0.473C0.158,-0.511 0.212,-0.53 0.276,-0.53C0.348,-0.53 0.406,-0.507 0.451,-0.46C0.496,-0.413 0.519,-0.349 0.519,-0.267C0.519,-0.2 0.509,-0.147 0.489,-0.109C0.469,-0.071 0.44,-0.041 0.402,-0.02C0.363,0.001 0.322,0.012 0.276,0.012C0.204,0.012 0.145,-0.012 0.1,-0.058C0.056,-0.105 0.033,-0.172 0.033,-0.259ZM0.124,-0.259C0.124,-0.193 0.138,-0.143 0.167,-0.11C0.196,-0.077 0.232,-0.061 0.276,-0.061C0.32,-0.061 0.356,-0.077 0.385,-0.11C0.414,-0.144 0.429,-0.194 0.429,-0.262C0.429,-0.326 0.414,-0.375 0.385,-0.408C0.356,-0.441 0.32,-0.458 0.276,-0.458C0.232,-0.458 0.196,-0.441 0.167,-0.408C0.138,-0.375 0.124,-0.326 0.124,-0.259Z" style="fill:white;fill-rule:nonzero;"/>
            </g>
            <g transform="matrix(52,0,0,52,811.441,945.507)">
                <path d="M0.406,0L0.406,-0.076C0.365,-0.018 0.311,0.012 0.241,0.012C0.211,0.012 0.182,0.006 0.156,-0.006C0.129,-0.018 0.109,-0.032 0.096,-0.05C0.084,-0.068 0.075,-0.09 0.069,-0.115C0.066,-0.132 0.064,-0.16 0.064,-0.197L0.064,-0.519L0.152,-0.519L0.152,-0.231C0.152,-0.185 0.154,-0.154 0.157,-0.138C0.163,-0.115 0.174,-0.097 0.192,-0.084C0.21,-0.071 0.232,-0.064 0.259,-0.064C0.285,-0.064 0.31,-0.071 0.333,-0.084C0.356,-0.098 0.372,-0.116 0.382,-0.139C0.392,-0.163 0.396,-0.196 0.396,-0.241L0.396,-0.519L0.484,-0.519L0.484,0L0.406,0Z" style="fill:white;fill-rule:nonzero;"/>
            </g>
            <g transform="matrix(52,0,0,52,840.361,945.507)">
                <path d="M0.02,0L0.02,-0.071L0.35,-0.45C0.312,-0.448 0.279,-0.447 0.25,-0.447L0.039,-0.447L0.039,-0.519L0.463,-0.519L0.463,-0.46L0.182,-0.131L0.128,-0.071C0.167,-0.074 0.204,-0.076 0.239,-0.076L0.479,-0.076L0.479,0L0.02,0ZM0.265,-0.637L0.319,-0.72L0.418,-0.72L0.309,-0.583L0.215,-0.583L0.109,-0.72L0.21,-0.72L0.265,-0.637Z" style="fill:white;fill-rule:nonzero;"/>
            </g>
            <g transform="matrix(52,0,0,52,866.361,945.507)">
                <path d="M0.097,0L0.097,-0.519L0.185,-0.519L0.185,0L0.097,0ZM0.092,-0.583L0.157,-0.72L0.272,-0.72L0.165,-0.583L0.092,-0.583Z" style="fill:white;fill-rule:nonzero;"/>
            </g>
            <g transform="matrix(52,0,0,52,880.808,945.507)">
                <path d="M0.113,-0.178L0.086,-0.557L0.086,-0.716L0.195,-0.716L0.195,-0.557L0.169,-0.178L0.113,-0.178ZM0.09,0L0.09,-0.1L0.191,-0.1L0.191,0L0.09,0Z" style="fill:white;fill-rule:nonzero;"/>
            </g>
        </g>
        <g transform="matrix(0.813286,0,0,0.813286,199.618,51.9701)">
            <g transform="matrix(16.7299,0,0,16.7299,-5.81885,-8.10529)">
                <path d="M34.793,43L34.793,25.814C34.793,19.254 29.401,14.556 22.816,14.556L22.723,14.556C16.138,14.556 10.471,19.254 10.471,25.814L10.471,43L34.793,43Z" style="fill:rgb(37,39,45);"/>
            </g>
            <g transform="matrix(16.7299,0,0,16.7299,-5.81885,-8.10529)">
                <path d="M30.678,27.943C29.155,27.578 26.545,27.463 24.732,27.943C22.919,28.423 22.671,30.914 24.732,30.914C26.792,30.914 32.201,28.308 30.678,27.943Z" style="fill:white;"/>
            </g>
            <g transform="matrix(16.7299,0,0,16.7299,-5.81885,-8.10529)">
                <path d="M14.6,27.943C16.123,27.578 18.733,27.463 20.546,27.943C22.359,28.423 22.606,30.914 20.546,30.914C18.485,30.914 13.077,28.308 14.6,27.943Z" style="fill:white;"/>
            </g>
            <g transform="matrix(16.7299,0,0,16.7299,-5.81885,-8.10529)">
                <path d="M23.134,0.789C22.718,0.424 22.048,0.424 21.637,0.789L0.745,19.339C0.333,19.704 0.245,20.368 0.557,20.836L1.443,22.164C1.751,22.626 2.337,22.703 2.75,22.339L22.382,5.033L42.241,22.339C42.659,22.704 43.244,22.632 43.556,22.164L44.443,20.836C44.75,20.374 44.663,19.704 44.247,19.339L23.134,0.789Z" style="fill:rgb(37,39,45);"/>
            </g>
        </g>
        <g transform="matrix(6.89347,0,0,6.89347,-245.923,677.732)">
            <path d="M56.64,33L58.96,33L58.96,27.2L64.24,27.2L64.24,33L66.56,33L66.56,19.92L64.24,19.92L64.24,25.18L58.96,25.18L58.96,19.92L56.64,19.92L56.64,33ZM69.689,30.48C69.689,32.18 70.289,33.24 71.929,33.24C72.469,33.24 72.869,33.16 73.149,33.04L72.849,31.32C72.669,31.36 72.589,31.36 72.489,31.36C72.249,31.36 71.989,31.16 71.989,30.6L71.989,18.88L69.689,18.88L69.689,30.48ZM75.137,33L77.437,33L77.437,23.18L75.137,23.18L75.137,33ZM78.897,18.62L76.617,18.62L74.817,21.54L76.537,21.54L78.897,18.62ZM79.806,28.1C79.806,31.34 81.386,33.24 83.846,33.24C84.906,33.24 85.906,32.66 86.626,31.94L86.706,31.94L86.866,33L88.766,33L88.766,18.88L86.466,18.88L86.466,22.44L86.546,24.02C85.786,23.36 85.086,22.94 83.966,22.94C81.826,22.94 79.806,24.9 79.806,28.1ZM82.186,28.08C82.186,26.02 83.206,24.84 84.466,24.84C85.126,24.84 85.786,25.06 86.466,25.66L86.466,30.24C85.806,31 85.166,31.34 84.406,31.34C82.986,31.34 82.186,30.2 82.186,28.08ZM91.294,30.36C91.294,32.08 92.494,33.24 94.214,33.24C95.374,33.24 96.374,32.66 97.254,31.92L97.314,31.92L97.494,33L99.374,33L99.374,27.18C99.374,24.44 98.174,22.94 95.714,22.94C94.154,22.94 92.774,23.54 91.694,24.22L92.534,25.76C93.394,25.24 94.314,24.8 95.294,24.8C96.614,24.8 97.054,25.68 97.074,26.72C93.054,27.16 91.294,28.26 91.294,30.36ZM93.534,30.18C93.534,29.2 94.414,28.5 97.074,28.16L97.074,30.36C96.354,31.04 95.734,31.44 94.934,31.44C94.114,31.44 93.534,31.06 93.534,30.18ZM101.563,28.1C101.563,31.36 103.623,33.24 106.303,33.24C107.423,33.24 108.603,32.8 109.523,31.98L108.563,30.52C108.023,30.96 107.343,31.36 106.543,31.36C105.003,31.36 103.923,30.06 103.923,28.1C103.923,26.12 105.023,24.82 106.603,24.82C107.223,24.82 107.743,25.08 108.263,25.54L109.363,24.08C108.703,23.44 107.743,22.94 106.483,22.94C103.863,22.94 101.563,24.82 101.563,28.1ZM105.503,21.54L107.363,21.54L109.263,18.62L107.683,18.62L106.483,20.32L106.403,20.32L105.203,18.62L103.603,18.62L105.503,21.54Z" style="fill:rgb(37,39,45);"/>
            <path d="M115.42,31.86C116.42,32.68 117.92,33.24 119.22,33.24C121.88,33.24 123.3,31.84 123.3,30.04C123.3,28.22 121.88,27.52 120.62,27.06C119.6,26.68 118.68,26.44 118.68,25.8C118.68,25.3 119.04,25.02 119.8,25.02C120.5,25.02 121.18,25.34 121.9,25.86L123.22,24.1C122.36,23.46 121.24,22.84 119.72,22.84C117.42,22.84 115.92,24.1 115.92,25.94C115.92,27.58 117.34,28.4 118.54,28.86C119.56,29.26 120.56,29.56 120.56,30.22C120.56,30.74 120.18,31.06 119.3,31.06C118.46,31.06 117.64,30.7 116.74,30.02L115.42,31.86ZM125.589,29.4C125.589,31.7 126.549,33.24 129.009,33.24C129.969,33.24 130.689,33.04 131.209,32.88L130.749,30.74C130.489,30.84 130.129,30.94 129.809,30.94C129.029,30.94 128.529,30.48 128.529,29.36L128.529,25.38L130.909,25.38L130.909,23.08L128.529,23.08L128.529,20.44L126.089,20.44L125.749,23.08L124.229,23.2L124.229,25.38L125.589,25.38L125.589,29.4ZM132.277,30.24C132.277,31.92 133.417,33.24 135.217,33.24C136.337,33.24 137.277,32.72 138.117,31.98L138.177,31.98L138.397,33L140.797,33L140.797,27.32C140.797,24.28 139.397,22.84 136.857,22.84C135.297,22.84 133.877,23.38 132.617,24.14L133.657,26.08C134.617,25.52 135.457,25.18 136.297,25.18C137.357,25.18 137.797,25.74 137.857,26.62C133.937,27.02 132.277,28.16 132.277,30.24ZM135.077,30.02C135.077,29.26 135.757,28.66 137.857,28.38L137.857,30.12C137.337,30.64 136.897,30.96 136.217,30.96C135.517,30.96 135.077,30.66 135.077,30.02ZM139.937,18.52L137.097,18.52L135.317,21.52L137.457,21.52L139.937,18.52ZM143.746,29.4C143.746,31.7 144.706,33.24 147.166,33.24C148.126,33.24 148.846,33.04 149.366,32.88L148.906,30.74C148.646,30.84 148.286,30.94 147.966,30.94C147.186,30.94 146.686,30.48 146.686,29.36L146.686,25.38L149.066,25.38L149.066,23.08L146.686,23.08L146.686,20.44L144.246,20.44L143.906,23.08L142.386,23.2L142.386,25.38L143.746,25.38L143.746,29.4ZM150.894,29.24C150.894,31.72 151.814,33.24 153.974,33.24C155.334,33.24 156.274,32.62 157.094,31.62L157.174,31.62L157.374,33L159.774,33L159.774,23.08L156.834,23.08L156.834,29.64C156.274,30.42 155.814,30.74 155.074,30.74C154.234,30.74 153.834,30.28 153.834,28.86L153.834,23.08L150.894,23.08L150.894,29.24Z" style="fill:white;"/>
        </g>
    </g>
</svg>
