<svg width="500" height="441" viewBox="0 0 500 441" fill="none" xmlns="http://www.w3.org/2000/svg">
<path d="M108.335 137.913C87.2124 137.913 70.0891 120.78 70.0891 99.6441C70.0891 78.5087 87.2124 61.375 108.335 61.375C129.458 61.375 146.581 78.5087 146.581 99.6441C146.581 120.78 129.458 137.913 108.335 137.913Z" fill="#F2F2F2"/>
<path d="M108.335 71.4838C107.14 71.4838 106.17 70.514 106.17 69.3177C106.17 68.1213 107.14 67.1515 108.335 67.1515C109.531 67.1515 110.5 68.1213 110.5 69.3177C110.5 70.514 109.531 71.4838 108.335 71.4838Z" fill="black" fill-opacity="0.1"/>
<path d="M138.643 101.81C137.448 101.81 136.478 100.84 136.478 99.6441C136.478 98.4477 137.448 97.4779 138.643 97.4779C139.839 97.4779 140.808 98.4477 140.808 99.6441C140.808 100.84 139.839 101.81 138.643 101.81Z" fill="black" fill-opacity="0.1"/>
<path d="M78.027 101.81C76.8314 101.81 75.8622 100.84 75.8622 99.6441C75.8622 98.4477 76.8314 97.4779 78.027 97.4779C79.2226 97.4779 80.1919 98.4477 80.1919 99.6441C80.1919 100.84 79.2226 101.81 78.027 101.81Z" fill="black" fill-opacity="0.1"/>
<path d="M108.335 132.137C107.14 132.137 106.17 131.167 106.17 129.971C106.17 128.774 107.14 127.804 108.335 127.804C109.531 127.804 110.5 128.774 110.5 129.971C110.5 131.167 109.531 132.137 108.335 132.137Z" fill="black" fill-opacity="0.1"/>
<path fill-rule="evenodd" clip-rule="evenodd" d="M108.335 73.65L106.892 98.9221H109.778L108.335 73.65Z" fill="#AFB9C5"/>
<path fill-rule="evenodd" clip-rule="evenodd" d="M95.5635 112.423L108.83 101.191L106.789 99.1486L95.5635 112.423Z" fill="#AFB9C5"/>
<path d="M108.335 102.532C106.741 102.532 105.449 101.239 105.449 99.6441C105.449 98.049 106.741 96.7559 108.335 96.7559C109.929 96.7559 111.222 98.049 111.222 99.6441C111.222 101.239 109.929 102.532 108.335 102.532Z" fill="#C5CFD6"/>
<g opacity="0.345889">
<path opacity="0.345889" fill-rule="evenodd" clip-rule="evenodd" d="M148.895 300.654C153.87 245.021 420.823 137.642 470.382 190.337C519.941 243.032 472.296 341.927 368.439 367.252C264.582 392.576 143.92 356.288 148.895 300.654Z" fill="#F2F2F2"/>
<path opacity="0.345889" fill-rule="evenodd" clip-rule="evenodd" d="M313.893 336.803C309.436 289.54 70.3113 198.317 25.9185 243.084C-18.4742 287.85 -7.23755 382.012 85.7932 403.526C178.824 425.04 318.35 384.066 313.893 336.803Z" fill="#DDE3E9"/>
</g>
<path d="M457.239 151.397C440.301 151.397 426.57 144.123 426.57 135.15C426.57 126.178 440.301 118.904 457.239 118.904C474.177 118.904 487.908 126.178 487.908 135.15C487.908 144.123 474.177 151.397 457.239 151.397Z" fill="#F2F2F2"/>
<path fill-rule="evenodd" clip-rule="evenodd" d="M421.519 146.342C421.519 126.403 437.511 110.239 457.239 110.239C476.967 110.239 492.959 126.403 492.959 146.342" fill="#DDE3E9"/>
<path d="M455.435 0H459.043V115.529H455.435V0Z" fill="#DDE3E9"/>
<g opacity="0.7">
<g opacity="0.7">
<path opacity="0.7" d="M401.314 114.807C388.653 114.807 378.389 108.937 378.389 101.696C378.389 94.4552 388.653 88.5852 401.314 88.5852C413.974 88.5852 424.238 94.4552 424.238 101.696C424.238 108.937 413.974 114.807 401.314 114.807Z" fill="#F2F2F2"/>
<path opacity="0.7" fill-rule="evenodd" clip-rule="evenodd" d="M374.614 110.728C374.614 94.6372 386.568 81.5927 401.314 81.5927C416.06 81.5927 428.014 94.6372 428.014 110.728" fill="#DDE3E9"/>
</g>
<path opacity="0.7" d="M399.149 0H402.757V98.2H399.149V0Z" fill="#DDE3E9"/>
</g>
<path d="M89.573 169.132L76.1742 155.716C73.9202 153.46 70.2649 153.459 68.01 155.714C68.0094 155.715 68.0088 155.715 68.0083 155.716L32.3368 191.427C30.1725 193.594 28.9567 196.532 28.9567 199.595V436.124" stroke="#CBCBCB" stroke-width="8"/>
<path d="M10.1946 435.401H48.4406C49.6362 435.401 50.6055 436.371 50.6055 437.568V438.29C50.6055 439.486 49.6362 440.456 48.4406 440.456H10.1946C8.99903 440.456 8.02979 439.486 8.02979 438.29V437.568C8.02979 436.371 8.99903 435.401 10.1946 435.401Z" fill="#AFB9C5"/>
<path fill-rule="evenodd" clip-rule="evenodd" d="M81.5141 161.261C72.2143 170.566 72.2143 185.653 81.5141 194.958L95.8015 209.255L129.479 175.557L115.191 161.261C105.892 151.955 90.8138 151.955 81.5141 161.261Z" fill="#C5CFD6"/>
<path d="M115.387 195.336C106.087 204.642 97.0634 210.699 95.2316 208.866C93.3998 207.034 99.4538 198.004 108.754 188.699C118.053 179.393 127.077 173.336 128.909 175.169C130.741 177.002 124.687 186.031 115.387 195.336Z" fill="#F2F2F2"/>
<path fill-rule="evenodd" clip-rule="evenodd" d="M465.352 268.731C463.285 268.478 461.078 268.567 459.156 269.384C455.068 271.12 453.906 275.952 453.962 279.88C454.023 284.107 454.92 288.724 451.708 292.13C450.232 293.696 448.395 294.895 446.945 296.489C445.396 298.194 444.18 300.143 443.28 302.237C441.628 306.083 440.817 310.606 442.328 314.64C443.659 318.192 447.006 321.398 446.283 325.437C445.528 329.651 441.283 332.872 438.628 336.011C435.625 339.562 432.859 344.102 432.404 348.759C431.969 353.223 433.91 357.737 436.891 361.111C442.845 367.853 451.795 371.159 460.819 371.138C464.65 371.129 468.988 370.956 472.295 368.896C473.317 368.259 473.856 367.545 474.463 366.552C475.008 365.661 475.728 365.082 476.56 364.452C478.39 363.067 479.712 361.202 480.555 359.114C483.83 351.003 481.212 340.969 476.628 333.767C475.542 332.06 474.653 330.418 475.181 328.384C475.731 326.261 477.085 324.346 478.282 322.521C479.464 320.717 480.815 318.997 481.739 317.046C482.708 315.003 482.98 312.864 482.809 310.628C482.488 306.428 480.676 302.552 478.11 299.175C475.639 295.921 472.738 292.808 472.732 288.545C472.725 284.027 475.743 280.008 474.457 275.414C473.925 273.512 472.855 271.561 471.132 270.42C469.479 269.326 467.296 268.969 465.352 268.731Z" fill="#DDE3E9"/>
<path fill-rule="evenodd" clip-rule="evenodd" d="M466.703 275.954C466.664 275.347 465.944 274.983 465.378 275.142C464.633 275.35 464.647 276.047 464.667 276.668C464.727 278.576 464.451 280.431 463.993 282.283C463.04 286.133 461.279 289.68 459.883 293.378C458.489 297.073 457.835 300.889 458.653 304.799C459.424 308.485 460.635 312.076 461.424 315.768C462.119 319.021 462.859 322.452 461.8 325.697C460.781 328.82 458.528 331.364 456.906 334.187C453.547 340.031 452.057 346.513 451.858 353.184C451.766 356.282 451.849 359.409 452.567 362.447C452.98 364.196 453.536 366.561 455.034 367.769C455.725 368.326 456.907 368.518 457.488 367.693C458.034 366.92 457.555 365.722 457.382 364.897C456.631 361.328 456.48 357.68 456.66 354.056C456.834 350.545 457.248 347.04 458.353 343.687C459.378 340.576 460.935 337.781 462.767 335.059C464.634 332.285 466.576 329.505 467.347 326.218C468.131 322.88 467.494 319.484 466.643 316.209C465.742 312.746 464.563 309.382 463.343 306.012C462.155 302.729 461.733 299.622 462.389 296.186C463.685 289.397 467.155 283.024 466.703 275.954Z" fill="#C5CFD6"/>
<path fill-rule="evenodd" clip-rule="evenodd" d="M410.772 276.969C408.214 277.746 405.674 279 403.85 280.966C399.973 285.148 401.163 291.467 403.303 296.083C405.607 301.05 409.098 306.044 407.13 311.744C406.226 314.364 404.704 316.738 403.846 319.378C402.93 322.2 402.534 325.139 402.584 328.083C402.678 333.492 404.115 339.263 408.019 343.247C411.456 346.756 417.076 348.805 418.361 353.958C419.702 359.334 416.424 365.353 414.968 370.446C413.321 376.21 412.475 383.018 414.403 388.763C416.249 394.269 420.912 398.597 426.189 401.036C436.734 405.91 448.978 405.16 459.552 400.438C464.041 398.433 469.037 395.97 471.827 391.813C472.689 390.528 472.944 389.402 473.132 387.911C473.301 386.575 473.839 385.515 474.483 384.336C475.898 381.747 476.462 378.853 476.348 375.944C475.904 364.648 467.534 354.144 458.353 348.012C456.178 346.559 454.268 345.08 453.812 342.4C453.336 339.603 453.912 336.634 454.352 333.852C454.787 331.103 455.461 328.365 455.516 325.578C455.572 322.658 454.762 319.986 453.38 317.431C450.784 312.631 446.612 308.991 441.819 306.331C437.202 303.77 432.155 301.599 429.895 296.56C427.5 291.221 428.918 284.896 424.983 280.133C423.353 278.161 421.068 276.41 418.444 275.958C415.927 275.525 413.178 276.238 410.772 276.969Z" fill="#DDE3E9"/>
<path fill-rule="evenodd" clip-rule="evenodd" d="M415.998 285.799C415.635 285.1 414.603 285.047 414.024 285.531C413.262 286.169 413.643 286.987 413.991 287.712C415.06 289.94 415.708 292.282 416.142 294.715C417.042 299.774 416.84 304.898 417.144 310.01C417.448 315.117 418.68 319.978 421.683 324.179C424.514 328.141 427.809 331.758 430.664 335.716C433.18 339.204 435.841 342.879 436.301 347.277C436.744 351.511 435.442 355.705 435.022 359.899C434.153 368.58 435.804 377.038 439.063 385.043C440.576 388.76 442.31 392.419 444.74 395.64C446.139 397.495 448.026 400.004 450.41 400.648C451.51 400.946 452.992 400.554 453.241 399.272C453.474 398.07 452.287 396.903 451.653 396.017C448.907 392.184 446.821 387.943 445.134 383.556C443.5 379.308 442.15 374.94 441.686 370.39C441.256 366.168 441.614 362.041 442.332 357.857C443.064 353.593 443.879 349.283 443.061 344.986C442.23 340.621 439.707 336.933 436.998 333.502C434.132 329.873 430.992 326.508 427.802 323.157C424.694 319.892 422.575 316.434 421.544 312.02C419.506 303.3 420.227 293.934 415.998 285.799Z" fill="#C5CFD6"/>
<path fill-rule="evenodd" clip-rule="evenodd" d="M489.852 309.041C485.599 309.041 481.859 311.297 479.283 314.499C476.266 318.246 475.657 322.823 474.432 327.289C473.823 329.512 472.774 331.718 470.938 333.229C469.267 334.602 467.146 334.877 465.146 335.548C461.149 336.889 457.921 340.119 456.647 344.061C455.092 348.869 456.739 353.717 456.455 358.59C456.195 363.065 451.786 365.857 448.238 368.002C444.74 370.117 441.588 372.097 440.535 376.218C439.417 380.588 439.043 385.467 440.59 389.784C443.167 396.973 450.707 400.138 457.993 400.629C464.605 401.074 472.919 400.375 477.884 395.573C480.856 392.699 481.932 388.679 481.798 384.681C481.715 382.194 481.223 379.73 480.587 377.327C480.135 375.624 479.526 373.928 479.352 372.168C478.891 367.486 483.216 366.587 486.897 365.301C491.575 363.668 494.85 360.582 497.128 356.282C499.248 352.279 500.138 347.786 498.867 343.378C498.218 341.128 497.04 339.086 495.443 337.349C494.739 336.585 493.748 335.947 493.114 335.144C492.522 334.394 492.65 333.423 492.855 332.544C493.799 328.487 496.739 325.127 497.791 321.077C498.741 317.421 498.179 312.871 494.839 310.513C493.396 309.494 491.616 309.053 489.852 309.041Z" fill="#C5CFD6"/>
<path fill-rule="evenodd" clip-rule="evenodd" d="M484.056 319.613C479.548 324.418 478.323 330.938 477.963 337.257C477.762 340.8 477.971 344.537 476.931 347.974C476.041 350.916 473.954 353.164 471.803 355.29C467.473 359.568 462.644 363.917 461.377 370.108C460.634 373.742 461.136 377.495 460.109 381.089C459.175 384.355 457.531 387.564 455.531 390.322C453.921 392.544 451.824 394.244 450.064 396.315C449.527 396.947 448.758 397.877 448.98 398.769C449.239 399.814 450.569 400.145 451.513 399.981C453.713 399.598 455.566 397.496 457.004 395.967C459.108 393.732 460.896 391.328 462.349 388.632C463.962 385.637 465.261 382.459 465.816 379.1C466.392 375.614 466.106 371.982 467.421 368.637C469.634 363.008 475.001 359.686 478.882 355.3C483.717 349.833 482.996 343.03 482.501 336.306C482.229 332.61 481.958 328.437 483.824 325.063C484.537 323.776 486.125 322.575 486.431 321.111C486.712 319.77 485.181 318.414 484.056 319.613Z" fill="#AFB9C5"/>
<path fill-rule="evenodd" clip-rule="evenodd" d="M479.249 398.577C479.249 426.057 474.767 440.456 451.105 440.456C427.444 440.456 422.962 426.057 422.962 398.577H479.249Z" fill="#4972E3"/>
<path d="M355.851 358.863H380.387C381.184 358.863 381.83 359.51 381.83 360.307V363.918C381.83 364.715 381.184 365.362 380.387 365.362H355.851C355.054 365.362 354.408 364.715 354.408 363.918V360.307C354.408 359.51 355.054 358.863 355.851 358.863Z" fill="#AFB9C5"/>
<path fill-rule="evenodd" clip-rule="evenodd" d="M374.614 337.924C371.516 327.876 369.78 317.286 369.406 306.153H367.397H366.111C365.737 317.286 364.001 327.876 360.903 337.924H356.212C350.035 337.924 345.027 342.934 345.027 349.115C345.027 355.297 350.035 360.307 356.212 360.307H380.026C386.203 360.307 391.211 355.297 391.211 349.115C391.211 342.934 386.203 337.924 380.026 337.924H374.614Z" fill="#DDE3E9"/>
<path fill-rule="evenodd" clip-rule="evenodd" d="M393.648 256.099C385.379 255.291 377.11 254.887 368.841 254.887C360.571 254.887 352.302 255.291 344.033 256.099L340.697 313.47C350.078 314.368 359.46 314.818 368.841 314.818C378.222 314.818 387.603 314.368 396.984 313.47L393.648 256.099Z" fill="#C5CFD6"/>
<path fill-rule="evenodd" clip-rule="evenodd" d="M398.427 365.362H338.532H323.378V440.456H338.532V381.247H398.427V440.456H413.581V365.362H398.427Z" fill="#DDE3E9"/>
<path fill-rule="evenodd" clip-rule="evenodd" d="M111.668 236.986C105.294 252.141 94.459 262.671 88.7202 278.429C85.3171 287.775 83.8986 297.936 83.8125 308.342C83.7658 313.995 83.8641 319.651 83.8906 325.303C83.9163 330.816 84.066 336.293 84.5336 341.77C85.0035 347.276 85.5296 352.716 85.7617 358.256C85.9423 362.573 86.0248 367.594 87.4871 371.531C88.65 374.662 91.6055 375.121 92.3898 371.323C92.8256 369.212 92.7706 366.855 92.7226 364.685C92.6609 361.902 92.4991 359.122 92.4166 356.339C92.0849 345.17 92.5149 334 92.2901 322.826C92.0706 311.91 90.6682 301.005 92.2199 290.162C93.5012 281.207 96.7564 273.518 100.497 266.146C104.097 259.054 108.014 252.134 110.446 244.066C111.144 241.749 111.684 239.348 111.943 236.857C111.83 236.804 111.739 236.847 111.668 236.986Z" fill="#2975DC" fill-opacity="0.4"/>
<path fill-rule="evenodd" clip-rule="evenodd" d="M113.406 266.885C112.143 267.797 111.438 269.131 110.585 270.448C109.524 272.084 108.277 273.561 107.216 275.199C105.005 278.613 103.062 282.237 101.046 285.79C97.2182 292.533 94.3122 299.72 92.8729 307.521C91.3809 315.606 90.9787 323.951 90.3529 332.156C89.6891 340.852 89.0207 349.612 88.9328 358.342C88.8935 362.254 88.6822 366.406 89.1515 370.289C89.4436 372.707 90.5341 374.768 92.9925 374.748C98.2145 374.707 100.666 368.92 101.69 364.173C103.198 357.184 103.499 349.76 103.26 342.613C102.972 333.994 101.477 325.505 100.83 316.92C100.145 307.832 100.532 298.904 103.655 290.346C105.232 286.022 107.063 281.801 108.707 277.505C109.407 275.676 109.981 273.797 110.927 272.094C111.978 270.2 113.284 268.48 114.108 266.44C113.874 266.588 113.64 266.737 113.406 266.885Z" fill="#2975DC" fill-opacity="0.8"/>
<path fill-rule="evenodd" clip-rule="evenodd" d="M53.2508 248.762C53.0907 248.637 52.9304 248.513 52.7704 248.388C53.2315 250.332 54.0645 251.912 54.7013 253.689C55.2737 255.287 55.5638 257.095 55.9493 258.841C56.8546 262.943 57.9008 266.953 58.7558 271.09C60.4485 279.276 60.1283 288.094 59.0182 297.176C57.9698 305.756 56.3117 314.321 55.5216 322.899C54.8667 330.012 54.5852 337.347 55.2099 344.134C55.6345 348.743 57.0261 354.246 60.8178 353.781C62.6028 353.562 63.534 351.412 63.9092 348.986C64.5118 345.088 64.6379 340.989 64.8728 337.113C65.397 328.462 65.5014 319.837 65.6049 311.274C65.7029 303.195 65.9727 294.957 65.4333 287.081C64.9129 279.482 63.2855 272.635 60.9585 266.317C59.7329 262.988 58.5652 259.582 57.1882 256.409C56.5278 254.887 55.721 253.543 55.0604 252.022C54.5292 250.799 54.1066 249.544 53.2508 248.762Z" fill="#2975DC" fill-opacity="0.4"/>
<path fill-rule="evenodd" clip-rule="evenodd" d="M111.793 291.93C111.102 290.77 109.582 294.595 109.351 295.076C109.449 294.837 109.547 294.598 109.646 294.359C108.275 296.64 107.021 299.014 106.242 301.629C105.47 304.217 104.808 306.858 104.084 309.465C102.726 314.356 100.974 319.109 99.7429 324.044C98.5439 328.853 98.2415 333.581 98.5318 338.556C98.8335 343.726 99.0181 348.975 98.6661 354.142C98.498 356.61 97.6966 358.909 97.1473 361.285C96.5973 363.664 96.1642 366.074 95.514 368.422C95.3648 368.116 95.3458 369.139 95.3461 369.217C95.3502 369.804 95.432 370.296 95.6207 370.852C96.1055 372.283 97.0126 373.499 98.3928 373.893C100.887 374.606 103.203 372.336 104.007 369.939C105.161 366.499 105.797 362.698 106.347 359.083C106.851 355.768 106.97 352.433 106.821 349.072C106.526 342.444 105.327 335.903 105.003 329.277C104.65 322.064 106.078 315.286 107.274 308.265C107.85 304.882 108.4 301.53 109.521 298.307C109.975 297.002 110.567 295.85 111.187 294.644C111.54 293.959 112.254 292.735 111.793 291.93Z" fill="#2975DC" fill-opacity="0.4"/>
<path fill-rule="evenodd" clip-rule="evenodd" d="M91.556 280.662C91.8421 288.926 92.3354 297.127 93.4365 305.304C94.5602 313.648 95.8509 321.964 96.9322 330.316C97.9847 338.445 99.0879 346.71 98.9408 354.953C98.8325 361.025 99.8387 371.296 93.0993 374.293C86.2737 377.328 84.8096 364.368 84.3614 360.09C83.5025 351.883 83.7806 343.589 84.1974 335.338C84.6253 326.868 85.3397 318.442 86.225 310.004C87.2084 300.631 87.98 291.216 88.5992 281.817C88.9056 277.167 88.9811 272.526 88.8966 267.875C88.8167 263.487 88.9833 259.053 90.5425 254.887C90.6242 254.946 90.7054 255.005 90.7871 255.064" fill="#2975DC" fill-opacity="0.7"/>
<path fill-rule="evenodd" clip-rule="evenodd" d="M56.3187 306.843C57.5462 308.632 58.7836 310.404 59.9428 312.299C62.017 315.69 63.8927 319.462 64.4569 324.311C65.6378 334.458 64.6904 345.418 64.4618 355.876C64.415 358.013 64.6851 360.086 63.8433 362.12C63.0801 363.964 61.6531 365.369 60.2928 365.362C57.3809 365.345 57.8252 358.21 57.8204 355.07C57.8116 349.565 58.4284 344.005 58.3754 338.506C58.3223 333.057 57.9912 327.594 57.2018 322.42C56.4025 317.182 55.2321 312.153 53.6874 307.46C53.473 306.808 51.9347 301.776 53.3881 302.643" fill="#2975DC"/>
<path fill-rule="evenodd" clip-rule="evenodd" d="M69.1783 252.721C71.0928 252.721 71.081 262.271 71.1386 263.497C71.3466 267.924 71.2978 272.352 71.4293 276.779C71.7173 286.441 72.071 296.188 73.5215 305.739C74.3024 310.88 75.2078 315.999 76.1817 321.101C77.1584 326.218 78.4694 331.329 79.1119 336.511C79.7288 341.492 79.3802 346.572 79.2956 351.578C79.211 356.614 79.0589 361.66 78.3995 366.653C78.2368 367.885 78.046 369.113 77.8418 370.338C77.6718 371.358 77.7709 372.624 77.4832 373.594C77.0219 375.147 75.0446 375.656 73.7131 375.413C70.1104 374.755 67.8091 370.228 66.5784 366.921C65.0067 362.698 64.1729 358.118 63.3499 353.667C62.4175 348.625 61.871 343.507 61.6147 338.373C61.0937 327.941 61.7624 317.498 62.5092 307.099C62.9246 301.316 63.4045 295.558 64.1387 289.81C64.87 284.088 65.8081 278.39 66.419 272.65C66.8628 268.479 67.3001 264.302 67.5875 260.115C67.6563 259.117 67.7142 252.721 69.1783 252.721Z" fill="#2975DC" fill-opacity="0.7"/>
<path fill-rule="evenodd" clip-rule="evenodd" d="M71.5753 322.138C71.8873 312.112 75.9153 268.071 76.8317 255.946C77.0609 252.911 79.2672 240.276 79.5535 236.835C80.3295 237.808 80.2631 252.944 80.2546 256.422C80.2456 259.862 80.672 263.246 80.8914 266.668C81.115 270.159 86.2736 315.252 86.9431 318.606C88.275 325.281 89.1663 332.13 89.8538 338.954C90.5235 345.606 91.5647 352.623 90.6685 359.31C90.4625 360.849 90.1366 362.363 89.6058 363.778C89.0324 365.305 88.6394 366.718 88.1791 368.317C87.4385 370.892 86.0986 373.152 84.0398 374.215C79.8187 376.395 77.5521 371.461 76.4031 367.165C74.5681 360.304 73.3903 353.331 72.8381 346.125C72.2272 338.153 71.3254 330.165 71.5753 322.138Z" fill="#2975DC"/>
<path d="M52.0487 351.643H114.83C115.627 351.643 116.273 352.289 116.273 353.087V415.906C116.273 416.704 115.627 417.35 114.83 417.35H52.0487C51.2516 417.35 50.6054 416.704 50.6054 415.906V353.087C50.6054 352.289 51.2516 351.643 52.0487 351.643Z" fill="#AFB9C5"/>
<path d="M117.716 358.863H122.046C122.843 358.863 123.489 359.51 123.489 360.307V439.012C123.489 439.809 122.843 440.456 122.046 440.456H117.716C116.919 440.456 116.273 439.809 116.273 439.012V360.307C116.273 359.51 116.919 358.863 117.716 358.863Z" fill="#C5CFD6"/>
<path d="M81.6352 358.863H85.965C86.762 358.863 87.4082 359.51 87.4082 360.307V439.012C87.4082 439.809 86.762 440.456 85.965 440.456H81.6352C80.8381 440.456 80.192 439.809 80.192 439.012V360.307C80.192 359.51 80.8381 358.863 81.6352 358.863Z" fill="#C5CFD6"/>
<path d="M44.8325 358.863H49.1622C49.9593 358.863 50.6055 359.51 50.6055 360.307V439.012C50.6055 439.809 49.9593 440.456 49.1622 440.456H44.8325C44.0354 440.456 43.3893 439.809 43.3893 439.012V360.307C43.3893 359.51 44.0354 358.863 44.8325 358.863Z" fill="#C5CFD6"/>
</svg>
