<?xml version="1.0" encoding="UTF-8" standalone="no" ?>
<!DOCTYPE svg PUBLIC "-//W3C//DTD SVG 1.1//EN" "http://www.w3.org/Graphics/SVG/1.1/DTD/svg11.dtd">


<svg version="1.1" xmlns="http://www.w3.org/2000/svg" xmlns:xlink="http://www.w3.org/1999/xlink" width="176" height="32" viewBox="0 0 176 32">
  <defs>
    <svg id="logo">
      <svg width="46px" height="46px" viewBox="0 0 46 46" version="1.1" xmlns="http://www.w3.org/2000/svg" xmlns:xlink="http://www.w3.org/1999/xlink">
        <defs></defs>
        <g id="Page-2" stroke="none" stroke-width="1" fill="none" fill-rule="evenodd">
          <g id="06-DOBRA" transform="translate(-31.000000, -18.000000)">
            <g id="Group" transform="translate(31.000000, 18.000000)">

              <path d="M34.7926176,43 L34.7926176,25.8136542 C34.7926176,19.2536826 29.4005716,14.55625 22.8156981,14.55625 L22.7226406,14.55625 C16.137767,14.55625 10.4707785,19.2536826 10.4707785,25.8136542 L10.4707785,43 L34.7926176,43 Z" id="Fill-1" fill="#25272D"></path>
              <path d="M30.6778527,27.9431372 C29.1549094,27.5784772 26.5447427,27.4633214 24.731801,27.9431372 C22.9188592,28.422953 22.6712952,30.9140119 24.731801,30.9140119 C26.7923068,30.9140119 32.200796,28.3077972 30.6778527,27.9431372 Z" id="Oval" fill="#266cae"></path>
              <path d="M21.7334082,27.9431372 C20.2104649,27.5784772 17.6002983,27.4633214 15.7873565,27.9431372 C13.9744148,28.422953 13.7268507,30.9140119 15.7873565,30.9140119 C17.8478623,30.9140119 23.2563515,28.3077972 21.7334082,27.9431372 Z" id="Oval" fill="#266cae" transform="translate(18.166667, 29.269506) scale(-1, 1) translate(-18.166667, -29.269506) "></path>
              <path d="M23.1340731,0.78903332 C22.7184471,0.423872614 22.0477586,0.424188294 21.6368425,0.78903332 L0.744673078,19.3388181 C0.333401493,19.7039788 0.245239258,20.3678589 0.557111502,20.8356673 L1.4428885,22.1643327 C1.75057268,22.625859 2.33675444,22.7031399 2.74956077,22.3392375 L22.3815156,5.03302363 L42.2405567,22.3392375 C42.6593161,22.7041666 43.2441756,22.6321411 43.5562369,22.1643327 L44.4425508,20.8356673 C44.7504215,20.374141 44.6627092,19.7036631 44.2474425,19.3388181 L23.1340731,0.78903332 Z" id="Combined-Shape" fill="#25272D"></path>
            </g>
          </g>
        </g>
      </svg>
    </svg>


    <svg id="facebook">
      <defs id="SvgjsDefs1018"></defs>
      <path id="SvgjsPath1019"
            d="M1108 32L1124 32L1124 48L1119 48L1119 41.67L1121.11 41.67L1121.4299999999998 39.33L1118.9999999999998 39.33L1118.9999999999998 37.839999999999996C1118.9999999999998 37.47 1119.0999999999997 37.18 1119.2899999999997 36.98C1119.4899999999998 36.779999999999994 1119.8199999999997 36.68 1120.2899999999997 36.68L1121.6699999999998 36.67L1121.6699999999998 34.510000000000005C1120.9999999999998 34.45 1120.3799999999999 34.42 1119.7899999999997 34.42C1118.8499999999997 34.42 1118.0899999999997 34.7 1117.5199999999998 35.260000000000005C1116.9499999999998 35.81 1116.6699999999998 36.60000000000001 1116.6699999999998 37.60000000000001L1116.6699999999998 39.330000000000005L1114.33 39.330000000000005L1114.33 41.67L1116.6699999999998 41.67L1116.6699999999998 48L1107.9999999999998 48Z "
            fill="#ffffff" fill-opacity="1" transform="matrix(1,0,0,1,-1108,-32)"></path>
    </svg>

    <svg id="twitter">
      <defs id="SvgjsDefs1021"></defs>
      <path id="SvgjsPath1022"
            d="M1187 45.25C1188.64 46.29 1190.42 46.81 1192.35 46.81C1193.59 46.81 1194.75 46.620000000000005 1195.83 46.22C1196.9199999999998 45.83 1197.85 45.3 1198.62 44.65C1199.3999999999999 43.99 1200.06 43.23 1200.62 42.37C1201.1799999999998 41.51 1201.6 40.62 1201.87 39.68C1202.1399999999999 38.75 1202.27 37.81 1202.27 36.88C1202.27 36.690000000000005 1202.27 36.54 1202.26 36.440000000000005C1202.95 35.940000000000005 1203.54 35.34 1204 34.63C1203.38 34.900000000000006 1202.71 35.09 1201.99 35.190000000000005C1202.74 34.75000000000001 1203.26 34.1 1203.54 33.25000000000001C1202.82 33.67000000000001 1202.07 33.95000000000001 1201.31 34.10000000000001C1200.6399999999999 33.37000000000001 1199.79 33.00000000000001 1198.77 33.00000000000001C1197.81 33.00000000000001 1196.99 33.34000000000001 1196.31 34.02000000000001C1195.62 34.70000000000001 1195.28 35.52000000000001 1195.28 36.49000000000001C1195.28 36.81000000000001 1195.31 37.07000000000001 1195.37 37.28000000000001C1193.9399999999998 37.21000000000001 1192.6 36.85000000000001 1191.35 36.20000000000001C1190.1 35.56000000000001 1189.04 34.70000000000001 1188.1599999999999 33.63000000000001C1187.84 34.18000000000001 1187.6799999999998 34.77000000000001 1187.6799999999998 35.39000000000001C1187.6799999999998 36.650000000000006 1188.1799999999998 37.620000000000005 1189.1899999999998 38.30000000000001C1188.6699999999998 38.28000000000001 1188.12 38.140000000000015 1187.5299999999997 37.860000000000014L1187.5299999999997 37.90000000000001C1187.5299999999997 38.73000000000001 1187.8099999999997 39.47000000000001 1188.3599999999997 40.110000000000014C1188.9099999999996 40.76000000000001 1189.5999999999997 41.16000000000001 1190.3999999999996 41.320000000000014C1190.0799999999997 41.41000000000002 1189.7999999999997 41.45000000000002 1189.5599999999997 41.45000000000002C1189.4099999999996 41.45000000000002 1189.1999999999998 41.430000000000014 1188.9099999999996 41.38000000000002C1189.1399999999996 42.08000000000002 1189.5499999999997 42.66000000000002 1190.1499999999996 43.110000000000014C1190.7399999999996 43.56000000000002 1191.4099999999996 43.80000000000001 1192.1599999999996 43.81000000000002C1190.8799999999997 44.80000000000002 1189.4299999999996 45.30000000000002 1187.8299999999997 45.30000000000002C1187.5399999999997 45.30000000000002 1187.2699999999998 45.29000000000002 1186.9999999999998 45.25000000000002Z "
            fill="#ffffff" fill-opacity="1" transform="matrix(1,0,0,1,-1187,-33)"></path>
    </svg>

  </defs>
</svg>