<?xml version="1.0" encoding="UTF-8" standalone="no"?>
<!DOCTYPE svg PUBLIC "-//W3C//DTD SVG 1.1//EN" "http://www.w3.org/Graphics/SVG/1.1/DTD/svg11.dtd">
<svg width="100%" height="100%" viewBox="0 0 169 43" version="1.1" xmlns="http://www.w3.org/2000/svg" xmlns:xlink="http://www.w3.org/1999/xlink" xml:space="preserve" style="fill-rule:evenodd;clip-rule:evenodd;stroke-linejoin:round;stroke-miterlimit:1.41421;">
    <path d="M56.64,33L58.96,33L58.96,27.2L64.24,27.2L64.24,33L66.56,33L66.56,19.92L64.24,19.92L64.24,25.18L58.96,25.18L58.96,19.92L56.64,19.92L56.64,33ZM69.689,30.48C69.689,32.18 70.289,33.24 71.929,33.24C72.469,33.24 72.869,33.16 73.149,33.04L72.849,31.32C72.669,31.36 72.589,31.36 72.489,31.36C72.249,31.36 71.989,31.16 71.989,30.6L71.989,18.88L69.689,18.88L69.689,30.48ZM75.137,33L77.437,33L77.437,23.18L75.137,23.18L75.137,33ZM78.897,18.62L76.617,18.62L74.817,21.54L76.537,21.54L78.897,18.62ZM79.806,28.1C79.806,31.34 81.386,33.24 83.846,33.24C84.906,33.24 85.906,32.66 86.626,31.94L86.706,31.94L86.866,33L88.766,33L88.766,18.88L86.466,18.88L86.466,22.44L86.546,24.02C85.786,23.36 85.086,22.94 83.966,22.94C81.826,22.94 79.806,24.9 79.806,28.1ZM82.186,28.08C82.186,26.02 83.206,24.84 84.466,24.84C85.126,24.84 85.786,25.06 86.466,25.66L86.466,30.24C85.806,31 85.166,31.34 84.406,31.34C82.986,31.34 82.186,30.2 82.186,28.08ZM91.294,30.36C91.294,32.08 92.494,33.24 94.214,33.24C95.374,33.24 96.374,32.66 97.254,31.92L97.314,31.92L97.494,33L99.374,33L99.374,27.18C99.374,24.44 98.174,22.94 95.714,22.94C94.154,22.94 92.774,23.54 91.694,24.22L92.534,25.76C93.394,25.24 94.314,24.8 95.294,24.8C96.614,24.8 97.054,25.68 97.074,26.72C93.054,27.16 91.294,28.26 91.294,30.36ZM93.534,30.18C93.534,29.2 94.414,28.5 97.074,28.16L97.074,30.36C96.354,31.04 95.734,31.44 94.934,31.44C94.114,31.44 93.534,31.06 93.534,30.18ZM101.563,28.1C101.563,31.36 103.623,33.24 106.303,33.24C107.423,33.24 108.603,32.8 109.523,31.98L108.563,30.52C108.023,30.96 107.343,31.36 106.543,31.36C105.003,31.36 103.923,30.06 103.923,28.1C103.923,26.12 105.023,24.82 106.603,24.82C107.223,24.82 107.743,25.08 108.263,25.54L109.363,24.08C108.703,23.44 107.743,22.94 106.483,22.94C103.863,22.94 101.563,24.82 101.563,28.1ZM105.503,21.54L107.363,21.54L109.263,18.62L107.683,18.62L106.483,20.32L106.403,20.32L105.203,18.62L103.603,18.62L105.503,21.54Z" style="fill:rgb(37,39,45);"/>
    <path d="M115.42,31.86C116.42,32.68 117.92,33.24 119.22,33.24C121.88,33.24 123.3,31.84 123.3,30.04C123.3,28.22 121.88,27.52 120.62,27.06C119.6,26.68 118.68,26.44 118.68,25.8C118.68,25.3 119.04,25.02 119.8,25.02C120.5,25.02 121.18,25.34 121.9,25.86L123.22,24.1C122.36,23.46 121.24,22.84 119.72,22.84C117.42,22.84 115.92,24.1 115.92,25.94C115.92,27.58 117.34,28.4 118.54,28.86C119.56,29.26 120.56,29.56 120.56,30.22C120.56,30.74 120.18,31.06 119.3,31.06C118.46,31.06 117.64,30.7 116.74,30.02L115.42,31.86ZM125.189,33L128.129,33L128.129,26.3C128.749,25.66 129.329,25.34 129.809,25.34C130.649,25.34 131.029,25.78 131.029,27.22L131.029,33L133.969,33L133.969,26.3C134.609,25.66 135.169,25.34 135.669,25.34C136.509,25.34 136.889,25.78 136.889,27.22L136.889,33L139.829,33L139.829,26.84C139.829,24.36 138.869,22.84 136.729,22.84C135.409,22.84 134.489,23.6 133.609,24.5C133.109,23.44 132.269,22.84 130.869,22.84C129.569,22.84 128.689,23.54 127.869,24.36L127.789,24.36L127.589,23.08L125.189,23.08L125.189,33ZM142.357,29.92C142.357,31.92 143.037,33.24 145.057,33.24C145.717,33.24 146.217,33.14 146.537,33L146.177,30.82C146.017,30.86 145.937,30.86 145.817,30.86C145.577,30.86 145.297,30.66 145.297,30.04L145.297,18.98L142.357,18.98L142.357,29.92ZM147.966,29.24C147.966,31.72 148.886,33.24 151.046,33.24C152.406,33.24 153.346,32.62 154.166,31.62L154.246,31.62L154.446,33L156.846,33L156.846,23.08L153.906,23.08L153.906,29.64C153.346,30.42 152.886,30.74 152.146,30.74C151.306,30.74 150.906,30.28 150.906,28.86L150.906,23.08L147.966,23.08L147.966,29.24ZM161.754,33L165.154,33L168.394,23.08L165.574,23.08L164.274,27.76C164.014,28.74 163.754,29.78 163.514,30.82L163.434,30.82C163.174,29.78 162.914,28.74 162.654,27.76L161.374,23.08L158.414,23.08L161.754,33Z" style="fill:rgb(235,62,50);"/>
    <path d="M34.793,43L34.793,25.814C34.793,19.254 29.401,14.556 22.816,14.556L22.723,14.556C16.138,14.556 10.471,19.254 10.471,25.814L10.471,43L34.793,43Z" style="fill:rgb(37,39,45);"/>
    <path d="M30.678,27.943C29.155,27.578 26.545,27.463 24.732,27.943C22.919,28.423 22.671,30.914 24.732,30.914C26.792,30.914 32.201,28.308 30.678,27.943Z" style="fill:rgb(235,62,50);"/>
    <path d="M14.6,27.943C16.123,27.578 18.733,27.463 20.546,27.943C22.359,28.423 22.606,30.914 20.546,30.914C18.485,30.914 13.077,28.308 14.6,27.943Z" style="fill:rgb(235,62,50);"/>
    <path d="M23.134,0.789C22.718,0.424 22.048,0.424 21.637,0.789L0.745,19.339C0.333,19.704 0.245,20.368 0.557,20.836L1.443,22.164C1.751,22.626 2.337,22.703 2.75,22.339L22.382,5.033L42.241,22.339C42.659,22.704 43.244,22.632 43.556,22.164L44.443,20.836C44.75,20.374 44.663,19.704 44.247,19.339L23.134,0.789Z" style="fill:rgb(37,39,45);"/>
</svg>
