<?xml version="1.0" encoding="utf-8"?>
<!-- Generator: Adobe Illustrator 23.0.4, SVG Export Plug-In . SVG Version: 6.00 Build 0)  -->
<svg version="1.1" id="Vrstva_1" xmlns="http://www.w3.org/2000/svg" xmlns:xlink="http://www.w3.org/1999/xlink" x="0px" y="0px"
	 viewBox="0 0 498.6 441.4" enable-background="new 0 0 498.6 441.4" xml:space="preserve">
<path fill="#F2F2F2" d="M107.5,137.9c-21.1,0-38.2-17.1-38.2-38.3c0-21.1,17.1-38.3,38.2-38.3c21.1,0,38.2,17.1,38.2,38.3
	C145.8,120.8,128.6,137.9,107.5,137.9z"/>
<path fill-opacity="0.1" d="M107.5,71.5c-1.2,0-2.2-1-2.2-2.2c0-1.2,1-2.2,2.2-2.2c1.2,0,2.2,1,2.2,2.2
	C109.7,70.5,108.7,71.5,107.5,71.5z"/>
<path fill-opacity="0.1" d="M137.8,101.8c-1.2,0-2.2-1-2.2-2.2c0-1.2,1-2.2,2.2-2.2c1.2,0,2.2,1,2.2,2.2
	C140,100.8,139,101.8,137.8,101.8z"/>
<path fill-opacity="0.1" d="M77.2,101.8c-1.2,0-2.2-1-2.2-2.2c0-1.2,1-2.2,2.2-2.2c1.2,0,2.2,1,2.2,2.2
	C79.4,100.8,78.4,101.8,77.2,101.8z"/>
<path fill-opacity="0.1" d="M107.5,132.1c-1.2,0-2.2-1-2.2-2.2c0-1.2,1-2.2,2.2-2.2c1.2,0,2.2,1,2.2,2.2
	C109.7,131.2,108.7,132.1,107.5,132.1z"/>
<path fill-rule="evenodd" clip-rule="evenodd" fill="#AFB9C5" d="M107.5,73.7l-1.4,25.3h2.9L107.5,73.7z"/>
<path fill-rule="evenodd" clip-rule="evenodd" fill="#AFB9C5" d="M94.7,112.4l13.3-11.2l-2-2L94.7,112.4z"/>
<path fill="#C5CFD6" d="M107.5,102.5c-1.6,0-2.9-1.3-2.9-2.9c0-1.6,1.3-2.9,2.9-2.9c1.6,0,2.9,1.3,2.9,2.9
	C110.4,101.2,109.1,102.5,107.5,102.5z"/>
<g opacity="0.3459">
	<path opacity="0.3459" fill-rule="evenodd" clip-rule="evenodd" fill="#F2F2F2" enable-background="new    " d="M148.1,300.7
		c5-55.6,271.9-163,321.5-110.3s1.9,151.6-101.9,176.9C263.8,392.6,143.1,356.3,148.1,300.7z"/>
	<path opacity="0.3459" fill-rule="evenodd" clip-rule="evenodd" fill="#DDE3E9" enable-background="new    " d="M313.1,336.8
		c-4.5-47.3-243.6-138.5-288-93.7C-19.3,287.9-8.1,382,85,403.5C178,425,317.5,384.1,313.1,336.8z"/>
</g>
<path fill="#F2F2F2" d="M456.4,151.4c-16.9,0-30.7-7.3-30.7-16.2c0-9,13.7-16.2,30.7-16.2c16.9,0,30.7,7.3,30.7,16.2
	C487.1,144.1,473.4,151.4,456.4,151.4z"/>
<path fill-rule="evenodd" clip-rule="evenodd" fill="#DDE3E9" d="M420.7,146.3c0-19.9,16-36.1,35.7-36.1c19.7,0,35.7,16.2,35.7,36.1
	"/>
<path fill="#DDE3E9" d="M454.6,0h3.6v115.5h-3.6V0z"/>
<g opacity="0.7">
	<g opacity="0.7">
		<path opacity="0.7" fill="#F2F2F2" enable-background="new    " d="M400.5,114.8c-12.7,0-22.9-5.9-22.9-13.1
			c0-7.2,10.3-13.1,22.9-13.1c12.7,0,22.9,5.9,22.9,13.1C423.4,108.9,413.2,114.8,400.5,114.8z"/>
		<path opacity="0.7" fill-rule="evenodd" clip-rule="evenodd" fill="#DDE3E9" enable-background="new    " d="M373.8,110.7
			c0-16.1,12-29.1,26.7-29.1s26.7,13,26.7,29.1"/>
	</g>
	<path opacity="0.7" fill="#DDE3E9" enable-background="new    " d="M398.3,0h3.6v98.2h-3.6V0z"/>
</g>
<path fill="none" stroke="#CBCBCB" stroke-width="8" d="M88.8,169.1l-13.4-13.4c-2.3-2.3-5.9-2.3-8.2,0c0,0,0,0,0,0l-35.7,35.7
	c-2.2,2.2-3.4,5.1-3.4,8.2v236.5"/>
<path fill="#AFB9C5" d="M9.4,435.4h38.2c1.2,0,2.2,1,2.2,2.2v0.7c0,1.2-1,2.2-2.2,2.2H9.4c-1.2,0-2.2-1-2.2-2.2v-0.7
	C7.2,436.4,8.2,435.4,9.4,435.4z"/>
<path fill-rule="evenodd" clip-rule="evenodd" fill="#C5CFD6" d="M80.7,161.3c-9.3,9.3-9.3,24.4,0,33.7L95,209.3l33.7-33.7
	l-14.3-14.3C105.1,152,90,152,80.7,161.3z"/>
<path fill="#F2F2F2" d="M114.6,195.3c-9.3,9.3-18.3,15.4-20.2,13.5c-1.8-1.8,4.2-10.9,13.5-20.2c9.3-9.3,18.3-15.4,20.2-13.5
	C129.9,177,123.9,186,114.6,195.3z"/>
<path fill-rule="evenodd" clip-rule="evenodd" fill="#DDE3E9" d="M464.5,268.7c-2.1-0.3-4.3-0.2-6.2,0.7c-4.1,1.7-5.2,6.6-5.2,10.5
	c0.1,4.2,1,8.8-2.3,12.2c-1.5,1.6-3.3,2.8-4.8,4.4c-1.5,1.7-2.8,3.7-3.7,5.7c-1.7,3.8-2.5,8.4-1,12.4c1.3,3.6,4.7,6.8,4,10.8
	c-0.8,4.2-5,7.4-7.7,10.6c-3,3.6-5.8,8.1-6.2,12.7c-0.4,4.5,1.5,9,4.5,12.4c6,6.7,14.9,10,23.9,10c3.8,0,8.2-0.2,11.5-2.2
	c1-0.6,1.6-1.4,2.2-2.3c0.5-0.9,1.3-1.5,2.1-2.1c1.8-1.4,3.2-3.2,4-5.3c3.3-8.1,0.7-18.1-3.9-25.3c-1.1-1.7-2-3.3-1.4-5.4
	c0.5-2.1,1.9-4,3.1-5.9c1.2-1.8,2.5-3.5,3.5-5.5c1-2,1.2-4.2,1.1-6.4c-0.3-4.2-2.1-8.1-4.7-11.5c-2.5-3.3-5.4-6.4-5.4-10.6
	c0-4.5,3-8.5,1.7-13.1c-0.5-1.9-1.6-3.9-3.3-5C468.7,269.3,466.5,269,464.5,268.7z"/>
<path fill-rule="evenodd" clip-rule="evenodd" fill="#C5CFD6" d="M465.9,276c0-0.6-0.8-1-1.3-0.8c-0.7,0.2-0.7,0.9-0.7,1.5
	c0.1,1.9-0.2,3.8-0.7,5.6c-1,3.9-2.7,7.4-4.1,11.1c-1.4,3.7-2,7.5-1.2,11.4c0.8,3.7,2,7.3,2.8,11c0.7,3.3,1.4,6.7,0.4,9.9
	c-1,3.1-3.3,5.7-4.9,8.5c-3.4,5.8-4.8,12.3-5,19c-0.1,3.1,0,6.2,0.7,9.3c0.4,1.7,1,4.1,2.5,5.3c0.7,0.6,1.9,0.7,2.5-0.1
	c0.5-0.8,0.1-2-0.1-2.8c-0.8-3.6-0.9-7.2-0.7-10.8c0.2-3.5,0.6-7,1.7-10.4c1-3.1,2.6-5.9,4.4-8.6c1.9-2.8,3.8-5.6,4.6-8.8
	c0.8-3.3,0.1-6.7-0.7-10c-0.9-3.5-2.1-6.8-3.3-10.2c-1.2-3.3-1.6-6.4-1-9.8C462.9,289.4,466.3,283,465.9,276z"/>
<path fill-rule="evenodd" clip-rule="evenodd" fill="#DDE3E9" d="M410,277c-2.6,0.8-5.1,2-6.9,4c-3.9,4.2-2.7,10.5-0.5,15.1
	c2.3,5,5.8,10,3.8,15.7c-0.9,2.6-2.4,5-3.3,7.6c-0.9,2.8-1.3,5.8-1.3,8.7c0.1,5.4,1.5,11.2,5.4,15.2c3.4,3.5,9.1,5.6,10.3,10.7
	c1.3,5.4-1.9,11.4-3.4,16.5c-1.6,5.8-2.5,12.6-0.6,18.3c1.8,5.5,6.5,9.8,11.8,12.3c10.5,4.9,22.8,4.1,33.4-0.6
	c4.5-2,9.5-4.5,12.3-8.6c0.9-1.3,1.1-2.4,1.3-3.9c0.2-1.3,0.7-2.4,1.4-3.6c1.4-2.6,2-5.5,1.9-8.4c-0.4-11.3-8.8-21.8-18-27.9
	c-2.2-1.5-4.1-2.9-4.5-5.6c-0.5-2.8,0.1-5.8,0.5-8.5c0.4-2.7,1.1-5.5,1.2-8.3c0.1-2.9-0.8-5.6-2.1-8.1c-2.6-4.8-6.8-8.4-11.6-11.1
	c-4.6-2.6-9.7-4.7-11.9-9.8c-2.4-5.3-1-11.7-4.9-16.4c-1.6-2-3.9-3.7-6.5-4.2C415.1,275.5,412.4,276.2,410,277z"/>
<path fill-rule="evenodd" clip-rule="evenodd" fill="#C5CFD6" d="M415.2,285.8c-0.4-0.7-1.4-0.8-2-0.3c-0.8,0.6-0.4,1.5,0,2.2
	c1.1,2.2,1.7,4.6,2.2,7c0.9,5.1,0.7,10.2,1,15.3c0.3,5.1,1.5,10,4.5,14.2c2.8,4,6.1,7.6,9,11.5c2.5,3.5,5.2,7.2,5.6,11.6
	c0.4,4.2-0.9,8.4-1.3,12.6c-0.9,8.7,0.8,17.1,4,25.1c1.5,3.7,3.2,7.4,5.7,10.6c1.4,1.9,3.3,4.4,5.7,5c1.1,0.3,2.6-0.1,2.8-1.4
	c0.2-1.2-1-2.4-1.6-3.3c-2.7-3.8-4.8-8.1-6.5-12.5c-1.6-4.2-3-8.6-3.4-13.2c-0.4-4.2-0.1-8.3,0.6-12.5c0.7-4.3,1.5-8.6,0.7-12.9
	c-0.8-4.4-3.4-8.1-6.1-11.5c-2.9-3.6-6-7-9.2-10.3c-3.1-3.3-5.2-6.7-6.3-11.1C418.7,303.3,419.4,293.9,415.2,285.8z"/>
<path fill-rule="evenodd" clip-rule="evenodd" fill="#C5CFD6" d="M489,309c-4.3,0-8,2.3-10.6,5.5c-3,3.7-3.6,8.3-4.9,12.8
	c-0.6,2.2-1.7,4.4-3.5,5.9c-1.7,1.4-3.8,1.6-5.8,2.3c-4,1.3-7.2,4.6-8.5,8.5c-1.6,4.8,0.1,9.7-0.2,14.5c-0.3,4.5-4.7,7.3-8.2,9.4
	c-3.5,2.1-6.6,4.1-7.7,8.2c-1.1,4.4-1.5,9.2,0.1,13.6c2.6,7.2,10.1,10.4,17.4,10.8c6.6,0.4,14.9-0.3,19.9-5.1c3-2.9,4-6.9,3.9-10.9
	c-0.1-2.5-0.6-5-1.2-7.4c-0.5-1.7-1.1-3.4-1.2-5.2c-0.5-4.7,3.9-5.6,7.5-6.9c4.7-1.6,8-4.7,10.2-9c2.1-4,3-8.5,1.7-12.9
	c-0.6-2.2-1.8-4.3-3.4-6c-0.7-0.8-1.7-1.4-2.3-2.2c-0.6-0.8-0.5-1.7-0.3-2.6c0.9-4.1,3.9-7.4,4.9-11.5c1-3.7,0.4-8.2-3-10.6
	C492.6,309.5,490.8,309.1,489,309z"/>
<path fill-rule="evenodd" clip-rule="evenodd" fill="#AFB9C5" d="M483.2,319.6c-4.5,4.8-5.7,11.3-6.1,17.6c-0.2,3.5,0,7.3-1,10.7
	c-0.9,2.9-3,5.2-5.1,7.3c-4.3,4.3-9.2,8.6-10.4,14.8c-0.7,3.6-0.2,7.4-1.3,11c-0.9,3.3-2.6,6.5-4.6,9.2c-1.6,2.2-3.7,3.9-5.5,6
	c-0.5,0.6-1.3,1.6-1.1,2.5c0.3,1,1.6,1.4,2.5,1.2c2.2-0.4,4.1-2.5,5.5-4c2.1-2.2,3.9-4.6,5.3-7.3c1.6-3,2.9-6.2,3.5-9.5
	c0.6-3.5,0.3-7.1,1.6-10.5c2.2-5.6,7.6-9,11.5-13.3c4.8-5.5,4.1-12.3,3.6-19c-0.3-3.7-0.5-7.9,1.3-11.2c0.7-1.3,2.3-2.5,2.6-4
	C485.9,319.8,484.4,318.4,483.2,319.6z"/>
<path fill-rule="evenodd" clip-rule="evenodd" fill="#4972E3" d="M478.4,398.6c0,27.5-4.5,41.9-28.1,41.9
	c-23.7,0-28.1-14.4-28.1-41.9H478.4z"/>
<path fill="#AFB9C5" d="M355,358.9h24.5c0.8,0,1.4,0.6,1.4,1.4v3.6c0,0.8-0.6,1.4-1.4,1.4H355c-0.8,0-1.4-0.6-1.4-1.4v-3.6
	C353.6,359.5,354.2,358.9,355,358.9z"/>
<path fill-rule="evenodd" clip-rule="evenodd" fill="#DDE3E9" d="M373.8,337.9c-3.1-10-4.8-20.6-5.2-31.8h-2h-1.3
	c-0.4,11.1-2.1,21.7-5.2,31.8h-4.7c-6.2,0-11.2,5-11.2,11.2c0,6.2,5,11.2,11.2,11.2h23.8c6.2,0,11.2-5,11.2-11.2
	c0-6.2-5-11.2-11.2-11.2H373.8z"/>
<path fill-rule="evenodd" clip-rule="evenodd" fill="#C5CFD6" d="M392.8,256.1c-8.3-0.8-16.5-1.2-24.8-1.2c-8.3,0-16.5,0.4-24.8,1.2
	l-3.3,57.4c9.4,0.9,18.8,1.3,28.1,1.3c9.4,0,18.8-0.4,28.1-1.3L392.8,256.1z"/>
<path fill-rule="evenodd" clip-rule="evenodd" fill="#DDE3E9" d="M397.6,365.4h-59.9h-15.2v75.1h15.2v-59.2h59.9v59.2h15.2v-75.1
	H397.6z"/>
<path fill-rule="evenodd" clip-rule="evenodd" fill="#2975DC" fill-opacity="0.4" d="M110.9,237c-6.4,15.2-17.2,25.7-22.9,41.4
	c-3.4,9.3-4.8,19.5-4.9,29.9c0,5.7,0.1,11.3,0.1,17c0,5.5,0.2,11,0.6,16.5c0.5,5.5,1,10.9,1.2,16.5c0.2,4.3,0.3,9.3,1.7,13.3
	c1.2,3.1,4.1,3.6,4.9-0.2c0.4-2.1,0.4-4.5,0.3-6.6c-0.1-2.8-0.2-5.6-0.3-8.3c-0.3-11.2,0.1-22.3-0.1-33.5
	c-0.2-10.9-1.6-21.8-0.1-32.7c1.3-9,4.5-16.6,8.3-24c3.6-7.1,7.5-14,9.9-22.1c0.7-2.3,1.2-4.7,1.5-7.2
	C111,236.8,110.9,236.8,110.9,237z"/>
<path fill-rule="evenodd" clip-rule="evenodd" fill="#2975DC" fill-opacity="0.8" d="M112.6,266.9c-1.3,0.9-2,2.2-2.8,3.6
	c-1.1,1.6-2.3,3.1-3.4,4.8c-2.2,3.4-4.2,7-6.2,10.6c-3.8,6.7-6.7,13.9-8.2,21.7c-1.5,8.1-1.9,16.4-2.5,24.6
	c-0.7,8.7-1.3,17.5-1.4,26.2c0,3.9-0.3,8.1,0.2,11.9c0.3,2.4,1.4,4.5,3.8,4.5c5.2,0,7.7-5.8,8.7-10.6c1.5-7,1.8-14.4,1.6-21.6
	c-0.3-8.6-1.8-17.1-2.4-25.7c-0.7-9.1-0.3-18,2.8-26.6c1.6-4.3,3.4-8.5,5.1-12.8c0.7-1.8,1.3-3.7,2.2-5.4c1.1-1.9,2.4-3.6,3.2-5.7
	C113.1,266.6,112.8,266.7,112.6,266.9z"/>
<path fill-rule="evenodd" clip-rule="evenodd" fill="#2975DC" fill-opacity="0.4" d="M52.4,248.8c-0.2-0.1-0.3-0.2-0.5-0.4
	c0.5,1.9,1.3,3.5,1.9,5.3c0.6,1.6,0.9,3.4,1.2,5.2c0.9,4.1,2,8.1,2.8,12.2c1.7,8.2,1.4,17,0.3,26.1c-1,8.6-2.7,17.1-3.5,25.7
	c-0.7,7.1-0.9,14.4-0.3,21.2c0.4,4.6,1.8,10.1,5.6,9.6c1.8-0.2,2.7-2.4,3.1-4.8c0.6-3.9,0.7-8,1-11.9c0.5-8.7,0.6-17.3,0.7-25.8
	c0.1-8.1,0.4-16.3-0.2-24.2c-0.5-7.6-2.1-14.4-4.5-20.8c-1.2-3.3-2.4-6.7-3.8-9.9c-0.7-1.5-1.5-2.9-2.1-4.4
	C53.7,250.8,53.3,249.5,52.4,248.8z"/>
<path fill-rule="evenodd" clip-rule="evenodd" fill="#2975DC" fill-opacity="0.4" d="M111,291.9c-0.7-1.2-2.2,2.7-2.4,3.1
	c0.1-0.2,0.2-0.5,0.3-0.7c-1.4,2.3-2.6,4.7-3.4,7.3c-0.8,2.6-1.4,5.2-2.2,7.8c-1.4,4.9-3.1,9.6-4.3,14.6c-1.2,4.8-1.5,9.5-1.2,14.5
	c0.3,5.2,0.5,10.4,0.1,15.6c-0.2,2.5-1,4.8-1.5,7.1c-0.6,2.4-1,4.8-1.6,7.1c-0.1-0.3-0.2,0.7-0.2,0.8c0,0.6,0.1,1.1,0.3,1.6
	c0.5,1.4,1.4,2.6,2.8,3c2.5,0.7,4.8-1.6,5.6-4c1.2-3.4,1.8-7.2,2.3-10.9c0.5-3.3,0.6-6.6,0.5-10c-0.3-6.6-1.5-13.2-1.8-19.8
	c-0.4-7.2,1.1-14,2.3-21c0.6-3.4,1.1-6.7,2.2-10c0.5-1.3,1-2.5,1.7-3.7C110.7,294,111.4,292.7,111,291.9z"/>
<path fill-rule="evenodd" clip-rule="evenodd" fill="#2975DC" fill-opacity="0.7" d="M90.7,280.7c0.3,8.3,0.8,16.5,1.9,24.6
	c1.1,8.3,2.4,16.7,3.5,25c1.1,8.1,2.2,16.4,2,24.6c-0.1,6.1,0.9,16.3-5.8,19.3c-6.8,3-8.3-9.9-8.7-14.2c-0.9-8.2-0.6-16.5-0.2-24.8
	c0.4-8.5,1.1-16.9,2-25.3c1-9.4,1.8-18.8,2.4-28.2c0.3-4.6,0.4-9.3,0.3-13.9c-0.1-4.4,0.1-8.8,1.6-13c0.1,0.1,0.2,0.1,0.2,0.2"/>
<path fill-rule="evenodd" clip-rule="evenodd" fill="#2975DC" d="M55.5,306.8c1.2,1.8,2.5,3.6,3.6,5.5c2.1,3.4,3.9,7.2,4.5,12
	c1.2,10.1,0.2,21.1,0,31.6c0,2.1,0.2,4.2-0.6,6.2c-0.8,1.8-2.2,3.2-3.6,3.2c-2.9,0-2.5-7.2-2.5-10.3c0-5.5,0.6-11.1,0.6-16.6
	c-0.1-5.4-0.4-10.9-1.2-16.1c-0.8-5.2-2-10.3-3.5-15c-0.2-0.7-1.8-5.7-0.3-4.8"/>
<path fill-rule="evenodd" clip-rule="evenodd" fill="#2975DC" fill-opacity="0.7" d="M68.4,252.7c1.9,0,1.9,9.6,2,10.8
	c0.2,4.4,0.2,8.9,0.3,13.3c0.3,9.7,0.6,19.4,2.1,29c0.8,5.1,1.7,10.3,2.7,15.4c1,5.1,2.3,10.2,2.9,15.4c0.6,5,0.3,10.1,0.2,15.1
	c-0.1,5-0.2,10.1-0.9,15.1c-0.2,1.2-0.4,2.5-0.6,3.7c-0.2,1-0.1,2.3-0.4,3.3c-0.5,1.6-2.4,2.1-3.8,1.8c-3.6-0.7-5.9-5.2-7.1-8.5
	c-1.6-4.2-2.4-8.8-3.2-13.3c-0.9-5-1.5-10.2-1.7-15.3c-0.5-10.4,0.1-20.9,0.9-31.3c0.4-5.8,0.9-11.5,1.6-17.3
	c0.7-5.7,1.7-11.4,2.3-17.2c0.4-4.2,0.9-8.3,1.2-12.5C66.8,259.1,66.9,252.7,68.4,252.7z"/>
<path fill-rule="evenodd" clip-rule="evenodd" fill="#2975DC" d="M70.8,322.1c0.3-10,4.3-54.1,5.3-66.2c0.2-3,2.4-15.7,2.7-19.1
	c0.8,1,0.7,16.1,0.7,19.6c0,3.4,0.4,6.8,0.6,10.2c0.2,3.5,5.4,48.6,6.1,51.9c1.3,6.7,2.2,13.5,2.9,20.3c0.7,6.7,1.7,13.7,0.8,20.4
	c-0.2,1.5-0.5,3.1-1.1,4.5c-0.6,1.5-1,2.9-1.4,4.5c-0.7,2.6-2.1,4.8-4.1,5.9c-4.2,2.2-6.5-2.8-7.6-7c-1.8-6.9-3-13.8-3.6-21
	C71.4,338.2,70.5,330.2,70.8,322.1z"/>
<path fill="#AFB9C5" d="M51.2,351.6H114c0.8,0,1.4,0.6,1.4,1.4v62.8c0,0.8-0.6,1.4-1.4,1.4H51.2c-0.8,0-1.4-0.6-1.4-1.4v-62.8
	C49.8,352.3,50.4,351.6,51.2,351.6z"/>
<path fill="#C5CFD6" d="M116.9,358.9h4.3c0.8,0,1.4,0.6,1.4,1.4V439c0,0.8-0.6,1.4-1.4,1.4h-4.3c-0.8,0-1.4-0.6-1.4-1.4v-78.7
	C115.5,359.5,116.1,358.9,116.9,358.9z"/>
<path fill="#C5CFD6" d="M80.8,358.9h4.3c0.8,0,1.4,0.6,1.4,1.4V439c0,0.8-0.6,1.4-1.4,1.4h-4.3c-0.8,0-1.4-0.6-1.4-1.4v-78.7
	C79.4,359.5,80,358.9,80.8,358.9z"/>
<path fill="#C5CFD6" d="M44,358.9h4.3c0.8,0,1.4,0.6,1.4,1.4V439c0,0.8-0.6,1.4-1.4,1.4H44c-0.8,0-1.4-0.6-1.4-1.4v-78.7
	C42.6,359.5,43.2,358.9,44,358.9z"/>
<path fill-rule="evenodd" clip-rule="evenodd" fill="#A3C2ED" d="M232.7,168.8c3.5-4.1,5.8-9.1,5.4-14.7c-1.1-16.2-23.6-12.6-28-4.5
	c-4.4,8.2-3.9,28.9,1.8,30.3c2.3,0.6,7.1-0.8,12-3.8l-3.1,21.7h18.1L232.7,168.8z"/>
<path fill-rule="evenodd" clip-rule="evenodd" fill="#29303A" d="M202.1,138.3c0.4-1.3,1.4-2.5,2.7-2.8c0.3-0.1,0.7-0.1,1-0.1
	c0.1,0,0.2,0,0.2,0c0-0.1,0-0.2,0.1-0.3c0.1-0.2,0.1-0.5,0.2-0.7c0.3-0.8,0.8-1.4,1.3-2c1.1-1.1,2.5-1.8,4.1-1.9
	c0.8-0.1,1.7,0.1,2.4,0.3c0.4,0.1,0.8,0.3,1.2,0.5c0.1,0.1,0.5,0.3,0.6,0.3c0.1,0,0.4-0.3,0.5-0.4c1.3-1,2.9-1.4,4.5-1.4
	c1.8,0,3.5,0.1,5.1,1.2c0.3,0.2,0.6,0.5,0.9,0.8c0.2,0.1,0.3,0.3,0.4,0.4c0.1,0.1,0.2,0.2,0.2,0.3c0.1,0.2,0.1,0.2,0.3,0.1
	c0.7-0.4,1.6-0.6,2.4-0.5c0.5,0.1,1,0.2,1.5,0.4c0.2,0.1,0.5,0.3,0.7,0.3c0.2,0,0.5-0.2,0.7-0.3c0.9-0.3,1.9-0.4,2.9-0.3
	c1,0.2,2,0.6,2.9,1.1c0.4,0.3,0.8,0.6,1.1,1c0.1,0.2,0.2,0.4,0.4,0.5c0.1,0.1,0.2,0.2,0.3,0.3c0-0.1,1.1-0.5,1.2-0.5
	c0.6-0.1,1.1-0.1,1.7,0.1c1,0.3,1.9,1.1,2.7,1.9c0.4,0.4,0.7,0.9,1,1.3c0.1,0.2,0.3,0.5,0.4,0.7c0.1,0.1,0.1,0.3,0.2,0.4
	c0.1,0.1,0.2,0.1,0.3,0.2c0.9,0.3,1.6,0.8,2.2,1.5c0.6,0.7,1,1.5,1.2,2.4c0,0.1,0,0.3,0,0.3c0,0,0.2,0,0.3,0c0.2,0,0.4,0.1,0.7,0.1
	c0.4,0.1,0.8,0.2,1.2,0.4c1.5,0.7,2.5,2.1,3,3.6c0.5,1.6,0.5,3.4-0.1,5c-0.1,0.3-0.2,0.5-0.4,0.7c-0.1,0.1-0.1,0.1-0.1,0.3
	c0.1,0.2,0.2,0.3,0.3,0.5c0.2,0.5,0.4,1.1,0.5,1.7c0.2,0.9,0.3,1.9,0.1,2.9c-0.1,0.4-0.2,0.9-0.4,1.3c-0.1,0.2-0.2,0.4-0.4,0.6
	c-0.1,0.1-0.2,0.2-0.2,0.3c0,0-0.1,0.1-0.2,0.1c-0.1,0.1-0.1,0-0.1,0.2c0.1,0.3,0.2,0.5,0.3,0.8c0.1,0.3,0.2,0.5,0.3,0.8
	c0.2,0.6,0.3,1.1,0.4,1.7c0.2,1.1,0.1,2.3-0.4,3.3c-0.2,0.4-0.5,0.8-0.9,1.1c-0.2,0.1-0.4,0.3-0.6,0.4c-0.1,0.1-0.3,0.1-0.3,0.2
	c-0.1,0.1,0,0.3,0,0.5c0.2,1.1,0.2,2.3-0.1,3.4c-0.3,1-1,1.9-1.9,2.5c-1.7,1.2-4,1.1-5.8,0.2c-0.5-0.2-0.9-0.5-1.3-0.9
	c-1,1.3-3,1.3-4.5,0.9c-1.8-0.5-3.3-1.7-4.1-3.4c-1.1,1.4-3.5,0.9-4.3-0.6c-0.2-0.4-0.3-0.8-0.4-1.2c0-0.2,0-0.4,0-0.7
	c0-0.3-0.2-0.5-0.3-0.8c-0.2-0.5-0.3-1.1-0.3-1.6c0-0.3,0-0.6,0.1-0.9c0-0.3,0-0.5-0.1-0.8c0.5,0.1,1,0,1.5-0.2
	c0.4-0.1,0.8-0.5,1.1-0.8c0.7-0.7,1.1-1.7,1.4-2.7c0.6-2.1,0.4-4.6-1.7-5.8c-1-0.5-4-0.5-5.1-0.3c-1.2,0.3-2.6,3-2.7,3.3
	c0,0.2,0,0.4-0.2,0.5c-0.3,0.2-0.9-0.2-1.1-0.4c-0.4-0.3-0.7-0.8-1-1.3c-0.6-1-1-2.1-1.3-3.2c-0.2-0.9-0.4-1.7-0.7-2.6
	c-0.3-0.8-0.8-1.6-1.6-2c-0.8-0.5-1.8-0.8-2.7-1.1c-0.9-0.3-1.8-0.7-2.5-1.4c-0.2-0.1-0.3-0.3-0.4-0.5c-0.1-0.1-0.2-0.4-0.3-0.5
	c-0.2-0.1-0.6,0.2-0.8,0.3c-1,0.6-1.8,1.5-2.5,2.5c-0.7,1-1.2,1.9-1.7,3c-0.3,0.8-0.5,1.8-1.1,2.5c-0.3,0.3-2.2,0.5-2.8,0.2
	c-0.6-0.3-1.3-0.9-1.5-1.3c-0.2-0.4-0.3-0.9-0.2-1.4c0.1-0.3,0.2-0.5,0.2-0.8c0.1-0.2,0.1-0.4,0.2-0.6c0.2-0.4,0.6-0.7,1-0.8
	c-0.4-0.4-0.8-0.9-1.1-1.4c-0.3-0.6-0.5-1.3-0.6-1.9c-0.1-0.5,0-1,0.3-1.5c0.3-0.5,0.8-0.8,1.3-1c-0.7-0.5-1.3-1.2-1.7-1.9
	C202.2,141.7,201.6,140,202.1,138.3z"/>
<path fill-rule="evenodd" clip-rule="evenodd" fill="#0B3783" d="M245,260.7l-36.3,96.2l-25.5,70.9h-14.5l35-167.1H245z"/>
<path fill-rule="evenodd" clip-rule="evenodd" fill="#2975DC" d="M253.9,260.7c0.4,33,0.1,77.4,1,79.5c0.6,1.4,19.7,17,57.2,46.9
	l-7.5,12.7c-44.6-28.8-68-45.1-70.3-48.9c-3.4-5.7-20.6-58.6-29.5-90.2H253.9z"/>
<path fill-rule="evenodd" clip-rule="evenodd" fill="#29303A" d="M325.4,395.6l-12.6-9.6l-10.2,12.2c-0.8,9.2-3.8,19.5-9.1,30.8
	l2.3,1.9l18.5-22l5.2-8.5l1.2,1L325.4,395.6z"/>
<path fill-rule="evenodd" clip-rule="evenodd" fill="#29303A" d="M184.5,441.4l-0.8-15.9h-15.9c-7.5,5.3-17.3,9.6-29.5,12.9v3h28.7
	l9.8-1.5v1.5H184.5z"/>
<path fill-rule="evenodd" clip-rule="evenodd" fill="#A3C2ED" d="M180,230.7l-29.8-4.1c-6-3.3-11.5-5.6-16.5-6.7
	c-1.4,0-3.7,0.5-0.3,3.3c3.3,2.8,6.7,5.9,6.1,7.4c-0.6,1.5-3.7,0.9-4.2,3.2c-0.3,1.5,4.7,1.8,15.1,0.7l24.2,9.6L180,230.7z
	 M273.7,237.6l-16.5,0.1c18.1,40.8,27.6,62.2,28.4,64.2c1.7,4.3-2,10.9-3.5,14.5c5.2,2.3,4.6-6.2,11.1-3.2
	c5.9,2.8,10.4,7.8,17.3,3.5c0.8-0.5,1.8-2.5-0.5-4c-5.6-3.8-13.6-10.5-14.6-12.7C293.8,296.9,286.6,276.1,273.7,237.6z"/>
<path fill-rule="evenodd" clip-rule="evenodd" fill="#AFB9C5" d="M228.4,185.1l-13,0.9c-3.2,28.9-20.6,47.1-59.5,40.9l-5.2,37.2
	c36.4,4.7,68.2-9.9,74.8-49.3C227.3,204.5,228.6,193.9,228.4,185.1z"/>
<path fill-rule="evenodd" clip-rule="evenodd" fill="#C5CFD6" d="M234.8,181.3l-19.6,4.5c0,33.8-10.8,55.3-16.3,80.2h53
	c0.7,8.6,1.2,17.4,1.4,26.5H293c-9-47.9-28-84.9-56.9-111.1L234.8,181.3L234.8,181.3z"/>
<path fill-rule="evenodd" clip-rule="evenodd" fill-opacity="0.1" d="M243.5,217.8c1.4,21,0.6,37.1-2.4,48.2h10.8
	C250.4,249,247.8,232.9,243.5,217.8L243.5,217.8z"/>
</svg>
