<svg xmlns="http://www.w3.org/2000/svg" xmlns:xlink="http://www.w3.org/1999/xlink" width="43" height="40" viewBox="0 0 43 40"><defs><path id="idgja" d="M203.5 1057h6.06c7.72 4.55 8.99 11.33 8.99 18.12 0 5.28-13.78 9.88-14.42 9.88-.63 0-.63-28-.63-28z"/><path id="idgjb" d="M189.53 1075.12c0-.14.66-11.83 9.18-18.12h10.85c5.14 3.04 8.14 9.08 8.99 18.12 0 5.28-7.22 9.83-14.42 9.88-7.31.05-14.6-4.5-14.6-9.88zM208.9 1059h-9.41c-3.05 2.45-5.18 5.9-6.51 9.95a28.92 28.92 0 0 0-1.3 6.17c0 3.96 6 7.92 12.44 7.88 6.3-.04 12.2-3.95 12.28-7.8-.78-8.1-3.32-13.46-7.5-16.2z"/><path id="idgjc" d="M203.5 1047v9h10.75v-9z"/><path id="idgjd" d="M198.13 1055h11.82l4.3-8h-20.43zm10.42-2h-9.03l-2.39-4h13.81z"/><path id="idgje" d="M184.15 1073c0-2.2 1.93-4 4.3-4s4.3 1.8 4.3 4-1.93 4-4.3 4-4.3-1.8-4.3-4z"/><path id="idgjf" d="M188.45 1078c-2.97 0-5.38-2.24-5.38-5s2.41-5 5.38-5c2.97 0 5.38 2.24 5.38 5s-2.41 5-5.38 5zm0-2c1.78 0 3.23-1.34 3.23-3s-1.45-3-3.23-3-3.23 1.34-3.23 3 1.45 3 3.23 3z"/><path id="idgjg" d="M186.3 1057c-1.78 0-3.23-1.34-3.23-3s1.45-3 3.23-3 3.23 1.34 3.23 3-1.45 3-3.23 3zm0-2c.6 0 1.07-.45 1.07-1s-.48-1-1.07-1c-.6 0-1.07.45-1.07 1s.48 1 1.07 1z"/><path id="idgjh" d="M185.22 1055v-2h2.15v2z"/><path id="idgji" d="M189.53 1063c0-1.66 1.44-3 3.22-3 1.78 0 3.23 1.34 3.23 3s-1.45 3-3.23 3-3.23-1.34-3.23-3z"/><path id="idgjj" d="M192.75 1067c-2.37 0-4.3-1.8-4.3-4s1.93-4 4.3-4 4.3 1.8 4.3 4-1.93 4-4.3 4zm0-2c1.19 0 2.15-.9 2.15-2s-.96-2-2.15-2-2.15.9-2.15 2 .96 2 2.15 2z"/><path id="idgjk" d="M209.95 1085v-6H225v6z"/><path id="idgjl" d="M206.72 1081v-6h15.05v6z"/><path id="idgjm" d="M209.95 1077v-6H225v6z"/><path id="idgjn" d="M209.95 1079H225v6h-15.05zm2.15 2v2h10.75v-2z"/><path id="idgjo" d="M206.72 1075h15.05v6h-15.05zm2.16 2v2h10.75v-2z"/><path id="idgjp" d="M209.95 1071H225v6h-15.05zm2.15 2v2h10.75v-2z"/><path id="idgjq" d="M198.13 1055h11.82v4h-11.82z"/><path id="idgjr" d="M200.28 1057v-2h7.52v2z"/></defs><g><g transform="translate(-183 -1047)"><g><use fill="#e0e6ed" xlink:href="#idgja"/></g><g><use fill="#0c3847" xlink:href="#idgjb"/></g><g><use fill="#e0e6ed" xlink:href="#idgjc"/></g><g><use fill="#0c3847" xlink:href="#idgjd"/></g><g><use fill="#ffbf66" xlink:href="#idgje"/></g><g><use fill="#0c3847" xlink:href="#idgjf"/></g><g><use fill="#0c3847" xlink:href="#idgjg"/></g><g><use fill="#ffbf66" xlink:href="#idgjh"/></g><g><use fill="#ffbf66" xlink:href="#idgji"/></g><g><use fill="#0c3847" xlink:href="#idgjj"/></g><g><use fill="#ffbf66" xlink:href="#idgjk"/></g><g><use fill="#ffbf66" xlink:href="#idgjl"/></g><g><use fill="#ffbf66" xlink:href="#idgjm"/></g><g><use fill="#0c3847" xlink:href="#idgjn"/></g><g><use fill="#0c3847" xlink:href="#idgjo"/></g><g><use fill="#0c3847" xlink:href="#idgjp"/></g><g><use fill="#0c3847" xlink:href="#idgjq"/></g><g><use fill="#38caaa" xlink:href="#idgjr"/></g></g></g></svg>