<svg xmlns="http://www.w3.org/2000/svg" xmlns:xlink="http://www.w3.org/1999/xlink" width="40" height="40" viewBox="0 0 40 40"><defs><path id="h3oea" d="M667.56 2693c.8 0 1.44.65 1.44 1.44V2708c0 .8-1.2 2-2 2h-2.71v4l-7.29-4h-10c-.8 0-1-1.2-1-2v-13.56c0-.8.65-1.44 1.44-1.44z"/><path id="h3oeb" d="M666.28 2717.38V2712h.72c1.9 0 4-2.1 4-4v-13.56c0-1.9-1.54-3.44-3.44-3.44h-20.12a3.44 3.44 0 0 0-3.44 3.44V2708c0 .68.1 1.39.33 2 .43 1.15 1.32 2 2.67 2h9.49zm1.28-24.38c.8 0 1.44.65 1.44 1.44V2708c0 .8-1.2 2-2 2h-2.71v4l-7.29-4h-10c-.8 0-1-1.2-1-2v-13.56c0-.8.65-1.44 1.44-1.44z"/><path id="h3oec" d="M634.38 2680c-.76 0-1.38.62-1.38 1.37v13.67c0 .75.62 1.96 1.38 1.96H637v4l5-4h11.63c.75 0 1.37-1.2 1.37-1.96v-13.67c0-.75-.62-1.37-1.38-1.37z"/><path id="h3oed" d="M642.7 2699l-7.7 6.16V2699h-.63c-2.03 0-3.37-2.13-3.37-3.96v-13.67a3.38 3.38 0 0 1 3.38-3.37h19.25c1.85 0 3.37 1.5 3.37 3.37v13.67c0 1.83-1.34 3.96-3.38 3.96zm-8.33-19c-.75 0-1.37.62-1.37 1.37v13.67c0 .75.62 1.96 1.38 1.96H637v4l5-4h11.63c.75 0 1.37-1.2 1.37-1.96v-13.67c0-.75-.62-1.37-1.38-1.37z"/><path id="h3oee" d="M637 2691v-2h2v2z"/><path id="h3oef" d="M642 2691v-2h2v2z"/><path id="h3oeg" d="M647 2691v-2h2v2z"/><path id="h3oeh" d="M654 2699v-2h12v2z"/><path id="h3oei" d="M649 2703v-2h17v2z"/><path id="h3oej" d="M649 2707v-2h17v2z"/></defs><g><g transform="translate(-631 -2678)"><g><use fill="#e0e6ed" xlink:href="#h3oea"/></g><g><use fill="#0c3847" xlink:href="#h3oeb"/></g><g><use fill="#fff" xlink:href="#h3oec"/></g><g><use fill="#0c3847" xlink:href="#h3oed"/></g><g><use fill="#0c3847" xlink:href="#h3oee"/></g><g><use fill="#0c3847" xlink:href="#h3oef"/></g><g><use fill="#0c3847" xlink:href="#h3oeg"/></g><g><use fill="#0c3847" xlink:href="#h3oeh"/></g><g><use fill="#0c3847" xlink:href="#h3oei"/></g><g><use fill="#0c3847" xlink:href="#h3oej"/></g></g></g></svg>