<svg xmlns="http://www.w3.org/2000/svg" xmlns:xlink="http://www.w3.org/1999/xlink" width="40" height="40" viewBox="0 0 40 40"><defs><path id="5tjpa" d="M162 1362v-25h25v25z"/><path id="5tjpb" d="M168 1350.5a6.5 6.5 0 0 1 13 0v11.5h-13z"/><path id="5tjpc" d="M174.6 1327.48l-13.35 9.52h25.83z"/><path id="5tjpd" d="M190 1338h-33l17.05-12z"/><path id="5tjpe" d="M192.2 1362h-35.4c-.44 0-.8-.45-.8-1s.36-1 .8-1h35.4c.44 0 .8.45.8 1s-.36 1-.8 1z"/><path id="5tjpf" d="M193 1339h-38l19.63-14zm-18.4-11.52l-13.35 9.52h25.83z"/><path id="5tjpg" d="M174 1362v-25h13v25z"/><clipPath id="5tjph"><use fill="#fff" xlink:href="#5tjpa"/></clipPath><clipPath id="5tjpi"><use fill="#fff" xlink:href="#5tjpb"/></clipPath></defs><g><g transform="translate(-122 -1297)"><g><use fill="#0c3847" xlink:href="#5tjpc"/></g><g><use fill="#ffbf66" xlink:href="#5tjpd"/></g><g><use fill="#0c3847" xlink:href="#5tjpe"/></g><g><use fill="#0c3847" xlink:href="#5tjpf"/></g><g><use fill="#e0e6ed" xlink:href="#5tjpg"/></g><g><use fill="#fff" fill-opacity="0" stroke="#0c3847" stroke-miterlimit="50" stroke-width="4" clip-path="url(&quot;#5tjph&quot;)" xlink:href="#5tjpa"/></g><g><use fill="#38caaa" xlink:href="#5tjpb"/></g><g><use fill="#fff" fill-opacity="0" stroke="#0c3847" stroke-miterlimit="50" stroke-width="4" clip-path="url(&quot;#5tjpi&quot;)" xlink:href="#5tjpb"/></g></g></g></svg>