<svg xmlns="http://www.w3.org/2000/svg" xmlns:xlink="http://www.w3.org/1999/xlink" width="40" height="40" viewBox="0 0 40 40"><defs><path id="ycw1a" d="M172 3012v-8h8z"/><path id="ycw1b" d="M185 3003v-22h5v22z"/><path id="ycw1c" d="M151 3013v-40h16v40z"/><path id="ycw1d" d="M151 3013v-40h14v40z"/><path id="ycw1e" d="M151 2973h30v32l-8 8h-22zm2 2v36h19.17l6.83-6.83V2975z"/><path id="ycw1f" d="M156 2980v-2h20v2z"/><path id="ycw1g" d="M156 2985v-2h14v2z"/><path id="ycw1h" d="M156 2990v-2h17v2z"/><path id="ycw1i" d="M170 3004v-2h10v2z"/><path id="ycw1j" d="M170 3012v-10h2v10z"/><path id="ycw1k" d="M156 2995v-2h13v2z"/><path id="ycw1l" d="M156 3007v-2h7v2z"/><path id="ycw1m" d="M156 3003v-2h7v2z"/><path id="ycw1n" d="M184 2982h2v25h-2z"/><path id="ycw1o" d="M189 2982h2v25h-2z"/><path id="ycw1p" d="M184 3009h7v-2h-7z"/><path id="ycw1q" d="M184 3004h7v-2h-7zm1-2v2l-1-1zm5 2v-2l1 1z"/><path id="ycw1r" d="M187.5 2975l3.5 8h-7z"/><path id="ycw1s" d="M187 2979v4h1v-4z"/></defs><g><g transform="translate(-151 -2973)"><g><use fill="#ff525b" xlink:href="#ycw1a"/></g><g><use fill="#ffbf66" xlink:href="#ycw1b"/></g><g><use fill="#e0e6ed" xlink:href="#ycw1c"/></g><g><use fill="#e0e6ed" xlink:href="#ycw1d"/></g><g><use fill="#0c3847" xlink:href="#ycw1e"/></g><g><use fill="#0c3847" xlink:href="#ycw1f"/></g><g><use fill="#0c3847" xlink:href="#ycw1g"/></g><g><use fill="#0c3847" xlink:href="#ycw1h"/></g><g><use fill="#0c3847" xlink:href="#ycw1i"/></g><g><use fill="#0c3847" xlink:href="#ycw1j"/></g><g><use fill="#0c3847" xlink:href="#ycw1k"/></g><g><use fill="#0c3847" xlink:href="#ycw1l"/></g><g><use fill="#0c3847" xlink:href="#ycw1m"/></g><g><use fill="#0c3847" xlink:href="#ycw1n"/></g><g><use fill="#0c3847" xlink:href="#ycw1o"/></g><g><use fill="#0c3847" xlink:href="#ycw1p"/></g><g><use fill="#0c3847" xlink:href="#ycw1q"/></g><g><use fill="#0c3847" xlink:href="#ycw1q"/></g><g><use fill="#0c3847" xlink:href="#ycw1r"/></g><g><use fill="#ffbf66" xlink:href="#ycw1s"/></g></g></g></svg>