<svg xmlns="http://www.w3.org/2000/svg" xmlns:xlink="http://www.w3.org/1999/xlink" width="80" height="80" viewBox="0 0 80 80"><defs><path id="obwaa" d="M178.5 477a26.5 26.5 0 1 1 0-53 26.5 26.5 0 0 1 0 53zm0-2a24.5 24.5 0 1 0 0-49 24.5 24.5 0 0 0 0 49z"/><path id="obwab" d="M219.07 502.56l-22.63-22.63 8.49-8.49 22.63 22.63z"/><path id="obwac" d="M194.68 479.08l9.9-9.9 24.74 24.74-9.9 9.9zM219.42 501l7.08-7.08L204.58 472l-7.08 7.08z"/><path id="obwad" d="M203.12 486.61l-1.41-1.41 8.49-8.49 1.41 1.41z"/><path id="obwae" d="M199.95 475.36l-4.95-4.95 1.41-1.41 4.95 4.95z"/><path id="obwaf" d="M192.11 442.54l1.78.92c-3.14 6.05-8.65 6.05-11.78 0l1.78-.92c2.38 4.61 5.83 4.61 8.22 0z"/><path id="obwag" d="M173.11 442.54l1.78.92c-3.14 6.05-8.65 6.05-11.78 0l1.78-.92c2.38 4.61 5.83 4.61 8.22 0z"/><path id="obwah" d="M163.86 463.41l-1.42-1.41a22 22 0 0 1 31.12 0l-1.42 1.41a20 20 0 0 0-28.28 0z"/></defs><g><g transform="translate(-152 -424)"><g><g><use fill="#0c3847" xlink:href="#obwaa"/></g><g><use fill="#ff525b" xlink:href="#obwab"/></g><g><use fill="#0c3847" xlink:href="#obwac"/></g><g><use fill="#0c3847" xlink:href="#obwad"/></g><g><use fill="#0c3847" xlink:href="#obwae"/></g><g><use fill="#0c3847" xlink:href="#obwaf"/></g><g><use fill="#0c3847" xlink:href="#obwag"/></g><g><use fill="#0c3847" xlink:href="#obwah"/></g></g></g></g></svg>