<svg xmlns="http://www.w3.org/2000/svg" xmlns:xlink="http://www.w3.org/1999/xlink" width="40" height="40" viewBox="0 0 40 40"><defs><path id="bys7a" d="M719 1351v-6h21v6z"/><path id="bys7b" d="M716.36 1349.66V1334h6.71v15.66z"/><path id="bys7c" d="M708.53 1329.52v-13.42h22.37v13.42z"/><path id="bys7d" d="M739.57 1351h-19.14c-.24 0-.43-.45-.43-1s.2-1 .43-1h19.14c.24 0 .43.45.43 1s-.2 1-.43 1z"/><path id="bys7f" d="M737.63 1349h-16.26c-.2 0-.37-.45-.37-1s.17-1 .37-1h16.26c.2 0 .37.45.37 1s-.17 1-.37 1z"/><path id="bys7h" d="M718.6 1333.99v-5.59h2.24v5.59z"/><path id="bys7i" d="M709.65 1328.41v-11.19h20.14v11.19z"/><path id="bys7k" d="M708.53 1331.76v-17.9h2.24v17.9z"/><path id="bys7l" d="M728.67 1331.76v-17.9h2.24v17.9z"/><clipPath id="bys7e"><use fill="#fff" xlink:href="#bys7a"/></clipPath><clipPath id="bys7g"><use fill="#fff" xlink:href="#bys7b"/></clipPath><clipPath id="bys7j"><use fill="#fff" xlink:href="#bys7c"/></clipPath></defs><g><g transform="translate(-664 -1272)"><g><use fill="#0c3847" xlink:href="#bys7d"/></g><g><use fill="#fff" fill-opacity="0" stroke="#0c3847" stroke-miterlimit="50" stroke-width="4" clip-path="url(&quot;#bys7e&quot;)" xlink:href="#bys7a"/></g><g><use fill="#ff525b" xlink:href="#bys7f"/></g><g transform="rotate(45 722.5 1328.5)"><g><use fill="#fff" fill-opacity="0" stroke="#0c3847" stroke-miterlimit="50" stroke-width="4" clip-path="url(&quot;#bys7g&quot;)" xlink:href="#bys7b"/></g><g><use fill="#0c3847" xlink:href="#bys7h"/></g><g><use fill="#ffbf66" xlink:href="#bys7i"/></g><g><use fill="#fff" fill-opacity="0" stroke="#0c3847" stroke-miterlimit="50" stroke-width="4" clip-path="url(&quot;#bys7j&quot;)" xlink:href="#bys7c"/></g><g><use fill="#0c3847" xlink:href="#bys7k"/></g><g><use fill="#0c3847" xlink:href="#bys7l"/></g></g></g></g></svg>