<svg xmlns="http://www.w3.org/2000/svg" xmlns:xlink="http://www.w3.org/1999/xlink" width="40" height="40" viewBox="0 0 40 40"><defs><path id="ue1ia" d="M201 1751v-20h19v20z"/><path id="ue1ib" d="M208 1747v-9h2v9z"/><path id="ue1ic" d="M216 1747v-13h2v13z"/><path id="ue1id" d="M212 1747v-11h2v11z"/><path id="ue1ie" d="M204 1747v-7h2v7z"/><path id="ue1if" d="M212 1768h-20l4-3.6v-5.4h12v5.4zm-6-2.7v-4.3h-8v4.3l-.79.7h9.58z"/><path id="ue1ig" d="M187 1736v-2h11v2z"/><path id="ue1ih" d="M187 1740v-2h11v2z"/><path id="ue1ii" d="M187 1744v-2h11v2z"/><path id="ue1ij" d="M187 1748v-2h7v2z"/><path id="ue1ik" d="M182 1729h40v24h-40zm2 2v20h36v-20z"/><path id="ue1il" d="M182 1751h40v10h-40zm2 2v6h36v-6z"/><path id="ue1im" d="M201 1757v-2h2v2z"/></defs><g><g transform="translate(-182 -1729)"><g><use fill="#e0e6ed" xlink:href="#ue1ia"/></g><g><use fill="#ff525b" xlink:href="#ue1ib"/></g><g><use fill="#ff525b" xlink:href="#ue1ic"/></g><g><use fill="#ff525b" xlink:href="#ue1id"/></g><g><use fill="#ff525b" xlink:href="#ue1ie"/></g><g><use fill="#0c3847" xlink:href="#ue1if"/></g><g><use fill="#0c3847" xlink:href="#ue1ig"/></g><g><use fill="#0c3847" xlink:href="#ue1ih"/></g><g><use fill="#0c3847" xlink:href="#ue1ii"/></g><g><use fill="#0c3847" xlink:href="#ue1ij"/></g><g><use fill="#0c3847" xlink:href="#ue1ik"/></g><g><use fill="#0c3847" xlink:href="#ue1il"/></g><g><use fill="#0c3847" xlink:href="#ue1im"/></g></g></g></svg>