<svg xmlns="http://www.w3.org/2000/svg" xmlns:xlink="http://www.w3.org/1999/xlink" width="40" height="40" viewBox="0 0 40 40"><defs><path id="dhlqa" d="M772 554.47c0-3.02 3.8-5.47 8.5-5.47s8.5 2.45 8.5 5.47c0 3.02-3.8 5.47-8.5 5.47s-8.5-2.45-8.5-5.47z"/><path id="dhlqb" d="M780.5 561a13.5 13.5 0 1 1 0-27 13.5 13.5 0 0 1 0 27zm0-2a11.5 11.5 0 1 0 0-23 11.5 11.5 0 0 0 0 23z"/><path id="dhlqc" d="M800.97 572.71l-10.84-10.84 3.61-3.61 10.84 10.84z"/><path id="dhlqd" d="M789 561.95l4.95-4.95 12.73 12.73-4.95 4.95zm12.73 9.9l2.12-2.12-9.9-9.9-2.12 2.12z"/><path id="dhlqe" d="M792 565.24l4.24-4.24 1.42 1.42-4.24 4.24zm2.12.71l-1.41-1.41v1.41zm1.42-4.24l1.41 1.41v-1.41z"/><path id="dhlqf" d="M791.53 560.94l-3.53-3.53 1.4-1.41 3.54 3.53z"/><path id="dhlqg" d="M780.5 551a5.5 5.5 0 1 1 0-11 5.5 5.5 0 0 1 0 11zm0-2a3.5 3.5 0 1 0 0-7 3.5 3.5 0 0 0 0 7z"/><path id="dhlqh" d="M774 557.35c0-3.5 2.9-6.35 6.5-6.35s6.5 2.85 6.5 6.35h2c0-4.61-3.8-8.35-8.5-8.35s-8.5 3.74-8.5 8.35z"/></defs><g><g transform="translate(-767 -534)"><g><use fill="#ffbf66" xlink:href="#dhlqa"/></g><g><use fill="#0c3847" xlink:href="#dhlqb"/></g><g><use fill="#38caaa" xlink:href="#dhlqc"/></g><g><use fill="#0c3847" xlink:href="#dhlqd"/></g><g><use fill="#0c3847" xlink:href="#dhlqe"/></g><g><use fill="#0c3847" xlink:href="#dhlqf"/></g><g><use fill="#0c3847" xlink:href="#dhlqg"/></g><g><use fill="#0c3847" xlink:href="#dhlqh"/></g></g></g></svg>