<svg xmlns="http://www.w3.org/2000/svg" xmlns:xlink="http://www.w3.org/1999/xlink" width="40" height="40" viewBox="0 0 40 40"><defs><path id="ulu3a" d="M805.2 1087h-35.4c-.44 0-.8-.45-.8-1s.36-1 .8-1h35.4c.44 0 .8.45.8 1s-.36 1-.8 1z"/><path id="ulu3b" d="M779 1065h-3v13h3z"/><path id="ulu3c" d="M789 1065h-3v13h3z"/><path id="ulu3d" d="M799 1065h-3v13h3z"/><path id="ulu3e" d="M774 1063h7v17h-7zm5 2h-3v13h3z"/><path id="ulu3f" d="M784 1063h7v17h-7zm5 2h-3v13h3z"/><path id="ulu3g" d="M794 1063h7v17h-7zm5 2h-3v13h3z"/><path id="ulu3h" d="M804 1083c0 .55-.36 1-.8 1h-30.4c-.44 0-.8-.45-.8-1s.36-1 .8-1h30.4c.44 0 .8.45.8 1z"/><path id="ulu3i" d="M803 1060l-16-11v11z"/><path id="ulu3j" d="M806 1061h-38l19.63-14zm-18.4-11.52l-13.35 9.52h25.83z"/></defs><g><g transform="translate(-768 -1047)"><g><g><use fill="#0c3847" xlink:href="#ulu3a"/></g><g><use fill="#38caaa" xlink:href="#ulu3b"/></g><g><use fill="#38caaa" xlink:href="#ulu3c"/></g><g><use fill="#38caaa" xlink:href="#ulu3d"/></g><g><use fill="#0c3847" xlink:href="#ulu3e"/></g><g><use fill="#0c3847" xlink:href="#ulu3f"/></g><g><use fill="#0c3847" xlink:href="#ulu3g"/></g><g><use fill="#0c3847" xlink:href="#ulu3h"/></g><g><use fill="#e0e6ed" xlink:href="#ulu3i"/></g><g><use fill="#0c3847" xlink:href="#ulu3j"/></g></g></g></g></svg>