<svg xmlns="http://www.w3.org/2000/svg" xmlns:xlink="http://www.w3.org/1999/xlink" width="32" height="32" viewBox="0 0 32 32"><defs><path id="b0pla" d="M967 3330a16 16 0 1 1 32 0 16 16 0 0 1-32 0zm15.28-2.54l.04.56-.55-.07a8.66 8.66 0 0 1-5.16-2.66l-.71-.75-.18.55a3.43 3.43 0 0 0 .67 3.4c.43.48.33.55-.41.26-.26-.09-.5-.16-.51-.12-.08.08.18 1.12.39 1.54.28.57.85 1.13 1.48 1.47l.53.26-.63.01c-.6 0-.63.01-.56.25.22.75 1.07 1.54 2.03 1.88l.67.25-.59.36c-.86.53-1.88.83-2.9.85-.49.01-.89.06-.89.1a8.78 8.78 0 0 0 9.2.16 9.87 9.87 0 0 0 3.61-4.46c.37-.93.74-2.63.74-3.44 0-.53.03-.6.64-1.23.36-.37.7-.77.76-.88.1-.22.1-.22-.46-.02-.92.34-1.05.3-.6-.22.34-.37.74-1.04.74-1.23 0-.03-.16.02-.35.13-.19.11-.62.28-.95.39l-.58.2-.54-.39c-.29-.2-.7-.43-.92-.5a3.54 3.54 0 0 0-1.9.04 3.29 3.29 0 0 0-2.1 3.3z"/></defs><g><g transform="translate(-967 -3314)"><use fill="#0074e4" xlink:href="#b0pla"/></g></g></svg>