<svg width="160" height="43" viewBox="0 0 160 43" fill="none" xmlns="http://www.w3.org/2000/svg">
<g clip-path="url(#clip0)">
<path d="M74.1 16H75.8L78.2 13.1H75.9L74.1 16Z" fill="#25272D"/>
<path d="M63.6 19.7H58.3V14.4H56V27.5H58.3V21.7H63.6V27.5H65.9V14.4H63.6V19.7Z" fill="#25272D"/>
<path d="M85.8 17L85.9 18.6C85.2 17.9 84.3 17.5 83.3 17.5C81.1 17.4 79.1 19.4 79.1 22.6C79.1 25.8 80.7 27.7 83.1 27.7C84.2 27.6 85.2 27.2 85.9 26.4H86L86.2 27.5H88.1V13.4H85.8V17ZM85.8 24.8C85.3 25.5 84.5 25.9 83.7 25.9C82.3 25.8 81.5 24.7 81.5 22.6C81.5 20.5 82.5 19.4 83.8 19.4C84.5 19.4 85.3 19.7 85.8 20.2V24.8Z" fill="#25272D"/>
<path d="M76.7 17.7H74.4V27.5H76.7V17.7Z" fill="#25272D"/>
<path d="M71.7 25.9C71.5 25.9 71.2 25.7 71.2 25.1V13.4H68.9V25C68.9 26.7 69.6 27.8 71.2 27.8C71.6 27.8 72 27.7 72.4 27.6L72.1 25.9H71.7V25.9Z" fill="#25272D"/>
<path d="M95 17.6C93.6 17.6 92.2 18.1 91 18.9L91.8 20.4C92.6 19.8 93.6 19.5 94.6 19.4C95.5 19.3 96.3 20 96.4 21C96.4 21.1 96.4 21.2 96.4 21.3C92.4 21.7 90.6 22.8 90.6 24.9C90.5 26.4 91.7 27.7 93.3 27.8C93.4 27.8 93.5 27.8 93.5 27.8C94.6 27.7 95.7 27.3 96.5 26.5H96.6L96.8 27.6H98.7V21.8C98.7 19.1 97.5 17.6 95 17.6ZM96.3 24.9C95.8 25.5 95 25.9 94.2 26C93.5 26.1 92.9 25.5 92.8 24.8V24.7C92.8 23.7 93.7 23 96.3 22.7V24.9Z" fill="#25272D"/>
<path d="M106.7 16L108.6 13.1H107L105.8 14.8H105.7L104.5 13.1H102.9L104.8 16H106.7Z" fill="#25272D"/>
<path d="M105.8 25.7C104.3 25.7 103.2 24.4 103.2 22.4C103.2 20.4 104.3 19.1 105.9 19.1C106.5 19.2 107.1 19.4 107.6 19.8L108.7 18.3C107.9 17.6 106.9 17.2 105.8 17.2C102.9 17.3 100.7 19.8 100.9 22.6C100.9 25.9 103 27.7 105.6 27.7C106.8 27.7 107.9 27.2 108.8 26.4L107.8 24.9C107.2 25.4 106.5 25.7 105.8 25.7Z" fill="#25272D"/>
<path d="M22.5 14C15.8 14 10.1 18.7 10.1 25.3V42.5H34.5V25.3C34.5 18.7 29.1 14 22.5 14ZM20.2 30.4C18.1 30.4 12.8 27.8 14.3 27.4C16.2 26.9 18.3 26.9 20.2 27.4C22 27.9 22.3 30.4 20.2 30.4ZM24.5 30.4C22.4 30.4 22.7 27.9 24.5 27.4C26.4 26.9 28.5 26.9 30.4 27.4C31.9 27.8 26.6 30.4 24.5 30.4Z" fill="#25272D"/>
<path d="M22.8 0.3C22.4 -0.1 21.7 -0.1 21.3 0.3L0.400007 18.8C7.06315e-06 19.2 -0.099993 19.8 0.200007 20.3L1.10001 21.6C1.40001 22 1.90001 22.1 2.30001 21.9C2.30001 21.9 2.40001 21.9 2.40001 21.8L22.1 4.5L42 21.8C42.3 22.1 42.8 22.1 43.1 21.8C43.2 21.7 43.2 21.7 43.3 21.6L44.2 20.3C44.5 19.8 44.4 19.2 44 18.8L22.8 0.3Z" fill="#25272D"/>
<path d="M139.2 13H136.4L134.6 16H136.7L139.2 13Z" fill="#25272D"/>
<path d="M147.2 25.4C146.4 25.4 145.9 24.9 145.9 23.8V19.8H148.3V17.5H145.9V14.9H143.5L143.2 17.5L141.7 17.6V19.8H143.1V23.9C143.1 26.2 144 27.7 146.4 27.7C147.2 27.7 147.9 27.6 148.6 27.3L148.1 25.2C147.8 25.3 147.5 25.4 147.2 25.4Z" fill="#25272D"/>
<path d="M156.2 17.6V24.2C155.9 24.9 155.2 25.3 154.4 25.3C153.6 25.3 153.2 24.8 153.2 23.4V17.6H150.3V23.7C150.3 26.2 151.1 27.7 153.3 27.7C154.5 27.7 155.7 27.1 156.4 26.1H156.5L156.7 27.5H159.1V17.6H156.2Z" fill="#25272D"/>
<path d="M119.9 21.6C118.9 21.2 118 21 118 20.3C118 19.8 118.5 19.4 119 19.5H119.1C119.9 19.5 120.6 19.8 121.2 20.3L122.5 18.5C121.5 17.7 120.3 17.3 119 17.2C116.7 17.2 115.2 18.5 115.2 20.3C115.2 21.9 116.6 22.8 117.8 23.2C118.8 23.6 119.8 23.9 119.8 24.6C119.8 25.1 119.4 25.4 118.5 25.4C117.6 25.3 116.7 25 115.9 24.4L114.7 26.4C115.8 27.3 117.1 27.7 118.5 27.8C121.2 27.8 122.6 26.4 122.6 24.6C122.6 22.8 121.2 22.1 119.9 21.6Z" fill="#25272D"/>
<path d="M136.2 17.2C134.7 17.2 133.2 17.7 132 18.5L133 20.4C133.8 19.9 134.7 19.6 135.6 19.5C136.4 19.4 137.1 20 137.2 20.7C137.2 20.7 137.2 20.8 137.2 20.9C133.2 21.5 131.6 22.7 131.6 24.7C131.5 26.2 132.7 27.6 134.2 27.7C134.3 27.7 134.4 27.7 134.5 27.7C135.6 27.7 136.6 27.2 137.4 26.4H137.5L137.7 27.4H140.1V21.7C140.1 18.7 138.7 17.2 136.2 17.2ZM137.2 24.6C136.8 25.1 136.2 25.4 135.6 25.4C134.8 25.5 134.4 25.2 134.4 24.5C134.4 23.7 135.1 23.1 137.2 22.9V24.6V24.6Z" fill="#25272D"/>
<path d="M129.1 25.4C128.3 25.4 127.8 24.9 127.8 23.8V19.8H130.2V17.5H127.8V14.9H125.4L125.1 17.5L123.6 17.6V19.8H125V23.9C125 26.2 125.9 27.7 128.3 27.7C129.1 27.7 129.8 27.6 130.5 27.3L130 25.2C129.7 25.3 129.4 25.4 129.1 25.4Z" fill="#25272D"/>
</g>
<defs>
<clipPath id="clip0">
<rect width="159.5" height="42.5" fill="white"/>
</clipPath>
</defs>
</svg>
