<?xml version="1.0" encoding="UTF-8" standalone="no"?><!DOCTYPE svg PUBLIC "-//W3C//DTD SVG 1.1//EN" "http://www.w3.org/Graphics/SVG/1.1/DTD/svg11.dtd"><svg width="100%" height="100%" viewBox="0 0 46 44" version="1.1" xmlns="http://www.w3.org/2000/svg" xmlns:xlink="http://www.w3.org/1999/xlink" xml:space="preserve" xmlns:serif="http://www.serif.com/" style="fill-rule:evenodd;clip-rule:evenodd;stroke-linejoin:round;stroke-miterlimit:1.41421;"><rect id="Artboard1" x="0" y="0" width="45.21" height="43.683" style="fill:none;"/><g><path d="M23.049,14.688c-6.7,0 -12.4,4.7 -12.4,11.3l0,17.2l24.4,0l0,-17.2c0,-6.6 -5.4,-11.3 -12,-11.3Zm-2.3,16.4c-2.1,0 -7.4,-2.6 -5.9,-3c1.9,-0.5 4,-0.5 5.9,0c1.8,0.5 2.1,3 0,3Zm4.3,0c-2.1,0 -1.8,-2.5 0,-3c1.9,-0.5 4,-0.5 5.9,0c1.5,0.4 -3.8,3 -5.9,3Z" style="fill:#25272d;fill-rule:nonzero;"/><path d="M23.349,0.988c-0.4,-0.4 -1.1,-0.4 -1.5,0l-20.9,18.5c-0.4,0.4 -0.5,1 -0.2,1.5l0.9,1.3c0.3,0.4 0.8,0.5 1.2,0.3c0,0 0.1,0 0.1,-0.1l19.7,-17.3l19.9,17.3c0.3,0.3 0.8,0.3 1.1,0c0.1,-0.1 0.1,-0.1 0.2,-0.2l0.9,-1.3c0.3,-0.5 0.2,-1.1 -0.2,-1.5l-21.2,-18.5Z" style="fill:#25272d;fill-rule:nonzero;"/></g></svg>