<svg xmlns="http://www.w3.org/2000/svg" xmlns:xlink="http://www.w3.org/1999/xlink" width="40" height="40" viewBox="0 0 40 40"><defs><path id="bj81a" d="M240 2993.47c0-3.02 3.8-5.47 8.5-5.47s8.5 2.45 8.5 5.47c0 3.02-3.8 5.47-8.5 5.47s-8.5-2.45-8.5-5.47z"/><path id="bj81b" d="M248.5 3000a13.5 13.5 0 1 1 0-27 13.5 13.5 0 0 1 0 27zm0-2a11.5 11.5 0 1 0 0-23 11.5 11.5 0 0 0 0 23z"/><path id="bj81c" d="M268.97 3011.71l-10.84-10.84 3.61-3.61 10.84 10.84z"/><path id="bj81d" d="M257 3000.95l4.95-4.95 12.73 12.73-4.95 4.95zm12.73 9.9l2.12-2.12-9.9-9.9-2.12 2.12z"/><path id="bj81e" d="M260 3004.24l4.24-4.24 1.42 1.42-4.24 4.24zm2.12.71l-1.41-1.41v1.41zm1.42-4.24l1.41 1.41v-1.41z"/><path id="bj81f" d="M259.53 2999.94l-3.53-3.53 1.4-1.41 3.54 3.53z"/><path id="bj81g" d="M248.5 2990a5.5 5.5 0 1 1 0-11 5.5 5.5 0 0 1 0 11zm0-2a3.5 3.5 0 1 0 0-7 3.5 3.5 0 0 0 0 7z"/><path id="bj81h" d="M242 2996.35c0-3.5 2.9-6.35 6.5-6.35s6.5 2.85 6.5 6.35h2c0-4.61-3.8-8.35-8.5-8.35s-8.5 3.74-8.5 8.35z"/></defs><g><g transform="translate(-235 -2973)"><g><use fill="#ffbf66" xlink:href="#bj81a"/></g><g><use fill="#0c3847" xlink:href="#bj81b"/></g><g><use fill="#38caaa" xlink:href="#bj81c"/></g><g><use fill="#0c3847" xlink:href="#bj81d"/></g><g><use fill="#0c3847" xlink:href="#bj81e"/></g><g><use fill="#0c3847" xlink:href="#bj81f"/></g><g><use fill="#0c3847" xlink:href="#bj81g"/></g><g><use fill="#0c3847" xlink:href="#bj81h"/></g></g></g></svg>