<?xml version="1.0" standalone="no"?>
<!-- Generator: Adobe Fireworks 10, Export SVG Extension by Aaron Beall (http://fireworks.abeall.com) . Version: 0.6.1  -->
<!DOCTYPE svg PUBLIC "-//W3C//DTD SVG 1.1//EN" "http://www.w3.org/Graphics/SVG/1.1/DTD/svg11.dtd">
<svg id="Untitled-Page%201" viewBox="0 0 425 131" style="background-color:#ffffff00" version="1.1"
	xmlns="http://www.w3.org/2000/svg" xmlns:xlink="http://www.w3.org/1999/xlink" xml:space="preserve"
	x="0px" y="0px" width="425px" height="131px"
>
	<defs>
		<linearGradient id="gradient1" x1="50.0009%" y1="0%" x2="50.0009%" y2="100.0009%">
			<stop stop-color="#595959" stop-opacity="1" offset="1%"/>
			<stop stop-color="#404040" stop-opacity="1" offset="99%"/>
		</linearGradient>
		<linearGradient id="gradient2" x1="50%" y1="0%" x2="50%" y2="100.0009%">
			<stop stop-color="#595959" stop-opacity="1" offset="1%"/>
			<stop stop-color="#404040" stop-opacity="1" offset="99%"/>
		</linearGradient>
		<linearGradient id="gradient3" x1="50.0001%" y1="0%" x2="50.0001%" y2="100.0009%">
			<stop stop-color="#595959" stop-opacity="1" offset="1%"/>
			<stop stop-color="#404040" stop-opacity="1" offset="99%"/>
		</linearGradient>
		<linearGradient id="gradient4" x1="50%" y1="0%" x2="50%" y2="100.0007%">
			<stop stop-color="#595959" stop-opacity="1" offset="1%"/>
			<stop stop-color="#404040" stop-opacity="1" offset="99%"/>
		</linearGradient>
	</defs>
	<g id="text">
		<g>
			<path d="M 278.2314 42.4218 C 273.4294 39.4429 268.1737 37.953 262.4653 37.953 C 259.6086 38.0835 256.8506 38.5056 254.1929 39.216 C 251.5305 39.9288 249.229 41.1286 247.2836 42.8099 C 244.9469 40.8671 242.3488 39.5739 239.4971 38.9244 C 236.6414 38.2773 233.7204 37.953 230.7369 37.953 C 225.1563 38.214 220.0616 39.8319 215.4576 42.8099 C 210.8497 45.7912 208.5477 51.6828 208.5477 60.49 L 208.5477 90.799 L 222.1729 90.799 L 222.1729 57.7701 C 222.1729 54.6612 223.0802 52.3971 224.8978 50.97 C 226.7134 49.5457 228.7915 48.8329 231.1272 48.8329 C 233.4628 48.8329 235.5702 49.5457 237.4531 50.97 C 239.3332 52.3971 240.2756 54.6612 240.2756 57.7701 L 240.2756 60.49 L 240.2756 90.799 L 253.7051 90.799 L 253.7051 60.49 L 253.7051 57.7701 C 253.7051 54.6612 254.6456 52.3971 256.5286 50.97 C 258.4077 49.5457 260.5179 48.8329 262.8546 48.8329 C 265.1902 48.8329 267.2976 49.5457 269.1796 50.97 C 271.0596 52.3971 272.003 54.6612 272.003 57.7701 L 272.003 84.1936 C 272.003 86.1354 272.6177 87.7237 273.8518 88.9526 C 275.0841 90.1845 276.6743 90.799 278.6198 90.799 L 285.4326 90.799 L 285.4326 60.49 C 285.4326 51.4252 283.0305 45.4027 278.2314 42.4218 Z" fill="url(#gradient1)"/>
			<path d="M 313.8506 37.953 C 306.4534 37.953 300.6787 40.351 296.5274 45.1412 C 292.502 49.8043 290.4922 56.2826 290.4922 64.5703 C 290.4922 73.2489 292.5663 79.9195 296.7215 84.5812 C 300.8728 89.3743 306.6476 91.7699 314.0448 91.7699 C 320.1425 91.7699 325.203 90.2829 329.2285 87.301 C 333.248 84.4536 335.973 80.3071 337.4023 74.8674 L 327.6704 74.8674 C 326.1133 74.8674 324.9113 75.1917 324.0703 75.8392 C 323.2235 76.4878 322.7376 77.0039 322.6098 77.3934 C 322.2205 77.781 321.8615 78.1394 321.5396 78.4617 C 321.2137 78.786 320.8576 79.0139 320.4683 79.1414 C 318.9112 80.049 317.0282 80.5009 314.8243 80.5009 C 311.4467 80.5009 308.9169 79.4657 307.232 77.3934 C 305.4134 75.4497 304.4397 72.4718 304.3129 68.4558 L 337.9867 68.4558 C 338.1145 68.1977 338.1808 67.7459 338.1808 67.0963 C 338.1808 66.9678 338.1808 66.7068 338.1808 66.3192 C 338.1808 65.9297 338.1808 65.4778 338.1808 64.9588 C 338.1808 56.4097 336.1028 49.74 331.9524 44.9474 C 327.6704 40.2843 321.6361 37.953 313.8506 37.953 ZM 304.3129 59.7129 C 304.4397 56.3459 305.4134 53.757 307.232 51.9413 C 309.0476 50.1286 311.3833 49.2215 314.2389 49.2215 C 317.3541 49.2215 319.7532 50.1286 321.441 51.9413 C 322.9991 53.626 323.9055 56.2154 324.1669 59.7129 L 304.3129 59.7129 Z" fill="url(#gradient2)"/>
			<path d="M 370.9453 39.1186 C 367.4409 39.1186 364.035 39.5739 360.7266 40.4786 C 357.4173 41.3857 354.5275 42.8099 352.064 44.7531 C 349.4669 46.8259 347.4229 49.5798 345.9322 53.0101 C 344.4385 56.4433 343.6951 60.6838 343.6951 65.7359 L 343.6951 90.799 L 357.3197 90.799 L 357.3197 64.1807 C 357.3197 60.2962 358.2251 57.4483 360.0446 55.6331 C 361.8603 53.8198 364.6496 52.9127 368.4146 52.9127 L 372.8917 52.9127 L 372.8917 39.1186 C 372.6293 39.1186 372.3073 39.1186 371.918 39.1186 C 371.5278 39.1186 371.2029 39.1186 370.9453 39.1186 Z" fill="url(#gradient3)"/>
			<path d="M 405.6543 58.9358 L 424.1463 39.1186 L 407.7957 39.1186 L 391.2511 58.1587 L 391.2511 39.1186 L 391.2511 30.3757 C 391.2511 28.6939 390.5993 27.203 389.3037 25.9069 C 388.0052 24.6137 386.4481 23.9641 384.6334 23.9641 L 377.6255 23.9641 L 377.6255 90.799 L 391.2511 90.799 L 391.2511 78.3643 L 391.2511 71.1756 C 391.2511 70.1395 391.9633 69.3624 393.3916 68.8453 C 394.818 68.3292 396.5068 69.8162 398.4532 73.3132 L 407.9909 90.799 L 424.3405 90.799 L 405.6543 58.9358 Z" fill="url(#gradient4)"/>
		</g>
	</g>
	<g id="logo">
		<path d="M 193.6865 64.206 C 191.3591 31.7498 164.0245 6.3244 131.4556 6.3244 C 130.7492 6.3244 130.0365 6.3405 129.3238 6.3644 C 131.2829 8.8427 132.9585 11.5285 134.3161 14.3769 C 161.4059 15.8113 183.7648 37.5065 185.7229 64.7767 C 187.8644 94.6767 165.2362 120.7448 135.2796 122.8871 C 133.9688 122.9797 132.6419 123.0274 131.3292 123.0274 C 104.8527 123.0293 82.4147 104.2386 77.7765 78.2699 C 78.9678 74.9053 79.5697 71.3733 79.5697 67.7566 C 79.5697 50.2849 65.3266 36.0677 47.8223 36.0677 C 30.4328 36.0677 16.1915 50.186 16.0744 67.5414 L 16.0613 69.6097 L 26.9785 69.6097 L 26.9985 67.5715 C 27.0961 56.213 36.4387 46.971 47.8223 46.971 C 59.3035 46.971 68.6442 56.2962 68.6442 67.7566 C 68.6442 79.2213 59.3035 88.5465 47.8223 88.5465 C 47.7043 88.5465 47.5897 88.5446 47.476 88.5417 L 45.3491 88.4745 L 45.3491 99.4133 L 47.3779 99.4455 L 47.8223 99.4494 C 57.284 99.4494 66.0749 95.3136 72.0721 88.2067 C 80.4268 113.6077 104.2175 131 131.3292 131 C 132.8278 131 134.3478 130.9474 135.8503 130.8374 C 152.4891 129.6522 167.6704 122.0652 178.5945 109.4806 C 189.5186 96.896 194.8792 80.8174 193.6865 64.206 Z" fill="#13cdf0"/>
		<path d="M 137.001 21.6888 C 137.942 25.2252 138.4416 28.9189 138.4416 32.7022 C 138.4416 32.7621 138.4372 32.8219 138.4372 32.8818 C 155.2414 36.1612 167.9255 50.9261 167.9255 68.6593 C 167.9255 88.7978 151.5691 105.1238 131.3912 105.1238 C 111.2133 105.1238 94.8573 88.7978 94.8573 68.6593 C 94.8573 68.4402 94.8617 68.2221 94.8642 68.0029 L 94.8739 68.0029 C 94.8739 41.8774 73.655 20.6965 47.4799 20.6965 C 36.6134 20.6965 26.6049 24.3488 18.612 30.4867 L 18.5594 30.4176 C -2.2137 46.3146 -6.1421 76.0116 9.788 96.7441 C 25.239 116.8573 53.6927 121.1372 74.3462 106.8621 C 72.3257 103.8335 70.6471 100.5585 69.3627 97.0927 C 53.3649 109.1135 30.6157 106.0431 18.4052 90.1475 C 13.2554 83.4408 10.7987 75.5189 10.867 67.6757 L 10.9485 67.6757 C 11.1261 47.6867 27.4122 31.5385 47.4799 31.5385 C 67.6578 31.5385 84.0142 47.8635 84.0142 68.0029 L 84.0045 68.0029 C 84.0025 68.2221 83.9952 68.4382 83.9952 68.6593 C 83.9952 94.7858 105.2166 115.9662 131.3912 115.9662 C 157.5673 115.9662 178.7852 94.7858 178.7852 68.6593 C 178.7852 44.4269 160.5303 24.4603 137.001 21.6888 Z" fill="#0ca8de"/>
		<path d="M 72.616 23.0916 C 76.4453 13.9562 85.4664 7.5266 96.0096 7.5266 C 110.0206 7.5266 121.3778 18.8657 121.3778 32.8526 C 121.3778 46.1101 111.1674 56.9813 98.1686 58.0759 C 98.5262 59.597 98.733 61.1677 98.7813 62.7706 C 98.8745 63.6919 98.9511 64.6189 98.995 65.5538 C 115.7699 64.0463 128.9219 49.9883 128.9219 32.8526 C 128.9219 14.708 114.1845 0 96.0096 0 C 82.4439 0 70.8047 8.1947 65.7666 19.8911 C 68.1388 20.7924 70.4252 21.866 72.616 23.0916 Z" fill="#0ca8de"/>
		<path d="M 82.3508 30.1318 L 82.6552 30.18 C 83.941 22.5141 91.1826 17.2998 98.8882 18.5161 C 106.6371 19.7417 111.9274 27.0058 110.6986 34.7413 C 109.4723 42.4759 102.1946 47.7559 94.4461 46.5289 C 94.4047 46.523 94.3651 46.5152 94.3242 46.5084 C 94.9871 47.9409 95.5857 49.4075 96.1169 50.9071 C 105.2595 51.1915 113.4016 44.6538 114.8709 35.4011 C 116.4621 25.3645 109.602 15.9438 99.5501 14.354 C 90.2992 12.8904 81.5742 18.5711 78.9975 27.3033 C 80.1561 28.1992 81.2737 29.1438 82.3508 30.1318 Z" fill="#13cdf0"/>
		<path d="M 137.405 41.5907 C 135.8513 48.9469 132.3566 55.7913 127.1731 61.419 C 121.0061 68.113 112.9279 72.5906 104.0907 74.2977 C 106.7259 86.8599 117.9075 96.3234 131.2629 96.3234 C 146.5724 96.3234 159.0268 83.8917 159.0268 68.6106 C 159.0268 55.4368 149.7676 44.3894 137.405 41.5907 Z" fill="#13cdf0"/>
	</g>
</svg>