<?xml version="1.0" encoding="iso-8859-1"?>
<!-- Generator: Adobe Illustrator 19.0.0, SVG Export Plug-In . SVG Version: 6.00 Build 0)  -->
<svg version="1.1" id="Layer_1" xmlns="http://www.w3.org/2000/svg" xmlns:xlink="http://www.w3.org/1999/xlink" x="0px" y="0px"
	 viewBox="0 0 512 512" style="enable-background:new 0 0 512 512;" xml:space="preserve">
<g>
	<g>
		<circle cx="214.349" cy="41.647" r="41.647"/>
	</g>
</g>
<g>
	<g>
		<path d="M396.473,155.195c-5.856-9.426-18.244-12.32-27.674-6.466l-52.666,32.719l-0.189-37.563
			c-0.131-26.09-21.464-47.315-47.554-47.315h-19.77c-3.764,9.761-22.024,57.117-25.786,66.876l6.03-28.405
			c0.417-1.966,0.115-4.017-0.854-5.778l-8.17-14.859l7.249-13.184c1.081-1.964-0.343-4.378-2.589-4.378h-19.916
			c-2.243,0-3.671,2.41-2.589,4.378l7.264,13.211l-8.185,14.886c-0.951,1.727-1.26,3.735-0.876,5.67l5.224,28.457
			c-2.816-7.302-22.28-59.933-24.957-66.876H160.3c-26.091,0-47.423,21.226-47.554,47.315l-0.248,49.271l40.19,0.142l0.247-49.213
			c0.011-2.198,1.799-3.972,3.996-3.967c2.198,0.006,3.977,1.789,3.977,3.987v49.193c10.315,0,96.125,0,106.439,0v-49.245
			c0-2.322,1.882-4.205,4.205-4.205c2.323,0,4.205,1.883,4.205,4.205c0,0.011,0,0.022,0,0.033l0.247,49.212h22.201
			c15.431,0,27.986,12.554,27.986,27.986v1.23l63.82-39.647C399.436,177.012,402.33,164.621,396.473,155.195z"/>
	</g>
</g>
<g>
	<g>
		<path d="M298.203,215.56H128.597c-3.157,0-5.726,2.569-5.726,5.725v90.208c0,3.157,2.569,5.726,5.726,5.726h21.595V276.9
			c0-16.433,13.37-29.803,29.803-29.803h69.094c16.433,0,29.803,13.37,29.803,29.803v40.318h19.31c3.157,0,5.726-2.569,5.726-5.726
			v-90.208C303.928,218.129,301.359,215.56,298.203,215.56z"/>
	</g>
</g>
<g>
	<g>
		<path d="M282.528,481.888h-25.896V276.898c0-4.165-3.377-7.542-7.542-7.542h-69.094c-4.165,0-7.542,3.377-7.542,7.542v204.989
			h-25.896c-4.165,0-7.542,3.377-7.542,7.542v15.028c0,4.165,3.377,7.542,7.542,7.542h135.97c4.165,0,7.542-3.377,7.542-7.542
			V489.43C290.07,485.265,286.694,481.888,282.528,481.888z"/>
	</g>
</g>
<g>
</g>
<g>
</g>
<g>
</g>
<g>
</g>
<g>
</g>
<g>
</g>
<g>
</g>
<g>
</g>
<g>
</g>
<g>
</g>
<g>
</g>
<g>
</g>
<g>
</g>
<g>
</g>
<g>
</g>
</svg>
