<?xml version="1.0" encoding="iso-8859-1"?>
<!-- Generator: Adobe Illustrator 21.0.0, SVG Export Plug-In . SVG Version: 6.00 Build 0)  -->
<svg xmlns="http://www.w3.org/2000/svg" xmlns:xlink="http://www.w3.org/1999/xlink" version="1.1" id="Capa_1" x="0px" y="0px" viewBox="0 0 511.997 511.997" style="enable-background:new 0 0 511.997 511.997;" xml:space="preserve" width="512" height="512">
<g>
	<path style="fill-rule:evenodd;clip-rule:evenodd;" d="M140.544,499.634c1.297,7.237,7.603,12.315,14.707,12.307l201.443,0.056   c7.818,0,14.239-5.982,14.936-13.619c8.333-45.59,17.959-90.916,26.919-136.378H113.419   C122.43,407.885,132.152,453.624,140.544,499.634z"/>
	<path style="fill-rule:evenodd;clip-rule:evenodd;" d="M99.999,157.142l29.32-19.623c6.86-4.595,8.697-13.882,4.102-20.742   c-4.595-6.86-13.882-8.696-20.742-4.101L77.71,136.079c-4.599,2.563-7.711,7.473-7.711,13.112v44.808h30V157.142z"/>
	<path style="fill-rule:evenodd;clip-rule:evenodd;" d="M382.679,137.519l29.32,19.623v36.857h30v-44.808   c0-5.638-3.112-10.549-7.711-13.112l-34.969-23.404c-6.86-4.595-16.147-2.759-20.742,4.101   C373.982,123.637,375.818,132.924,382.679,137.519z"/>
	<circle style="fill-rule:evenodd;clip-rule:evenodd;" cx="255.999" cy="54.451" r="54.451"/>
	<path style="fill-rule:evenodd;clip-rule:evenodd;" d="M450.999,224h-390c-8.284,0-15,6.716-15,15v78c0,8.284,6.716,15,15,15h390   c8.284,0,15-6.716,15-15v-78C465.999,230.716,459.283,224,450.999,224z M270.944,279.08c-0.556,7.778-7.026,13.92-14.946,13.92   c-7.992,0-14.506-6.256-14.956-14.136c-0.017-0.288-0.044-0.573-0.044-0.864c0-0.294,0.027-0.581,0.044-0.87   c0.441-7.659,6.615-13.765,14.303-14.097c0.218-0.009,0.433-0.033,0.653-0.033c0.219,0,0.432,0.024,0.648,0.033   c7.618,0.326,13.753,6.32,14.297,13.879c0.026,0.361,0.055,0.721,0.055,1.088C270.999,278.365,270.97,278.722,270.944,279.08z"/>
	<path style="fill-rule:evenodd;clip-rule:evenodd;" d="M370.999,161.021c0-6.562-4.214-12.139-10.083-14.175   c-16.931-6.878-34.021-12.739-51.393-16.964c-12.782-3.109-25.617-5.279-38.524-6.25v26.913c0,8.284-6.716,15-15,15   c-8.284,0-15-6.716-15-15v-26.924c-31.247,2.331-61.223,11.58-90.625,23.572c-5.793,2.357-9.304,7.937-9.306,13.828l-0.069,32.978   h230V161.021z"/>
</g>















</svg>
