<?xml version="1.0" encoding="UTF-8"?>
<svg width="195px" height="49px" viewBox="0 0 195 49" version="1.1" xmlns="http://www.w3.org/2000/svg" xmlns:xlink="http://www.w3.org/1999/xlink">
    <!-- Generator: Sketch 53.2 (72643) - https://sketchapp.com -->
    <title>logo-rest</title>
    <desc>Created with Sketch.</desc>
    <defs>
        <polygon id="path-1" points="0 0.255454472 7.67495689 0.255454472 7.67495689 13.9111929 0 13.9111929"></polygon>
        <polygon id="path-3" points="0.782114849 0.851956736 48.6515407 0.851956736 48.6515407 49.6063864 0.782114849 49.6063864"></polygon>
    </defs>
    <g id="Pages" stroke="none" stroke-width="1" fill="none" fill-rule="evenodd">
        <g id="assets-rest-2019" transform="translate(-36.000000, -81.000000)">
            <g id="logo-rest" transform="translate(36.000000, 80.000000)">
                <g>
                    <g id="Group-3" transform="translate(0.000000, 13.734727)">
                        <mask id="mask-2" fill="white">
                            <use xlink:href="#path-1"></use>
                        </mask>
                        <g id="Clip-2"></g>
                        <path d="M6.209966,0.255454472 C5.00178627,0.255454472 3.65158219,0.973358371 3.10488572,2.09593439 L3.10488572,1.95001896 C3.10488572,1.09203625 2.41421937,0.39942436 1.55234559,0.39942436 C0.690471799,0.39942436 -0.000194553902,1.09203625 -0.000194553902,1.95001896 L-0.000194553902,12.3586527 C-0.000194553902,13.2205265 0.690471799,13.9111929 1.55234559,13.9111929 C2.41421937,13.9111929 3.10488572,13.2205265 3.10488572,12.3586527 L3.10488572,6.37806577 C3.10488572,4.45198214 4.22746174,3.18738178 6.209966,3.18738178 C7.01347362,3.18738178 7.67495689,2.52589851 7.67495689,1.72044536 C7.67495689,0.91693774 7.01347362,0.255454472 6.209966,0.255454472" id="Fill-1" fill="#1D1D1B" mask="url(#mask-2)"></path>
                    </g>
                    <path d="M14.5164449,13.9635279 C10.607857,13.9635279 8.30822984,16.436308 8.30822984,20.8312806 C8.30822984,25.6328709 10.7790644,27.7885282 14.7752015,27.7885282 C17.3919515,27.7885282 18.9153086,26.6659521 19.4036389,26.2087505 C19.6623956,25.9791769 19.8919692,25.6036878 19.8919692,25.1425951 C19.8919692,24.3974536 19.2888521,23.7943365 18.5417651,23.7943365 C18.1682216,23.7943365 17.938648,23.9071778 17.6215251,24.1095139 C16.9328043,24.5686611 16.0417474,25.0005707 14.7752015,25.0005707 C12.878301,25.0005707 11.4133101,24.0530932 11.4133101,21.9810942 L18.512582,21.9810942 C20.2655127,21.9810942 20.2655127,20.7437314 20.2655127,19.681467 C20.2655127,17.6989628 19.3744558,13.9635279 14.5164449,13.9635279 M11.4989138,19.3954728 C11.6428837,17.5569384 12.8491179,16.6055699 14.5164449,16.6055699 C16.3861079,16.6055699 17.1896155,17.984957 17.1896155,19.3954728 L11.4989138,19.3954728" id="Fill-4" fill="#1D1D1B"></path>
                    <path d="M23.9752665,6.94888692 C23.0822641,6.94888692 22.4227263,7.57924156 22.4227263,8.44306089 L22.4227263,26.1494115 C22.4227263,27.0132309 23.0822641,27.645531 23.9752665,27.645531 C24.8371403,27.645531 25.5258611,27.0132309 25.5258611,26.1494115 L25.5258611,22.01125 L26.4480466,21.2933461 L30.730178,27.0404684 C30.9889346,27.3867743 31.3916612,27.645531 31.9364121,27.645531 C32.7710484,27.645531 33.4325317,26.9840478 33.4325317,26.1494115 C33.4325317,25.8634173 33.3449824,25.54824 33.1154088,25.2291716 L28.889698,19.6843854 L32.654316,16.8049876 C33.0298051,16.5209389 33.2301956,16.0617917 33.2301956,15.629882 C33.2301956,14.7952458 32.5687123,14.1337625 31.7360216,14.1337625 C31.3916612,14.1337625 31.1017759,14.2193662 30.730178,14.507306 L25.5258611,18.5890469 L25.5258611,8.44306089 C25.5258611,7.57924156 24.8371403,6.94888692 23.9752665,6.94888692" id="Fill-6" fill="#1D1D1B"></path>
                    <path d="M40.8487318,13.9615823 C36.9673815,13.9615823 34.5529676,16.1775513 34.5529676,20.8915923 C34.5529676,25.5764503 36.9673815,27.7885282 40.8487318,27.7885282 C44.7300822,27.7885282 47.1444961,25.5764503 47.1444961,20.8915923 C47.1444961,16.1775513 44.7300822,13.9615823 40.8487318,13.9615823 M40.8487318,25.1425951 C38.7806239,25.1425951 37.6872309,23.7087328 37.6872309,20.8915923 C37.6872309,18.0452687 38.7806239,16.6055699 40.8487318,16.6055699 C42.9187854,16.6055699 44.0102328,18.0452687 44.0102328,20.8915923 C44.0102328,23.7087328 42.9187854,25.1425951 40.8487318,25.1425951" id="Fill-8" fill="#1D1D1B"></path>
                    <path d="M56.0558431,13.9615823 C54.1297594,13.9615823 52.9215797,14.8526392 52.3748832,15.6872754 C52.3748832,14.8254017 51.6861624,14.1347353 50.8242886,14.1347353 C49.9604693,14.1347353 49.2717485,14.8254017 49.2717485,15.6872754 L49.2717485,26.1503843 C49.2717485,27.0122581 49.9332318,27.6445583 50.8242886,27.6445583 C51.7134,27.6445583 52.3748832,27.0122581 52.3748832,26.1503843 L52.3748832,19.7398332 C52.3748832,18.0452687 53.0947327,16.7787228 55.2503899,16.7787228 C57.1181074,16.7787228 57.7795906,17.8993533 57.7795906,19.5374972 L57.7795906,26.1503843 C57.7795906,27.0122581 58.4118908,27.6445583 59.3321308,27.6445583 C60.1959501,27.6445583 60.8866164,27.0122581 60.8866164,26.1503843 L60.8866164,18.9616176 C60.8866164,16.4616 59.964431,13.9615823 56.0558431,13.9615823" id="Fill-10" fill="#1D1D1B"></path>
                    <path d="M68.0995078,13.9615823 C65.4555203,13.9615823 63.299863,15.2261827 63.299863,17.8137496 C63.299863,22.6989981 70.3407688,21.4927639 70.3407688,23.8196285 C70.3407688,24.6250817 69.5080781,24.9713876 68.2162402,24.9713876 C66.7784868,24.9713876 65.8290638,24.4227456 65.0527937,23.7943365 C64.7356708,23.5336343 64.4496766,23.4480306 64.1617368,23.4480306 C63.4146499,23.4480306 62.7823497,24.0803308 62.7823497,24.8274178 C62.7823497,25.1756692 62.8971365,25.4324804 63.1267101,25.7184746 C63.844614,26.6095315 65.7415145,27.730162 68.2162402,27.730162 C71.175405,27.730162 73.4750321,26.3507748 73.4750321,23.6484211 C73.4750321,18.905197 66.4029978,19.8818576 66.4029978,17.7553834 C66.4029978,17.0374795 67.0372435,16.6658816 68.0995078,16.6658816 C69.2785045,16.6658816 70.0547745,17.1230832 70.6870747,17.5822304 C71.0041976,17.8137496 71.2629543,17.9869026 71.6656808,17.9869026 C72.4127678,17.9869026 73.045068,17.3526568 73.045068,16.6055699 C73.045068,16.1775513 72.9302812,15.9732697 72.7571282,15.7436961 C71.9516751,14.7378524 70.1423238,13.9615823 68.0995078,13.9615823" id="Fill-12" fill="#1D1D1B"></path>
                    <path d="M78.0752591,10.4259543 C77.2406229,10.4259543 76.5499566,11.1146751 76.5499566,11.9493113 L76.5499566,14.3617797 L75.8884733,14.3617797 C75.1705694,14.3617797 74.5966354,14.9396048 74.5966354,15.6555632 C74.5966354,16.3773581 75.1705694,16.9512921 75.8884733,16.9512921 L76.5499566,16.9512921 L76.5499566,23.7353867 C76.5499566,26.0058307 78.1336253,27.6459201 80.6900636,27.6459201 C81.4371506,27.6459201 82.0422132,27.0408575 82.0422132,26.2937705 C82.0422132,25.544738 81.4371506,24.9435664 80.6900636,24.9435664 C80.1725502,24.9435664 79.5986162,24.5700229 79.5986162,23.9085397 L79.5986162,16.9512921 L80.8904541,16.9512921 C81.6103035,16.9512921 82.1842376,16.3773581 82.1842376,15.6555632 C82.1842376,14.9396048 81.6103035,14.3617797 80.8904541,14.3617797 L79.5986162,14.3617797 L79.5986162,11.9493113 C79.5986162,11.1146751 78.9079498,10.4259543 78.0752591,10.4259543" id="Fill-14" fill="#1D1D1B"></path>
                    <path d="M90.4068637,13.9901817 C89.1986839,13.9901817 87.8465343,14.7080856 87.3017834,15.8306617 L87.3017834,15.6847462 C87.3017834,14.8267635 86.6130626,14.1341516 85.7492433,14.1341516 C84.8873695,14.1341516 84.1986487,14.8267635 84.1986487,15.6847462 L84.1986487,26.09338 C84.1986487,26.9552538 84.8873695,27.6459201 85.7492433,27.6459201 C86.6130626,27.6459201 87.3017834,26.9552538 87.3017834,26.09338 L87.3017834,20.112793 C87.3017834,18.1867094 88.4243594,16.9221091 90.4068637,16.9221091 C91.2123168,16.9221091 91.8738001,16.2606258 91.8738001,15.4551726 C91.8738001,14.651665 91.2123168,13.9901817 90.4068637,13.9901817" id="Fill-16" fill="#1D1D1B"></path>
                    <path d="M102.883605,14.1345407 C102.019786,14.1345407 101.32912,14.8252071 101.32912,15.6851353 L101.32912,22.3836262 C101.32912,23.7065927 100.869973,24.9711931 98.7726815,24.9711931 C96.6442618,24.9711931 96.1851146,23.7065927 96.1851146,22.3836262 L96.1851146,15.6851353 C96.1851146,14.8252071 95.4963938,14.1345407 94.6325744,14.1345407 C93.7707006,14.1345407 93.0819798,14.8252071 93.0819798,15.6851353 L93.0819798,22.3836262 C93.0819798,25.2027122 94.1442441,27.7902791 98.7726815,27.7902791 C103.371936,27.7902791 104.436146,25.2027122 104.436146,22.3836262 L104.436146,15.6851353 C104.436146,14.8252071 103.745479,14.1345407 102.883605,14.1345407" id="Fill-18" fill="#1D1D1B"></path>
                    <path d="M108.717499,6.94888692 C107.826442,6.94888692 107.164959,7.57924156 107.164959,8.44306089 L107.164959,26.1494115 C107.164959,27.0132309 107.826442,27.645531 108.717499,27.645531 C109.579373,27.645531 110.270039,27.0132309 110.270039,26.1494115 L110.270039,22.01125 L111.190279,21.2933461 L115.474356,27.0404684 C115.733112,27.3867743 116.133893,27.645531 116.682535,27.645531 C117.515226,27.645531 118.176709,26.9840478 118.176709,26.1494115 C118.176709,25.8634173 118.091106,25.54824 117.859587,25.2291716 L113.633876,19.6843854 L117.400439,16.8049876 C117.773983,16.5209389 117.974373,16.0617917 117.974373,15.629882 C117.974373,14.7952458 117.31289,14.1337625 116.480199,14.1337625 C116.133893,14.1337625 115.847899,14.2193662 115.474356,14.507306 L110.270039,18.5890469 L110.270039,8.44306089 C110.270039,7.57924156 109.579373,6.94888692 108.717499,6.94888692" id="Fill-20" fill="#1D1D1B"></path>
                    <path d="M125.535711,13.9615823 C121.625177,13.9615823 119.298313,16.1775513 119.298313,20.8604637 C119.298313,25.5453217 121.625177,27.7885282 125.535711,27.7885282 C127.891759,27.7885282 129.473482,26.7535014 130.13302,26.1503843 C130.479325,25.835207 130.623295,25.4908466 130.623295,25.08812 C130.623295,24.3099044 130.020178,23.7087328 129.243908,23.7087328 C128.955968,23.7087328 128.697212,23.7632079 128.382034,23.9927815 C127.720551,24.4830574 126.856732,25.1425951 125.535711,25.1425951 C123.522078,25.1425951 122.430631,23.619238 122.430631,20.8604637 C122.430631,18.15811 123.522078,16.6055699 125.535711,16.6055699 C126.971519,16.6055699 127.720551,17.3254193 128.094095,17.7300914 C128.350906,18.0141401 128.697212,18.2164762 129.156359,18.2164762 C129.932629,18.2164762 130.537692,17.6114135 130.537692,16.837089 C130.537692,16.4927286 130.452088,16.263155 130.220569,15.9460321 C129.703055,15.2845489 128.179698,13.9615823 125.535711,13.9615823" id="Fill-22" fill="#1D1D1B"></path>
                    <path d="M138.211092,13.9635279 C134.302504,13.9635279 132.002877,16.436308 132.002877,20.8312806 C132.002877,25.6328709 134.473712,27.7885282 138.469849,27.7885282 C141.086599,27.7885282 142.609956,26.6659521 143.098286,26.2087505 C143.357043,25.9791769 143.586616,25.6036878 143.586616,25.1425951 C143.586616,24.3974536 142.983499,23.7943365 142.236412,23.7943365 C141.860923,23.7943365 141.633295,23.9071778 141.316172,24.1095139 C140.625506,24.5686611 139.734449,25.0005707 138.469849,25.0005707 C136.572948,25.0005707 135.106012,24.0530932 135.106012,21.9810942 L142.207229,21.9810942 C143.96016,21.9810942 143.96016,20.7437314 143.96016,19.681467 C143.96016,17.6989628 143.069103,13.9635279 138.211092,13.9635279 M135.191616,19.3954728 C135.337531,17.5569384 136.543765,16.6055699 138.211092,16.6055699 C140.07881,16.6055699 140.884263,17.984957 140.884263,19.3954728 L135.191616,19.3954728" id="Fill-24" fill="#1D1D1B"></path>
                    <path d="M94.2000811,35.8090128 C91.5560936,35.8090128 89.4004363,37.0736131 89.4004363,39.6592345 C89.4004363,44.5464285 96.4413421,43.3401943 96.4413421,45.667059 C96.4413421,46.4744577 95.6086514,46.8168726 94.3168135,46.8168726 C92.8790601,46.8168726 91.9296371,46.2721216 91.153367,45.641767 C90.8362441,45.3830103 90.5502499,45.2935155 90.2623101,45.2935155 C89.5152231,45.2935155 88.882923,45.9258157 88.882923,46.6729027 C88.882923,47.0230997 88.9977098,47.2799108 89.2272834,47.5639595 C89.9451873,48.4569619 91.8420878,49.5756469 94.3168135,49.5756469 C97.2759783,49.5756469 99.5756054,48.1982053 99.5756054,45.4958516 C99.5756054,40.7526274 92.5035711,41.729288 92.5035711,39.6028139 C92.5035711,38.88491 93.1378168,38.5113665 94.2000811,38.5113665 C95.3790778,38.5113665 96.1553478,38.9705137 96.787648,39.4296609 C97.1047709,39.6592345 97.3635276,39.834333 97.7662541,39.834333 C98.5133411,39.834333 99.1456413,39.2000873 99.1456413,38.4530003 C99.1456413,38.0230362 99.0308545,37.8207001 98.8577015,37.589181 C98.0522484,36.5833373 96.2409515,35.8090128 94.2000811,35.8090128" id="Fill-26" fill="#1D1D1B"></path>
                    <path d="M104.176611,32.2733847 C103.341974,32.2733847 102.653254,32.9621055 102.653254,33.7947962 L102.653254,36.2092101 L101.99177,36.2092101 C101.273866,36.2092101 100.697987,36.7850897 100.697987,37.5029936 C100.697987,38.2247886 101.273866,38.7987226 101.99177,38.7987226 L102.653254,38.7987226 L102.653254,45.5828171 C102.653254,47.8552067 104.233031,49.4933506 106.791415,49.4933506 C107.538502,49.4933506 108.143565,48.8882879 108.143565,48.1392554 C108.143565,47.3921684 107.538502,46.7909969 106.791415,46.7909969 C106.273902,46.7909969 105.699968,46.4174534 105.699968,45.7540246 L105.699968,38.7987226 L106.991806,38.7987226 C107.713601,38.7987226 108.287535,38.2247886 108.287535,37.5029936 C108.287535,36.7850897 107.713601,36.2092101 106.991806,36.2092101 L105.699968,36.2092101 L105.699968,33.7947962 C105.699968,32.9621055 105.011247,32.2733847 104.176611,32.2733847" id="Fill-28" fill="#1D1D1B"></path>
                    <path d="M115.443227,35.8090128 C112.970447,35.8090128 111.534639,36.7564903 110.731132,37.6475471 C110.470429,37.9374325 110.355643,38.2817929 110.355643,38.5989157 C110.355643,39.3440572 110.960705,39.9471743 111.705847,39.9471743 C112.052153,39.9471743 112.281726,39.8615705 112.569666,39.66118 C113.28757,39.1436666 114.178627,38.5658416 115.443227,38.5658416 C117.110554,38.5658416 118.059977,39.4296609 118.059977,40.7253899 L118.059977,41.2409577 L114.293414,41.2409577 C111.793396,41.2409577 109.635793,42.624236 109.635793,45.295461 C109.635793,47.8830279 111.505456,49.6359586 114.322597,49.6359586 C116.046344,49.6359586 117.31289,49.2040489 118.08916,47.9686317 C118.08916,48.8032679 118.777881,49.4919887 119.612517,49.4919887 C120.445208,49.4919887 121.135874,48.8032679 121.135874,47.9686317 L121.135874,40.6106031 C121.135874,37.5619434 119.0094,35.8090128 115.443227,35.8090128 M115.12805,47.0503372 C113.517144,47.0503372 112.740873,46.388854 112.740873,45.295461 C112.740873,44.2604343 113.433485,43.6573172 114.698086,43.6573172 L118.059977,43.6573172 L118.059977,44.4588793 C118.059977,46.0717311 116.653352,47.0503372 115.12805,47.0503372" id="Fill-30" fill="#1D1D1B"></path>
                    <path d="M117.339349,29.7614993 C117.09032,29.7614993 116.85491,29.8548851 116.662302,30.045548 L113.779013,32.8782528 C113.417143,33.1875935 113.349049,33.7109435 113.759558,34.2070559 C113.958003,34.4463572 114.201195,34.5961637 114.485244,34.5961637 C114.672015,34.5961637 114.878243,34.5300154 115.100034,34.3782634 L118.294609,32.1194926 C118.816014,31.7459491 118.963875,31.0513916 118.401614,30.3607253 C118.09811,29.9657809 117.707056,29.7614993 117.339349,29.7614993" id="Fill-32" fill="#1D1D1B"></path>
                    <path d="M126.252058,32.2733847 C125.421313,32.2733847 124.728701,32.9621055 124.728701,33.7947962 L124.728701,36.2092101 L124.067218,36.2092101 C123.349314,36.2092101 122.77538,36.7850897 122.77538,37.5029936 C122.77538,38.2247886 123.349314,38.7987226 124.067218,38.7987226 L124.728701,38.7987226 L124.728701,45.5828171 C124.728701,47.8552067 126.310424,49.4933506 128.868808,49.4933506 C129.615895,49.4933506 130.220958,48.8882879 130.220958,48.1392554 C130.220958,47.3921684 129.615895,46.7909969 128.868808,46.7909969 C128.349349,46.7909969 127.777361,46.4174534 127.777361,45.7540246 L127.777361,38.7987226 L129.069199,38.7987226 C129.789048,38.7987226 130.362982,38.2247886 130.362982,37.5029936 C130.362982,36.7850897 129.789048,36.2092101 129.069199,36.2092101 L127.777361,36.2092101 L127.777361,33.7947962 C127.777361,32.9621055 127.086695,32.2733847 126.252058,32.2733847" id="Fill-34" fill="#1D1D1B"></path>
                    <path d="M142.035827,35.9819712 C141.173953,35.9819712 140.483287,36.670692 140.483287,37.5325658 L140.483287,44.2310566 C140.483287,45.5540232 140.022194,46.8186235 137.924903,46.8186235 C135.796484,46.8186235 135.337336,45.5540232 135.337336,44.2310566 L135.337336,37.5325658 C135.337336,36.670692 134.648616,35.9819712 133.784796,35.9819712 C132.922922,35.9819712 132.234202,36.670692 132.234202,37.5325658 L132.234202,44.2310566 C132.234202,47.0481971 133.296466,49.635764 137.924903,49.635764 C142.524158,49.635764 143.588367,47.0481971 143.588367,44.2310566 L143.588367,37.5325658 C143.588367,36.670692 142.897701,35.9819712 142.035827,35.9819712" id="Fill-36" fill="#1D1D1B"></path>
                    <g id="rest-panak" transform="translate(145.915427, 0.115954)">
                        <g>
                            <mask id="mask-4" fill="white">
                                <use xlink:href="#path-3"></use>
                            </mask>
                            <g id="Clip-39"></g>
                            <path d="M18.1633578,0.851956736 C15.4862961,0.851956736 12.6088438,1.78386993 9.63216914,3.58543906 C7.05822102,5.1477069 4.15158572,6.90063755 1.75468164,8.17302007 C0.276071987,8.95318122 0.748837969,9.6749762 1.43561324,10.2255637 C3.58932494,11.9493113 5.12824631,13.6652767 6.94732529,16.7567382 C8.47457342,19.3540328 9.91621784,22.4844051 13.241144,24.2100982 C14.6769518,24.9610763 16.0952498,25.2315062 17.37736,25.2315062 C19.4824332,25.2315062 21.2197996,24.4922014 22.0544358,23.9085397 C24.5680722,22.1439358 24.9552345,19.3306864 24.5408347,17.8034382 C27.6926079,18.964925 29.0992326,19.7353585 29.0992326,19.7353585 C26.2042705,26.8132294 22.9279828,34.795776 17.9123832,46.9184297 C17.3793055,48.2122131 17.8306706,48.9320626 18.5369012,49.301715 C18.9493555,49.5196154 19.5952745,49.6071646 20.2334113,49.6071646 C20.7567613,49.6071646 21.2742746,49.5468529 21.6575458,49.453467 C22.5855679,49.2238934 23.4260408,48.7044345 24.1186527,47.0935282 C24.7042599,45.7238687 25.9318951,42.6421349 26.999996,40.1207163 C27.3424109,39.3152632 27.7237365,39.0000859 28.147864,39.0000859 C28.6692685,39.0000859 29.2587668,39.4747974 29.9202501,40.07986 C32.7373906,42.6693725 35.077874,46.8133706 36.1090097,48.4962618 C36.6615428,49.3989919 37.2549322,49.6052191 37.9066877,49.6052191 C38.1129149,49.6052191 38.3269242,49.5818726 38.5467701,49.5565806 C39.441718,49.453467 40.6440611,48.8756419 41.1654656,48.1421737 C41.5253903,47.6285514 41.8036024,46.7686232 41.361965,45.9203682 C39.6732372,42.6752091 36.3346922,37.311358 30.0564378,32.6907028 L31.3268748,29.5953502 C31.3268748,29.5953502 31.8346605,30.2509969 32.3677381,30.7762924 C33.6965413,32.0836946 35.200443,33.2607458 36.7627108,33.9377933 C37.1907294,34.1245651 37.6109658,34.2257331 38.0214745,34.2257331 C38.9747887,34.2257331 39.8677911,33.6673634 40.6401701,32.2957584 C41.4397866,30.8774605 42.6713128,27.9591519 43.0137277,26.4319038 C44.0195713,26.9844369 44.5370847,27.2684856 45.7374823,27.9513698 C46.0020756,28.0972852 46.2588868,28.1575969 46.5001336,28.1575969 C46.9651174,28.1575969 47.3620074,27.9338599 47.5974176,27.7101229 C48.089639,27.2393025 48.4943111,26.1342363 48.6324444,25.1887044 C48.7336124,24.4960925 48.4301083,23.6848027 47.7861349,23.2684573 C47.0137559,22.7703994 43.3327961,20.9785579 39.513703,19.3287408 C35.8346887,17.7392354 31.212088,15.8773546 26.0778105,14.2606117 C19.2703695,12.1166277 13.0718821,10.9726507 12.7605959,10.8422996 L12.8345264,10.5037758 C12.8792738,10.4979392 12.9434766,10.4940481 13.0232437,10.4940481 C14.3325914,10.4940481 20.1906094,11.3987238 25.5486239,12.8676057 C25.653683,12.8948433 25.7470689,12.9084621 25.830727,12.9084621 C26.2139982,12.9084621 26.4163343,12.6283044 26.7237294,12.1808305 C27.0136148,11.760594 27.3365742,10.8987202 27.4085592,9.91233196 C27.7120633,5.75082399 25.7159402,3.0640346 22.2256432,1.6379545 C20.9376964,1.11265897 19.5777646,0.851956736 18.1633578,0.851956736 M36.7004535,28.0719932 L36.2023956,27.9182956 C35.001998,27.1867729 34.7665878,27.0019467 34.132342,26.3093348 C33.4358391,25.5505746 33.4027649,24.9688584 33.5525714,24.3073752 C33.6790314,23.7451144 34.1965448,22.5855731 34.4008264,22.0836241 C34.9669783,22.3637817 36.8774976,23.2334376 37.8171929,23.7781886 C38.4280922,24.1361677 38.5837353,24.5622408 38.4572753,25.2217785 C38.3269242,25.9260636 38.1070783,26.3268447 37.7880099,27.0311298 C37.5856738,27.4786038 37.2529866,28.0719932 36.7004535,28.0719932 M33.8307835,5.88506619 C33.0700777,5.88506619 32.3463372,6.12825856 31.7198737,6.59518793 C30.7471041,7.32281952 30.1050763,8.5134894 29.9513787,9.85785687 C29.6692755,12.4045674 31.2218157,14.8267635 33.3852551,15.2489455 C33.6012099,15.2917474 33.8191103,15.3131483 34.0350651,15.3131483 C34.7860432,15.3131483 35.5311846,15.0660648 36.1576482,14.5991355 C37.1323632,13.8734494 37.7724455,12.6827795 37.9261431,11.3384121 C38.2082463,8.78781041 36.6654338,6.37145094 34.4942123,5.94537789 C34.2704753,5.90646711 34.0486839,5.88506619 33.8307835,5.88506619" id="Fill-38" fill="#1D1D1B" mask="url(#mask-4)"></path>
                        </g>
                    </g>
                </g>
            </g>
        </g>
    </g>
</svg>