<?xml version="1.0" encoding="UTF-8" standalone="no"?>
<!DOCTYPE svg PUBLIC "-//W3C//DTD SVG 1.1//EN" "http://www.w3.org/Graphics/SVG/1.1/DTD/svg11.dtd">
<svg width="100%" height="100%" viewBox="0 0 99 31" version="1.1" xmlns="http://www.w3.org/2000/svg" xmlns:xlink="http://www.w3.org/1999/xlink" xml:space="preserve" xmlns:serif="http://www.serif.com/" style="fill-rule:evenodd;clip-rule:evenodd;stroke-linejoin:round;stroke-miterlimit:1.41421;">
    <g id="Tenderman_Logo" transform="matrix(1,0,0,1,5,-7)">
        <g transform="matrix(1,0,0,1,50.483,34)">
            <g id="by-DATLAB">
                <path d="M2.73,-3.822C3.08,-3.822 3.399,-3.742 3.685,-3.581C3.973,-3.419 4.198,-3.193 4.361,-2.902C4.524,-2.61 4.606,-2.27 4.606,-1.883C4.606,-1.496 4.524,-1.156 4.361,-0.865C4.198,-0.573 3.973,-0.346 3.685,-0.186C3.399,-0.024 3.08,0.056 2.73,0.056C2.212,0.056 1.818,-0.107 1.547,-0.434L1.547,0L0.504,0L0.504,-5.194L1.596,-5.194L1.596,-3.367C1.871,-3.67 2.249,-3.822 2.73,-3.822ZM2.541,-0.84C2.821,-0.84 3.051,-0.934 3.231,-1.124C3.41,-1.313 3.5,-1.566 3.5,-1.883C3.5,-2.2 3.41,-2.454 3.231,-2.643C3.051,-2.832 2.821,-2.926 2.541,-2.926C2.261,-2.926 2.031,-2.832 1.852,-2.643C1.672,-2.454 1.582,-2.2 1.582,-1.883C1.582,-1.566 1.672,-1.313 1.852,-1.124C2.031,-0.934 2.261,-0.84 2.541,-0.84Z" style="fill:rgb(62,109,235);fill-rule:nonzero;"/>
                <path d="M8.967,-3.766L7.266,0.231C7.093,0.665 6.88,0.971 6.626,1.148C6.371,1.325 6.064,1.414 5.705,1.414C5.509,1.414 5.315,1.384 5.124,1.323C4.933,1.262 4.776,1.178 4.655,1.071L5.054,0.294C5.138,0.369 5.235,0.427 5.345,0.469C5.454,0.511 5.563,0.532 5.67,0.532C5.819,0.532 5.941,0.496 6.034,0.424C6.127,0.351 6.211,0.231 6.286,0.063L6.3,0.028L4.669,-3.766L5.796,-3.766L6.853,-1.211L7.917,-3.766L8.967,-3.766Z" style="fill:rgb(62,109,235);fill-rule:nonzero;"/>
                <path d="M11.473,-4.9L13.699,-4.9C14.231,-4.9 14.701,-4.799 15.11,-4.595C15.518,-4.393 15.835,-4.107 16.061,-3.738C16.288,-3.369 16.401,-2.94 16.401,-2.45C16.401,-1.96 16.288,-1.531 16.061,-1.162C15.835,-0.793 15.518,-0.508 15.11,-0.305C14.701,-0.102 14.231,0 13.699,0L11.473,0L11.473,-4.9ZM13.643,-0.931C14.133,-0.931 14.524,-1.067 14.816,-1.341C15.107,-1.614 15.253,-1.983 15.253,-2.45C15.253,-2.917 15.107,-3.287 14.816,-3.56C14.524,-3.833 14.133,-3.969 13.643,-3.969L12.607,-3.969L12.607,-0.931L13.643,-0.931Z" style="fill:rgb(62,109,235);fill-rule:nonzero;"/>
                <path d="M20.412,-1.05L18.137,-1.05L17.703,0L16.541,0L18.725,-4.9L19.845,-4.9L22.036,0L20.846,0L20.412,-1.05ZM20.055,-1.911L19.278,-3.787L18.501,-1.911L20.055,-1.911Z" style="fill:rgb(62,109,235);fill-rule:nonzero;"/>
                <path d="M23.317,-3.976L21.749,-3.976L21.749,-4.9L26.019,-4.9L26.019,-3.976L24.451,-3.976L24.451,0L23.317,0L23.317,-3.976Z" style="fill:rgb(62,109,235);fill-rule:nonzero;"/>
                <path d="M26.628,-4.9L27.762,-4.9L27.762,-0.924L30.219,-0.924L30.219,0L26.628,0L26.628,-4.9Z" style="fill:rgb(62,109,235);fill-rule:nonzero;"/>
                <path d="M34.125,-1.05L31.85,-1.05L31.416,0L30.254,0L32.438,-4.9L33.558,-4.9L35.749,0L34.559,0L34.125,-1.05ZM33.768,-1.911L32.991,-3.787L32.214,-1.911L33.768,-1.911Z" style="fill:rgb(62,109,235);fill-rule:nonzero;"/>
                <path d="M39.858,-2.548C40.138,-2.459 40.357,-2.311 40.516,-2.104C40.675,-1.896 40.754,-1.64 40.754,-1.337C40.754,-0.908 40.587,-0.578 40.254,-0.347C39.92,-0.116 39.433,0 38.794,0L36.26,0L36.26,-4.9L38.654,-4.9C39.251,-4.9 39.71,-4.786 40.03,-4.557C40.349,-4.328 40.509,-4.018 40.509,-3.626C40.509,-3.388 40.452,-3.176 40.338,-2.989C40.223,-2.802 40.063,-2.655 39.858,-2.548ZM37.387,-4.046L37.387,-2.891L38.514,-2.891C38.794,-2.891 39.006,-2.94 39.151,-3.038C39.296,-3.136 39.368,-3.281 39.368,-3.472C39.368,-3.663 39.296,-3.807 39.151,-3.903C39.006,-3.998 38.794,-4.046 38.514,-4.046L37.387,-4.046ZM38.71,-0.854C39.009,-0.854 39.234,-0.903 39.386,-1.001C39.537,-1.099 39.613,-1.251 39.613,-1.456C39.613,-1.862 39.312,-2.065 38.71,-2.065L37.387,-2.065L37.387,-0.854L38.71,-0.854Z" style="fill:rgb(62,109,235);fill-rule:nonzero;"/>
            </g>
        </g>
        <g transform="matrix(1,0,0,1,0.0078125,26)">
            <g id="tenderman">
                <path d="M11.594,-13.686C11.594,-13.54 11.544,-13.424 11.443,-13.337C11.343,-13.25 11.22,-13.207 11.074,-13.207L4.143,-13.207L4.143,-13.057C4.143,-12.501 4.102,-11.908 4.02,-11.279C3.938,-10.65 3.826,-10.024 3.685,-9.399C3.543,-8.775 3.384,-8.167 3.206,-7.574C3.028,-6.982 2.846,-6.435 2.659,-5.934C2.472,-5.432 2.288,-4.997 2.105,-4.628C1.923,-4.259 1.759,-3.983 1.613,-3.801C1.732,-3.382 1.873,-2.992 2.037,-2.632C2.201,-2.272 2.386,-1.957 2.591,-1.688C2.796,-1.42 3.017,-1.208 3.254,-1.053C3.491,-0.898 3.746,-0.82 4.02,-0.82C4.339,-0.82 4.655,-0.955 4.97,-1.224C5.284,-1.493 5.576,-1.812 5.845,-2.181C6.114,-2.55 6.351,-2.924 6.556,-3.302C6.761,-3.68 6.909,-3.983 7,-4.211C7.091,-4.43 7.251,-4.539 7.479,-4.539C7.633,-4.539 7.759,-4.484 7.854,-4.375C7.95,-4.266 7.998,-4.147 7.998,-4.02C7.998,-3.956 7.984,-3.892 7.957,-3.828C7.93,-3.764 7.864,-3.618 7.759,-3.391C7.654,-3.163 7.517,-2.898 7.349,-2.598C7.18,-2.297 6.984,-1.98 6.761,-1.647C6.537,-1.315 6.287,-1.012 6.009,-0.738C5.731,-0.465 5.432,-0.237 5.113,-0.055C4.794,0.128 4.457,0.219 4.102,0.219C3.473,0.219 2.908,0.014 2.406,-0.396C1.905,-0.807 1.479,-1.381 1.128,-2.119C0.777,-2.857 0.51,-3.732 0.328,-4.744C0.146,-5.756 0.055,-6.863 0.055,-8.066C0.055,-8.367 0.059,-8.72 0.068,-9.126C0.077,-9.532 0.096,-9.96 0.123,-10.411C0.15,-10.862 0.191,-11.327 0.246,-11.806C0.301,-12.284 0.374,-12.751 0.465,-13.207L-4.443,-13.207C-4.589,-13.207 -4.712,-13.25 -4.813,-13.337C-4.913,-13.424 -4.963,-13.54 -4.963,-13.686C-4.963,-13.831 -4.913,-13.948 -4.813,-14.034C-4.712,-14.121 -4.589,-14.164 -4.443,-14.164L0.697,-14.164C0.788,-14.492 0.896,-14.793 1.019,-15.066C1.142,-15.34 1.283,-15.577 1.442,-15.777C1.602,-15.978 1.78,-16.135 1.976,-16.249C2.172,-16.363 2.388,-16.42 2.625,-16.42C2.853,-16.42 3.051,-16.363 3.22,-16.249C3.388,-16.135 3.532,-15.978 3.65,-15.777C3.769,-15.577 3.862,-15.34 3.931,-15.066C3.999,-14.793 4.051,-14.492 4.088,-14.164L11.074,-14.164C11.22,-14.164 11.343,-14.121 11.443,-14.034C11.544,-13.948 11.594,-13.831 11.594,-13.686ZM1.299,-5.168C1.572,-5.77 1.821,-6.419 2.044,-7.116C2.267,-7.813 2.459,-8.518 2.618,-9.229C2.778,-9.939 2.901,-10.637 2.987,-11.32C3.074,-12.004 3.117,-12.633 3.117,-13.207L1.504,-13.207C1.376,-12.642 1.274,-11.942 1.196,-11.108C1.119,-10.274 1.08,-9.26 1.08,-8.066C1.08,-7.401 1.098,-6.843 1.135,-6.392C1.171,-5.94 1.226,-5.533 1.299,-5.168ZM2.57,-15.395C2.488,-15.395 2.37,-15.306 2.215,-15.128C2.06,-14.95 1.905,-14.629 1.75,-14.164L3.063,-14.164C3.017,-14.547 2.951,-14.848 2.864,-15.066C2.778,-15.285 2.68,-15.395 2.57,-15.395Z" style="fill:rgb(62,109,235);fill-rule:nonzero;"/>
                <path d="M8.695,-1.504C8.887,-1.24 9.133,-1.028 9.434,-0.868C9.734,-0.709 10.104,-0.629 10.541,-0.629C10.988,-0.629 11.393,-0.736 11.758,-0.95C12.122,-1.164 12.455,-1.445 12.756,-1.791C13.057,-2.137 13.326,-2.525 13.563,-2.953C13.799,-3.382 14.014,-3.81 14.205,-4.238C14.251,-4.339 14.314,-4.414 14.396,-4.464C14.479,-4.514 14.57,-4.539 14.67,-4.539C14.825,-4.539 14.95,-4.484 15.046,-4.375C15.142,-4.266 15.189,-4.147 15.189,-4.02C15.189,-3.974 15.185,-3.935 15.176,-3.903C15.167,-3.871 15.153,-3.837 15.135,-3.801C14.506,-2.415 13.82,-1.372 13.077,-0.67C12.334,0.032 11.493,0.392 10.555,0.41C9.953,0.41 9.434,0.294 8.996,0.062C8.559,-0.171 8.199,-0.472 7.916,-0.841C7.633,-1.21 7.424,-1.627 7.287,-2.092C7.15,-2.557 7.082,-3.021 7.082,-3.486C7.082,-3.951 7.139,-4.38 7.253,-4.771C7.367,-5.163 7.531,-5.505 7.745,-5.797C7.959,-6.089 8.215,-6.316 8.511,-6.48C8.807,-6.645 9.133,-6.727 9.488,-6.727C9.698,-6.727 9.905,-6.683 10.11,-6.597C10.315,-6.51 10.5,-6.387 10.664,-6.228C10.828,-6.068 10.96,-5.874 11.061,-5.646C11.161,-5.419 11.211,-5.159 11.211,-4.867C11.211,-4.493 11.147,-4.143 11.02,-3.814C10.892,-3.486 10.716,-3.181 10.493,-2.898C10.27,-2.616 10.003,-2.356 9.693,-2.119C9.383,-1.882 9.051,-1.677 8.695,-1.504ZM8.285,-2.393C8.568,-2.511 8.825,-2.661 9.058,-2.844C9.29,-3.026 9.488,-3.227 9.652,-3.445C9.816,-3.664 9.944,-3.894 10.035,-4.136C10.126,-4.377 10.172,-4.621 10.172,-4.867C10.172,-5.141 10.104,-5.348 9.967,-5.489C9.83,-5.631 9.671,-5.701 9.488,-5.701C9.242,-5.701 9.033,-5.633 8.859,-5.496C8.686,-5.359 8.545,-5.182 8.436,-4.963C8.326,-4.744 8.246,-4.5 8.196,-4.231C8.146,-3.963 8.121,-3.696 8.121,-3.432C8.121,-3.268 8.137,-3.094 8.169,-2.912C8.201,-2.73 8.24,-2.557 8.285,-2.393Z" style="fill:rgb(62,109,235);fill-rule:nonzero;"/>
                <path d="M17.24,-1.23C17.386,-1.531 17.555,-1.862 17.746,-2.222C17.938,-2.582 18.143,-2.946 18.361,-3.315C18.58,-3.685 18.81,-4.051 19.052,-4.416C19.293,-4.781 19.546,-5.127 19.811,-5.455C20.075,-5.774 20.341,-6.004 20.61,-6.146C20.879,-6.287 21.132,-6.357 21.369,-6.357C21.843,-6.357 22.194,-6.184 22.422,-5.838C22.65,-5.492 22.764,-5.063 22.764,-4.553C22.764,-4.434 22.757,-4.291 22.743,-4.122C22.729,-3.953 22.716,-3.773 22.702,-3.582C22.688,-3.391 22.675,-3.197 22.661,-3.001C22.647,-2.805 22.641,-2.62 22.641,-2.447C22.641,-2.229 22.652,-2.019 22.675,-1.818C22.698,-1.618 22.741,-1.442 22.805,-1.292C22.868,-1.142 22.96,-1.023 23.078,-0.937C23.197,-0.85 23.352,-0.807 23.543,-0.807C23.889,-0.807 24.227,-0.941 24.555,-1.21C24.883,-1.479 25.186,-1.798 25.464,-2.167C25.742,-2.536 25.983,-2.912 26.188,-3.295C26.394,-3.678 26.546,-3.988 26.646,-4.225C26.692,-4.325 26.758,-4.402 26.845,-4.457C26.931,-4.512 27.025,-4.539 27.125,-4.539C27.28,-4.539 27.405,-4.482 27.501,-4.368C27.597,-4.254 27.645,-4.133 27.645,-4.006C27.645,-3.942 27.631,-3.878 27.604,-3.814C27.567,-3.742 27.494,-3.591 27.385,-3.363C27.275,-3.135 27.132,-2.873 26.954,-2.577C26.776,-2.281 26.569,-1.966 26.332,-1.634C26.095,-1.301 25.833,-0.998 25.546,-0.725C25.259,-0.451 24.949,-0.223 24.616,-0.041C24.284,0.141 23.935,0.232 23.57,0.232C23.16,0.232 22.827,0.153 22.572,-0.007C22.317,-0.166 22.117,-0.376 21.971,-0.636C21.825,-0.896 21.727,-1.183 21.677,-1.497C21.627,-1.812 21.602,-2.128 21.602,-2.447C21.602,-2.584 21.608,-2.739 21.622,-2.912C21.636,-3.085 21.654,-3.268 21.677,-3.459C21.7,-3.65 21.718,-3.842 21.731,-4.033C21.745,-4.225 21.752,-4.407 21.752,-4.58C21.752,-4.872 21.706,-5.07 21.615,-5.175C21.524,-5.28 21.442,-5.332 21.369,-5.332C21.223,-5.332 21.057,-5.248 20.87,-5.079C20.683,-4.91 20.487,-4.689 20.282,-4.416C20.077,-4.143 19.868,-3.835 19.653,-3.493C19.439,-3.151 19.239,-2.812 19.052,-2.475C18.865,-2.137 18.692,-1.816 18.532,-1.511C18.373,-1.205 18.247,-0.952 18.156,-0.752C17.974,-0.369 17.792,-0.112 17.609,0.021C17.427,0.153 17.24,0.219 17.049,0.219C16.785,0.219 16.573,0.139 16.413,-0.021C16.254,-0.18 16.174,-0.406 16.174,-0.697C16.174,-0.761 16.183,-0.886 16.201,-1.073C16.219,-1.26 16.242,-1.483 16.27,-1.743C16.297,-2.003 16.324,-2.283 16.352,-2.584C16.379,-2.885 16.406,-3.183 16.434,-3.479C16.461,-3.776 16.484,-4.051 16.502,-4.307C16.52,-4.562 16.529,-4.776 16.529,-4.949C16.529,-5.177 16.52,-5.396 16.502,-5.605C16.484,-5.815 16.447,-5.943 16.393,-5.988C16.311,-5.961 16.165,-5.79 15.955,-5.476C15.745,-5.161 15.477,-4.607 15.148,-3.814C15.103,-3.714 15.035,-3.637 14.943,-3.582C14.852,-3.527 14.757,-3.5 14.656,-3.5C14.501,-3.5 14.378,-3.552 14.287,-3.657C14.196,-3.762 14.15,-3.883 14.15,-4.02C14.15,-4.083 14.164,-4.152 14.191,-4.225C14.602,-5.2 14.987,-5.918 15.347,-6.378C15.707,-6.838 16.064,-7.068 16.42,-7.068C16.63,-7.068 16.807,-7.016 16.953,-6.911C17.099,-6.806 17.215,-6.667 17.302,-6.494C17.388,-6.321 17.452,-6.13 17.493,-5.92C17.534,-5.71 17.555,-5.496 17.555,-5.277C17.555,-5.113 17.543,-4.858 17.521,-4.512C17.498,-4.165 17.468,-3.794 17.432,-3.397C17.395,-3.001 17.361,-2.607 17.329,-2.215C17.297,-1.823 17.268,-1.495 17.24,-1.23Z" style="fill:rgb(62,109,235);fill-rule:nonzero;"/>
                <path d="M31.965,-3.979C32.411,-1.873 33.059,-0.82 33.906,-0.82C34.234,-0.82 34.549,-0.941 34.85,-1.183C35.15,-1.424 35.431,-1.72 35.69,-2.071C35.95,-2.422 36.18,-2.794 36.381,-3.186C36.581,-3.577 36.745,-3.919 36.873,-4.211C36.964,-4.43 37.124,-4.539 37.352,-4.539C37.497,-4.539 37.62,-4.484 37.721,-4.375C37.821,-4.266 37.871,-4.147 37.871,-4.02C37.871,-3.947 37.857,-3.883 37.83,-3.828C37.766,-3.673 37.673,-3.466 37.55,-3.206C37.427,-2.946 37.276,-2.668 37.099,-2.372C36.921,-2.076 36.723,-1.773 36.504,-1.463C36.285,-1.153 36.044,-0.875 35.779,-0.629C35.515,-0.383 35.235,-0.18 34.938,-0.021C34.642,0.139 34.33,0.219 34.002,0.219C33.391,0.219 32.867,0.007 32.43,-0.417C31.992,-0.841 31.614,-1.54 31.295,-2.516C30.857,-1.586 30.415,-0.911 29.969,-0.492C29.522,-0.073 29.039,0.137 28.52,0.137C28.246,0.137 27.982,0.093 27.727,0.007C27.471,-0.08 27.248,-0.223 27.057,-0.424C26.865,-0.624 26.71,-0.882 26.592,-1.196C26.473,-1.511 26.414,-1.896 26.414,-2.352C26.414,-2.98 26.523,-3.559 26.742,-4.088C26.961,-4.617 27.243,-5.07 27.59,-5.448C27.936,-5.826 28.321,-6.12 28.745,-6.33C29.169,-6.54 29.59,-6.645 30.01,-6.645C30.146,-6.645 30.265,-6.597 30.365,-6.501C30.465,-6.405 30.516,-6.285 30.516,-6.139C30.516,-6.011 30.475,-5.897 30.393,-5.797C30.311,-5.697 30.201,-5.637 30.064,-5.619C29.791,-5.583 29.499,-5.496 29.189,-5.359C28.88,-5.223 28.595,-5.024 28.335,-4.765C28.075,-4.505 27.861,-4.174 27.692,-3.773C27.524,-3.372 27.439,-2.894 27.439,-2.338C27.439,-1.882 27.533,-1.527 27.72,-1.271C27.907,-1.016 28.178,-0.889 28.533,-0.889C28.679,-0.889 28.834,-0.927 28.998,-1.005C29.162,-1.082 29.338,-1.235 29.524,-1.463C29.711,-1.691 29.916,-2.014 30.14,-2.434C30.363,-2.853 30.611,-3.404 30.885,-4.088C30.73,-4.89 30.589,-5.815 30.461,-6.863C30.333,-7.911 30.27,-9.083 30.27,-10.377C30.27,-10.942 30.288,-11.532 30.324,-12.147C30.361,-12.763 30.42,-13.364 30.502,-13.952C30.584,-14.54 30.693,-15.098 30.83,-15.627C30.967,-16.156 31.133,-16.62 31.329,-17.021C31.525,-17.423 31.755,-17.739 32.02,-17.972C32.284,-18.204 32.585,-18.32 32.922,-18.32C33.223,-18.32 33.478,-18.238 33.688,-18.074C33.897,-17.91 34.068,-17.682 34.2,-17.391C34.332,-17.099 34.43,-16.748 34.494,-16.338C34.558,-15.928 34.59,-15.477 34.59,-14.984C34.59,-13.927 34.499,-12.87 34.316,-11.813C34.134,-10.755 33.909,-9.743 33.64,-8.777C33.371,-7.811 33.086,-6.918 32.785,-6.098C32.484,-5.277 32.211,-4.571 31.965,-3.979ZM33.564,-14.998C33.564,-15.226 33.558,-15.472 33.544,-15.736C33.53,-16.001 33.498,-16.249 33.448,-16.481C33.398,-16.714 33.332,-16.908 33.25,-17.063C33.168,-17.217 33.059,-17.295 32.922,-17.295C32.694,-17.295 32.482,-17.094 32.286,-16.693C32.09,-16.292 31.919,-15.766 31.773,-15.114C31.628,-14.463 31.511,-13.724 31.425,-12.899C31.338,-12.075 31.295,-11.243 31.295,-10.404C31.295,-9.602 31.327,-8.8 31.391,-7.998C31.454,-7.196 31.527,-6.48 31.609,-5.852C31.874,-6.553 32.124,-7.276 32.361,-8.019C32.598,-8.761 32.806,-9.52 32.983,-10.295C33.161,-11.07 33.302,-11.851 33.407,-12.64C33.512,-13.428 33.564,-14.214 33.564,-14.998Z" style="fill:rgb(62,109,235);fill-rule:nonzero;"/>
                <path d="M38.527,-1.504C38.719,-1.24 38.965,-1.028 39.266,-0.868C39.566,-0.709 39.936,-0.629 40.373,-0.629C40.82,-0.629 41.225,-0.736 41.59,-0.95C41.954,-1.164 42.287,-1.445 42.588,-1.791C42.889,-2.137 43.158,-2.525 43.395,-2.953C43.632,-3.382 43.846,-3.81 44.037,-4.238C44.083,-4.339 44.146,-4.414 44.229,-4.464C44.311,-4.514 44.402,-4.539 44.502,-4.539C44.657,-4.539 44.782,-4.484 44.878,-4.375C44.974,-4.266 45.021,-4.147 45.021,-4.02C45.021,-3.974 45.017,-3.935 45.008,-3.903C44.999,-3.871 44.985,-3.837 44.967,-3.801C44.338,-2.415 43.652,-1.372 42.909,-0.67C42.166,0.032 41.326,0.392 40.387,0.41C39.785,0.41 39.266,0.294 38.828,0.062C38.391,-0.171 38.031,-0.472 37.748,-0.841C37.465,-1.21 37.256,-1.627 37.119,-2.092C36.982,-2.557 36.914,-3.021 36.914,-3.486C36.914,-3.951 36.971,-4.38 37.085,-4.771C37.199,-5.163 37.363,-5.505 37.577,-5.797C37.791,-6.089 38.047,-6.316 38.343,-6.48C38.639,-6.645 38.965,-6.727 39.32,-6.727C39.53,-6.727 39.737,-6.683 39.942,-6.597C40.147,-6.51 40.332,-6.387 40.496,-6.228C40.66,-6.068 40.792,-5.874 40.893,-5.646C40.993,-5.419 41.043,-5.159 41.043,-4.867C41.043,-4.493 40.979,-4.143 40.852,-3.814C40.724,-3.486 40.549,-3.181 40.325,-2.898C40.102,-2.616 39.835,-2.356 39.525,-2.119C39.215,-1.882 38.883,-1.677 38.527,-1.504ZM38.117,-2.393C38.4,-2.511 38.657,-2.661 38.89,-2.844C39.122,-3.026 39.32,-3.227 39.484,-3.445C39.648,-3.664 39.776,-3.894 39.867,-4.136C39.958,-4.377 40.004,-4.621 40.004,-4.867C40.004,-5.141 39.936,-5.348 39.799,-5.489C39.662,-5.631 39.503,-5.701 39.32,-5.701C39.074,-5.701 38.865,-5.633 38.691,-5.496C38.518,-5.359 38.377,-5.182 38.268,-4.963C38.158,-4.744 38.078,-4.5 38.028,-4.231C37.978,-3.963 37.953,-3.696 37.953,-3.432C37.953,-3.268 37.969,-3.094 38.001,-2.912C38.033,-2.73 38.072,-2.557 38.117,-2.393Z" style="fill:rgb(62,109,235);fill-rule:nonzero;"/>
                <path d="M45.473,-5.619C45.436,-5.373 45.391,-5.143 45.336,-4.929C45.281,-4.715 45.229,-4.528 45.179,-4.368C45.129,-4.209 45.085,-4.079 45.049,-3.979C45.012,-3.878 44.99,-3.824 44.98,-3.814C44.889,-3.605 44.73,-3.5 44.502,-3.5C44.374,-3.5 44.256,-3.548 44.146,-3.644C44.037,-3.739 43.982,-3.86 43.982,-4.006C43.982,-4.061 43.992,-4.102 44.01,-4.129C44.028,-4.156 44.055,-4.211 44.092,-4.293C44.128,-4.375 44.174,-4.512 44.229,-4.703C44.283,-4.895 44.352,-5.191 44.434,-5.592C44.279,-5.592 44.119,-5.596 43.955,-5.605C43.791,-5.615 43.638,-5.646 43.497,-5.701C43.356,-5.756 43.24,-5.842 43.148,-5.961C43.057,-6.079 43.012,-6.243 43.012,-6.453C43.012,-6.608 43.055,-6.818 43.142,-7.082C43.228,-7.346 43.344,-7.606 43.49,-7.861C43.636,-8.117 43.8,-8.338 43.982,-8.524C44.165,-8.711 44.347,-8.805 44.529,-8.805C44.739,-8.805 44.91,-8.727 45.042,-8.572C45.174,-8.417 45.277,-8.228 45.35,-8.005C45.423,-7.782 45.475,-7.547 45.507,-7.301C45.539,-7.055 45.555,-6.84 45.555,-6.658C45.71,-6.658 45.862,-6.66 46.013,-6.665C46.163,-6.67 46.307,-6.672 46.443,-6.672C46.963,-6.672 47.359,-6.558 47.633,-6.33C47.906,-6.102 48.043,-5.729 48.043,-5.209C48.043,-4.999 48.029,-4.781 48.002,-4.553C47.975,-4.325 47.943,-4.09 47.906,-3.849C47.87,-3.607 47.838,-3.368 47.811,-3.131C47.783,-2.894 47.77,-2.661 47.77,-2.434C47.77,-2.105 47.815,-1.834 47.906,-1.62C47.997,-1.406 48.111,-1.235 48.248,-1.107C48.385,-0.98 48.531,-0.891 48.686,-0.841C48.84,-0.791 48.982,-0.766 49.109,-0.766C49.501,-0.766 49.87,-0.893 50.217,-1.148C50.563,-1.404 50.882,-1.711 51.174,-2.071C51.465,-2.431 51.728,-2.812 51.96,-3.213C52.192,-3.614 52.386,-3.965 52.541,-4.266C52.587,-4.348 52.65,-4.411 52.732,-4.457C52.814,-4.503 52.901,-4.525 52.992,-4.525C53.156,-4.525 53.284,-4.473 53.375,-4.368C53.466,-4.263 53.512,-4.147 53.512,-4.02C53.512,-3.928 53.493,-3.846 53.457,-3.773C53.247,-3.4 53.004,-2.978 52.726,-2.509C52.448,-2.039 52.131,-1.6 51.775,-1.189C51.42,-0.779 51.021,-0.433 50.579,-0.15C50.137,0.132 49.652,0.273 49.123,0.273C48.795,0.273 48.485,0.212 48.193,0.089C47.902,-0.034 47.649,-0.212 47.435,-0.444C47.22,-0.677 47.049,-0.964 46.922,-1.306C46.794,-1.647 46.73,-2.033 46.73,-2.461C46.73,-2.917 46.776,-3.37 46.867,-3.821C46.958,-4.272 47.004,-4.703 47.004,-5.113C47.004,-5.286 46.965,-5.416 46.888,-5.503C46.81,-5.59 46.639,-5.633 46.375,-5.633C46.247,-5.633 46.108,-5.633 45.958,-5.633C45.808,-5.633 45.646,-5.628 45.473,-5.619ZM44.557,-6.631C44.557,-6.695 44.554,-6.779 44.55,-6.884C44.545,-6.989 44.536,-7.091 44.522,-7.191C44.509,-7.292 44.491,-7.378 44.468,-7.451C44.445,-7.524 44.42,-7.561 44.393,-7.561C44.365,-7.561 44.331,-7.526 44.29,-7.458C44.249,-7.39 44.206,-7.308 44.16,-7.212C44.115,-7.116 44.074,-7.014 44.037,-6.904C44.001,-6.795 43.973,-6.704 43.955,-6.631L44.557,-6.631Z" style="fill:rgb(62,109,235);fill-rule:nonzero;"/>
                <path d="M55.686,-1.217C55.822,-1.49 55.998,-1.83 56.212,-2.235C56.426,-2.641 56.649,-3.049 56.882,-3.459C57.114,-3.869 57.342,-4.257 57.565,-4.621C57.789,-4.986 57.978,-5.264 58.133,-5.455C58.397,-5.774 58.671,-6.002 58.953,-6.139C59.236,-6.275 59.495,-6.344 59.732,-6.344C59.969,-6.344 60.172,-6.294 60.341,-6.193C60.509,-6.093 60.648,-5.959 60.758,-5.79C60.867,-5.621 60.949,-5.425 61.004,-5.202C61.059,-4.979 61.086,-4.74 61.086,-4.484C61.086,-4.339 61.079,-4.147 61.065,-3.91C61.052,-3.673 61.038,-3.418 61.024,-3.145C61.011,-2.871 60.997,-2.589 60.983,-2.297C60.97,-2.005 60.958,-1.732 60.949,-1.477C61.086,-1.75 61.241,-2.053 61.414,-2.386C61.587,-2.718 61.763,-3.049 61.94,-3.377C62.118,-3.705 62.289,-4.013 62.453,-4.3C62.617,-4.587 62.768,-4.822 62.904,-5.004C63.296,-5.542 63.663,-5.902 64.005,-6.084C64.347,-6.266 64.65,-6.357 64.914,-6.357C65.224,-6.357 65.479,-6.3 65.68,-6.187C65.88,-6.073 66.037,-5.927 66.151,-5.749C66.265,-5.571 66.345,-5.373 66.391,-5.154C66.436,-4.936 66.459,-4.726 66.459,-4.525C66.459,-4.215 66.436,-3.892 66.391,-3.555C66.345,-3.217 66.322,-2.816 66.322,-2.352C66.322,-2.16 66.331,-1.969 66.35,-1.777C66.368,-1.586 66.407,-1.417 66.466,-1.271C66.525,-1.126 66.618,-1.007 66.746,-0.916C66.874,-0.825 67.047,-0.779 67.266,-0.779C67.503,-0.779 67.735,-0.841 67.963,-0.964C68.191,-1.087 68.41,-1.249 68.619,-1.449C68.829,-1.65 69.027,-1.878 69.214,-2.133C69.401,-2.388 69.572,-2.643 69.727,-2.898C69.882,-3.154 70.018,-3.397 70.137,-3.63C70.255,-3.862 70.351,-4.061 70.424,-4.225C70.469,-4.325 70.533,-4.402 70.615,-4.457C70.697,-4.512 70.788,-4.539 70.889,-4.539C71.044,-4.539 71.169,-4.482 71.265,-4.368C71.36,-4.254 71.408,-4.133 71.408,-4.006C71.408,-3.942 71.395,-3.878 71.367,-3.814C71.331,-3.742 71.258,-3.589 71.148,-3.356C71.039,-3.124 70.893,-2.86 70.711,-2.563C70.529,-2.267 70.317,-1.955 70.075,-1.627C69.834,-1.299 69.567,-0.996 69.275,-0.718C68.984,-0.44 68.669,-0.212 68.332,-0.034C67.995,0.144 67.639,0.232 67.266,0.232C66.865,0.232 66.539,0.162 66.288,0.021C66.037,-0.121 65.837,-0.31 65.687,-0.547C65.536,-0.784 65.434,-1.057 65.379,-1.367C65.324,-1.677 65.297,-2.001 65.297,-2.338C65.297,-2.785 65.32,-3.197 65.365,-3.575C65.411,-3.953 65.434,-4.247 65.434,-4.457C65.434,-4.685 65.413,-4.858 65.372,-4.977C65.331,-5.095 65.281,-5.179 65.222,-5.229C65.162,-5.28 65.105,-5.307 65.051,-5.312C64.996,-5.316 64.955,-5.318 64.928,-5.318C64.709,-5.318 64.479,-5.198 64.237,-4.956C63.996,-4.715 63.747,-4.393 63.492,-3.992C63.237,-3.591 62.975,-3.135 62.706,-2.625C62.437,-2.115 62.166,-1.595 61.893,-1.066C61.738,-0.775 61.608,-0.533 61.503,-0.342C61.398,-0.15 61.298,0 61.202,0.109C61.106,0.219 61.013,0.296 60.922,0.342C60.831,0.387 60.73,0.41 60.621,0.41C60.384,0.41 60.204,0.328 60.081,0.164C59.958,0 59.896,-0.214 59.896,-0.479C59.896,-0.615 59.901,-0.798 59.91,-1.025C59.919,-1.253 59.928,-1.504 59.938,-1.777C59.947,-2.051 59.96,-2.333 59.979,-2.625C59.997,-2.917 60.01,-3.197 60.02,-3.466C60.029,-3.735 60.038,-3.974 60.047,-4.184C60.056,-4.393 60.061,-4.553 60.061,-4.662C60.061,-4.899 60.02,-5.07 59.938,-5.175C59.855,-5.28 59.76,-5.332 59.65,-5.332C59.55,-5.332 59.438,-5.296 59.315,-5.223C59.192,-5.15 59.049,-5.008 58.885,-4.799C58.757,-4.635 58.595,-4.396 58.399,-4.081C58.203,-3.767 57.996,-3.418 57.777,-3.035C57.559,-2.652 57.342,-2.26 57.128,-1.859C56.914,-1.458 56.729,-1.098 56.574,-0.779C56.383,-0.396 56.191,-0.134 56,0.007C55.809,0.148 55.622,0.219 55.439,0.219C55.175,0.219 54.979,0.139 54.852,-0.021C54.724,-0.18 54.66,-0.392 54.66,-0.656C54.66,-0.684 54.667,-0.848 54.681,-1.148C54.694,-1.449 54.71,-1.816 54.729,-2.249C54.747,-2.682 54.767,-3.145 54.79,-3.637C54.813,-4.129 54.833,-4.589 54.852,-5.018C54.861,-5.245 54.852,-5.455 54.824,-5.646C54.797,-5.838 54.76,-5.952 54.715,-5.988C54.642,-5.97 54.498,-5.801 54.284,-5.482C54.07,-5.163 53.799,-4.607 53.471,-3.814C53.425,-3.714 53.357,-3.637 53.266,-3.582C53.174,-3.527 53.079,-3.5 52.979,-3.5C52.824,-3.5 52.701,-3.552 52.609,-3.657C52.518,-3.762 52.473,-3.883 52.473,-4.02C52.473,-4.083 52.486,-4.152 52.514,-4.225C52.924,-5.2 53.316,-5.918 53.689,-6.378C54.063,-6.838 54.428,-7.068 54.783,-7.068C54.993,-7.068 55.168,-7.021 55.31,-6.925C55.451,-6.829 55.563,-6.706 55.645,-6.556C55.727,-6.405 55.786,-6.234 55.822,-6.043C55.859,-5.852 55.877,-5.665 55.877,-5.482C55.877,-4.671 55.856,-3.928 55.815,-3.254C55.774,-2.579 55.731,-1.9 55.686,-1.217Z" style="fill:rgb(62,109,235);fill-rule:nonzero;"/>
                <path d="M80.992,-3.814C80.956,-3.742 80.881,-3.589 80.767,-3.356C80.653,-3.124 80.507,-2.857 80.329,-2.557C80.151,-2.256 79.944,-1.941 79.707,-1.613C79.47,-1.285 79.206,-0.984 78.914,-0.711C78.622,-0.438 78.308,-0.212 77.971,-0.034C77.633,0.144 77.278,0.232 76.904,0.232C76.376,0.232 75.931,0.064 75.571,-0.273C75.211,-0.611 74.949,-1.035 74.785,-1.545C74.475,-1.025 74.106,-0.613 73.678,-0.308C73.249,-0.002 72.821,0.15 72.393,0.15C72.055,0.15 71.75,0.089 71.477,-0.034C71.203,-0.157 70.971,-0.33 70.779,-0.554C70.588,-0.777 70.44,-1.039 70.335,-1.34C70.23,-1.641 70.178,-1.969 70.178,-2.324C70.178,-3.035 70.299,-3.662 70.54,-4.204C70.782,-4.746 71.089,-5.2 71.463,-5.564C71.837,-5.929 72.249,-6.202 72.7,-6.385C73.151,-6.567 73.587,-6.658 74.006,-6.658C74.288,-6.658 74.548,-6.619 74.785,-6.542C75.022,-6.465 75.225,-6.38 75.394,-6.289C75.562,-6.198 75.692,-6.114 75.783,-6.036C75.874,-5.959 75.924,-5.915 75.934,-5.906C76.034,-5.788 76.084,-5.665 76.084,-5.537C76.084,-5.4 76.034,-5.28 75.934,-5.175C75.833,-5.07 75.715,-5.018 75.578,-5.018C75.432,-5.018 75.309,-5.068 75.209,-5.168C75.191,-5.186 75.15,-5.22 75.086,-5.271C75.022,-5.321 74.936,-5.373 74.826,-5.428C74.717,-5.482 74.587,-5.53 74.437,-5.571C74.286,-5.612 74.115,-5.633 73.924,-5.633C73.641,-5.633 73.34,-5.569 73.021,-5.441C72.702,-5.314 72.411,-5.116 72.146,-4.847C71.882,-4.578 71.661,-4.241 71.483,-3.835C71.306,-3.429 71.217,-2.949 71.217,-2.393C71.217,-2.219 71.235,-2.044 71.271,-1.866C71.308,-1.688 71.372,-1.527 71.463,-1.381C71.554,-1.235 71.677,-1.117 71.832,-1.025C71.987,-0.934 72.178,-0.889 72.406,-0.889C72.57,-0.889 72.759,-0.943 72.974,-1.053C73.188,-1.162 73.393,-1.331 73.589,-1.559C73.785,-1.786 73.963,-2.074 74.122,-2.42C74.282,-2.766 74.393,-3.176 74.457,-3.65C74.475,-3.778 74.535,-3.885 74.635,-3.972C74.735,-4.058 74.854,-4.102 74.99,-4.102C75.118,-4.102 75.229,-4.051 75.325,-3.951C75.421,-3.851 75.473,-3.737 75.482,-3.609C75.492,-3.436 75.51,-3.192 75.537,-2.878C75.564,-2.563 75.626,-2.251 75.722,-1.941C75.817,-1.632 75.961,-1.363 76.152,-1.135C76.344,-0.907 76.608,-0.793 76.945,-0.793C77.164,-0.793 77.381,-0.852 77.595,-0.971C77.809,-1.089 78.019,-1.246 78.224,-1.442C78.429,-1.638 78.625,-1.862 78.812,-2.112C78.998,-2.363 79.169,-2.616 79.324,-2.871C79.479,-3.126 79.616,-3.372 79.734,-3.609C79.853,-3.846 79.953,-4.051 80.035,-4.225C80.081,-4.325 80.147,-4.402 80.233,-4.457C80.32,-4.512 80.413,-4.539 80.514,-4.539C80.669,-4.539 80.794,-4.482 80.89,-4.368C80.985,-4.254 81.033,-4.133 81.033,-4.006C81.033,-3.942 81.02,-3.878 80.992,-3.814Z" style="fill:rgb(62,109,235);fill-rule:nonzero;"/>
                <path d="M83.084,-1.23C83.23,-1.531 83.398,-1.862 83.59,-2.222C83.781,-2.582 83.986,-2.946 84.205,-3.315C84.424,-3.685 84.654,-4.051 84.896,-4.416C85.137,-4.781 85.39,-5.127 85.654,-5.455C85.919,-5.774 86.185,-6.004 86.454,-6.146C86.723,-6.287 86.976,-6.357 87.213,-6.357C87.687,-6.357 88.038,-6.184 88.266,-5.838C88.493,-5.492 88.607,-5.063 88.607,-4.553C88.607,-4.434 88.601,-4.291 88.587,-4.122C88.573,-3.953 88.56,-3.773 88.546,-3.582C88.532,-3.391 88.519,-3.197 88.505,-3.001C88.491,-2.805 88.484,-2.62 88.484,-2.447C88.484,-2.229 88.496,-2.019 88.519,-1.818C88.541,-1.618 88.585,-1.442 88.648,-1.292C88.712,-1.142 88.803,-1.023 88.922,-0.937C89.04,-0.85 89.195,-0.807 89.387,-0.807C89.733,-0.807 90.07,-0.941 90.398,-1.21C90.727,-1.479 91.03,-1.798 91.308,-2.167C91.586,-2.536 91.827,-2.912 92.032,-3.295C92.237,-3.678 92.39,-3.988 92.49,-4.225C92.536,-4.325 92.602,-4.402 92.688,-4.457C92.775,-4.512 92.868,-4.539 92.969,-4.539C93.124,-4.539 93.249,-4.482 93.345,-4.368C93.44,-4.254 93.488,-4.133 93.488,-4.006C93.488,-3.942 93.475,-3.878 93.447,-3.814C93.411,-3.742 93.338,-3.591 93.229,-3.363C93.119,-3.135 92.976,-2.873 92.798,-2.577C92.62,-2.281 92.413,-1.966 92.176,-1.634C91.939,-1.301 91.677,-0.998 91.39,-0.725C91.103,-0.451 90.793,-0.223 90.46,-0.041C90.127,0.141 89.779,0.232 89.414,0.232C89.004,0.232 88.671,0.153 88.416,-0.007C88.161,-0.166 87.96,-0.376 87.814,-0.636C87.669,-0.896 87.571,-1.183 87.521,-1.497C87.47,-1.812 87.445,-2.128 87.445,-2.447C87.445,-2.584 87.452,-2.739 87.466,-2.912C87.479,-3.085 87.498,-3.268 87.521,-3.459C87.543,-3.65 87.562,-3.842 87.575,-4.033C87.589,-4.225 87.596,-4.407 87.596,-4.58C87.596,-4.872 87.55,-5.07 87.459,-5.175C87.368,-5.28 87.286,-5.332 87.213,-5.332C87.067,-5.332 86.901,-5.248 86.714,-5.079C86.527,-4.91 86.331,-4.689 86.126,-4.416C85.921,-4.143 85.711,-3.835 85.497,-3.493C85.283,-3.151 85.082,-2.812 84.896,-2.475C84.709,-2.137 84.535,-1.816 84.376,-1.511C84.216,-1.205 84.091,-0.952 84,-0.752C83.818,-0.369 83.635,-0.112 83.453,0.021C83.271,0.153 83.084,0.219 82.893,0.219C82.628,0.219 82.416,0.139 82.257,-0.021C82.097,-0.18 82.018,-0.406 82.018,-0.697C82.018,-0.761 82.027,-0.886 82.045,-1.073C82.063,-1.26 82.086,-1.483 82.113,-1.743C82.141,-2.003 82.168,-2.283 82.195,-2.584C82.223,-2.885 82.25,-3.183 82.277,-3.479C82.305,-3.776 82.327,-4.051 82.346,-4.307C82.364,-4.562 82.373,-4.776 82.373,-4.949C82.373,-5.177 82.364,-5.396 82.346,-5.605C82.327,-5.815 82.291,-5.943 82.236,-5.988C82.154,-5.961 82.008,-5.79 81.799,-5.476C81.589,-5.161 81.32,-4.607 80.992,-3.814C80.947,-3.714 80.878,-3.637 80.787,-3.582C80.696,-3.527 80.6,-3.5 80.5,-3.5C80.345,-3.5 80.222,-3.552 80.131,-3.657C80.04,-3.762 79.994,-3.883 79.994,-4.02C79.994,-4.083 80.008,-4.152 80.035,-4.225C80.445,-5.2 80.83,-5.918 81.19,-6.378C81.55,-6.838 81.908,-7.068 82.264,-7.068C82.473,-7.068 82.651,-7.016 82.797,-6.911C82.943,-6.806 83.059,-6.667 83.146,-6.494C83.232,-6.321 83.296,-6.13 83.337,-5.92C83.378,-5.71 83.398,-5.496 83.398,-5.277C83.398,-5.113 83.387,-4.858 83.364,-4.512C83.341,-4.165 83.312,-3.794 83.275,-3.397C83.239,-3.001 83.205,-2.607 83.173,-2.215C83.141,-1.823 83.111,-1.495 83.084,-1.23Z" style="fill:rgb(62,109,235);fill-rule:nonzero;"/>
            </g>
        </g>
    </g>
</svg>
