<?xml version="1.0" encoding="UTF-8" standalone="no"?>
<!DOCTYPE svg PUBLIC "-//W3C//DTD SVG 1.1//EN" "http://www.w3.org/Graphics/SVG/1.1/DTD/svg11.dtd">
<svg width="100%" height="100%" viewBox="0 0 98 61" version="1.1" xmlns="http://www.w3.org/2000/svg" xmlns:xlink="http://www.w3.org/1999/xlink" xml:space="preserve" xmlns:serif="http://www.serif.com/" style="fill-rule:evenodd;clip-rule:evenodd;stroke-linejoin:round;stroke-miterlimit:1.41421;">
    <g id="Artboard1" transform="matrix(0.959678,0,0,0.89319,2.20156,-14.8926)">
        <rect x="-2.294" y="16.674" width="101.443" height="68.011" style="fill:none;"/>
        <g transform="matrix(1.04202,0,0,1.11958,-3.43031,-9.37275)">
            <path d="M22.9,82.8C34.036,82.8 43.2,73.636 43.2,62.5C43.194,61.911 43.057,61.33 42.8,60.8L29.3,33L38,33C39.651,37.788 44.186,44.021 49.25,44.021C54.314,44.021 58.849,37.788 60.5,33L70.7,33L57.2,60.7C56.943,61.23 56.806,61.811 56.8,62.4C56.8,73.536 65.964,82.7 77.1,82.7C88.236,82.7 97.4,73.536 97.4,62.4C97.394,61.811 97.257,61.23 97,60.7L80.7,27.3C80.045,25.905 78.641,25.008 77.1,25L60.4,25C55.283,25.174 52.034,36.045 49.3,36C46.321,35.951 43.869,24.979 38.1,25L22.9,25C21.382,24.989 19.983,25.844 19.3,27.2L3,60.7C2.743,61.23 2.606,61.811 2.6,62.4C2.6,62.433 2.6,62.467 2.6,62.5C2.6,73.636 11.764,82.8 22.9,82.8C22.9,82.8 22.9,82.8 22.9,82.8ZM22.9,74.8C17.673,74.787 13,71.443 11.3,66.5L34.5,66.5C32.8,71.443 28.127,74.787 22.9,74.8ZM77.2,74.8C71.973,74.787 67.3,71.443 65.6,66.5L88.8,66.5C87.088,71.477 82.363,74.829 77.1,74.8L77.2,74.8ZM87,58.5L67.2,58.5L77.1,38.2L87,58.5ZM22.9,38.2L32.8,58.5L13,58.5L22.9,38.2Z" style="fill-rule:nonzero;"/>
        </g>
    </g>
</svg>
